<?xml version="1.0" encoding="UTF-8" standalone="no"?>
<!DOCTYPE svg PUBLIC "-//W3C//DTD SVG 1.1//EN" "http://www.w3.org/Graphics/SVG/1.1/DTD/svg11.dtd">
<svg width="100%" height="100%" viewBox="0 0 48 48" version="1.1" xmlns="http://www.w3.org/2000/svg" xmlns:xlink="http://www.w3.org/1999/xlink" xml:space="preserve" xmlns:serif="http://www.serif.com/" style="fill-rule:evenodd;clip-rule:evenodd;stroke-linejoin:round;stroke-miterlimit:2;">
    <g>
        <rect x="3" y="6" width="24" height="32" style="fill:rgb(0,87,133);"/>
        <g transform="matrix(0.916667,0,0,0.9375,1.25,1.375)">
            <rect x="3" y="6" width="24" height="32" style="fill:rgb(251,255,222);"/>
        </g>
        <g transform="matrix(1,0,0,1,-0.314725,1)">
            <path d="M8.003,24.784C8.118,21.02 11.209,18 15,18C18.791,18 21.882,21.02 21.997,24.784L8.003,24.784ZM15,10C17.208,10 19,11.792 19,14C19,16.208 17.208,18 15,18C12.792,18 11,16.208 11,14C11,11.792 12.792,10 15,10Z" style="fill:rgb(0,147,211);"/>
        </g>
    </g>
    <path d="M30,14L36,14L33,17L30,14Z" style="fill:rgb(51,51,51);"/>
    <g transform="matrix(1,0,0,1,0,15.1447)">
        <path d="M30,14L36,14L33,17L30,14Z" style="fill:rgb(51,51,51);"/>
    </g>
    <path d="M44,5.5C44,4.12 42.88,3 41.5,3L24.182,3C22.802,3 21.682,4.12 21.682,5.5L21.682,10.5C21.682,11.88 22.802,13 24.182,13L41.5,13C42.88,13 44,11.88 44,10.5L44,5.5Z" style="fill:rgb(155,101,0);"/>
    <g transform="matrix(1,0,0,1,0,15.0821)">
        <path d="M44,5.5C44,4.12 42.88,3 41.5,3L24.182,3C22.802,3 21.682,4.12 21.682,5.5L21.682,10.5C21.682,11.88 22.802,13 24.182,13L41.5,13C42.88,13 44,11.88 44,10.5L44,5.5Z" style="fill:rgb(255,100,229);"/>
    </g>
    <g transform="matrix(1,0,0,1,0,30.2269)">
        <path d="M44,5.5C44,4.12 42.88,3 41.5,3L24.182,3C22.802,3 21.682,4.12 21.682,5.5L21.682,10.5C21.682,11.88 22.802,13 24.182,13L41.5,13C42.88,13 44,11.88 44,10.5L44,5.5Z" style="fill:rgb(255,179,122);"/>
    </g>
</svg>
