<svg viewBox="0 0 48 48" xmlns="http://www.w3.org/2000/svg" fill-rule="evenodd" clip-rule="evenodd" stroke-linejoin="round" stroke-miterlimit="2"><path fill="#005785" d="M3 6h24v32H3z"/><path fill="#fbffde" d="M4 7h22v30H4z"/><path d="M7.688 25.784A7.004 7.004 0 0114.685 19a7.004 7.004 0 016.997 6.784H7.688zM14.685 11c2.208 0 4 1.792 4 4s-1.792 4-4 4-4-1.792-4-4 1.792-4 4-4z" fill="#0093d3"/><path d="M30 14h6l-3 3-3-3zm0 15.145h6l-3 3-3-3z" fill="#333"/><path d="M44 5.5A2.5 2.5 0 0041.5 3H24.182a2.5 2.5 0 00-2.5 2.5v5a2.5 2.5 0 002.5 2.5H41.5a2.5 2.5 0 002.5-2.5v-5z" fill="#9b6500"/><path d="M44 20.582a2.5 2.5 0 00-2.5-2.5H24.182a2.5 2.5 0 00-2.5 2.5v5a2.5 2.5 0 002.5 2.5H41.5a2.5 2.5 0 002.5-2.5v-5z" fill="#ff64e5"/><path d="M44 35.727a2.5 2.5 0 00-2.5-2.5H24.182a2.5 2.5 0 00-2.5 2.5v5a2.5 2.5 0 002.5 2.5H41.5a2.5 2.5 0 002.5-2.5v-5z" fill="#ffb37a"/></svg>