<svg width="381" height="385" viewBox="0 0 381 385" fill="none" xmlns="http://www.w3.org/2000/svg">
<path fill-rule="evenodd" clip-rule="evenodd" d="M346.735 160.904C341.028 201.077 355.342 245.614 331.902 278.725C308.378 311.955 262.701 315.769 225.468 332.206C182.716 351.08 142.237 397.226 98.0727 381.953C53.7917 366.64 47.1145 306.806 28.1054 263.955C13.3064 230.596 -0.45231 197.4 0.0114371 160.904C0.470454 124.781 9.08041 88.6687 30.7004 59.7383C52.1302 31.0622 83.4757 10.2474 118.406 2.47567C151.422 -4.87024 182.314 16.6774 216.088 18.4906C268.349 21.2963 333.839 -22.6387 369.232 15.9417C403.108 52.8678 353.785 111.276 346.735 160.904Z" fill="#ECEBDA"/>
</svg>
