<svg viewBox="0 0 1983 1685" xmlns="http://www.w3.org/2000/svg" fill-rule="evenodd" clip-rule="evenodd" stroke-linejoin="round" stroke-miterlimit="2"><path d="M1218.95 1161.697c-145.013 83.725-145.013 219.473.006 303.198 145.02 83.725 380.136 83.725 525.155 0 145.014-83.725 145.014-219.473-.006-303.198-145.019-83.725-380.135-83.725-525.154 0z" fill="#d7d9d9" fill-rule="nonzero"/><path d="M203.104 1052.256c-145.014 83.725-145.014 219.473.005 303.198 145.02 83.725 380.136 83.725 525.155 0 145.014-83.725 145.014-219.473-.005-303.198-145.02-83.726-380.136-83.726-525.155 0z" fill="#002337" fill-rule="nonzero"/><path d="M698.374 567.924c-2.63-.742-5.725-.9-9.23-.479-15.827 1.905-33.711 15.349-39.952 29.982-4.256 10.002-1.968 17.995 4.91 21.405.563.305 1.126.552 1.73.747 84.468 35.57 216.595 32.065 339.031-87.987l-44.172-45.136c-91.539 89.724-186.719 101.184-252.317 81.468z" fill="#0c2b34" fill-rule="nonzero"/><path d="M1089.622 517.427c.516 4.299-1.094 8.76-4.678 11.723-26.235 21.679-60.836 24.525-90.307 7.44-6.277-3.646-8.424-11.691-4.778-17.98 3.641-6.282 11.692-8.428 17.98-4.782 19.694 11.423 42.82 9.524 60.347-4.951 5.598-4.63 13.89-3.841 18.516 1.757a13.1 13.1 0 012.92 6.793z" fill="#0c2b34" fill-rule="nonzero"/><path d="M942.835 456.201c29.171-16.532 66.224-6.288 82.752 22.889 16.537 29.171 6.287 66.224-22.884 82.757-29.176 16.532-66.23 6.288-82.762-22.889-16.532-29.176-6.282-66.23 22.894-82.757z" fill="#ad6eae" fill-rule="nonzero"/><path d="M972.822 569.75h-.042.042zm.01 0c10.045 0 20.226-2.5 29.608-7.756-9.382 5.257-19.558 7.756-29.608 7.756zm29.682-7.793c.058-.037.126-.073.19-.11 7.171-4.068 13.201-9.371 17.968-15.501-4.767 6.13-10.797 11.433-17.969 15.5-.063.038-.131.074-.19.111z" fill="#c0c1c1" fill-rule="nonzero"/><path d="M920.273 539.532l-.253-.437.253.437zm-.332-.574c-.026-.052-.058-.105-.09-.158.032.053.064.106.09.158zm-.131-.237c-.016-.02-.027-.047-.042-.073l.042.073zm-.095-.168c-.01-.021-.021-.037-.032-.058.01.021.021.037.032.058zm-.095-.168c-.005-.01-.01-.021-.016-.027.006.006.01.016.016.027z" fill="#021e27" fill-rule="nonzero"/><path d="M1025.476 478.89l-.005-.005.005.005z" fill="#c0c1c1" fill-rule="nonzero"/><path d="M972.832 569.75h-.052c-20.937-.016-41.274-10.87-52.507-30.218l-.253-.437a3.161 3.161 0 01-.079-.137c-.026-.052-.058-.105-.09-.158a.575.575 0 00-.041-.079c-.01-.02-.027-.047-.042-.073-.016-.032-.037-.063-.053-.095-.01-.021-.021-.037-.032-.058-.02-.037-.042-.074-.063-.11-.005-.01-.01-.021-.016-.027-6.777-12.28-8.818-25.909-6.771-38.795 2.604 21.216 25.866 35.56 50.08 35.56 13.418 0 27.125-4.41 37.775-14.486 25.93-24.546 14.386-55.59 5.499-62.257 7.708 5.077 14.39 11.95 19.284 20.505l.005.005c.037.068.074.131.11.2 5.362 9.455 7.91 19.747 7.904 29.892 0 4.11-.416 8.198-1.237 12.197a60.87 60.87 0 01-11.58 25.167c-4.768 6.13-10.798 11.433-17.97 15.5-.063.038-.131.074-.19.111-.025.01-.052.027-.073.037-9.382 5.257-19.563 7.756-29.608 7.756z" fill="#9e59a4" fill-rule="nonzero"/><path d="M929.923 508.445c-3.557 0-6.977-2.957-8.256-6.445-1.405-3.863-.405-8.53.695-12.392a36.076 36.076 0 014.667-10.129c.368-.552.71-1.089 1.152-1.594 5.683-6.598 12.45-13.533 21.137-14.075.147-.01.3-.016.452-.016 1.342 0 2.82.384 3.262 1.605.38 1.042-.205 2.157-.757 3.115a160.644 160.644 0 00-13.397 29.744c-1.336 4.005-3.046 8.63-7.077 9.898-.62.195-1.252.29-1.878.29z" fill="#ca92c1" fill-rule="nonzero"/><path d="M1037.084 411.697c.789 6.578-3.484 12.839-10.092 14.37-22.142 5.136-37.69 22.357-40.569 44.94-.926 7.21-7.508 12.308-14.717 11.393-7.203-.927-12.275-7.514-11.386-14.718 4.31-33.79 27.582-59.557 60.731-67.245 7.077-1.636 14.144 2.763 15.785 9.845l.248 1.415z" fill="#0c2b34" fill-rule="nonzero"/><path d="M88.347 508.887c0 226.003 99.542 698.65 334.653 698.65 235.116 0 334.658-472.647 334.658-698.65H88.348z" fill="#ad6eae" fill-rule="nonzero"/><path d="M423 1207.538h.21-.21zm.268 0h.163-.163zm.216 0h.416-.416zm.479 0h.163-.163zm.21 0c.074-.006.142-.006.216-.006-.074 0-.142 0-.216.006zm.216-.006h.21-.21zm.258 0c.058 0 .116 0 .174-.005-.053.005-.116.005-.174.005zm.216-.005c.142 0 .294 0 .436-.005-.157.005-.278.005-.436.005zm.457-.005c47.782-.632 89.924-20.858 126.73-54.543a285.36 285.36 0 0014.243-13.923l.064-.11c17.632-18.496 33.954-40.127 49.002-64.141 0 0-11.634 13.46-30.813 28.629 39.595-84.74 64.652-192.38 74.96-322.509 39.662-22.81 69.944-70.181 89.202-137.784 5.083-41.815 7.956-81.057 8.734-115.543-.347 15.312-1.105 31.56-2.283 48.555-1.395 20.069-3.378 41.184-5.972 63.015-16.19 136.495-56.049 301.404-123.399 418.347a556.483 556.483 0 01-5.34 9.076c-49.982 83.115-114.544 139.863-195.128 140.93zm55.822-61.978c-25.998 0-53.501-8.95-80.3-33.234-102.093-92.512-121.498-362.724-92.7-421.898C345.157 698.205 384.078 702.1 423 702.1c16.606 0 33.196-.71 49.655-2.126 16.238 29.613 45.593 64.367 83.815 82.126 16.737 7.771 40.278 11.507 56.127 11.507 12.454 0 24.504-2.405 35.922-7.209-11.245 135.222-38.664 245.414-82.015 330.091-23.341 15.349-53.196 29.056-85.362 29.056zM608.85 780.63c-15.57 0-31.802-3.473-46.834-10.46-33.286-15.465-59.585-45.383-75.075-71.613 61.02-6.825 119.379-23.51 167.408-50.06-.242 42.951-1.79 83.877-4.646 122.809-11.955 6.203-26.11 9.324-40.853 9.324zm51.866-16.007c2.667-38.805 4.062-79.542 4.177-122.215 52.676-31.786 82.915-71.391 90.724-112.164-11.119 117.51-44.22 199.483-94.901 234.38z" fill="#f2daea" fill-rule="nonzero"/><path d="M757.369 508.887c-9.498 136.227-46.877 228.792-105.951 261.499-24.693 13.68-59.442 13.712-89.402-.216-50.208-23.33-84.51-79.531-89.819-106.366l-12.89 2.546c5.955 30.166 42.488 90.345 97.163 115.749 16.737 7.771 40.278 11.507 56.127 11.507 15.875 0 31.092-3.904 45.193-11.713 40.505-22.42 71.381-70.176 90.918-138.752 6.025-49.576 8.95-95.538 8.95-134.254h-.29z" fill="#ad6eae" fill-rule="nonzero"/><path d="M654.38 636.643c0 236.268-39 412.932-116.132 528.085 9.687-7.693 19.048-16.248 28.045-25.672 65.504-116.653 98.61-284.593 98.61-502.413H654.38z" fill="#ad6eae" fill-rule="nonzero"/><path d="M423.21 1207.538h.058-.058zm.221 0h.053-.053zm.469 0h.063-.063zm.226 0h.047-.047zm.474-.006h.047-.047zm.22-.005h.043-.042zm.48-.005h.02-.02z" fill="#edd6e8" fill-rule="nonzero"/><path d="M423 1207.538c-134.285 0-224.356-154.196-276.895-328.55 3.547.31 7.11.474 10.687.474h.016c20.515 0 41.294-5.225 60.336-16.217 15.475-8.934 25.046-28.087 25.046-55.348 0-54.528-38.274-120.82-85.493-148.082-13.722-7.924-26.687-11.675-38.179-11.675-7.345 0-14.086 1.53-20.042 4.488-6.824-53.202-10.129-102.568-10.129-143.74 0 49.444 32.676 98.894 98.021 136.62 35.644 20.58 77.338 35.55 121.773 44.904-28.797 59.174-9.392 329.386 92.702 421.898 26.798 24.283 54.301 33.234 80.3 33.234 32.165 0 62.02-13.707 85.36-29.056-8.765 17.127-18.184 33.207-28.255 48.24a266.63 266.63 0 0013.802-11.75c-36.806 33.686-78.948 53.912-126.73 54.544h-.02c-.143.005-.295.005-.437.005h-.042c-.058.005-.116.005-.174.005h-.258c-.074 0-.142 0-.216.006H423zm143.357-68.593c6.366-11.35 12.433-23.188 18.19-35.511 19.178-15.17 30.812-28.63 30.812-28.63-15.048 24.015-31.37 45.646-49.002 64.141z" fill="#e6c1dc" fill-rule="nonzero"/><path d="M538.248 1164.728c10.071-15.033 19.49-31.113 28.256-48.24a253.162 253.162 0 0018.042-13.054c-5.756 12.323-11.823 24.162-18.19 35.511a293.798 293.798 0 01-14.306 14.034 266.63 266.63 0 01-13.802 11.749zm121.389-519.219c-130.686 75.453-342.582 75.453-473.269 0-65.345-37.727-98.02-87.177-98.02-136.627 0-49.445 32.67-98.89 98.015-136.616 130.692-75.46 342.582-75.46 473.274 0 65.346 37.727 98.021 87.171 98.021 136.621 0 49.445-32.675 98.895-98.021 136.622z" fill="#ad6eae" fill-rule="nonzero"/><path d="M423 702.099c-85.646 0-171.291-18.864-236.632-56.59 65.32 37.71 150.929 56.564 236.532 56.564 60.326 0 120.642-9.356 173.89-28.072-37.658 11.544-78.536 16.838-118.042 16.838-98.473 0-188.434-32.87-198.805-83.678 32.913 13.86 87.082 24.299 146.54 24.299 83.147 0 176.627-20.416 236.769-80.41 34.29-34.207 47.929-72.097 49.85-108.319 3.562-7.04 6.345-14.18 8.34-21.378 13.97 15.864 23.898 32.612 29.786 49.734a307.266 307.266 0 00-5.972 7.045c-20.373 24.71-14.628 34.954-1.989 44.888 3.978 3.131 8.077 4.673 12.323 4.673.163 0 .326-.006.49-.006-.142.853-.3 1.705-.463 2.558-7.809 40.773-38.048 80.378-90.724 112.164a346.805 346.805 0 01-5.256 3.1 343.077 343.077 0 01-5.288 2.988c-48.03 26.551-106.388 43.236-167.408 50.06a558.403 558.403 0 01-14.286 1.416A579.943 579.943 0 01423 702.1zM88.347 508.882c0-15.017 3.015-30.029 9.04-44.72-6.025 14.691-9.04 29.703-9.04 44.72z" fill="#e1bad8" fill-rule="nonzero"/><path d="M422.9 702.073c-85.603 0-171.212-18.853-236.532-56.564-65.345-37.727-98.02-87.177-98.02-136.627 0-15.017 3.014-30.029 9.039-44.72a122.275 122.275 0 006.367 13.155c.005.005.005.01.005.015.026.037.042.074.063.111l.026.042.058.105c.01.016.021.037.032.053a.851.851 0 00.052.095c.01.02.027.047.037.068.021.042.042.068.063.11.021.037.042.08.069.116.01.021.026.048.037.069.015.031.036.063.052.09a.52.52 0 01.037.068c.021.031.037.063.053.094.01.021.026.042.036.063a.977.977 0 01.058.1c.01.016.021.037.032.053.032.053.058.105.09.158 19.71 34.138 53.564 55.033 89.886 59.547 10.545 9.66 23.11 18.806 37.69 27.224 52.707 30.43 121.788 45.646 190.875 45.646 69.082 0 138.163-15.217 190.87-45.646 44.215-25.53 69.882-57.705 77.006-90.96 9.287-10.239 16.696-20.9 22.22-31.807-1.92 36.222-15.558 74.112-49.85 108.319-60.141 59.994-153.621 80.41-236.768 80.41-59.458 0-113.627-10.44-146.54-24.299 10.371 50.807 100.332 83.678 198.805 83.678 39.506 0 80.384-5.294 118.043-16.838-53.25 18.716-113.565 28.072-173.89 28.072z" fill="#d4a1c9" fill-rule="nonzero"/><path d="M96.23 653.833c-57.822 33.39-77.627 107.329-44.242 165.156 33.386 57.826 107.33 77.637 165.156 44.256 15.475-8.934 25.046-28.087 25.046-55.348 0-54.528-38.274-120.82-85.493-148.082-23.614-13.638-44.993-14.922-60.468-5.982z" fill="#335863" fill-rule="nonzero"/><path d="M150.389 849.144c-61.863 5.65-106.483-43.915-113.644-105.804-3.23 25.315 1.484 51.845 15.228 75.649 33.386 57.826 107.329 77.637 165.156 44.256 15.474-8.934 25.046-28.087 25.046-55.348 0-11.134-1.668-22.762-4.61-34.438-.084 34.57-20.931 69.64-87.176 75.685z" fill="#23434c" fill-rule="nonzero"/><path d="M86.416 759.578c-18.91-10.918-34.238-2.068-34.238 19.763 0 21.837 15.327 48.387 34.238 59.3 18.906 10.918 34.233 2.068 34.233-19.768 0-21.831-15.327-48.377-34.233-59.295z" fill="#0c2b34" fill-rule="nonzero"/><path d="M64.496 772.233c0 21.83 15.327 48.382 34.238 59.3 6.293 3.63 12.165 5.03 17.232 4.535 2.957-4.14 4.683-9.929 4.683-17.195 0-21.831-15.327-48.377-34.233-59.295-6.293-3.636-12.17-5.035-17.232-4.535-2.962 4.135-4.688 9.923-4.688 17.19z" fill="#ad6eae" fill-rule="nonzero"/><path d="M120.65 818.747v-.021.02z" fill="#2b4f58" fill-rule="nonzero"/><path d="M113.967 836.163c-2.579 0-5.336-.463-8.23-1.431a188.914 188.914 0 014.104-10.197c1.048-2.526 1.574-5.578 1.574-9.103 0-2.347-.242-4.762-.695-7.209 2.894-1.31 5.357-3.467 7.13-6.63 1.768 5.751 2.768 11.534 2.8 17.022v.258c0 7.266-1.727 13.054-4.684 17.195-.652.063-1.32.095-2 .095z" fill="#a463a9" fill-rule="nonzero"/><path d="M109.841 824.535c1.048-2.526 1.574-5.578 1.574-9.103 0-15.949-11.203-35.312-24.994-43.257-9.418-5.414-17.626-4.099-21.83 2.315a9.99 9.99 0 00-.953 1.631c-45.409 79.61-57.721 211.212 46.83 347.123l50.092-38.463c-78.138-101.605-78.138-197.479-50.72-260.246z" fill="#0c2b34" fill-rule="nonzero"/><path d="M113.204 1219.008c-4.33 0-8.566-2.13-11.082-6.045-18.379-28.635-17.074-63.33 3.415-90.545 4.368-5.803 12.613-6.966 18.422-2.594 5.803 4.367 6.966 12.613 2.594 18.422-13.691 18.19-14.57 41.373-2.29 60.505 3.926 6.114 2.153 14.254-3.966 18.174a13.08 13.08 0 01-7.093 2.083z" fill="#0c2b34" fill-rule="nonzero"/><path d="M191.54 1080.593c12.929 30.939-1.673 66.503-32.617 79.426-30.939 12.928-66.498-1.673-79.426-32.618-12.928-30.939 1.673-66.498 32.618-79.431 30.939-12.923 66.503 1.678 79.426 32.623z" fill="#ad6eae" fill-rule="nonzero"/><path d="M135.545 1164.728zm23.378-4.71zm.2-.083l.132-.053a.98.98 0 01-.132.053zm.216-.09c.01-.005.026-.01.037-.016-.01.006-.027.01-.037.016z" fill="#c0c1c1" fill-rule="nonzero"/><path d="M135.545 1164.728c-23.757 0-46.32-14.033-56.048-37.327-12.928-30.939 1.673-66.498 32.618-79.431a60.336 60.336 0 0123.283-4.678c5.677 0 11.292.8 16.674 2.331-33.217.079-55.916 51.686-31.423 84.709 11.413 15.38 25.962 20.279 38.19 20.279 10.57 0 19.4-3.662 22.962-7.382-5.909 6.982-13.449 12.765-22.425 16.6-.01.006-.027.01-.037.016-.027.01-.058.026-.084.037l-.132.053c-.016.01-.032.015-.047.02-.048.022-.1.043-.153.064l-.184.079a60.54 60.54 0 01-23.194 4.63z" fill="#9e59a4" fill-rule="nonzero"/><path d="M180.738 1089.674c-.915 0-1.794-.61-2.552-1.178a160.588 160.588 0 00-27.929-16.854c-3.815-1.81-8.203-4.062-8.982-8.213-.805-4.289 3.073-8.324 7.325-9.324.841-.195 1.71-.284 2.583-.284 3.283 0 6.714 1.226 9.634 2.452a36.247 36.247 0 019.498 5.846c.505.431 1.005.841 1.447 1.33 5.867 6.436 11.95 13.981 11.45 22.674-.085 1.447-.611 3.173-2.026 3.499a1.88 1.88 0 01-.448.052z" fill="#ca92c1" fill-rule="nonzero"/><path d="M224.458 1179.487c-6.624 0-12.328-4.998-13.06-11.739-2.446-22.599-17.69-40.094-39.773-45.65-7.04-1.774-11.318-8.925-9.545-15.97 1.779-7.046 8.93-11.287 15.97-9.545 33.033 8.319 55.837 34.501 59.505 68.33.784 7.224-4.436 13.717-11.66 14.495-.484.053-.958.08-1.437.08z" fill="#0c2b34" fill-rule="nonzero"/><path d="M692.939 405.936c0-39.884-26.357-79.768-79.064-110.202-105.419-60.863-276.331-60.863-381.745 0-52.707 30.428-79.063 70.312-79.063 110.202v49.36c0 39.884 26.356 79.768 79.063 110.202 105.414 60.863 276.331 60.863 381.745 0 52.707-30.428 79.064-70.318 79.064-110.202v-49.36z" fill="#23434c" fill-rule="nonzero"/><path d="M465.383 609.182c-64.945 1.304-149.312-28.246-127.876-104.525v-246.54c-38.51 7.404-74.722 19.916-105.377 37.617-52.707 30.428-79.063 70.312-79.063 110.202v49.36c0 39.884 26.356 79.768 79.063 110.202 63.525 36.675 150.828 51.213 233.253 43.684z" fill="#0c2b34" fill-rule="nonzero"/><path d="M613.875 516.133c-105.419 60.862-276.331 60.862-381.745 0-52.707-30.43-79.063-70.313-79.063-110.197 0-39.89 26.356-79.774 79.063-110.202 105.414-60.863 276.326-60.863 381.745 0 52.707 30.434 79.064 70.318 79.064 110.202s-26.357 79.768-79.064 110.197zm172.355-37.48l-11.692-10.597c11.292-12.46 24.251-31.665 21.852-52.428-1.79-15.464-12.065-29.766-30.545-42.52-26.514-18.311-51.228-29.161-68.37-35.275-1.49-6.114-4.494-15.901-5.3-18.448 17.69 5.414 48.577 17.206 82.642 40.726 22.388 15.46 34.922 33.528 37.248 53.707 3.078 26.64-12.35 49.96-25.836 64.835z" fill="#0c2b34" fill-rule="nonzero"/><path d="M791.012 458.595c-15.248-11.975-25.388-5.172-45.756 19.537-20.373 24.71-14.628 34.954-1.989 44.888 12.644 9.94 26.488 3.883 42.405-16.864 17.9-23.33 23.488-33.301 5.34-47.56z" fill="#ad6eae" fill-rule="nonzero"/><path d="M757.385 517.948c-.069 0-.143-.005-.211-.005-4.625-.085-8.955-2.473-12.386-5.583-1.684-1.526-3.22-3.278-4.125-5.367-1.926-4.483-.605-9.718 1.604-14.065 3.352-6.598 8.577-12.018 13.723-17.337 1.679-1.726 3.352-3.452 5.02-5.178 1.4-1.447 2.8-2.883 4.188-4.33.768-.79 1.526-1.631 2.473-2.215 1.1-.69 3.015-1.5 4.667-1.5 1.095 0 2.079.358 2.626 1.347.332.605.379 1.315.374 2.005-.074 12.475-13.134 21.594-14.544 33.99-.552 4.889.79 9.856.153 14.734-.142 1.11-.453 2.31-1.368 2.957-.626.442-1.421.547-2.194.547z" fill="#ca92c1" fill-rule="nonzero"/><path d="M725.267 393.576C725.26 226.652 589.934 91.33 423 91.33c-166.93 0-302.25 135.317-302.267 302.246-.005 44.667 29.503 89.34 88.535 123.42 118.042 68.155 309.428 68.155 427.47 0 59.031-34.08 88.54-78.748 88.529-123.42z" fill="#ad6eae" fill-rule="nonzero"/><path d="M458.233 547.161c-79.463.005-139.605-28.518-142.1-83.362-3.193-70.202-39.436-128.74-86.634-155.921 4.767-110.566 78.132-198.1 157.4-214.28l-.042-.042c-128.408 15.317-232.122 111.08-259.21 235.474v.005C157.218 193.114 278.223 91.33 423 91.33c166.934 0 302.261 135.322 302.267 302.246.01 44.588-29.387 89.176-88.203 123.23 13.549-7.845 25.467-16.27 35.896-25.104l12.165-11.191.431-.448c-73.385 45.22-157.758 67.093-227.323 67.098zM389.314 300.76c-26.998 0-50.328 19.29-54.732 46.377-4.652 28.618-7.462 56.332-9.12 81.025-1.978 29.435 19.6 55.46 48.962 58.295a505.62 505.62 0 0048.644 2.337c75.001 0 149.992-16.517 207.203-49.566 57.2-33.039 85.809-76.296 85.85-119.574-13.617-54.143-41.82-102.477-80.215-140.588.016 23.03-11.05 46.072-33.285 66.177-.006-.016-.016-.027-.022-.042-7.729 6.993-16.795 13.628-27.224 19.784l.016.031c-.595.353-1.19.695-1.789 1.042-7.146 4.125-14.675 7.898-22.52 11.313l-.016-.047c-18.443 8.034-38.606 14.127-59.684 18.242.005.01.005.021.005.032-22.147 4.33-45.288 6.493-68.419 6.493-9.74 0-19.479-.384-29.144-1.153a59.031 59.031 0 00-4.51-.178zm247.424 216.237l.3-.174-.3.174z" fill="#f2daea" fill-rule="nonzero"/><path d="M637.038 516.822c.005-.005.02-.01.026-.016a.115.115 0 01-.026.016z" fill="#605378" fill-rule="nonzero"/><path d="M423.005 568.114c-26.582 0-53.164-2.016-79-6.036-35.438-5.52-69.476-14.822-100.2-27.913a121.262 121.262 0 0025.904-11.182c14.086-8.129 23.278-24.725 24.82-48.197.147-2.32.226-4.704.226-7.15v-.275c-.126-54.47-38.353-120.594-85.498-147.807-13.717-7.925-26.688-11.676-38.18-11.676-8.287 0-15.8 1.947-22.283 5.693a121.493 121.493 0 00-21.147 15.459c27.088-124.393 130.802-220.157 259.21-235.474l.042.042c-79.268 16.18-152.633 103.714-157.4 214.28 47.198 27.182 83.44 85.719 86.635 155.921 2.494 54.844 62.636 83.367 142.099 83.362 69.565-.005 153.938-21.878 227.323-67.098l-.431.448-12.165 11.191c-10.43 8.835-22.347 17.259-35.896 25.104-.005.005-.021.01-.026.016l-.3.174c-59.021 34.075-136.38 51.118-213.733 51.118z" fill="#deb4d4" fill-rule="nonzero"/><path d="M716.122 319.653c-13.618-54.143-41.82-102.477-80.216-140.588.027 31.491-20.684 62.999-62.304 86.992-49.055 28.314-116.027 39.942-179.778 34.88-28.866-2.288-54.596 17.617-59.242 46.199-4.652 28.618-7.462 56.332-9.12 81.025-1.978 29.435 19.6 55.46 48.962 58.295 90.254 8.724 186.218-7.008 255.847-47.23 57.2-33.038 85.809-76.295 85.85-119.573z" fill="#335863" fill-rule="nonzero"/><path d="M450.356 413.244a13.3 13.3 0 01-2.515-.242c-7.13-1.373-11.792-8.276-10.413-15.406 5.414-28.003 30.06-48.324 58.616-48.324a59.658 59.658 0 0149.497 26.314c4.073 6.02 2.489 14.196-3.536 18.263-6.014 4.073-14.201 2.479-18.263-3.535a33.392 33.392 0 00-27.698-14.733c-15.975 0-29.766 11.355-32.786 27.008-1.216 6.288-6.725 10.655-12.902 10.655z" fill="#ad6eae" fill-rule="nonzero"/><path d="M450.356 413.244a13.3 13.3 0 01-2.515-.242c-6.293-1.215-10.666-6.735-10.655-12.917 0-.821.079-1.658.242-2.49 5.414-28.002 30.06-48.323 58.616-48.323 1.405 0 2.799.047 4.188.147a1328.12 1328.12 0 013.546 27.067 33.48 33.48 0 00-7.734-.905c-15.975 0-29.766 11.355-32.786 27.008-1.216 6.288-6.725 10.655-12.902 10.655z" fill="#ca92c1" fill-rule="nonzero"/><path d="M692.365 256.476c-19.563 8.392-33.77 26.856-35.948 48.918-.716 7.23 4.567 13.67 11.797 14.38.852.09 1.7.09 2.52.011 6.15-.568 11.234-5.425 11.865-11.802 1.237-12.555 9.487-22.957 20.742-27.52-3.304-8.186-6.993-16.174-10.976-23.987z" fill="#ad6eae" fill-rule="nonzero"/><path d="M669.508 319.843c-.432 0-.863-.021-1.294-.068-6.778-.663-11.845-6.367-11.86-13.034 0-.447.02-.894.063-1.347 2.178-22.062 16.385-40.526 35.948-48.918 3.983 7.813 7.672 15.8 10.976 23.988-11.255 4.562-19.505 14.964-20.742 27.519-.631 6.377-5.714 11.234-11.865 11.802-.405.037-.816.058-1.226.058z" fill="#ca92c1" fill-rule="nonzero"/><path d="M575.391 265.015l-.016-.031c10.429-6.156 19.495-12.791 27.224-19.784.006.015.016.026.022.042-7.725 6.982-16.807 13.622-27.23 19.773z" fill="#f4deec" fill-rule="nonzero"/><path d="M637.138 435.054c-13.812-65.35-35.843-122.34-61.747-170.039 10.423-6.15 19.505-12.79 27.23-19.773 34.443 56.769 55.485 118.963 67.692 165.14-9.56 8.66-20.62 16.922-33.175 24.672z" fill="#496972" fill-rule="nonzero"/><path d="M491.387 295.597c0-.01 0-.021-.005-.032 21.078-4.115 41.241-10.208 59.684-18.242l.016.047c-18.438 8.035-38.622 14.112-59.695 18.227z" fill="#f4deec" fill-rule="nonzero"/><path d="M512.287 480.758a1364.39 1364.39 0 00-8.509-104.272 33.403 33.403 0 0119.964 13.828c2.536 3.762 6.687 5.793 10.912 5.793 2.537 0 5.094-.732 7.351-2.258 3.768-2.541 5.793-6.687 5.793-10.912a13.09 13.09 0 00-2.257-7.351c-10.345-15.317-27.056-24.893-45.309-26.167-2.615-18.442-5.572-36.437-8.845-53.822 21.073-4.115 41.257-10.192 59.695-18.227 22.92 60.915 38.163 126.035 47.829 177.516-26.688 11.591-55.996 20.237-86.624 25.872z" fill="#496972" fill-rule="nonzero"/><path d="M534.654 396.107c-4.225 0-8.376-2.031-10.912-5.793a33.403 33.403 0 00-19.964-13.828 1328.12 1328.12 0 00-3.546-27.067c18.253 1.274 34.964 10.85 45.309 26.167a13.091 13.091 0 012.257 7.35c0 4.226-2.025 8.372-5.793 10.913a13.079 13.079 0 01-7.35 2.258z" fill="#d09bc6" fill-rule="nonzero"/><path d="M44.443 255.26c10.166 10.166 10.166 26.65 0 36.817-10.166 10.165-26.65 10.165-36.816 0-10.166-10.166-10.166-26.651 0-36.817 10.165-10.166 26.65-10.166 36.816 0z" fill="#ad6eae" fill-rule="nonzero"/><path d="M3.596 286.873a25.882 25.882 0 01-3.33-16.88 25.998 25.998 0 003.33 16.88z" fill="#a5a7a8" fill-rule="nonzero"/><path d="M26.032 299.696a25.955 25.955 0 01-18.416-7.646 25.705 25.705 0 01-4.02-5.177 25.998 25.998 0 01-1.226-24.025c.11.631.263 1.3.447 1.93 1.779 5.61 7.988 8.925 15.375 8.925 2.663 0 5.472-.427 8.287-1.332 10.492-3.351 17.117-12.128 14.85-19.684 1.115.747 2.12 1.6 3.083 2.568 10.197 10.192 10.197 26.64.036 36.795a25.946 25.946 0 01-18.416 7.646z" fill="#8e5098" fill-rule="nonzero"/><path d="M40.723 279.18c-3.999 1.068-8.108 5.178-9.176 9.177-.537 1.999-.21 3.588.747 4.551l110.723 110.718 12.98-12.98-110.722-110.72c-.957-.957-2.551-1.284-4.55-.747z" fill="#0c2b34" fill-rule="nonzero"/><path d="M10.91 262.043c-.958 0-1.815-.258-2.342-1.042-.836-1.253-.105-2.947.784-4.157a17.468 17.468 0 014.757-4.441c2.805-1.778 6.193-2.6 9.503-2.894a19.051 19.051 0 011.631-.068c3.362 0 6.477.926 9.245 2.473 1.152.647 2.652 1.547 3.562 2.973.705 1.115 1.026 2.81-.579 3.846-.968.631-2.673.726-3.825.805-6.672.463-13.48.174-19.916 2.01-.878.252-1.894.495-2.82.495z" fill="#ca92c1" fill-rule="nonzero"/><path d="M148.794 313.57c-57.816 33.397-77.626 107.33-44.24 165.157 33.385 57.827 107.329 77.637 165.155 44.256 15.475-8.934 25.046-28.087 25.046-55.348 0-54.522-38.274-120.82-85.498-148.081-23.61-13.634-44.993-14.923-60.463-5.983z" fill="#335863" fill-rule="nonzero"/><path d="M202.975 508.887c-61.863 5.646-106.483-43.92-113.65-105.808-3.225 25.314 1.485 51.844 15.228 75.648 33.386 57.827 107.33 77.637 165.156 44.256 15.475-8.934 25.046-28.087 25.046-55.348 0-11.134-1.668-22.757-4.609-34.438-.079 34.57-20.926 69.64-87.171 75.69z" fill="#23434c" fill-rule="nonzero"/><path d="M138.981 419.316c-18.91-10.918-34.238-2.068-34.238 19.764 0 21.836 15.327 48.387 34.238 59.3 18.906 10.918 34.233 2.067 34.233-19.764 0-21.83-15.327-48.381-34.233-59.3z" fill="#0c2b34" fill-rule="nonzero"/><path d="M117.06 431.97c0 21.837 15.328 48.383 34.239 59.3 6.288 3.631 12.165 5.031 17.232 4.536 2.957-4.14 4.683-9.928 4.683-17.19 0-21.83-15.327-48.381-34.233-59.3-6.293-3.63-12.165-5.03-17.232-4.535-2.963 4.14-4.688 9.923-4.688 17.19z" fill="#ad6eae" fill-rule="nonzero"/><path d="M173.214 478.485v-.016.016z" fill="#2b4f58" fill-rule="nonzero"/><path d="M166.532 495.901c-4.589 0-9.756-1.468-15.233-4.63-.032-.021-.063-.037-.095-.058.032.021.063.037.095.058 5.477 3.162 10.644 4.63 15.233 4.63.678 0 1.347-.031 2-.095 2.935-4.104 4.656-9.834 4.682-17.021-.026 7.187-1.747 12.917-4.683 17.021-.652.064-1.32.095-2 .095zm-15.386-4.72zm-.105-.063c-.01-.005-.021-.01-.026-.016a.078.078 0 00.026.016z" fill="#05252d" fill-rule="nonzero"/><path d="M166.532 495.901c-4.589 0-9.756-1.468-15.233-4.63-.032-.021-.063-.037-.095-.058l-.058-.032a.158.158 0 00-.042-.02c-.02-.016-.042-.027-.063-.043-.01-.005-.021-.01-.026-.016-15.307-8.981-28.214-28.171-32.465-46.73 3.83 12.876 22.167 25.205 36.6 25.205 6.378 0 11.997-2.41 15.265-8.24 1.778 5.788 2.783 11.607 2.799 17.132v.316c-.026 7.187-1.747 12.917-4.683 17.021-.652.064-1.32.095-2 .095z" fill="#a463a9" fill-rule="nonzero"/><path d="M517.09 16.776c-38.757-22.378-85.03-22.367-123.777 0l-65.22 37.653C232.562 109.583 173.22 212.372 173.22 322.684c0 1.558 1.026 3.11 3.078 4.294 4.115 2.373 10.776 2.373 14.886 0 2.057-1.184 3.083-2.742 3.083-4.299 0-102.815 55.312-198.615 144.351-250.018l65.22-37.658c32.154-18.58 70.555-18.574 102.73-.005 30.482 17.6 49.319 48.392 51.213 83.172l.116 4.857c10.013 4.92 21.089 11.607 21.089 11.607V123.98c0-44.75-23.141-84.83-61.894-107.203z" fill="#0c2b34" fill-rule="nonzero"/><path d="M176.108 337.396c-15.87-9.166-31.123-13.012-44.604-11.686a119.88 119.88 0 00-7.398 6.708 43.924 43.924 0 0112.518-1.82c11.244 0 23.793 3.81 36.853 11.35 46.42 26.798 84.178 92.201 84.178 145.803 0 20.684-5.678 36.921-16.028 47.045 3.2-.89 6.367-1.952 9.519-3.12 7.63-10.966 11.77-25.909 11.77-43.925 0-55.275-38.942-122.72-86.808-150.355z" fill="#ad6eae" fill-rule="nonzero"/><path d="M241.627 534.796c10.35-10.124 16.028-26.361 16.028-47.045 0-53.602-37.759-119.005-84.178-145.803-13.06-7.54-25.609-11.35-36.853-11.35a43.93 43.93 0 00-12.518 1.82 119.88 119.88 0 017.398-6.708 54.108 54.108 0 015.257-.253c12.138 0 25.509 3.947 39.347 11.94 47.866 27.634 86.808 95.079 86.808 150.354 0 18.016-4.14 32.96-11.77 43.925-3.152 1.168-6.32 2.23-9.519 3.12z" fill="#ca92c1" fill-rule="nonzero"/><path d="M1378.066 1380.886l-51.007-92.117-106.856 63.988 115.485 135.016s63.946-3.63 74.875-33.98c10.934-30.34-16.711-61.92-32.497-72.907z" fill="#f48a8f" fill-rule="nonzero"/><path d="M1436.95 1425.795c5.694 4.304 9.072 9.298 12.697 15.249 3.62 5.946 1.116 33.875 4.23 47.03 3.105 13.154 5.815 16.748 11.26 33.312 6.041 18.353 17.996 35.416 1.48 81.104-16.744 46.298-40.574 66.709-60.527 77.127-10.492 5.483-23.688 4.599-23.688 4.599s-25.004-10.808-20.4-25.678c4.599-14.875 74.949-232.743 74.949-232.743z" fill="#0c2b34" fill-rule="nonzero"/><path d="M1322.897 1471.488c.484 4.804 6.819 12.455 9.345 16.48 8.529 13.539 11.891 31.465 14.343 47.109 11.602 74.054-19.29 109.986 18.911 139.336 11.108 7.735 34.927 6.861 73.138-37.7 19.521-22.763 32.292-70.84 26.13-93.165-6.161-22.33-15.333-37.106-19.179-54.238-3.851-17.132.021-48.55-8.634-63.515-5.089-8.782-13.718-15.19-21.995-20.768-6.803-4.578-14.433-15.527-21.389-19.92-7.519-4.752-10.67-9.188-15.5-4.22l7.766 10.57c12.044 18.416.91 25.493.163 34.964-.779 9.877 2.03 20.495 3.383 30.43-8.624-11.977-11.897-22.242-21.973-20.932-9.434 1.226-11.25.763-26.188 13.533-14.948 12.77-18.747 17.769-18.321 22.036z" fill="#ad6eae" fill-rule="nonzero"/><path d="M1378.098 1678.117c-5.257 0-9.445-1.504-12.602-3.704 3.157 2.2 7.345 3.704 12.602 3.704 9.587 0 22.725-5.009 39.663-19.926-16.938 14.922-30.076 19.926-39.663 19.926zm-12.713-3.788s-.005-.005-.01-.005c.005 0 .005.005.01.005zm-.105-.084c-.005 0-.01-.006-.016-.01.006.004.011.01.016.01zm-.116-.085c0-.005-.005-.005-.005-.005s.005 0 .005.006zm-.436-.347c-.006-.005-.01-.005-.016-.01.005.005.01.01.016.01zm-.1-.073c-.01-.01-.021-.016-.032-.027.01.006.021.016.032.027zm-.095-.08zm-.089-.068c-15.049-12.018-18.79-25.177-18.785-41.615.005-16.343 3.72-35.927 3.715-60.847-.005-10.934-.726-22.888-2.789-36.053-.884-5.641-1.883-11.582-3.21-17.501 25.12-10.502 66.962-27.971 100.537-41.873.316 5.035.79 9.692 1.673 13.607 3.583 15.97 11.797 29.892 17.885 49.792-1.915-6.262-4.046-11.923-6.177-17.253.236 1.494.61 3.03.757 4.314.31 2.863.553 5.736.69 8.614.547 11.07-.048 23.072-5.194 33.128-4.572 8.934-15.19 31.365-27.54 31.365h-.052c-7.004-.037-12.592-7.145-14.912-15.085-.984-3.357-2.447-12.34-2.447-12.34s-18.4 3.079-32.691 11.608c-18.453 11.008-17.922 13.66-17.922 13.66.558 4.078 1.047 10.986-.147 15.743-1.205 4.767-4.294 12.412-7.398 15.343-1.495 1.42-3.1 2.51-4.72 3.447-.058 16.569 3.589 29.855 18.727 41.946zm101.883-116.511c-.005-5.098-.505-9.697-1.563-13.533 1.058 3.836 1.558 8.435 1.563 13.533zm-2.82-17.869z" fill="#7b4381" fill-rule="nonzero"/><path d="M1365.496 1674.413c-.037-.026-.074-.058-.11-.084.036.032.073.058.11.084zm-.121-.09l-.095-.078.095.079zm-.11-.089c-.037-.026-.069-.047-.1-.073a1.2 1.2 0 01.1.073zm-.106-.079c-.147-.115-.29-.226-.431-.342.142.116.284.227.431.342zm-.447-.352c-.026-.021-.058-.042-.084-.063.026.02.058.042.084.063zm-.116-.09zm-.105-.084a.29.29 0 00-.047-.037c.015.01.031.021.047.037z" fill="#a5a7a8" fill-rule="nonzero"/><path d="M1417.761 1658.191c6.409-5.651 13.365-12.718 20.873-21.478 16.17-18.848 27.703-55.06 27.693-79.632.01 24.573-11.523 60.784-27.693 79.637-7.508 8.755-14.464 15.827-20.873 21.473zm47.003-114.643zm-1.278-4.398l-.016-.048.016.047z" fill="#011721" fill-rule="nonzero"/><path d="M1378.098 1678.117c-5.257 0-9.445-1.504-12.602-3.704a1.189 1.189 0 01-.11-.084c-.006 0-.006-.005-.011-.005l-.095-.08c-.005 0-.01-.005-.016-.01a1.214 1.214 0 00-.1-.073c0-.006-.005-.006-.005-.006-.147-.115-.29-.226-.431-.342-.006 0-.01-.005-.016-.01-.026-.021-.058-.042-.084-.063a.158.158 0 00-.032-.027.496.496 0 00-.063-.052.292.292 0 01-.042-.032.29.29 0 00-.047-.037c-15.138-12.091-18.785-25.377-18.727-41.946 1.62-.937 3.225-2.026 4.72-3.447 3.104-2.93 6.193-10.576 7.398-15.343 1.194-4.757.705-11.665.147-15.743 0 0-.531-2.652 17.922-13.66 14.29-8.53 32.691-11.607 32.691-11.607s1.463 8.982 2.447 12.339c2.32 7.94 7.908 15.048 14.912 15.085h.052c12.35 0 22.968-22.43 27.54-31.365 5.146-10.056 5.74-22.058 5.194-33.128a142.792 142.792 0 00-.69-8.614c-.147-1.284-.52-2.82-.757-4.314 2.13 5.33 4.262 10.991 6.177 17.253l.016.047c.005.021.01.042.02.063.432 1.416.848 2.857 1.258 4.336 1.058 3.836 1.558 8.435 1.563 13.533.01 24.573-11.523 60.784-27.693 79.632-7.508 8.76-14.464 15.827-20.873 21.478-16.938 14.917-30.076 19.926-39.663 19.926z" fill="#532758" fill-rule="nonzero"/><path d="M1346.585 1535.077c3.605 22.978 3.105 42.267 1.858 58.847 5.866 19.1 11.796 18.816 13.06 9.124 1.262-9.74-9.83-50.697-17.933-84.52 1.216 5.61 2.184 11.213 3.015 16.549zm50.108-115.549c1.515-9.102 6.509-23.272 1.494-31.812-1.726-.91-3.341-1.8-4.62-2.61-7.524-4.751-10.67-9.187-15.5-4.22l7.766 10.571c12.044 18.416.91 25.493.163 34.964-.779 9.877 2.03 20.495 3.383 30.424 5.993 32.197 12.323 43.151 14.449 73.407 2.126 30.25-4.841 50.191-.668 52.09 4.167 1.9 12.912-1.115 15.59-25.16 2.678-24.042-6.077-65.052-12.691-84.6-6.62-19.547-11.487-40.262-9.366-53.054z" fill="#23434c" fill-rule="nonzero"/><path d="M1410.637 1574.045a2.999 2.999 0 01-1.574.768c-21.326 3.368-32.823 8.146-49.402 25.936-1.168 1.168-3.026 1.278-4.241.152a3.008 3.008 0 01-.158-4.246c17.527-18.79 30.187-24.204 52.865-27.777a3.014 3.014 0 013.436 2.5 3.015 3.015 0 01-.926 2.667zm-2.642-25.267a3.165 3.165 0 01-1.542.779c-22.078 4.036-34.496 9.66-52.086 28.387-1.32 1.352-3.12 1.3-4.362.142a3.095 3.095 0 01-.136-4.362c18.563-19.716 32.07-25.95 55.48-30.24a3.09 3.09 0 013.588 2.48 3.092 3.092 0 01-.942 2.814zm1.815-27.603a3.384 3.384 0 01-1.7.847c-24.35 4.467-38.836 11.287-58.22 31.923-1.216 1.342-3.436 1.437-4.81.148a3.4 3.4 0 01-.142-4.81c20.41-21.689 36.143-29.218 61.952-33.948a3.406 3.406 0 013.957 2.736 3.407 3.407 0 01-1.037 3.104zm-2.904-23.788a3.283 3.283 0 01-1.668.831c-23.878 4.362-37.89 10.902-56.943 31.176-1.21 1.289-3.362 1.41-4.704.147a3.33 3.33 0 01-.147-4.714c19.99-21.279 35.296-28.54 60.6-33.165a3.336 3.336 0 012.862 5.725zm-7.593-23.389a3.283 3.283 0 01-1.668.832c-23.878 4.383-37.869 10.897-56.942 31.186a3.351 3.351 0 01-4.71.142 3.328 3.328 0 01-.136-4.71c20.02-21.294 35.285-28.539 60.594-33.18a3.349 3.349 0 013.878 2.684 3.343 3.343 0 01-1.016 3.046z" fill="#e5e5e4" fill-rule="nonzero"/><path d="M1468.642 1055.21s-169.539-33.591-304.545-10.16c-98.005 17.016-89.034 96.537-71.48 145.56 34.685 96.859 194.121 249.397 194.121 249.397s73.833-31.939 89.45-80.6l-40.458-85.46 121.757 34.674 13.386-17.374-2.23-236.037z" fill="#335863" fill-rule="nonzero"/><path d="M1257.751 1411.036c17.459 17.932 28.987 28.971 28.987 28.971s73.833-31.939 89.45-80.6l-16.49-34.832-101.947 86.461zm55.885-210.249c25.983 36.259 42.4 63.246 52.77 81.894l-30.67-8.735c-36.749-80.505-44.504-104.061-100.384-140.594 0 0 39.7 13.576 78.284 67.435z" fill="#23434c" fill-rule="nonzero"/><path d="M1330.49 1394.909l-62.59 51.165-35.395 22.21 36.696 78.184 117.563-56.285-56.274-95.274z" fill="#f48a8f" fill-rule="nonzero"/><path d="M1089.012 1508.09c-26.798 10.565-43.341 21.199-55.717 37.373-12.376 16.175-16.153 32.56-4.399 52.155 11.755 19.595 33.365 42.599 59.016 41.1 25.656-1.5 41.447-7.893 65.251-20.8l-64.151-109.829z" fill="#0c2b34" fill-rule="nonzero"/><path d="M1303.118 1530.757c.379 8.024-33.465 24.035-68.624 40.81-37.68 17.98-46.956 29.681-77.721 44.82-35.149 17.295-48.503 18.295-75.785 10.718-27.283-7.577-60.937-46.625-37.49-82.536 19.105-29.271 43.862-37.311 81.43-47.198 38.832-10.213 59.506-17.37 87.877-28.393 27.13-10.539 49.487-29.47 55.096-22.904-3.873 1.884-25.499 21.747-26.888 24.162-1.4 2.415-4.077 7.403 2.905 4.52 3.041-1.258 8.014-2.61 11.17-1.052 3.19 1.568 14.328 18.452 17.922 26.924 2.1 4.951 9.187 21.389 5.267 28.477-1.51 2.725-11.77 10.118-8.313 12.149 1.841 1.084 8.434-.521 10.47-1.368 2.442-1.02 5.457-1.69 7.946-2.61 2.357-.873 8.529-3.625 14.738-6.52z" fill="#ad6eae" fill-rule="nonzero"/><path d="M1107.844 1631.603c-7.993 0-16.038-1.536-25.893-4.235 9.855 2.694 17.905 4.235 25.893 4.235zm23.614-9.739c-3.94 0-7.33-.8-9.597-2.81-10.84-9.629 14.76-24.988 14.76-24.988s3.898-24.067-25.152-59.479c-1.778 1.384-5.551 2.247-9.671 2.252-7.535 0-16.243-2.904-16.054-10.892.284-12.27 35.443-27.482 35.949-27.708-21.405 5.73-38.459 10.981-52.67 20.29 14.974-9.824 33.075-15.15 55.906-21.158 38.831-10.213 59.505-17.37 87.876-28.393 23.268-9.04 43.03-24.256 51.723-24.256 1.442 0 2.573.42 3.373 1.352-3.873 1.884-25.499 21.747-26.888 24.162-.689 1.19-1.683 3-1.689 4.188-.005.716.348 1.205 1.337 1.205.72 0 1.768-.258 3.257-.873 2.068-.853 5.025-1.752 7.703-1.752 1.258 0 2.457.2 3.468.7 3.188 1.568 14.327 18.452 17.921 26.924 1.658 3.91 6.42 14.964 6.425 22.941.005 2.131-.332 4.041-1.158 5.536-1.294 2.336-9.019 8.103-9.024 10.98 0 .48.216.88.71 1.169.437.258 1.148.363 2 .363 2.726 0 6.92-1.084 8.471-1.731 2.442-1.02 5.457-1.69 7.946-2.61 2.357-.873 8.529-3.625 14.738-6.52.005.048.005.095.005.143-.026 8.071-33.675 23.988-68.629 40.668-35.27 16.827-45.65 28.16-72.065 41.952-8.008 3.446-21.194 8.345-30.97 8.345z" fill="#7b4381" fill-rule="nonzero"/><path d="M1107.886 1631.603c12.054-.005 23.983-3.51 41.773-11.802-17.79 8.298-29.719 11.797-41.773 11.802zm-25.935-4.235c-.216-.058-.427-.116-.648-.174.221.058.432.116.648.174z" fill="#011721" fill-rule="nonzero"/><path d="M1155.63 1616.944a266.48 266.48 0 006.798-3.425c3.042-1.31 5.337-2.41 6.415-2.952-3.088 1.815-8.55 4.088-12.07 5.82-.384.189-.763.373-1.142.557z" fill="#a5a7a8" fill-rule="nonzero"/><path d="M1045.302 1541.885c7.04-10.113 14.823-17.527 23.72-23.357-8.897 5.84-16.69 13.26-23.72 23.357z" fill="#011721" fill-rule="nonzero"/><path d="M1107.886 1631.603h-.042c-7.988 0-16.038-1.541-25.893-4.235-.216-.058-.427-.116-.648-.174-.105-.031-.21-.058-.315-.09-20.837-5.787-45.383-29.928-45.383-57.005 0-8.382 2.352-17.043 7.893-25.53a117.24 117.24 0 011.205-1.81c.031-.042.057-.084.089-.132.01-.01.016-.02.026-.037.027-.036.048-.073.074-.11a.264.264 0 00.042-.063c.021-.027.042-.058.063-.084.016-.027.042-.058.058-.09.016-.016.032-.042.042-.058.027-.042.053-.073.08-.11.01-.016.015-.032.025-.042.037-.048.069-.095.1-.142v-.006c7.03-10.097 14.823-17.516 23.72-23.357 14.212-9.308 31.266-14.559 52.67-20.289-.505.226-35.664 15.438-35.948 27.708-.19 7.988 8.52 10.892 16.054 10.892 4.12-.005 7.893-.868 9.671-2.252 29.05 35.412 25.151 59.48 25.151 59.48s-25.598 15.358-14.759 24.987c2.268 2.01 5.656 2.81 9.597 2.81 9.777 0 22.963-4.899 30.971-8.345a266.48 266.48 0 01-6.798 3.425l-.005.006c-21.19 10.35-34.386 14.648-47.74 14.653z" fill="#532758" fill-rule="nonzero"/><path d="M1133.184 1591.662c-13.307 4.44-4.178 16.542 15.317 12.617 29.219-5.882 53.48-22.452 85.993-32.712 35.16-16.775 70.97-32.391 68.66-41.279-6.292 2.358-19.747 7.967-19.747 7.967-2.636 1.12-9.429 3.651-9.429 3.651-26.645 11.508-56.122 30.013-84.94 37.822-25.393 6.882-42.536 7.487-55.854 11.934zm-19.774-52.508c12.176-7.045 14.292-13.07 38.18-24.04 23.715-10.898 64.267-34.444 89.223-48.982 7.809-4.283 26.82-19.921 27.088-20.058-4.13-4.71-19.353-.358-34.575 9.245-15.222 9.597-24.504 15.712-39.6 23.567-29.313 17.611-62.746 29.503-79.49 40.284-16.747 10.782-13.006 27.03-.825 19.984z" fill="#23434c" fill-rule="nonzero"/><path d="M1111.606 1535.913l.7 1.079c.252.263 19.3 21.226 22.794 58.958.178 1.857 1.673 3.325 3.33 3.299 1.668-.026 2.873-1.547 2.705-3.4-3.736-40.367-23.704-62.272-24.81-63.456-1.241-1.336-3.162-1.41-4.272-.131-.842.962-.984 2.425-.447 3.651zm23.62-17.243l.62.984c.264.306 23.116 27.903 28.225 69.598.247 1.836 1.757 3.267 3.42 3.188 1.657-.09 2.825-1.657 2.594-3.504-5.425-44.099-28.898-72.37-30.045-73.701-1.215-1.39-3.14-1.526-4.293-.31-.91.957-1.074 2.467-.521 3.745zm52.044 68.098c.51 1.19 1.589 2.052 2.82 2.126 1.673.09 2.984-1.326 2.93-3.168-1.404-42.683-28.891-82.736-30.191-84.125-1.252-1.347-3.162-1.41-4.273-.131-1.11 1.273-.957 3.404.258 4.73.284.316 26.867 39.442 28.13 79.168.015.49.136.963.326 1.4zm21.841-13.954c.505 1.157 1.563 2.015 2.763 2.11 1.694.131 3.025-1.258 2.988-3.1-.81-47.176-30.497-78.557-31.817-79.815-1.326-1.263-3.231-1.189-4.262.163-1.032 1.353-.784 3.51.526 4.73.305.28 28.713 30.54 29.487 74.45.005.515.12 1.015.315 1.462z" fill="#eaebea" fill-rule="nonzero"/><path d="M1237.43 1560.843c.495 1.142 1.531 2 2.726 2.116 1.673.152 3.03-1.21 3.02-3.052-.184-44.399-31.397-78.758-32.802-80.142-1.289-1.3-3.204-1.268-4.267.058-1.068 1.31-.9 3.436.431 4.725.316.326 30.403 33.565 30.566 74.79.005.532.12 1.037.326 1.505z" fill="#e5e5e4" fill-rule="nonzero"/><path d="M1458.024 1053.205l351.201 64.383s34.901 131.665 4.962 209.486c-29.934 77.822-108.334 102.62-145.872 105.525-53.685 4.151-116.022-12.45-116.022-12.45s-30.928 24.204-62.31 36.68c-31.38 12.47-168.728 69.997-168.728 69.997s-55.696-18.01-51.87-86.061l162.42-169.17 26.219-218.39z" fill="#335863" fill-rule="nonzero"/><path d="M1581.365 1374.409s-20.758 30.102-87.987 58.6c-35.696 15.128-149.924 69.387-192.396 82.415 10.839 8.34 20.278 11.402 20.278 11.402s137.343-57.527 168.724-69.997c31.38-12.476 62.31-36.68 62.31-36.68 29.534-25.72 29.07-45.74 29.07-45.74z" fill="#23434c" fill-rule="nonzero"/><path d="M1624.164 1407.269c33.596 5.403 124.067-11.245 153.464-75.007 28.782-62.415 19.08-136.905 12.665-200.993l10.855 2.536 12.507 2.925c8.32 39.327 23.494 130.644.532 190.344-29.934 77.822-108.334 102.62-145.872 105.525-53.685 4.151-116.022-12.45-116.022-12.45l17.848-27.592c-.005-.006 20.2 9.27 54.023 14.712zm-214.811-112.381s13.17-14.233 26.456-29.818c13.291-15.58 34.733-45.11 89.865-42.989 55.138 2.12 161.12 11.665 161.12 11.665s-110.554-18.82-148.718-25.188c-38.174-6.361-63.614-1.936-85.382 17.364-21.773 19.306-60.542 64.094-60.542 64.094l17.2 4.872z" fill="#23434c" fill-rule="nonzero"/><path d="M1490.079 1217.509s-27.646-28.614-25.794-76.527c0 0-13.212 50.318 7.904 86.86l17.89-10.333z" fill="#23434c" fill-rule="nonzero"/><path d="M1518.25 676.516c-41.92 7.735-76.79 18.506-102.11 62.526-24.014 41.73-124.372 216.826-124.372 216.826l116.543 61.142 85.267-146.377 24.672-194.117z" fill="#ad6eae" fill-rule="nonzero"/><path d="M1416.693 1002.624a92.535 92.535 0 01-6.867-3.22c-12.296-6.356-41.462-25.062-67.545-37.585-5.977-2.873-12.628-5.656-18.9-5.656-4.246 0-8.314 1.278-11.881 4.662-.547.52-1.084 1.11-1.274 1.883-.268 1.095.211 2.242.821 3.273l-19.279-10.113s100.358-175.095 124.372-216.826c25.32-44.02 60.19-54.791 102.11-62.526-39.295 26.256-54.849 80.358-60.226 123.936-4.946 40.057-13.48 112.959-17.627 152.212-2.226-2.82-4.778-6.262-7.856-10.63-2.699-3.824-5.456-5.382-7.966-5.382-5.893 0-10.434 8.556-9.719 16.396 1.163 12.786 6.604 24.377 11.287 33.354l-9.45 16.222z" fill="#ddb3d4" fill-rule="nonzero"/><path d="M1459.082 830.975c14.427-119.842 57.947-150.555 79.715-157.31l86.93-9.167c25.793 5.283 133.7 48.787 163.593 59.169 19.242 6.682 27.519 47.55 31.65 111.57 3.356 52.007 3.877 95.585 2.157 167.482-1.442 60.252-2.92 128.892-21.321 212.643-138.805 28.766-292.264-34.649-362.393-170.281 3.894-16.664 5.667-37.527 8.63-79.068 2.962-41.542 7.129-102.594 11.039-135.038z" fill="#0c2b34" fill-rule="nonzero"/><path d="M1800.075 726.482l-92.886-42.226s-11.723 27.282-36.87 79.616c-25.14 52.338-26.05 76.1-28.392 167.44-2.346 91.338.127 288.67-10.75 325.734 40.243 5.603 173.76-3.973 197.937-18.848 0 0 2.231-149.46 5.62-242.825 3.383-93.37 11.04-242.504-34.66-268.891z" fill="#ad6eae" fill-rule="nonzero"/><path d="M1664.327 1258.666c-13.639 0-25.215-.516-33.15-1.62 4.184-14.25 6.388-52.17 7.657-98.658 58.042 14.859 105.945 17.816 121.762 18.105.237.006.473.01.705.01 17.016 0 26.02-11.59 41.473-47.876 7.466-17.521 18.874-47.971 30.355-82.446-2.468 88.54-4.015 192.017-4.015 192.017a27.613 27.613 0 01-2.873 1.515c-6.293 2.9-16.68 5.578-29.555 7.946-36.548 6.735-93.06 11.007-132.36 11.007zm20.042-217.91l-43.773-1.994c.337-40.71.605-79.163 1.331-107.45.916-35.696 1.61-61.074 3.62-81.868v.005c6.636-53.828 23.715-74.164 36.917-74.164 6.92 0 12.77 5.577 15.501 14.848 27.388-41.005 30.697-76.71 30.697-94.127 0-.695-.005-1.358-.016-1.994l71.429 32.47c-20.11 11.607-51.518 45.43-71.418 130.065l-41.32 171.87-2.968 12.339z" fill="#ce98c5" fill-rule="nonzero"/><path d="M1586.39 676.532c-36.959 14.39-64.046 55.448-72.78 112.233-8.735 56.785-17.386 172.502-23.516 215.364-6.124 42.857-29.76 106.14-29.76 106.14-16.743-10.634-34.538-47.503-35.29-73.523 9.081-26.114 10.754-38.842 14.37-74.564 3.603-35.722 13.227-118.153 18.61-161.73 5.377-43.578 20.931-97.68 60.226-123.936 38.842-8.666 67.73-9.834 67.73-9.834l.41 9.85z" fill="#ad6eae" fill-rule="nonzero"/><path d="M1489.831 1005.934c-5.972-7.099-11.281-14.896-17.716-21.6-17.906-18.663-21.358-18.537-31.718-31.67 4.146-39.253 12.68-112.155 17.627-152.212 5.377-43.578 20.931-97.68 60.226-123.936a474 474 0 0134.906-6.414 163.454 163.454 0 00-5.761 3.562c-19.51 12.623-53.233 52.955-61.936 85.499 3.893-3.31 7.324-4.894 10.292-4.894 9.808 0 14.585 17.248 14.575 46.435 0 4.72-.127 9.745-.38 15.064-7.45 60.805-14.585 151.513-19.852 188.36a255.1 255.1 0 01-.263 1.806z" fill="#ce98c5" fill-rule="nonzero"/><path d="M1509.631 821.546c5.057-41.789 28.819-116.537 74.08-131.775 2.679-5.657 2.679-13.239 2.679-13.239l-.41-21.689s-19.07 6.193-38.585 18.821c-19.51 12.623-53.233 52.955-61.936 85.499 19.584-16.643 27.36 10.407 24.172 62.383z" fill="#ad6eae" fill-rule="nonzero"/><path d="M1509.631 821.546c.458-7.482.69-14.449.695-20.842.01-29.187-4.767-46.435-14.575-46.435-2.968 0-6.399 1.584-10.292 4.894 8.703-32.544 42.425-72.876 61.936-85.499 14.701-9.513 29.145-15.375 35.38-17.69l-1.49 34.68c-43.682 17.043-66.687 89.855-71.654 130.892z" fill="#ddb3d4" fill-rule="nonzero"/><path d="M1702.375 634.643c7.692-28.634 39.526-56.264 54.97-80.405 14.895-23.272 24.177-41.547 24.935-64.677.442-13.707-6.394-32.98-16.133-37.811 16.48-49.534-19.295-76.627-39.016-83.341-7.561-2.573-20.068-6.635-27.177-10.429-10.534-5.625-12.176-14.685-20.31-23.036-14.002-14.37-39.621-17.09-51.244 1.558-8.898-14.07-22.679-15.033-38.943-12.497-15.506 2.415-23.91 14.575-23.688 28.682-20.105-13.897-41.01-.747-44.141 11.555-2.315 9.076-1.084 17.027-7.898 24.709-7.666 8.655-20.49 7.282-23.673-.595-3.435 12.876.732 23.33 14.991 23.952-5.561 6.624-7.719 15.795-6.061 24.625 2.246 11.965 13.317 19.926 22.741 21.02.826 7.325.51 13.934 4.436 20.553 3.772 6.361 8.845 12.796 15.275 16.643 20.515 12.275 43.961 17.853 66.645 24.83 8.976 2.762 17.953 5.53 26.924 8.293 1.568.478 9.819 1.767 10.671 3.283l56.696 103.088z" fill="#0c2b34" fill-rule="nonzero"/><path d="M1741.19 600.342c-21.61 10.281-34.222-4.257-34.222-4.257l-3.273 58.879-.237 47.935s-58.142 62.088-136.9 58.358c-3.988-17.685 1.758-48.771 14.444-63.999l1.952-45.43s-20.979-1.605-34.475-4.814c-22.515-5.283-40.095-25.167-44.267-50.498-4.362-26.466-2.242-68.855 6.298-99.278 2.184-7.772 3.578-15.78 3.504-23.852-.19-21.431 4.799-33.423 11.97-50.728 27.025-17.854 88.072-18.406 139.106 19.636-9.298 31.629.81 58.353 23.083 72.85-1.915 8.597-5.083 30.48 9.26 31.423 10.33.678 12.24-12.176 23.894-22.563 11.892-10.602 36.633-11.107 44.599 6.588 11.15 24.746-1.052 58.484-24.736 69.75z" fill="#f48a8f" fill-rule="nonzero"/><path d="M1582.954 651.828c36.595-.842 64.472-2.184 85.808-26.624 13.381-15.333 25.872-40.842 25.872-40.842s-6.74 31.707-20.605 52.312c-10.691 15.875-34.39 27.698-91.596 27.22l.52-12.066z" fill="#c2686a" fill-rule="nonzero"/><path d="M1607.021 509.776c-.737 5.82 3.21 11.108 8.808 11.808 5.61.7 10.755-3.457 11.502-9.277.737-5.824-3.204-11.112-8.808-11.812-5.609-.695-10.755 3.457-11.502 9.281zm11.339-30.755l19.569 15.554c4.235-5.661 3.278-13.738-2.126-18.032-5.404-4.293-13.218-3.183-17.443 2.478zm-94.659-6.877l24.983-3.199c-.626-6.987-6.73-11.939-13.633-11.05-6.898.88-11.981 7.257-11.35 14.25zm.284 24.689c-.747 5.824 3.2 11.112 8.808 11.807 5.604.7 10.755-3.452 11.492-9.277.742-5.824-3.199-11.112-8.808-11.812-5.604-.7-10.75 3.457-11.492 9.282z" fill="#0c2b34" fill-rule="nonzero"/><path d="M1532.946 536.948l33.023 20.631 20.652-67.566c-12.428-6.53-33.78 22.842-53.675 46.935zm72.617 42.694l-43.64 3.062c.53 12.408 10.744 21.784 22.799 20.942 12.054-.847 21.378-11.592 20.841-24.004z" fill="#c2686a" fill-rule="nonzero"/><path d="M1599.47 585.82c1.821.062 3.552.378 5.236.815-2.452 9.203-10.292 16.327-19.979 17.011-2.436.169-4.751-.173-6.967-.779.732-9.844 10.26-17.432 21.71-17.048z" fill="#f69da3" fill-rule="nonzero"/><path d="M1645.548 849.449c10.107-82.025 44.472-86.277 52.417-59.316 29.834-44.672 31.097-83.051 30.634-98.347-8.14-14.096-14.507-25.951-17.216-31.255-3.584-7.02-7.688-5.567-7.688-5.567l-.237 20.82s-4.772 23.884-29.281 54.018c-18 22.126-24.346 50.45-28.63 119.647z" fill="#ad6eae" fill-rule="nonzero"/><path d="M1645.548 849.449c4.283-69.197 10.628-97.521 28.629-119.647 24.509-30.134 29.281-54.017 29.281-54.017l.237-20.821s.353-.121.942-.121c1.42 0 4.215.726 6.746 5.688 2.71 5.304 9.076 17.159 17.216 31.255.037 1.252.063 2.662.063 4.22 0 17.416-3.31 53.122-30.697 94.127-2.73-9.271-8.582-14.848-15.501-14.848-13.202 0-30.281 20.336-36.916 74.164z" fill="#ddb3d4" fill-rule="nonzero"/><path d="M1236.578 872.238l-.169.02 8.203-7.666.01.11c1.858-1.62 4.815-2.214 8.699-1.325l100.836 23.451c8.619 1.979 18.227 10.26 21.457 18.5l73.88 188.482c1.71 4.367 1.232 7.803-.836 9.813l.074.021-8.461 7.898v-.105c-1.847 1.668-4.836 2.294-8.777 1.39l-100.83-23.442c-8.63-1.978-18.238-10.266-21.458-18.506-14.517-37.048-59.38-151.443-73.88-188.486-1.821-4.646-1.158-8.219 1.252-10.155z" fill="#335863" fill-rule="nonzero"/><path d="M1356.156 899.415c4.946 3.593 9.277 8.64 11.24 13.617l73.9 188.423c1.606 4.23 1.316 7.609-.536 9.619l7.956-7.393-.084-.079c2.104-2.02 2.562-5.409.868-9.802l-73.901-188.508c-1.79-4.646-5.762-9.292-10.371-12.897l-9.072 7.02z" fill="#335863" fill-rule="nonzero"/><path d="M1441.265 1101.487l-73.88-188.476c-3.23-8.24-12.833-16.527-21.463-18.506l-100.825-23.446c-8.63-1.978-13.002 3.094-9.772 11.334 14.502 37.043 59.369 151.438 73.875 188.486 3.231 8.235 12.834 16.528 21.463 18.506l100.831 23.441c8.619 1.979 12.997-3.094 9.771-11.339z" fill="#0c2b34" fill-rule="nonzero"/><path d="M1368.863 953.095l-13.822-35.275c-.605-1.541-2.405-3.088-4.015-3.462l-17.422-3.999c-1.61-.368-2.43.584-1.825 2.126 2.715 6.93 11.112 28.34 13.828 35.275.605 1.541 2.404 3.094 4.014 3.462l17.417 3.999c1.61.368 2.436-.579 1.825-2.126z" fill="#335863" fill-rule="nonzero"/><path d="M1354.536 926.407c-1.474-3.751-6.051-7.566-10.224-8.529-4.167-.952-6.361 1.316-4.878 5.062 1.484 3.752 6.052 7.572 10.219 8.53 4.172.957 6.356-1.311 4.883-5.063zm6.751 17.811c-1.474-3.756-6.046-7.571-10.219-8.529-4.167-.957-6.361 1.31-4.883 5.062 1.479 3.746 6.046 7.572 10.219 8.53 4.172.957 6.356-1.31 4.883-5.063z" fill="#0c2b34" fill-rule="nonzero"/><path d="M1259.282 992.332c-9.802-10.945-9.192-12.613-5.251-19.18 3.941-6.566 13.15-17.679 28.73-18.915 10.475-.837 20.999-2.194 26.692 0 5.693 2.189 2.347 14.017-10.929 18.558-20.915 7.156-20.142 12.97-20.142 12.97s19.269-6.572 27.151-7.882c7.882-1.315 22.768.874 31.965 1.31 9.203.442 12.265 11.908-2.625 17.6l16.863.843c11.803.584 16.422 6.324 8.098 14.501-1.978 1.947-4.767 4.246-10.07 5.094 0 0 12.354-1.363 13.059 2.72 2.026 11.697-5.278 15.622-29.455 25.604-23.047 9.518-26.546 22.872-20.853 31.191 0 0-10.197-4.535-19.384-9.497-6.724-3.636-12.56-7.914-10.808-17.985 0 0-13.575 1.752-15.327-6.572-1.752-8.319 1.315-18.39 1.315-18.39s-8.424-3.067-9.029-13.138c-.605-10.071 3.336-15.328 3.336-15.328l-3.336-3.504z" fill="#f48a8f" fill-rule="nonzero"/><path d="M1334.873 996.794c-5.073-.2-9.887-.784-15.217.02-5.436 1.09-9.74 3.842-14.07 6.215-8.582 5.062-17.006 10.418-24.715 16.922 9.492-3.494 18.264-8.14 26.882-13.076 4.3-2.483 8.482-5.267 12.713-6.724 4.414-1.231 9.624-1.89 14.407-3.357zm14.89 20.436c-5.33-.968-11.107-.462-16.337 1.295-5.283 1.626-10.192 4.057-14.97 6.582-9.45 5.246-18.48 11.134-26.688 18.27 10.04-4.163 19.421-9.325 28.798-14.386 9.408-5.046 18.374-10.36 29.197-11.76z" fill="#c2686a" fill-rule="nonzero"/><path d="M1510.152 1121.771c-32.775-7.287-48.26-6.977-85.656-25.009-15.58-7.509-27.266-13.139-37.022-20.72-9.76-7.578-18.574-16.986-24.12-28.34-1.047-2.142-1.768-4.268-3.34-6.057-1.495-1.705-3.19-3.204-4.889-4.672-3.22-2.779-6.625-5.462-9.05-9.098-2.568-3.857-3.81-8.392-5.636-12.618-.847-1.973-1.383-3.988-2.462-5.877-1.094-1.91-2.426-3.673-3.81-5.362-3.578-4.362-7.745-8.66-9.765-14.064-1.884-5.036.878-8.498.878-8.498s-5.424-4.904-7.192-6.677a52.282 52.282 0 01-6.667-8.198c-.763-1.163-1.52-2.557-1.195-3.873.19-.773.727-1.363 1.274-1.883 8.834-8.382 20.757-3.826 30.781.994 26.083 12.523 55.249 31.229 67.545 37.585 12.292 6.361 24.578 9.666 23.489 2.33-1.079-7.334-16.412-26.145-18.459-48.686-1.02-11.182 8.65-23.82 17.685-11.013 17.4 24.683 17.817 19.626 39.574 42.3 14.36 14.963 23.115 35.369 46.135 41.272 23.02 5.904 168.544 18.385 168.544 18.385l46.21-176.958s21.872-109.245 67.07-140.552c46.699 21.257 71.924 55.611 74.839 79.29 5.104 41.472-4.689 78.131-29.635 174.468-21.157 81.726-41.63 132.686-57.116 161.673-19.168 35.875-31.55 31.802-109.286 19.647-57.175-8.945-135.954-32.496-168.724-39.789z" fill="#f48a8f" fill-rule="nonzero"/><path d="M1686.794 1043.992c30.508-4.078 65.967 10.334 65.967 10.334s-26.766-19.374-63.315-19.768l-2.652 9.434zm-360.877-61.015c5.325 5.188 11.05 9.86 16.78 14.475 5.714 4.64 11.56 9.066 17.285 13.633 2.883 2.22 5.677 4.64 8.713 6.814 3.02 2.126 6.067 4.183 9.192 6.067 6.22 3.825 12.544 7.413 19.048 10.592l-9.045-6.21a427.018 427.018 0 01-9.03-6.182c-2.962-2.13-5.966-4.178-8.844-6.398-2.884-2.147-5.657-4.578-8.566-6.872a447.65 447.65 0 00-17.67-13.144l-17.863-12.775zm11.576 25.587c3.341 4.725 7.24 9.33 11.334 13.307 4.088 3.994 8.366 7.756 12.712 11.408 4.378 3.61 8.824 7.119 13.407 10.418 4.567 3.315 9.266 6.456 14.186 9.124-4.415-3.567-8.698-7.256-13.055-10.85l-13.012-10.839-12.986-10.865c-4.273-3.684-8.524-7.683-12.586-11.703z" fill="#c2686a" fill-rule="nonzero"/><path d="M1620.254 1037.83c14.386 17.138 9.714 96.19-.005 115.48 66.22 19.29 122.867 22.862 140.347 23.183 17.474.321 26.514-11.08 42.178-47.866 15.67-36.785 48.75-130.565 63.283-198.936 14.523-68.361 22.3-117.222 7.23-148.077-15.075-30.854-42.173-43.251-73.212-55.132-20.11 11.607-51.518 45.43-71.418 130.065l-44.288 184.209-64.115-2.926z" fill="#ad6eae" fill-rule="nonzero"/><path d="M1761.3 1176.504c-.23 0-.467-.005-.704-.01-17.48-.322-74.128-3.894-140.347-23.184 5.314-10.55 9.119-38.974 9.124-65.367.005-21.873-2.6-42.346-9.119-50.113l64.115 2.926c34.028 5.383 63.31 24.33 63.31 24.33s-13.75-29.129-60.343-36.669l41.321-171.87c19.9-84.635 51.307-118.458 71.418-130.065 31.039 11.88 58.137 24.278 73.212 55.132 5.74 11.75 8.166 26.115 8.166 43.173 0 27.73-6.403 62.578-15.396 104.904-14.533 68.371-47.613 162.151-63.283 198.936-15.454 36.285-24.457 47.877-41.473 47.877z" fill="#ddb3d4" fill-rule="nonzero"/><path d="M1747.678 1065.086s-29.281-18.947-63.31-24.33l2.968-12.339c46.593 7.54 60.342 36.67 60.342 36.67z" fill="#ce99c5" fill-rule="nonzero"/><path d="M1219.103 574.622c-1.404.521-2.815.463-4.214-.168-1.405-.647-2.368-1.668-2.894-3.068l-6.309-16.848c-.526-1.4-.468-2.804.168-4.21.637-1.404 1.658-2.362 3.063-2.888l16.458-6.167c1.405-.526 2.81-.473 4.21.163 1.405.637 2.368 1.663 2.894 3.063l6.314 16.853c.516 1.395.468 2.8-.168 4.204-.642 1.405-1.663 2.373-3.068 2.9l-16.454 6.166zm48.372 105.84c-5.993 2.247-12.144 3.61-18.448 4.073-6.293.468-12.255-.095-17.874-1.694a40.34 40.34 0 01-15.138-8.088c-4.483-3.783-7.882-8.802-10.23-15.048-1.904-5.104-2.772-9.845-2.588-14.202.184-4.362.963-8.508 2.331-12.444a70.656 70.656 0 015.046-11.276c2.005-3.583 3.9-6.982 5.678-10.192 1.773-3.215 3.199-6.408 4.267-9.576 1.073-3.162 1.273-6.22.6-9.166-.263-1.505-.142-2.93.368-4.283.51-1.358 1.468-2.294 2.868-2.82l14.543-5.452c1.41-.526 2.842-.484 4.315.132 1.463.616 2.4 1.647 2.794 3.1 1.605 5.072 2.194 9.833 1.752 14.295-.437 4.452-1.405 8.677-2.9 12.65a72.046 72.046 0 01-5.372 11.291 282.122 282.122 0 00-5.709 10.108c-1.72 3.184-2.983 6.21-3.809 9.066-.82 2.857-.737 5.614.268 8.303 1.816 4.841 5.352 8.061 10.608 9.666 5.256 1.594 11.265 1.131 18.027-1.405 10.85-4.062 16.79-12.48 17.837-25.235.11-1.637.384-2.941.826-3.91.437-.968 1.484-1.757 3.147-2.378l15.496-5.809c1.152-.431 2.288-.42 3.399.037 1.12.458 1.915 1.32 2.394 2.6 1.547 4.503 1.884 9.586 1.005 15.221-.863 5.641-2.8 11.166-5.788 16.575-2.994 5.42-7.009 10.445-12.028 15.09-5.03 4.652-10.924 8.24-17.685 10.771z" fill="#ad6eae" fill-rule="nonzero"/><path d="M1244.797 684.693c-4.752 0-9.298-.616-13.644-1.852a40.34 40.34 0 01-15.138-8.088c-4.483-3.783-7.882-8.802-10.23-15.048-1.74-4.662-2.614-9.03-2.614-13.07.005-.38.01-.753.026-1.132.184-4.362.963-8.508 2.331-12.444a70.656 70.656 0 015.046-11.276c2.005-3.583 3.9-6.982 5.678-10.192 1.773-3.215 3.199-6.408 4.267-9.576.663-1.952.994-3.862.99-5.73 0-1.163-.132-2.31-.39-3.436a8.938 8.938 0 01-.137-1.526c0-.952.168-1.868.505-2.757.51-1.358 1.468-2.294 2.868-2.82l14.543-5.452a5.607 5.607 0 011.968-.363c.774 0 1.552.164 2.347.495 1.463.616 2.4 1.647 2.794 3.1 1.257 3.961 1.889 7.734 1.894 11.322a30.82 30.82 0 01-.142 2.973c-.437 4.452-1.405 8.677-2.9 12.65a72.046 72.046 0 01-5.372 11.291 282.122 282.122 0 00-5.709 10.108c-1.72 3.184-2.983 6.21-3.809 9.066a13.7 13.7 0 00-.558 3.82c0 1.52.28 3.015.826 4.483 1.816 4.841 5.352 8.061 10.608 9.666 2.036.616 4.178.926 6.435.926 3.583 0 7.446-.773 11.592-2.33 10.85-4.063 16.79-12.482 17.837-25.236.11-1.637.384-2.941.826-3.91.437-.968 1.484-1.757 3.147-2.378l15.496-5.809a4.704 4.704 0 011.668-.316c.584 0 1.162.116 1.73.353 1.121.458 1.916 1.32 2.395 2.6.989 2.883 1.484 6.008 1.484 9.36a38.747 38.747 0 01-.48 5.861c-.862 5.641-2.798 11.166-5.787 16.575-2.994 5.42-7.009 10.445-12.028 15.09-5.03 4.652-10.924 8.24-17.685 10.771-5.993 2.247-12.144 3.61-18.448 4.073a57.467 57.467 0 01-4.23.158zm-27.598-109.718a5.577 5.577 0 01-2.31-.521c-1.405-.647-2.368-1.668-2.894-3.068l-6.309-16.848a5.422 5.422 0 01-.358-1.905c0-.768.18-1.536.526-2.304.637-1.405 1.658-2.363 3.063-2.889l16.458-6.167a5.45 5.45 0 011.91-.357c.769 0 1.537.173 2.3.52 1.405.637 2.368 1.663 2.894 3.063l6.314 16.853a5.52 5.52 0 01.352 1.9c0 .768-.173 1.536-.52 2.304-.642 1.405-1.663 2.373-3.068 2.9l-16.454 6.166a5.536 5.536 0 01-1.904.353z" fill="#c085ba" fill-rule="nonzero"/><path d="M1295.962 322.726a78.189 78.189 0 0120.105-9.813c7.13-2.289 14.154-3.299 21.068-3.004 6.925.284 13.486 1.983 19.684 5.098 6.204 3.115 11.524 7.94 15.96 14.496 3.62 5.346 5.93 10.56 6.924 15.628 1.005 5.077 1.263 10.07.778 14.975a83.794 83.794 0 01-2.673 14.396 3533.492 3533.492 0 00-3.71 13.328c-1.157 4.194-1.914 8.266-2.256 12.207-.363 3.947.268 7.525 1.852 10.734.726 1.652.984 3.326.773 5.03-.21 1.705-1.052 3.052-2.525 4.047l-15.238 10.318c-1.468 1-3.136 1.347-4.994 1.047-1.862-.3-3.225-1.226-4.088-2.789-3.263-5.403-5.262-10.723-5.988-15.985-.731-5.251-.795-10.376-.184-15.38a85.316 85.316 0 013.057-14.496 359.209 359.209 0 003.767-13.228c1.09-4.146 1.716-7.972 1.868-11.497.147-3.51-.72-6.677-2.62-9.482-3.441-5.083-8.403-7.808-14.901-8.187-6.499-.379-13.292 1.826-20.369 6.62-11.37 7.697-15.88 19.042-13.538 34.022.331 1.926.379 3.51.142 4.73-.242 1.242-1.226 2.436-2.963 3.615l-16.248 10.997c-1.2.82-2.504 1.12-3.92.905-1.41-.216-2.568-.994-3.473-2.326-3.036-4.767-4.84-10.518-5.398-17.258-.563-6.74.12-13.633 2.068-20.705 1.941-7.061 5.162-13.97 9.655-20.721 4.499-6.75 10.292-12.523 17.385-17.322zm85.13 108.482c1.473-.995 3.104-1.32 4.898-.979 1.795.348 3.19 1.253 4.184 2.726l11.949 17.642c.995 1.479 1.326 3.105.968 4.9-.337 1.793-1.247 3.188-2.715 4.188l-17.253 11.67c-1.473 1-3.094 1.326-4.888.979-1.8-.347-3.194-1.258-4.183-2.726l-11.955-17.648c-.995-1.473-1.326-3.094-.968-4.898.342-1.79 1.247-3.184 2.72-4.183l17.243-11.671z" fill="#ad6eae" fill-rule="nonzero"/><path d="M1379.587 472.465a7.15 7.15 0 01-1.352-.131c-1.8-.347-3.194-1.258-4.183-2.726l-11.955-17.648c-.737-1.094-1.11-2.268-1.11-3.54.005-.443.047-.895.142-1.358.342-1.79 1.247-3.184 2.72-4.183l17.243-11.671c1.094-.742 2.278-1.11 3.551-1.11.442 0 .89.042 1.347.131 1.795.348 3.19 1.253 4.184 2.726l11.949 17.642c.737 1.095 1.11 2.274 1.11 3.547-.005.437-.047.89-.142 1.352-.337 1.794-1.247 3.189-2.715 4.189l-17.253 11.67c-1.09.742-2.268 1.11-3.536 1.11zm-26.62-41.147c-.41 0-.83-.036-1.257-.105-1.862-.3-3.225-1.226-4.088-2.789-3.263-5.403-5.262-10.723-5.988-15.985-.4-2.873-.6-5.709-.6-8.503 0-2.32.142-4.609.416-6.877a85.316 85.316 0 013.057-14.496 359.209 359.209 0 003.767-13.228c1.09-4.146 1.716-7.972 1.868-11.497.01-.247.016-.495.016-.737.005-3.215-.868-6.14-2.636-8.745-3.441-5.083-8.403-7.808-14.901-8.187a21.555 21.555 0 00-1.432-.042c-6.061 0-12.375 2.215-18.937 6.661-9.413 6.378-14.128 15.249-14.138 26.62 0 2.362.2 4.83.6 7.403.194 1.115.29 2.115.29 2.994 0 .642-.048 1.22-.148 1.736-.242 1.242-1.226 2.436-2.963 3.615l-16.248 10.997c-.947.647-1.962.973-3.046.973-.285 0-.58-.026-.874-.068-1.41-.216-2.568-.994-3.473-2.326-3.036-4.767-4.84-10.518-5.398-17.258a55.83 55.83 0 01-.19-4.604c0-5.267.753-10.634 2.258-16.101 1.941-7.061 5.162-13.97 9.655-20.721 4.499-6.75 10.292-12.523 17.385-17.322a78.189 78.189 0 0120.105-9.813c6.32-2.03 12.56-3.057 18.716-3.057.784 0 1.568.021 2.352.053 6.925.284 13.486 1.983 19.684 5.098 6.204 3.115 11.524 7.94 15.96 14.496 3.62 5.346 5.93 10.56 6.924 15.628a51.802 51.802 0 011.015 10.118 46.608 46.608 0 01-.237 4.857 83.794 83.794 0 01-2.673 14.396 3533.492 3533.492 0 00-3.71 13.328c-1.157 4.194-1.914 8.266-2.256 12.207-.064.71-.1 1.405-.1 2.09-.006 3.13.652 6.013 1.952 8.644.563 1.279.842 2.568.842 3.878 0 .384-.021.768-.069 1.153-.21 1.704-1.052 3.051-2.525 4.046l-15.238 10.318a6.5 6.5 0 01-3.736 1.152z" fill="#e1bad8" fill-rule="nonzero"/><path d="M1943.642 486.367c6.914 3.104 13.228 7.093 18.916 11.95 5.693 4.861 10.244 10.307 13.628 16.342 3.399 6.04 5.398 12.513 6.014 19.427.61 6.914-.705 13.975-3.946 21.194-2.647 5.893-5.867 10.597-9.656 14.107-3.793 3.525-7.903 6.367-12.333 8.534a83.957 83.957 0 01-13.655 5.288 3250.631 3250.631 0 00-13.286 3.852c-4.172 1.22-8.034 2.72-11.57 4.494-3.547 1.773-6.262 4.183-8.156 7.219-1.026 1.489-2.315 2.589-3.872 3.304-1.563.721-3.152.71-4.773-.02l-16.79-7.541c-1.62-.726-2.789-1.963-3.515-3.699-.72-1.742-.647-3.389.226-4.946 2.884-5.614 6.356-10.108 10.45-13.496 4.088-3.379 8.414-6.125 12.991-8.235a84.58 84.58 0 0113.944-5.02 373.546 373.546 0 0013.228-3.746c4.099-1.252 7.682-2.742 10.76-4.457 3.068-1.715 5.304-4.125 6.699-7.214 2.51-5.598 2.215-11.255-.874-16.985-3.089-5.72-8.54-10.34-16.338-13.843-12.528-5.625-24.546-3.5-36.053 6.366-1.473 1.295-2.794 2.163-3.957 2.605-1.179.447-2.715.242-4.63-.616l-17.9-8.045c-1.327-.595-2.263-1.547-2.826-2.857-.558-1.32-.506-2.71.152-4.183 2.457-5.088 6.404-9.645 11.844-13.66 5.436-4.025 11.666-7.066 18.7-9.124 7.03-2.057 14.602-2.957 22.705-2.678 8.109.28 16.059 2.173 23.873 5.683zm-47.54 129.444c1.62.726 2.752 1.942 3.404 3.652.647 1.71.61 3.373-.116 4.993l-8.734 19.437c-.726 1.626-1.947 2.757-3.652 3.405-1.71.652-3.373.61-4.993-.116l-18.995-8.535c-1.626-.726-2.757-1.947-3.404-3.651-.653-1.716-.61-3.373.115-4.988l8.74-19.448c.72-1.62 1.936-2.752 3.652-3.404 1.705-.647 3.362-.61 4.988.12l18.995 8.535z" fill="#ad6eae" fill-rule="nonzero"/><path d="M1884.615 647.755a6.275 6.275 0 01-2.604-.573l-3.8-1.71-15.195-6.825c-1.626-.726-2.757-1.947-3.404-3.651a6.762 6.762 0 01-.464-2.373c0-.89.195-1.758.58-2.615l8.739-19.448c.72-1.62 1.936-2.752 3.652-3.404a6.664 6.664 0 012.378-.458c.879 0 1.752.195 2.61.579l18.995 8.534c1.62.726 2.752 1.942 3.404 3.652.305.8.458 1.594.458 2.373.005.884-.19 1.757-.574 2.62l-8.734 19.437c-.726 1.626-1.947 2.757-3.652 3.405a6.606 6.606 0 01-2.389.457zm18.769-45.145c-.8 0-1.61-.185-2.43-.553l-16.791-7.54c-1.62-.726-2.789-1.963-3.515-3.699-.326-.79-.49-1.563-.49-2.31 0-.905.237-1.784.716-2.636 2.884-5.614 6.356-10.108 10.45-13.496 4.088-3.379 8.414-6.125 12.991-8.235a84.58 84.58 0 0113.944-5.02 373.546 373.546 0 0013.228-3.746c4.099-1.252 7.682-2.742 10.76-4.457 3.068-1.715 5.304-4.125 6.699-7.214 1.126-2.515 1.689-5.04 1.683-7.582 0-3.115-.857-6.246-2.557-9.403-3.089-5.72-8.54-10.34-16.338-13.843-4.546-2.042-9.024-3.063-13.438-3.063-7.745 0-15.286 3.142-22.615 9.43-1.473 1.294-2.794 2.162-3.957 2.604-.4.153-.847.231-1.331.231-.942 0-2.042-.284-3.3-.847l-17.9-8.045c-1.326-.595-2.262-1.547-2.825-2.857a4.75 4.75 0 01-.384-1.868c0-.747.178-1.52.536-2.315 2.457-5.088 6.404-9.645 11.844-13.66 5.436-4.025 11.666-7.066 18.7-9.124 6.189-1.81 12.797-2.725 19.816-2.725.953 0 1.916.016 2.89.047 8.108.28 16.058 2.173 23.872 5.683 6.914 3.104 13.228 7.093 18.916 11.95 5.693 4.861 10.244 10.307 13.628 16.342 3.399 6.04 5.398 12.513 6.014 19.427.095 1.105.147 2.215.142 3.33 0 5.852-1.368 11.803-4.088 17.864-2.647 5.893-5.867 10.597-9.656 14.107-3.793 3.525-7.903 6.367-12.333 8.534a83.957 83.957 0 01-13.655 5.288 3250.631 3250.631 0 00-13.286 3.852c-4.172 1.22-8.034 2.72-11.57 4.494-3.547 1.773-6.262 4.183-8.156 7.219-1.026 1.489-2.315 2.589-3.872 3.304a5.517 5.517 0 01-2.342.532z" fill="#e1bad8" fill-rule="nonzero"/></svg>