<?xml version="1.0" encoding="UTF-8" standalone="no"?>
<!DOCTYPE svg PUBLIC "-//W3C//DTD SVG 1.1//EN" "http://www.w3.org/Graphics/SVG/1.1/DTD/svg11.dtd">
<svg width="100%" height="100%" viewBox="0 0 388 319" version="1.1" xmlns="http://www.w3.org/2000/svg" xmlns:xlink="http://www.w3.org/1999/xlink" xml:space="preserve" xmlns:serif="http://www.serif.com/" style="fill-rule:evenodd;clip-rule:evenodd;stroke-linejoin:round;stroke-miterlimit:2;">
    <g transform="matrix(1,0,0,1,-60,-47.9932)">
        <g transform="matrix(0,-1,-1,0,253.889,161.349)">
            <path d="M-193.889,-193.889C-200.143,-193.889 -205.212,-107.082 -205.212,0C-205.212,107.082 -200.143,193.889 -193.889,193.889C-187.636,193.889 -182.566,107.082 -182.566,0C-182.566,-107.082 -187.636,-193.889 -193.889,-193.889" style="fill:rgb(245,245,245);fill-rule:nonzero;"/>
        </g>
        <g transform="matrix(1,0,0,1,197.96,154.036)">
            <path d="M0,-98.83C0.959,-103.036 11.459,-107.036 20.459,-100.869C29.459,-94.703 31.843,-84.121 28.959,-75.587C24.126,-61.286 49.342,-61.815 55.18,-37.703C59.79,-18.66 55.514,8.206 29.789,6.745C-9.48,4.515 -6.09,-33.869 -7.815,-54.036C-9.541,-74.203 -30.959,-96.791 0,-98.83" style="fill:rgb(26,46,53);fill-rule:nonzero;"/>
        </g>
        <g transform="matrix(1,0,0,1,184.986,164.932)">
            <path d="M0,-55.873C-0.166,-52.955 -0.509,-50.28 -0.892,-47.508C-1.282,-44.76 -1.798,-42.032 -2.392,-39.311C-3,-36.593 -3.644,-33.875 -4.502,-31.194C-5.315,-28.506 -6.279,-25.838 -7.418,-23.216L-8.3,-21.256C-8.424,-20.957 -8.663,-20.523 -8.852,-20.156C-9.052,-19.776 -9.267,-19.442 -9.477,-19.086C-10.328,-17.718 -11.265,-16.55 -12.214,-15.435C-14.113,-13.211 -16.14,-11.266 -18.211,-9.409C-22.403,-5.742 -26.722,-2.442 -31.367,0.551L-34.041,-2.9C-32.157,-4.724 -30.241,-6.604 -28.387,-8.483C-26.516,-10.351 -24.703,-12.268 -22.968,-14.209C-21.223,-16.137 -19.562,-18.117 -18.115,-20.103C-17.397,-21.095 -16.751,-22.107 -16.239,-23.057C-16.127,-23.29 -15.989,-23.531 -15.895,-23.754C-15.797,-23.995 -15.711,-24.151 -15.592,-24.48L-14.92,-26.24C-13.182,-30.968 -11.95,-35.995 -10.943,-41.072C-10.432,-43.613 -10.069,-46.192 -9.685,-48.763C-9.313,-51.313 -9.021,-53.98 -8.795,-56.424L0,-55.873Z" style="fill:rgb(255,183,112);fill-rule:nonzero;"/>
        </g>
        <g transform="matrix(-0.956547,0.291577,0.291577,0.956547,189.349,120.453)">
            <path d="M3.527,-23.968C7.188,-24.139 13.829,-10.88 13.829,-10.88L3.527,1.919C3.527,1.919 -6.872,-13.028 -5.397,-17.56C-3.861,-22.28 -1.816,-23.719 3.527,-23.968" style="fill:rgb(0,124,255);fill-rule:nonzero;"/>
        </g>
        <g transform="matrix(1,0,0,1,3.8888,-61)">
            <g opacity="0.2">
                <g transform="matrix(1,0,0,1,175.418,181.285)">
                    <path d="M0,-18.465L-2.729,-3.731L2.773,0L0,-18.465Z" style="fill-rule:nonzero;"/>
                </g>
            </g>
        </g>
        <g transform="matrix(-0.987496,0.157641,0.157641,0.987496,146.436,168.511)">
            <path d="M-7.275,-6.666L1.993,-6.666L-2.247,-0.134C-2.247,-0.134 -7.769,-0.501 -9.248,-3.765L-7.275,-6.666Z" style="fill:rgb(255,183,112);fill-rule:nonzero;"/>
        </g>
        <g transform="matrix(0.678345,0.734744,0.734744,-0.678345,142.28,160.605)">
            <path d="M-0.122,-4.232L7.574,-4.232L9.762,-0.365L1.974,-0.276L-0.122,-4.232Z" style="fill:rgb(255,183,112);fill-rule:nonzero;"/>
        </g>
        <g transform="matrix(-1,0,0,1,189.011,324.644)">
            <path d="M-9.195,19.96L-0.576,19.96L0,0L-8.619,0L-9.195,19.96Z" style="fill:rgb(255,183,112);fill-rule:nonzero;"/>
        </g>
        <g transform="matrix(-0.925813,0.377982,0.377982,0.925813,237.714,308.973)">
            <path d="M-14.739,17.067L-6.12,17.067L-3.35,-2.893L-11.968,-2.893L-14.739,17.067Z" style="fill:rgb(255,183,112);fill-rule:nonzero;"/>
        </g>
        <g transform="matrix(1,0,0,1,248.329,333.482)">
            <path d="M0,-12.218L8.325,-17.165C8.627,-17.345 8.998,-17.28 9.216,-17.01L14.079,-10.987C14.583,-10.363 14.379,-9.367 13.674,-8.964C10.742,-7.289 9.242,-6.628 5.581,-4.453C3.329,-3.115 -1.966,1.471 -5.076,3.319C-8.118,5.127 -10.179,2.191 -9.05,1.143C-3.985,-3.557 -1.948,-8.221 -0.968,-11.027C-0.791,-11.532 -0.443,-11.955 0,-12.218" style="fill:rgb(26,46,53);fill-rule:nonzero;"/>
        </g>
        <g transform="matrix(1,0,0,1,189.292,353.405)">
            <path d="M0,-9.799L9.683,-9.799C10.036,-9.799 10.321,-9.554 10.371,-9.21L11.474,-1.549C11.589,-0.755 10.905,-0.002 10.092,-0.016C6.716,-0.074 5.09,-0.273 0.832,-0.273C-1.789,-0.273 -7.207,0 -10.825,0C-14.363,0 -14.635,-3.578 -13.129,-3.902C-6.375,-5.354 -3.716,-7.358 -1.44,-9.269C-1.03,-9.614 -0.516,-9.799 0,-9.799" style="fill:rgb(26,46,53);fill-rule:nonzero;"/>
        </g>
        <g transform="matrix(1,0,0,1,3.8888,-61)">
            <g opacity="0.2">
                <g transform="matrix(0.0286624,0.999589,0.999589,-0.0286624,194.598,386.189)">
                    <path d="M-0.811,-9.454L9.482,-9.454L9.729,-0.834L-0.564,-0.834L-0.811,-9.454Z" style="fill-rule:nonzero;"/>
                </g>
                <g transform="matrix(-0.925822,0.37796,0.37796,0.925822,243.466,375.086)">
                    <path d="M-4.979,-11.266L3.644,-11.266L2.211,-0.977L-6.412,-0.977L-4.979,-11.266Z" style="fill-rule:nonzero;"/>
                </g>
            </g>
        </g>
        <g transform="matrix(1,0,0,1,178.987,147.895)">
            <path d="M0,-49.34C0,-49.34 -4.106,-47.894 4.119,2.68L39.124,2.68C38.537,-11.567 38.52,-20.352 45.329,-49.59C45.329,-49.59 37.995,-51.185 30.464,-51.548C24.574,-51.832 19.748,-52.02 14.569,-51.548C7.742,-50.925 0,-49.34 0,-49.34" style="fill:rgb(0,124,255);fill-rule:nonzero;"/>
        </g>
        <g transform="matrix(1,0,0,1,3.8888,-61)">
            <g opacity="0.2">
                <g transform="matrix(-0.98867,-0.150104,-0.150104,0.98867,210.235,188.968)">
                    <path d="M-4.507,-18.98C-1.492,-17.723 0.886,-13.863 -0.417,-7.617C-1.198,-3.872 -3.362,-1.278 -4.507,-0.127C-4.326,-5.055 -4.401,-10.822 -4.781,-18.243L-4.507,-18.98Z" style="fill-rule:nonzero;"/>
                </g>
            </g>
        </g>
        <g transform="matrix(1,0,0,1,195.399,103.204)">
            <path d="M0,7.129C0,7.129 4.548,9.935 5.741,14.101C10.677,10.484 17.39,0.413 17.657,-5.613C17.689,-6.346 17.066,-6.939 16.332,-6.95C14.897,-6.972 14.053,-6.857 14.053,-6.857L0,7.129Z" style="fill:rgb(250,250,250);fill-rule:nonzero;"/>
        </g>
        <g transform="matrix(0.94058,-0.339572,-0.339572,-0.94058,196.292,108.244)">
            <path d="M-1.55,-1.662C-1.55,-1.662 -6.78,-2.757 -9.317,-6.27C-12.988,-0.81 -5.861,10.26 -1.55,13.248C0.562,12.637 1.467,12.118 1.467,12.118L-1.55,-1.662Z" style="fill:rgb(250,250,250);fill-rule:nonzero;"/>
        </g>
        <g transform="matrix(1,0,0,1,207.877,110.333)">
            <path d="M0,-31.884C-1.003,-26.769 -2.003,-17.399 1.575,-13.986C1.575,-13.986 -3.153,-4.916 -12.478,0C-19.569,-5.666 -14.32,-13.985 -14.32,-13.985C-8.617,-15.347 -8.765,-19.579 -9.758,-23.552L0,-31.884Z" style="fill:rgb(255,183,112);fill-rule:nonzero;"/>
        </g>
        <g transform="matrix(1,0,0,1,3.8888,-61)">
            <g opacity="0.2">
                <g transform="matrix(-0.760752,0.649043,0.649043,0.760752,198.329,151.217)">
                    <path d="M-6.711,-5.275L0.881,-5.275C1.31,-4.405 1.789,-3.559 2.339,-2.81C0.477,-1.636 -3.334,-0.825 -5.227,-2.323C-6.124,-3.033 -6.508,-4.751 -6.711,-5.275" style="fill-rule:nonzero;"/>
                </g>
            </g>
        </g>
        <g transform="matrix(-0.249541,-0.968364,-0.968364,0.249541,199.877,61.1762)">
            <path d="M-12.907,-13.79C-20.278,-9.448 -23.49,-7.768 -25.439,-1.937C-28.37,6.834 -21.426,14.938 -12.907,12.887C-5.239,11.04 5.527,4.251 4.762,-4.739C4.01,-13.595 -5.536,-18.13 -12.907,-13.79" style="fill:rgb(255,183,112);fill-rule:nonzero;"/>
        </g>
        <g transform="matrix(1,0,0,1,198.696,64.9441)">
            <path d="M0,-8.833C0.389,-6.055 15.611,2.889 18.5,-1.777C21.389,-6.444 17.232,-9.944 10.755,-10.833C4.278,-11.722 0,-8.833 0,-8.833" style="fill:rgb(26,46,53);fill-rule:nonzero;"/>
        </g>
        <g transform="matrix(1,0,0,1,208.614,77.7962)">
            <path d="M0,-20.18C-1.87,-17.714 2.09,0 7.763,-1.665C13.436,-3.329 13.172,-9.002 9.231,-14.235C5.291,-19.469 0,-20.18 0,-20.18" style="fill:rgb(26,46,53);fill-rule:nonzero;"/>
        </g>
        <g transform="matrix(1,0,0,1,183.106,332.946)">
            <path d="M0,-182.37C0,-182.37 -6.798,-115.976 -6.233,-89.692C-5.646,-62.352 4.372,0 4.372,0L16.027,0C16.027,0 14.183,-60.755 15.213,-87.605C16.336,-116.876 25.634,-182.37 25.634,-182.37L0,-182.37Z" style="fill:rgb(0,124,255);fill-rule:nonzero;"/>
        </g>
        <g transform="matrix(1,0,0,1,3.8888,-61)">
            <g opacity="0.4">
                <g transform="matrix(1,0,0,1,179.217,393.946)">
                    <path d="M0,-182.37C0,-182.37 -6.798,-115.976 -6.233,-89.692C-5.646,-62.352 4.372,0 4.372,0L16.027,0C16.027,0 14.183,-60.755 15.213,-87.605C16.336,-116.876 25.634,-182.37 25.634,-182.37L0,-182.37Z" style="fill-rule:nonzero;"/>
                </g>
            </g>
        </g>
        <g transform="matrix(-1,0,0,1,186.101,328.467)">
            <path d="M-14.042,4.896L-0.367,4.896L0.636,0.534L-14.678,0L-14.042,4.896Z" style="fill:rgb(26,46,53);fill-rule:nonzero;"/>
        </g>
        <g transform="matrix(1,0,0,1,3.8888,-61)">
            <g opacity="0.2">
                <g transform="matrix(1,0,0,1,194.316,280.707)">
                    <path d="M0,-52.612C-8.598,-35.316 -1.726,-3.764 1.314,7.974C2.874,-9.656 5.501,-31.206 7.551,-47.032C6.248,-55.987 3.965,-60.586 0,-52.612" style="fill-rule:nonzero;"/>
                </g>
            </g>
        </g>
        <g transform="matrix(1,0,0,1,192.35,312.96)">
            <path d="M0,-162.384C0,-162.384 7.93,-93.359 13.918,-71.199C21.028,-44.89 49.908,0 49.908,0L60.79,-4.443C60.79,-4.443 42.139,-55.554 36.704,-69.414C25.102,-98.996 35.033,-143.08 25.761,-162.384L0,-162.384Z" style="fill:rgb(0,124,255);fill-rule:nonzero;"/>
        </g>
        <g transform="matrix(1,0,0,1,3.8888,-61)">
            <g opacity="0.4">
                <g transform="matrix(1,0,0,1,188.461,373.96)">
                    <path d="M0,-162.384C0,-162.384 7.93,-93.359 13.918,-71.199C21.028,-44.89 49.908,0 49.908,0L60.79,-4.443C60.79,-4.443 42.139,-55.554 36.704,-69.414C25.102,-98.996 35.033,-143.08 25.761,-162.384L0,-162.384Z" style="fill-rule:nonzero;"/>
                </g>
            </g>
        </g>
        <g transform="matrix(-0.925829,0.377944,0.377944,0.925829,238.605,311.884)">
            <path d="M-16.083,2.99L-1.502,2.99L0.051,-1.594L-17.102,-2.367L-16.083,2.99Z" style="fill:rgb(26,46,53);fill-rule:nonzero;"/>
        </g>
        <g transform="matrix(1,0,0,1,167.274,69.7286)">
            <path d="M0,74.131C-20.468,92.245 -51.75,90.338 -69.864,69.87C-87.983,49.397 -86.076,18.115 -65.608,-0C-45.135,-18.119 -13.853,-16.211 4.267,4.262C22.381,24.73 20.473,56.011 0,74.131M-71.774,-6.967C-96.092,14.554 -98.353,51.719 -76.832,76.037C-55.31,100.354 -18.151,102.62 6.167,81.099C30.484,59.577 32.756,22.413 11.234,-1.905C-10.287,-26.222 -47.458,-28.489 -71.774,-6.967" style="fill:rgb(26,46,53);fill-rule:nonzero;"/>
        </g>
        <g transform="matrix(1,0,0,1,3.8888,-61)">
            <g opacity="0.3">
                <g transform="matrix(0.998146,0.0608705,0.0608705,-0.998146,125.069,212.814)">
                    <path d="M2.761,-0.084C-22.286,-0.084 -42.594,20.224 -42.594,45.271C-42.594,70.325 -22.286,90.633 2.761,90.633C27.815,90.633 48.123,70.325 48.123,45.271C48.123,20.224 27.815,-0.084 2.761,-0.084" style="fill:rgb(0,124,255);fill-rule:nonzero;"/>
                </g>
            </g>
        </g>
        <g transform="matrix(1,0,0,1,3.8888,-61)">
            <g opacity="0.5">
                <g transform="matrix(1,0,0,1,133.341,192.79)">
                    <path d="M0,-70.27C-0.286,-70.287 -0.565,-70.304 -0.852,-70.314L-47.969,-28.614C-47.995,-28.327 -48.012,-28.041 -48.03,-27.755C-48.653,-17.531 -45.831,-7.89 -40.574,0.044L26.695,-59.491C19.467,-65.672 10.231,-69.646 0,-70.27" style="fill:rgb(250,250,250);fill-rule:nonzero;"/>
                </g>
                <g transform="matrix(-0.748845,0.662745,0.662745,0.748845,132.433,216.729)">
                    <path d="M-76.402,-38.108L14.305,-38.108C14.327,-34.664 13.955,-31.22 13.187,-27.843L-75.284,-27.844C-76.051,-31.221 -76.424,-34.664 -76.402,-38.108" style="fill:rgb(250,250,250);fill-rule:nonzero;"/>
                </g>
            </g>
        </g>
        <g transform="matrix(1,0,0,1,180.739,153.863)">
            <path d="M0,-2.592L-7.74,4.258C-8.916,5.299 -10.713,5.189 -11.753,4.013C-12.794,2.838 -12.685,1.041 -11.509,0L-3.769,-6.85C-2.593,-7.891 -0.796,-7.781 0.245,-6.605C1.285,-5.429 1.176,-3.633 0,-2.592" style="fill:rgb(26,46,53);fill-rule:nonzero;"/>
        </g>
        <g transform="matrix(1,0,0,1,177.888,223.256)">
            <path d="M0,-73.259C5.834,-68.126 11.414,-62.767 16.918,-57.341C22.417,-51.911 27.809,-46.386 33.13,-40.799C38.446,-35.206 43.675,-29.537 48.853,-23.822C53.71,-17.825 60.333,-13.39 61.324,-3.969C61.598,-1.353 59.7,0.991 57.084,1.265C56.552,1.321 56.012,1.281 55.517,1.17C46.286,-0.957 42.688,-8.071 37.326,-13.622C32.284,-19.455 27.292,-25.334 22.387,-31.29C17.488,-37.252 12.659,-43.275 7.937,-49.393C3.22,-55.516 -1.42,-61.705 -5.807,-68.12C-7.024,-69.901 -6.568,-72.333 -4.787,-73.551C-3.281,-74.58 -1.31,-74.411 0,-73.259" style="fill:rgb(26,46,53);fill-rule:nonzero;"/>
        </g>
        <g transform="matrix(0.216995,-0.976173,-0.976173,-0.216995,202.213,68.569)">
            <path d="M-0.803,-0.644C-1.499,-0.644 -2.062,-0.276 -2.061,0.178C-2.062,0.633 -1.499,1.001 -0.803,1.001C-0.108,1.002 0.456,0.633 0.455,0.179C0.456,-0.276 -0.107,-0.644 -0.803,-0.644" style="fill:rgb(26,46,53);fill-rule:nonzero;"/>
        </g>
        <g transform="matrix(0.216995,-0.976173,-0.976173,-0.216995,194.542,66.8638)">
            <path d="M-0.803,-0.644C-1.499,-0.644 -2.062,-0.276 -2.061,0.178C-2.062,0.633 -1.499,1.001 -0.803,1.001C-0.108,1.002 0.456,0.633 0.455,0.179C0.456,-0.276 -0.107,-0.644 -0.803,-0.644" style="fill:rgb(26,46,53);fill-rule:nonzero;"/>
        </g>
        <g transform="matrix(1,0,0,1,194.654,66.2562)">
            <path d="M0,0.205L-1.525,-0.627C-1.525,-0.627 -0.972,0.832 0,0.205" style="fill:rgb(26,46,53);fill-rule:nonzero;"/>
        </g>
        <g transform="matrix(1,0,0,1,197.089,74.3645)">
            <path d="M0,-4.829C0,-4.829 -1.801,-2.163 -3.382,-1.036C-2.672,0 -1.063,-0.044 -1.063,-0.044L0,-4.829Z" style="fill:rgb(255,138,53);fill-rule:nonzero;"/>
        </g>
        <g transform="matrix(1,0,0,1,199.136,76.2201)">
            <path d="M0,1.581C-0.323,1.56 -0.662,1.513 -1.017,1.434C-1.126,1.409 -1.196,1.3 -1.172,1.19C-1.147,1.08 -1.037,1.005 -0.928,1.036C2.053,1.693 3.903,-0.074 3.922,-0.092C4.003,-0.171 4.132,-0.17 4.211,-0.089C4.29,-0.008 4.288,0.121 4.208,0.2C4.135,0.271 2.586,1.752 0,1.581" style="fill:rgb(26,46,53);fill-rule:nonzero;"/>
        </g>
        <g transform="matrix(0.13996,-0.990157,-0.990157,-0.13996,215.401,74.6953)">
            <path d="M-3.48,-2.103C-5.079,-1.337 -6.175,0.096 -6.637,1.478C-7.332,3.557 -5.499,4.706 -3.48,4.22C-1.662,3.782 0.89,2.174 0.709,0.042C0.53,-2.057 -1.651,-2.98 -3.48,-2.103" style="fill:rgb(255,183,112);fill-rule:nonzero;"/>
        </g>
        <g transform="matrix(1,0,0,1,205.862,64.0543)">
            <path d="M0,2.442C-0.164,2.495 -0.349,2.441 -0.456,2.294C-1.566,0.766 -3.999,0.783 -4.023,0.783C-4.249,0.786 -4.434,0.606 -4.437,0.381C-4.441,0.156 -4.263,-0.03 -4.035,-0.033C-3.918,-0.035 -1.152,-0.053 0.205,1.814C0.337,1.996 0.296,2.251 0.114,2.384C0.079,2.41 0.04,2.429 0,2.442" style="fill:rgb(26,46,53);fill-rule:nonzero;"/>
        </g>
        <g transform="matrix(1,0,0,1,193.399,60.3785)">
            <path d="M0,1.79C-0.139,1.781 -0.27,1.701 -0.337,1.568C-0.439,1.367 -0.359,1.121 -0.159,1.019C1.854,-0.005 3.5,0.917 3.567,0.956C3.763,1.069 3.83,1.319 3.718,1.514C3.605,1.709 3.357,1.775 3.161,1.665C3.095,1.627 1.81,0.933 0.212,1.747C0.144,1.781 0.071,1.795 0,1.79" style="fill:rgb(26,46,53);fill-rule:nonzero;"/>
        </g>
        <g transform="matrix(1,0,0,1,247.715,324.131)">
            <path d="M0,-1.45C-1.247,-1.459 -2.917,-1.315 -3.249,-0.84C-3.291,-0.78 -3.33,-0.691 -3.263,-0.531C-3.139,-0.233 -2.958,-0.064 -2.712,-0.013C-2.13,0.116 -1.137,-0.426 0,-1.45M-2.693,0.403C-2.727,0.399 -2.761,0.394 -2.795,0.387C-3.177,0.308 -3.461,0.052 -3.64,-0.373C-3.774,-0.694 -3.683,-0.932 -3.583,-1.074C-2.953,-1.976 0.16,-1.861 0.513,-1.845C0.601,-1.843 0.666,-1.79 0.695,-1.713C0.724,-1.637 0.705,-1.551 0.646,-1.494C-0.153,-0.722 -1.626,0.526 -2.693,0.403" style="fill:rgb(0,124,255);fill-rule:nonzero;"/>
        </g>
        <g transform="matrix(1,0,0,1,245.695,322.245)">
            <path d="M0,-1.92C-0.185,-1.941 -0.347,-1.896 -0.495,-1.782C-0.703,-1.621 -0.691,-1.493 -0.659,-1.4C-0.458,-0.831 1.095,-0.129 2.134,0.015C1.671,-0.671 0.794,-1.771 0.062,-1.911C0.041,-1.915 0.02,-1.918 0,-1.92M2.209,0.431C1.145,0.308 -0.748,-0.422 -1.044,-1.264C-1.107,-1.443 -1.152,-1.79 -0.744,-2.105C-0.485,-2.304 -0.188,-2.371 0.138,-2.312C1.368,-2.077 2.645,0.05 2.699,0.141C2.736,0.204 2.737,0.281 2.702,0.344C2.667,0.408 2.6,0.448 2.528,0.449C2.434,0.451 2.326,0.445 2.209,0.431" style="fill:rgb(0,124,255);fill-rule:nonzero;"/>
        </g>
        <g transform="matrix(1,0,0,1,184.52,344.247)">
            <path d="M0,-0.918C-0.158,-0.918 -0.288,-0.895 -0.381,-0.844C-0.465,-0.798 -0.507,-0.73 -0.516,-0.622C-0.542,-0.347 -0.464,-0.133 -0.282,0.031C0.242,0.502 1.66,0.583 3.57,0.266C2.387,-0.301 0.816,-0.918 0,-0.918M1.537,0.866C0.679,0.866 -0.111,0.733 -0.555,0.335C-0.836,0.082 -0.959,-0.252 -0.923,-0.659C-0.901,-0.903 -0.781,-1.09 -0.577,-1.202C0.481,-1.784 3.916,-0.026 4.303,0.176C4.38,0.217 4.423,0.3 4.411,0.386C4.398,0.472 4.334,0.541 4.249,0.558C3.517,0.703 2.485,0.866 1.537,0.866" style="fill:rgb(0,124,255);fill-rule:nonzero;"/>
        </g>
        <g transform="matrix(1,0,0,1,186.675,344.365)">
            <path d="M0,-3.05C-0.04,-3.05 -0.081,-3.048 -0.123,-3.044C-0.496,-3.006 -0.52,-2.857 -0.528,-2.808C-0.624,-2.222 0.756,-0.759 1.803,-0.125C1.703,-0.801 1.416,-2.192 0.705,-2.784C0.491,-2.963 0.259,-3.05 0,-3.05M2.054,0.444C2.025,0.444 1.997,0.438 1.969,0.426C0.942,-0.039 -1.09,-1.898 -0.931,-2.874C-0.893,-3.105 -0.729,-3.393 -0.164,-3.45C0.251,-3.494 0.635,-3.374 0.967,-3.097C2.05,-2.195 2.249,0.125 2.257,0.223C2.263,0.295 2.23,0.365 2.171,0.407C2.136,0.431 2.095,0.444 2.054,0.444" style="fill:rgb(0,124,255);fill-rule:nonzero;"/>
        </g>
        <g transform="matrix(1,0,0,1,202.325,67.9614)">
            <path d="M0,0.205L-1.526,-0.627C-1.526,-0.627 -0.973,0.832 0,0.205" style="fill:rgb(26,46,53);fill-rule:nonzero;"/>
        </g>
        <g transform="matrix(1,0,0,1,218.635,151.882)">
            <path d="M0,-3.361L0.896,-0.228C1.018,0.015 0.73,0.263 0.325,0.263L-35.702,0.263C-36.018,0.263 -36.279,0.109 -36.299,-0.09L-36.615,-3.223C-36.637,-3.44 -36.363,-3.624 -36.018,-3.624L-0.57,-3.624C-0.309,-3.624 -0.079,-3.517 0,-3.361" style="fill:rgb(0,124,255);fill-rule:nonzero;"/>
        </g>
        <g transform="matrix(1,0,0,1,3.8888,-61)">
            <g opacity="0.2">
                <g transform="matrix(1,0,0,1,214.746,212.882)">
                    <path d="M0,-3.361L0.896,-0.228C1.018,0.015 0.73,0.263 0.325,0.263L-35.702,0.263C-36.018,0.263 -36.279,0.109 -36.299,-0.09L-36.615,-3.223C-36.637,-3.44 -36.363,-3.624 -36.018,-3.624L-0.57,-3.624C-0.309,-3.624 -0.079,-3.517 0,-3.361" style="fill-rule:nonzero;"/>
                </g>
            </g>
        </g>
        <g transform="matrix(1,0,0,1,213.757,147.981)">
            <path d="M0,4.504L0.949,4.504C1.138,4.504 1.282,4.407 1.27,4.287L0.824,0.216C0.811,0.097 0.646,0 0.457,0L-0.493,0C-0.682,0 -0.826,0.097 -0.813,0.216L-0.368,4.287C-0.354,4.407 -0.189,4.504 0,4.504" style="fill:rgb(0,124,255);fill-rule:nonzero;"/>
        </g>
        <g transform="matrix(1,0,0,1,3.8888,-61)">
            <g opacity="0.4">
                <g transform="matrix(1,0,0,1,209.869,208.981)">
                    <path d="M0,4.504L0.949,4.504C1.138,4.504 1.282,4.407 1.27,4.287L0.824,0.216C0.811,0.097 0.646,0 0.457,0L-0.493,0C-0.682,0 -0.826,0.097 -0.813,0.216L-0.368,4.287C-0.354,4.407 -0.189,4.504 0,4.504" style="fill:white;fill-rule:nonzero;"/>
                </g>
            </g>
        </g>
        <g transform="matrix(1,0,0,1,185.601,147.981)">
            <path d="M0,4.504L0.95,4.504C1.139,4.504 1.283,4.407 1.27,4.287L0.824,0.216C0.812,0.097 0.646,0 0.457,0L-0.493,0C-0.682,0 -0.826,0.097 -0.812,0.216L-0.367,4.287C-0.354,4.407 -0.189,4.504 0,4.504" style="fill:rgb(0,124,255);fill-rule:nonzero;"/>
        </g>
        <g transform="matrix(1,0,0,1,3.8888,-61)">
            <g opacity="0.4">
                <g transform="matrix(1,0,0,1,181.712,208.981)">
                    <path d="M0,4.504L0.95,4.504C1.139,4.504 1.283,4.407 1.27,4.287L0.824,0.216C0.812,0.097 0.646,0 0.457,0L-0.493,0C-0.682,0 -0.826,0.097 -0.812,0.216L-0.367,4.287C-0.354,4.407 -0.189,4.504 0,4.504" style="fill:white;fill-rule:nonzero;"/>
                </g>
            </g>
        </g>
        <g transform="matrix(1,0,0,1,199.621,147.981)">
            <path d="M0,4.504L0.949,4.504C1.138,4.504 1.282,4.407 1.27,4.287L0.824,0.216C0.811,0.097 0.646,0 0.457,0L-0.493,0C-0.682,0 -0.826,0.097 -0.813,0.216L-0.368,4.287C-0.354,4.407 -0.189,4.504 0,4.504" style="fill:rgb(0,124,255);fill-rule:nonzero;"/>
        </g>
        <g transform="matrix(1,0,0,1,3.8888,-61)">
            <g opacity="0.4">
                <g transform="matrix(1,0,0,1,195.732,208.981)">
                    <path d="M0,4.504L0.949,4.504C1.138,4.504 1.282,4.407 1.27,4.287L0.824,0.216C0.811,0.097 0.646,0 0.457,0L-0.493,0C-0.682,0 -0.826,0.097 -0.813,0.216L-0.368,4.287C-0.354,4.407 -0.189,4.504 0,4.504" style="fill:white;fill-rule:nonzero;"/>
                </g>
            </g>
        </g>
        <g transform="matrix(-0.912981,-0.408001,-0.408001,0.912981,190.122,158.128)">
            <path d="M-6.118,-3.355L3.193,-3.355L-2.455,3.347C-2.455,3.347 -7.882,2.263 -8.923,-1.166L-6.118,-3.355Z" style="fill:rgb(255,183,112);fill-rule:nonzero;"/>
        </g>
        <g transform="matrix(1,0,0,1,228.398,161.601)">
            <path d="M0,-52.912C0.394,-49.958 0.699,-46.995 1.051,-44.036L1.955,-35.143C2.27,-32.181 2.511,-29.209 2.789,-26.242L3.165,-21.787L3.258,-20.673C3.27,-20.562 3.302,-20.096 3.312,-19.78C3.323,-19.433 3.292,-19.088 3.27,-18.744C3.123,-17.37 2.651,-16.138 2.084,-15.132C0.919,-13.118 -0.528,-11.847 -1.924,-10.747C-3.337,-9.67 -4.766,-8.805 -6.203,-8.041C-9.09,-6.544 -11.98,-5.365 -14.913,-4.386C-17.84,-3.401 -20.778,-2.563 -23.727,-1.817C-26.701,-1.122 -29.629,-0.47 -32.682,0L-33.652,-4.256C-30.903,-5.158 -28.084,-6.095 -25.357,-7.14C-22.608,-8.141 -19.897,-9.218 -17.274,-10.408C-14.662,-11.609 -12.087,-12.849 -9.795,-14.308C-8.646,-15.023 -7.566,-15.785 -6.66,-16.581C-5.761,-17.363 -5.043,-18.23 -4.772,-18.84C-4.63,-19.142 -4.602,-19.345 -4.606,-19.457C-4.622,-19.485 -4.61,-19.512 -4.621,-19.537C-4.64,-19.593 -4.616,-19.499 -4.656,-19.758L-4.816,-20.865L-5.455,-25.292C-5.854,-28.247 -6.29,-31.198 -6.651,-34.157L-7.777,-43.03C-8.102,-45.993 -8.474,-48.951 -8.756,-51.919L0,-52.912Z" style="fill:rgb(255,183,112);fill-rule:nonzero;"/>
        </g>
        <g transform="matrix(-0.984764,-0.173894,-0.173894,0.984764,219.074,122.407)">
            <path d="M-0.971,-24.646C-4.61,-24.206 -10.857,-13.047 -10.857,-13.047L-0.971,1.531C-0.971,1.531 7.489,-10.164 6.826,-14.886C6.135,-19.801 3.182,-25.149 -0.971,-24.646" style="fill:rgb(0,124,255);fill-rule:nonzero;"/>
        </g>
        <g transform="matrix(0.327961,0.944691,0.944691,-0.327961,187.174,152.79)">
            <path d="M0.724,-6.211L8.073,-6.211L10.131,0.532L1.378,1.006L0.724,-6.211Z" style="fill:rgb(255,183,112);fill-rule:nonzero;"/>
        </g>
        <g transform="matrix(1,0,0,1,300.253,100.849)">
            <path d="M0,29.776C2.292,13.331 -9.182,0 -25.626,0L94.497,0C110.941,0 122.415,13.331 120.123,29.776L0,29.776Z" style="fill:rgb(26,46,53);fill-rule:nonzero;"/>
        </g>
        <g transform="matrix(1,0,0,1,3.8888,-61)">
            <g opacity="0.7">
                <g transform="matrix(1,0,0,1,296.365,161.849)">
                    <path d="M0,29.776C2.292,13.331 -9.182,0 -25.626,0L94.497,0C110.941,0 122.415,13.331 120.123,29.776L0,29.776Z" style="fill:rgb(0,124,255);fill-rule:nonzero;"/>
                </g>
            </g>
        </g>
        <g transform="matrix(1,0,0,1,274.628,355.238)">
            <path d="M0,-254.389L120.123,-254.389C103.679,-254.389 88.489,-241.058 86.198,-224.613L59.043,-29.776C56.751,-13.331 41.563,0 25.118,0L-35.454,0C-51.899,0 -63.372,-13.331 -61.08,-29.776L-33.925,-224.613C-31.634,-241.058 -16.445,-254.389 0,-254.389" style="fill:rgb(0,124,255);fill-rule:nonzero;"/>
        </g>
        <g transform="matrix(1,0,0,1,274.12,355.238)">
            <path d="M0,-29.776C-2.292,-13.331 9.182,0 25.626,0L-94.497,0C-110.941,0 -122.415,-13.331 -120.123,-29.776L0,-29.776Z" style="fill:rgb(26,46,53);fill-rule:nonzero;"/>
        </g>
        <g transform="matrix(1,0,0,1,3.8888,-61)">
            <g opacity="0.7">
                <g transform="matrix(1,0,0,1,270.231,416.238)">
                    <path d="M0,-29.776C-2.292,-13.331 9.182,0 25.626,0L-94.497,0C-110.941,0 -122.415,-13.331 -120.123,-29.776L0,-29.776Z" style="fill:rgb(0,124,255);fill-rule:nonzero;"/>
                </g>
            </g>
        </g>
        <g transform="matrix(1,0,0,1,3.8888,-61)">
            <g opacity="0.4">
                <g transform="matrix(1,0,0,1,289.491,217.534)">
                    <path d="M0,4.928L46.527,4.928C47.882,4.928 49.146,3.819 49.334,2.464C49.523,1.109 48.569,0 47.214,0L0.687,0C-0.668,0 -1.932,1.109 -2.121,2.464C-2.31,3.819 -1.355,4.928 0,4.928" style="fill:white;fill-rule:nonzero;"/>
                </g>
            </g>
        </g>
        <g transform="matrix(1,0,0,1,3.8888,-61)">
            <g opacity="0.4">
                <g transform="matrix(1,0,0,1,288.213,226.706)">
                    <path d="M0,4.928L34.188,4.928C35.543,4.928 36.807,3.819 36.996,2.464C37.185,1.109 36.23,0 34.875,0L0.687,0C-0.668,0 -1.932,1.109 -2.121,2.464C-2.31,3.819 -1.355,4.928 0,4.928" style="fill:white;fill-rule:nonzero;"/>
                </g>
            </g>
        </g>
        <g transform="matrix(1,0,0,1,3.8888,-61)">
            <g opacity="0.4">
                <g transform="matrix(0,1,1,0,259.474,208.107)">
                    <path d="M14.858,-14.858C23.064,-16.002 29.716,-10.277 29.716,-2.071C29.716,6.135 23.064,13.714 14.858,14.858C6.652,16.002 -0,10.277 -0,2.071C-0,-6.135 6.652,-13.714 14.858,-14.858" style="fill:white;fill-rule:nonzero;"/>
                </g>
            </g>
        </g>
        <g transform="matrix(1,0,0,1,250.097,161.963)">
            <path d="M0,0C-0.319,2.291 -0.038,4.442 0.722,6.319C2.384,10.454 6.374,13.266 11.417,13.266C16.46,13.266 21.234,10.454 24.048,6.319C25.332,4.442 26.213,2.291 26.532,0C27.553,-7.328 22.443,-13.266 15.115,-13.266C7.787,-13.266 1.021,-7.328 0,0" style="fill:white;fill-rule:nonzero;"/>
        </g>
        <g transform="matrix(1,0,0,1,3.8888,-61)">
            <g opacity="0.4">
                <g transform="matrix(0,1,1,0,260.077,220.395)">
                    <path d="M7.639,-10.258C10.811,-8.984 12.969,-5.922 12.969,-2.053C12.969,1.818 10.811,5.479 7.639,7.639C5.927,5.315 4.928,2.379 4.928,-0.931C4.928,-4.243 5.927,-7.457 7.639,-10.258" style="fill:rgb(26,46,53);fill-rule:nonzero;"/>
                </g>
            </g>
        </g>
        <g transform="matrix(1,0,0,1,3.8888,-61)">
            <g opacity="0.4">
                <g transform="matrix(0,1,1,0,259.928,215.168)">
                    <path d="M4.534,-4.534C7.038,-4.883 9.068,-3.136 9.068,-0.632C9.068,1.872 7.038,4.185 4.534,4.534C2.03,4.883 0,3.135 0,0.632C0,-1.872 2.03,-4.185 4.534,-4.534" style="fill:rgb(26,46,53);fill-rule:nonzero;"/>
                </g>
            </g>
        </g>
        <g transform="matrix(1,0,0,1,3.8888,-61)">
            <g opacity="0.4">
                <g transform="matrix(1,0,0,1,283.906,257.606)">
                    <path d="M0,4.928L15.696,4.928C17.051,4.928 18.314,3.819 18.503,2.464C18.692,1.109 17.738,0 16.383,0L0.687,0C-0.668,0 -1.932,1.109 -2.121,2.464C-2.31,3.819 -1.355,4.928 0,4.928" style="fill:white;fill-rule:nonzero;"/>
                </g>
            </g>
        </g>
        <g transform="matrix(1,0,0,1,3.8888,-61)">
            <g opacity="0.4">
                <g transform="matrix(1,0,0,1,309.073,257.606)">
                    <path d="M0,4.928L22.421,4.928C23.776,4.928 25.04,3.819 25.229,2.464C25.417,1.109 24.463,0 23.108,0L0.687,0C-0.668,0 -1.932,1.109 -2.121,2.464C-2.309,3.819 -1.355,4.928 0,4.928" style="fill:white;fill-rule:nonzero;"/>
                </g>
            </g>
        </g>
        <g transform="matrix(1,0,0,1,3.8888,-61)">
            <g opacity="0.4">
                <g transform="matrix(1,0,0,1,282.628,266.777)">
                    <path d="M0,4.928L38.436,4.928C39.791,4.928 41.054,3.819 41.243,2.464C41.432,1.109 40.478,0 39.122,0L0.687,0C-0.668,0 -1.932,1.109 -2.121,2.464C-2.309,3.819 -1.355,4.928 0,4.928" style="fill:white;fill-rule:nonzero;"/>
                </g>
            </g>
        </g>
        <g transform="matrix(1,0,0,1,3.8888,-61)">
            <g opacity="0.4">
                <g transform="matrix(0,1,1,0,253.889,248.178)">
                    <path d="M14.858,-14.858C23.064,-16.002 29.716,-10.276 29.716,-2.071C29.716,6.135 23.064,13.715 14.858,14.858C6.652,16.002 -0,10.277 -0,2.071C-0,-6.135 6.652,-13.714 14.858,-14.858" style="fill:white;fill-rule:nonzero;"/>
                </g>
            </g>
        </g>
        <g transform="matrix(1,0,0,1,244.512,202.035)">
            <path d="M0,0C-0.319,2.291 -0.038,4.442 0.723,6.319C2.384,10.454 6.374,13.266 11.417,13.266C16.46,13.266 21.234,10.454 24.048,6.319C25.332,4.442 26.213,2.291 26.532,0C27.554,-7.328 22.443,-13.266 15.115,-13.266C7.787,-13.266 1.021,-7.328 0,0" style="fill:white;fill-rule:nonzero;"/>
        </g>
        <g transform="matrix(1,0,0,1,3.8888,-61)">
            <g opacity="0.4">
                <g transform="matrix(0,1,1,0,254.492,260.466)">
                    <path d="M7.639,-10.258C10.811,-8.983 12.969,-5.922 12.969,-2.052C12.969,1.818 10.811,5.48 7.639,7.639C5.927,5.316 4.928,2.379 4.928,-0.931C4.928,-4.242 5.927,-7.457 7.639,-10.258" style="fill:rgb(26,46,53);fill-rule:nonzero;"/>
                </g>
            </g>
        </g>
        <g transform="matrix(1,0,0,1,3.8888,-61)">
            <g opacity="0.4">
                <g transform="matrix(0,1,1,0,254.344,255.24)">
                    <path d="M4.534,-4.534C7.038,-4.883 9.068,-3.136 9.068,-0.632C9.068,1.872 7.038,4.185 4.534,4.534C2.03,4.883 0,3.136 0,0.632C0,-1.872 2.03,-4.185 4.534,-4.534" style="fill:rgb(26,46,53);fill-rule:nonzero;"/>
                </g>
            </g>
        </g>
        <g transform="matrix(1,0,0,1,3.8888,-61)">
            <g opacity="0.4">
                <g transform="matrix(1,0,0,1,278.321,297.677)">
                    <path d="M0,4.928L27.329,4.928C28.685,4.928 29.948,3.819 30.137,2.464C30.325,1.109 29.371,0 28.016,0L0.687,0C-0.668,0 -1.932,1.109 -2.12,2.464C-2.309,3.819 -1.355,4.928 0,4.928" style="fill:white;fill-rule:nonzero;"/>
                </g>
            </g>
        </g>
        <g transform="matrix(1,0,0,1,3.8888,-61)">
            <g opacity="0.4">
                <g transform="matrix(1,0,0,1,277.043,306.849)">
                    <path d="M0,4.928L42.604,4.928C43.959,4.928 45.223,3.819 45.412,2.464C45.601,1.109 44.646,0 43.291,0L0.687,0C-0.668,0 -1.932,1.109 -2.121,2.464C-2.31,3.819 -1.355,4.928 0,4.928" style="fill:white;fill-rule:nonzero;"/>
                </g>
            </g>
        </g>
        <g transform="matrix(1,0,0,1,3.8888,-61)">
            <g opacity="0.2">
                <g transform="matrix(1,0,0,1,230.391,343.909)">
                    <path d="M0,6.91L65.242,6.91C67.142,6.91 68.913,5.355 69.178,3.455C69.443,1.555 68.105,0 66.205,0L0.963,0C-0.937,0 -2.709,1.555 -2.974,3.455C-3.238,5.355 -1.9,6.91 0,6.91" style="fill:white;fill-rule:nonzero;"/>
                </g>
            </g>
        </g>
        <g transform="matrix(1,0,0,1,3.8888,-61)">
            <g opacity="0.2">
                <g transform="matrix(1,0,0,1,228.598,356.77)">
                    <path d="M0,6.91L47.94,6.91C49.84,6.91 51.612,5.355 51.876,3.455C52.142,1.555 50.803,0 48.903,0L0.963,0C-0.937,0 -2.708,1.555 -2.974,3.455C-3.238,5.355 -1.9,6.91 0,6.91" style="fill:white;fill-rule:nonzero;"/>
                </g>
            </g>
        </g>
        <g transform="matrix(1,0,0,1,3.8888,-61)">
            <g opacity="0.2">
                <g transform="matrix(1,0,0,1,253.072,189.838)">
                    <path d="M0,3.574L77.784,3.574C78.767,3.574 79.684,2.77 79.82,1.787C79.958,0.804 79.265,0 78.282,0L0.499,0C-0.484,0 -1.401,0.804 -1.538,1.787C-1.675,2.77 -0.983,3.574 0,3.574" style="fill:white;fill-rule:nonzero;"/>
                </g>
            </g>
        </g>
        <g transform="matrix(1,0,0,1,3.8888,-61)">
            <g opacity="0.4">
                <g transform="matrix(0,1,1,0,248.304,288.25)">
                    <path d="M14.858,-14.858C23.064,-16.002 29.716,-10.276 29.716,-2.07C29.716,6.136 23.064,13.715 14.858,14.858C6.652,16.002 -0,10.277 -0,2.071C-0,-6.135 6.652,-13.714 14.858,-14.858" style="fill:white;fill-rule:nonzero;"/>
                </g>
            </g>
        </g>
        <g transform="matrix(1,0,0,1,238.927,242.106)">
            <path d="M0,0C-0.319,2.291 -0.038,4.442 0.722,6.319C2.384,10.454 6.374,13.266 11.417,13.266C16.46,13.266 21.234,10.454 24.048,6.319C25.332,4.442 26.213,2.291 26.532,0C27.553,-7.328 22.442,-13.266 15.115,-13.266C7.787,-13.266 1.021,-7.328 0,0" style="fill:white;fill-rule:nonzero;"/>
        </g>
        <g transform="matrix(1,0,0,1,3.8888,-61)">
            <g opacity="0.4">
                <g transform="matrix(0,1,1,0,248.907,300.537)">
                    <path d="M7.639,-10.258C10.811,-8.983 12.969,-5.922 12.969,-2.052C12.969,1.817 10.811,5.48 7.639,7.639C5.927,5.315 4.928,2.379 4.928,-0.932C4.928,-4.242 5.927,-7.457 7.639,-10.258" style="fill:rgb(26,46,53);fill-rule:nonzero;"/>
                </g>
            </g>
        </g>
        <g transform="matrix(1,0,0,1,3.8888,-61)">
            <g opacity="0.4">
                <g transform="matrix(0,1,1,0,248.759,295.312)">
                    <path d="M4.534,-4.534C7.038,-4.883 9.068,-3.136 9.068,-0.632C9.068,1.872 7.038,4.185 4.534,4.533C2.03,4.883 0,3.135 0,0.632C0,-1.872 2.03,-4.185 4.534,-4.534" style="fill:rgb(26,46,53);fill-rule:nonzero;"/>
                </g>
            </g>
        </g>
    </g>
</svg>
