<svg width="254" height="200" fill="none" xmlns="http://www.w3.org/2000/svg"><path fill-rule="evenodd" clip-rule="evenodd" d="M183.249 68.06c.649-1.817-.696-6.813-.696-6.813s-4.358.33-5.824-.037c-2.402-.6-4.063-2.391-5.494-4.322-5.046-6.81-5.201-17.267-5.521-25.437-.107-2.727-.063-5.309.192-8.032.522-5.563 2.846-10.449 8.906-11.498 4.527-.783 8.66 1.12 12.638 3.033 9.559 4.596 15.47 13.705 17.187 24.012.427 2.562-.181 7.19-.181 7.19s-.402 5.261-.402 6.52c0 3.28 1.208 5.567 1.208 5.567s-1.843 6.03-3.152 8.172c-2.449 4.007-5.8 8.31-10.161 10.363-2.938 1.382-8.064 1.454-9.14-2.235-.493-1.69-.476-4.689-.476-4.689l.916-1.794zm-49.419 85.337s.826 5.276.678 7.449c-.063.945-1.409 5.416-1.409 5.416s-4.943.2-10.39-.31c-3.565-.335-7.586-1.415-9.737-1.513-4.811-.219-6.533 1.631-11.352 1.214-1.377-.121-2.988-.952-2.988-.952s-3.156.054-3.971-.516c-.815-.57.71-1.766.71-1.766s.332-1.562 2.207-3.271c1.875-1.711 4.867-3.257 4.867-3.257s2.909-6.953 6.144-7.701c2.158-.497 4.924 1.293 6.887 1.868 2.495.731 6.811 1.965 10.484 2.578 4.334.721 7.87.761 7.87.761z" fill="#FFEFE9"/><path fill-rule="evenodd" clip-rule="evenodd" d="M115.663 149.747s-.4-2.621-.897-3.797c-1.232-2.92-6.955-6.123-6.955-6.123s-4.336 1.236-6.245 1.675c-3.605.833-8.184.601-10.625 1.465-2.193.775-4.976 5.255-4.976 5.255s-6.82 2.973-8.617 4.432c-1.794 1.459 1.972 2.102 1.972 2.102s-1.947.975-1.746 2.179c.069.41.53.849 1.37 1.051.84.201 1.99-.245 1.99-.245s1.03 1.057 2.535.638c4.986-1.384 9.413-5.441 14.315-7.075.943-.314 3.788-.397 4.788-.063.718.239 1.69 1.409 1.69 1.409s1.095-1.323 1.481-1.601c1.802-1.302 1.453-2.957 3.754-2.711.689.075 6.166 1.409 6.166 1.409z" fill="#FFEFE9"/><path fill-rule="evenodd" clip-rule="evenodd" d="M204.264 47.32s.012 1.413-.077 2.352c-.123 1.293 0 5.672 0 5.672s1.118.843 1.967 1.235c2.002.923 3.349 1.324 5.595 1.157 6.264-.463 11.41-4.426 12.424-10.456 2.083-12.385-5.942-13.89-5.942-13.89s.193-2.094.193-2.585c0-1.342-.054-3.18-.193-4.514-.424-4.058-1.642-7.588-3.511-11.227-3.016-5.874-7.833-9.945-13.851-12.578-2.914-1.275-6.406-1.382-9.53-1.737-1.755-.199-4.179.127-5.942.386-4.701.692-9.285 2.672-12.964 5.556-1.433 1.124-3.5 3.054-4.629 4.476-1.534 1.929-2.47 8.14-1.352 9.453 0 0 1.192-2.765 1.236-2.856.45-.94.962-2.39 1.698-3.125 2.121-2.122 6.529-2.577 9.298-1.157 1.954 1.003 3.24 3.033 4.514 4.746 2.751 3.699 5.004 7.7 7.794 11.381 1.597 2.109 3.654 2.79 6.173 3.087 1.04.122 3.178-1.541 3.279-1.39.13.197.199 2 .193 2.2-.022.827-.076 1.642-.115 2.47-.085 1.775.572 3.818 1.273 5.44a21.862 21.862 0 002.238 3.973c.36.504.231 1.93.231 1.93z" fill="#D0AF9C"/><path fill-rule="evenodd" clip-rule="evenodd" d="M204.868 58.8c-2.641 5.283-5.414 9.55-9.854 13.523-2.009 1.797-5.76 4.639-8.702 4.412-4.884-.375-3.536-7.953-3.536-7.953s-1.203 1.666-1.335 1.808c-.628.675-.967 1.795-1.357 2.631-.566 1.212-1.123 2.481-1.52 3.74-.268.847-1.313 3.391-1.583 4.604-1.104 4.966-2.054 5.052-3.543 9.918-1.141 3.728-2.491 8.811-3.818 13.481-2.026 7.134-3.223 19.016-3.649 27.105-.174 3.325-.208 7.66-.208 10.99 0 .559.166 6.703.166 6.703s3.536-1.012 4.455-.958c1.994.118 9.353-2.933 9.353-2.933s-.201-1.972 1.162-3.238c.85-.789 2.973-1.614 2.973-1.614l2.313-2.815s.323-5.5 1.467-10.571c.627-2.777 2.078-9.682 2.57-12.341 1.76-9.526 5.25-20.596 7.727-30.502 1.345-5.383 2.976-11.103 4.847-16.34.406-1.14 1.258-4.718 1.681-5.845.152-.405.391-3.806.391-3.806zm-97.266 81.016s1.552-1.731 2.477-1.362c2.846 1.138 7.976 5.354 8.654 8.287.187.815.931 3.439.032 3.954-1.085.62-3.174-.953-3.174-.953s-.264-2.423-.557-2.966c-.591-1.09-1.761-3.009-3.089-4.195-2.054-1.834-4.343-2.765-4.343-2.765zm35.604 12.692s.918 3.515.723 8.066c-.054 1.243-.537 2.778-.625 3.437-.089.66-.114 1.141-.274 1.739-.105.397-.547 1.29-.547 1.29s-4.125-.397-4.902-.511c-.805-.118-3.829.041-3.829.041s.894-5.089.938-7.343c.024-1.208-.14-3.022-.299-4.392-.148-1.296-.344-2.18 1.452-2.268 1.992-.099 7.363-.059 7.363-.059z" fill="#fff"/><path fill-rule="evenodd" clip-rule="evenodd" d="M207.69 30.25c1.056.65 1.575 2.335 1.745 3.443.466 3.03-.157 7.194-1.858 9.745-.96 1.44-2.622 3.086-4.532 2.267-1.623-.695-1.874-2.586-2.131-4.125-.509-3.058-.646-6.72.454-9.654.668-1.782 2.258-3.546 4.351-3.127.931.186 1.241 1 1.971 1.45z" fill="#969696"/><path fill-rule="evenodd" clip-rule="evenodd" d="M202.937 29.467c-.307-1.839.352-3.968.695-5.765.749-3.912 1.92-8.264 1.565-12.284-.645-7.295-7.47-13.464-14.862-10.776-.142.052-.512.096-.406.203.107.106 1.124-.018 1.275 0 1.147.132 2.291.467 3.389.81 3.11.973 6.587 2.98 7.852 6.143 1.335 3.338.241 6.44-.261 9.791-.494 3.289-.928 6.532-1.188 9.85-.103 1.324-.658 3.317-.261 4.606.139.453.681-.38.754-.492.515-.797 1.535-1.786 1.535-2.781l-.087.695zM167.865 57.17c-.253-1.129-2.813-1.755-2.549-.404.293 1.502 3.064 2.708 2.549.404z" fill="#969696"/><path fill-rule="evenodd" clip-rule="evenodd" d="M204.55 55.901c.605 0 1.82.744 2.303 1.105 2.281 1.712 3.822 4.508 5.264 7.031.418.73 1.152 2.364 1.152 2.364s7.17 4.987 9.63 7.447c3.826 3.826 7.531 7.136 10.215 11.966 2.487 4.478 2.139 11.65 1.714 16.74-.152 1.831-.896 7.211-1.081 9.059-.648 6.481-.914 7.514-2.113 15.697-1.199 8.184-1.41 10.857-1.953 17.371-.398 4.782-.194 10.002.28 14.749.271 2.709 1.396 5.286 1.774 7.934.136.95.173 1.961-.093 2.894-.164.573-.568 2.718-.568 2.718s.975 1.653 1.124 2.396c.372 1.858-.108 2.818-.463 4.595-.354 1.772.505 3.442.747 5.134.143 1.004.557 1.639.557 2.672 0 .195.404 2.24.404 2.24l-43.513-22.8s-1.975.876-3.013 1.025c-1.75.25-8.088 1.067-9.86 1.067-8.62 0-11.454.325-20.094-.129-3.316-.175-7.39-.035-10.673-.503-.256-.037-2.989-.015-3.108-.252-.445-.893.544-4.565.577-5.534.092-2.769.238-4.822-.184-7.554-.127-.832-.796-2.732-.429-3.465.265-.529 1.388-.516 2.797-.557 1.409-.039 6.702-.104 9.677-.332 4.528-.349 9.401-.486 13.695-1.773 2.43-.73 9.9-3.04 9.9-3.04s.787-2.62 2.094-3.791c.844-.752 3.081-1.758 3.081-1.758l2.16-3.096s1.333-11.574 2.114-15.539c1.321-6.7 4.182-14.806 5.588-22.771 1.226-6.948 3.92-15.162 5.851-21.917 1.403-4.911 2.254-7.861 3.848-12.643.365-1.096 2.378-5.72.992-6.413l-.393-2.337z" fill="#79A8C6"/><path fill-rule="evenodd" clip-rule="evenodd" d="M182.002 64.715c1.845-1.668 1.109 3.336 1.109 3.336s-.858 1.32-1.896 3.395c-1.369 2.74-2.284 5.096-3.633 7.863-1.687 3.459-2.851 8.193-3.98 11.86-1.31 4.262-2.743 8.475-3.675 12.849-2.664 12.501-4.222 24.783-4.222 37.59 0 .964.443 8.18.443 8.18l-5.457.68c0-1.028.113-3.487.113-4.515 0-2.554.622-4.913.327-7.443-.142-1.214-.132-5.078-.132-5.078s-2.662 2.431-3.156 2.834c-1.309 1.071-3.463 2.675-4.958 3.376-5.184 2.429-10.797 5.078-14.976 6.287-5.017 1.452-19.125 4.681-19.125 4.681s.338-2.592.123-3.325c-.455-1.548-1.449-3.121-2.428-4.387-1.132-1.466-3.383-2.966-4.981-3.854-.343-.191-2.947-.764-2.794-1.371.184-.737 3.308-2.064 3.797-2.359 1.259-.758 5.427-2.669 8.744-3.717 4.16-1.314 8.446-3.174 12.235-5.215 1.733-.932 7.356-3.446 7.356-3.446s.663-2.355 1.626-3.318c.521-.519 3.477-.728 3.477-.728s1.166-2.211 2.015-3.591c2.429-3.948 3.358-6.997 5.611-11.027 3.173-5.68 4.903-10.12 8.433-15.611.947-1.473 3.305-6.022 5.103-8.114 3.739-4.352 9.776-8.639 9.776-8.639s3.278-5.526 5.125-7.193z" fill="#79A8C6"/><path d="M165.681 27.157h.012a.405.405 0 00.394-.417c-.234-9.006 3.599-12.147 4.036-12.476a.404.404 0 00.082-.568.407.407 0 00-.568-.082c-.772.579-4.602 3.929-4.362 13.148.006.22.186.395.406.395zm13.247 34.67c1.127 0 2.216-.132 3.164-.306 4.822-.885 9.965-3.666 11.707-6.332a.405.405 0 00-.117-.562.405.405 0 00-.562.117c-1.636 2.503-6.545 5.128-11.175 5.978-3.358.618-6.199.234-8.002-1.079-5.818-4.231-7.261-16.156-7.261-17.704a.406.406 0 10-.812 0c0 2.719 1.899 14.22 7.595 18.362 1.592 1.158 3.579 1.526 5.463 1.526z" fill="#3F4B53"/><path d="M170.964 44.626a.407.407 0 00.12-.795c-1.048-.322-1.485-1.268-1.304-1.997.06-.235.306-.446.568-.668.272-.234.581-.497.764-.863.415-.832.371-1.53.324-2.267-.013-.235-.029-.479-.029-.74a.406.406 0 00-.814 0c0 .28.016.54.032.791.044.68.078 1.216-.24 1.853-.11.218-.331.407-.566.607-.33.282-.705.603-.827 1.09-.274 1.096.345 2.507 1.852 2.97a.41.41 0 00.12.019zm5.862-16.158a.41.41 0 00.288-.12c.95-.95 3.012-.725 3.939-.107a.406.406 0 10.45-.677c-1.161-.774-3.676-1.08-4.964.21a.407.407 0 00.287.694zm-10.591 1.206a.41.41 0 00.298-.129c.447-.478 1.417-.517 1.986-.232a.406.406 0 10.364-.727c-.842-.421-2.205-.385-2.944.404a.406.406 0 00.296.684zm8.555 22.25c.615 0 1.247-.07 1.813-.176 2.014-.38 3.599-1.262 4.238-2.357a.404.404 0 00-.145-.556.404.404 0 00-.555.146c-.516.882-1.93 1.636-3.689 1.969-1.538.289-3.01.178-3.578-.274a.41.41 0 00-.572.066.408.408 0 00.066.572c.563.445 1.472.61 2.422.61zm-9.872 4.556c.104 0 .208-.04.287-.12a.404.404 0 000-.574c-2.224-2.225-1.587-6.128-.054-8.812.248-.432.547-.835.865-1.26.385-.519.784-1.055 1.083-1.653a.406.406 0 10-.727-.364c-.267.534-.626 1.018-1.008 1.53-.317.428-.647.869-.918 1.344-1.682 2.944-2.341 7.263.186 9.79a.405.405 0 00.286.119z" fill="#3F4B53"/><path d="M166.89 59.149c.589 0 1.071-.263 1.3-.713.248-.491.144-1.119-.271-1.64a.408.408 0 00-.635.509c.214.267.283.56.18.764-.092.182-.324.28-.623.266-.601-.024-1.211-.513-1.617-.879-.246-.22-.45-.597-.366-.847.06-.179.161-.3.3-.361.225-.098.562-.054.952.122a.405.405 0 00.334-.74c-.771-.348-1.3-.261-1.611-.127-.355.155-.613.449-.745.849-.209.624.147 1.308.593 1.709.499.45 1.263 1.052 2.128 1.086l.081.002zm15.46 11.009a.406.406 0 00.363-.225c.369-.737.713-1.477.869-2.412.347-2.081-.793-6.12-.841-6.29a.407.407 0 10-.782.222c.011.04 1.138 4.033.821 5.933-.138.826-.441 1.478-.794 2.184a.407.407 0 00.364.588zm22.505-11.634a.406.406 0 00.227-.744c-.458-.305-.833-2.06-.912-4.266-.058-1.607-.098-4.642.272-6.916a.407.407 0 00-.802-.13c-.381 2.342-.341 5.438-.283 7.075.057 1.555.296 4.26 1.273 4.912a.398.398 0 00.225.069z" fill="#3F4B53"/><path d="M204.261 46.432c.971 0 1.901-.393 2.701-1.142 1.471-1.38 2.762-5.104 2.933-7.514.146-2.05.168-4.666-.561-5.491a.406.406 0 10-.609.538c.398.45.539 2.373.359 4.895-.174 2.46-1.476 5.852-2.678 6.98-.676.633-1.441.953-2.257.92-.758-.031-1.477-.38-2.024-.981-.729-.803-1.171-2.453-1.276-4.772-.113-2.494.023-7.064 2.208-9.646.46-.545 1.24-.867 2.092-.867h.047c.898.013 1.707.387 2.217 1.026a.407.407 0 00.635-.507c-.664-.83-1.699-1.315-2.84-1.331h-.058c-1.089 0-2.099.428-2.714 1.154-2.363 2.794-2.518 7.596-2.399 10.208.117 2.546.616 4.323 1.487 5.282.695.764 1.616 1.206 2.593 1.245l.144.003zm-7.955-16.949c1.026 0 2.089-.13 2.837-.505a.406.406 0 10-.363-.727c-1.162.58-3.513.463-4.738.2-2.889-.619-5.133-2.57-6.507-4.097-1.318-1.464-2.176-2.908-3.084-4.437a53.686 53.686 0 00-1.532-2.475l-.094-.14c-1.636-2.457-4.109-6.17-7.698-4.377a.407.407 0 10.363.727c2.944-1.472 5.092 1.75 6.659 4.1l.093.141c.562.842 1.043 1.654 1.51 2.439.93 1.565 1.807 3.043 3.179 4.566 2.086 2.318 4.486 3.822 6.94 4.348.609.13 1.507.237 2.435.237zm.392 3.006c.888 0 1.739-.15 2.441-.487a.407.407 0 00-.354-.732c-2.043.986-5.896.026-6.968-1.367a.404.404 0 00-.569-.075.405.405 0 00-.075.57c.911 1.183 3.329 2.09 5.525 2.09zM176.12 10.14a.405.405 0 00.376-.252c1.138-2.78 3.394-5.338 5.749-6.515a.407.407 0 10-.364-.727c-2.52 1.26-4.929 3.982-6.137 6.934a.406.406 0 00.376.56zm-10.172 6.605a.405.405 0 00.398-.488c-.244-1.195.216-2.716 1.331-4.401 2.324-3.504 7.087-7.06 9.355-7.514a.406.406 0 10-.159-.797c-2.433.487-7.379 4.102-9.873 7.862-1.255 1.896-1.743 3.582-1.45 5.013.04.193.21.325.398.325z" fill="#3F4B53"/><path d="M206.618 48.7a.422.422 0 00.079-.007c6.458-1.262 10.56-9.22 11.638-16.081 1.619-10.305-3.576-23.976-15.073-29.017a.407.407 0 00-.327.745c11.138 4.883 16.168 18.145 14.598 28.146-1.036 6.59-4.918 14.223-10.992 15.41a.407.407 0 00.077.804z" fill="#3F4B53"/><path d="M218.083 49.377a.405.405 0 00.236-.076c3.583-2.56 4.234-8.59 2.594-12.616-1.042-2.555-2.079-3.798-3.172-3.798a.406.406 0 000 .813c.324 0 1.208.32 2.419 3.292 1.492 3.662.908 9.346-2.313 11.648a.406.406 0 00.236.737z" fill="#3F4B53"/><path d="M210.626 58.09c1.528 0 2.992-.242 3.889-.476 5.242-1.36 9.576-6.577 10.305-12.406.143-1.144.243-4.822-.718-5.919a.406.406 0 10-.611.535c.6.686.728 3.632.522 5.282-.689 5.513-4.77 10.442-9.703 11.722-1.326.344-5.241.953-7.418-.343a.406.406 0 10-.416.699c1.144.68 2.677.907 4.15.907zM200.37 37.655a.406.406 0 00.406-.407c0-4.464.599-10.937 1.525-16.491.144-.864.319-1.738.496-2.62.57-2.84 1.161-5.779.765-8.661-.298-2.17-1.57-4.144-3.681-5.712-3.227-2.397-8.064-3.588-12.04-2.96a.405.405 0 10.128.803c3.714-.587 8.412.57 11.428 2.81 1.931 1.435 3.093 3.222 3.36 5.169.377 2.747-.2 5.616-.757 8.392a81.14 81.14 0 00-.501 2.644c-.708 4.25-1.536 11.152-1.536 16.627 0 .224.182.406.407.406z" fill="#3F4B53"/><path d="M203.319 29.733a.406.406 0 00.406-.406c0-3.95.672-7.16 1.265-9.99a80.2 80.2 0 00.621-3.172c.566-3.404.938-7.72-1.236-10.915-.109-.16-2.704-3.92-6.93-5.112a.406.406 0 10-.22.782c3.943 1.113 6.376 4.637 6.478 4.787 2.012 2.957 1.648 7.07 1.105 10.323a77.647 77.647 0 01-.613 3.14c-.601 2.87-1.282 6.122-1.282 10.157 0 .224.182.406.406.406zm9.397 36.753a.406.406 0 00.363-.588 127.89 127.89 0 01-.666-1.362c-1.294-2.68-2.632-5.452-5.058-7.393l-.22-.177c-.856-.693-1.922-1.556-3.096-1.556a.406.406 0 100 .812c.886 0 1.829.763 2.585 1.375l.224.18c2.281 1.826 3.579 4.514 4.834 7.113.223.462.445.921.67 1.372a.407.407 0 00.364.224zM233 189.877a.393.393 0 00.397-.334c.054-.373-.243-1.625-.976-4.479-.114-.443-.219-.853-.303-1.187-.291-1.161-.457-2.849-.212-3.828.144-.576.634-3.065.494-4.103-.208-1.547-.954-2.696-1.292-3.151.631-1.512 1-4.651.696-6.167-.247-1.237-.616-2.482-.973-3.685-.451-1.519-.917-3.091-1.141-4.661-.467-3.269-.578-6.809-.315-9.971.757-9.085 2.555-22.433 3.324-28.132.246-1.828.366-2.715.38-2.904.095-1.232.339-3.054.621-5.167.915-6.85 2.3-17.202.685-22.936-2.038-7.239-10.479-14.582-12.151-15.98-6.661-5.576-7.392-5.993-7.746-5.993a.406.406 0 00-.063.808c.683.28 5.475 4.29 7.288 5.808 1.005.84 9.875 8.42 11.89 15.578 1.568 5.571.198 15.824-.709 22.608-.284 2.123-.529 3.957-.626 5.212-.013.173-.164 1.299-.375 2.859-.769 5.705-2.569 19.065-3.328 28.171-.269 3.221-.155 6.826.32 10.155.233 1.629.708 3.228 1.167 4.776.352 1.186.716 2.412.956 3.614.288 1.442-.11 4.632-.736 5.884a.407.407 0 00.057.449c.011.012 1.033 1.208 1.265 2.933.115.846-.327 3.199-.476 3.797-.29 1.161-.094 3.002.212 4.224.084.335.189.746.304 1.193.366 1.422.977 3.803.958 4.168a.42.42 0 00.364.439l.044.002zm-23.692-136.54c.933 0 1.832-.152 2.749-.455a.406.406 0 10-.255-.772c-1.725.57-3.324.559-5.341-.046-.656-.195-1.462-.49-1.885-1.038a.403.403 0 00-.569-.075.405.405 0 00-.075.57c.565.733 1.523 1.092 2.296 1.322 1.102.33 2.11.494 3.08.494zm-22.599 23.855l.044-.002c1.036-.11 4.388-1.68 5.595-2.404 3.528-2.117 7.173-6.367 9.224-9.363 1.959-2.864 3.481-6.388 3.675-7.065a.407.407 0 00-.783-.222c-.162.57-1.65 4.032-3.563 6.828-2.162 3.16-5.775 7.207-8.971 9.124-1.221.733-4.439 2.206-5.263 2.294a.406.406 0 00.042.81zm-1.895-.14a.406.406 0 00.181-.77c-1.505-.751-2.322-5.078-2.051-6.25a.407.407 0 00-.793-.184c-.291 1.263.485 6.164 2.481 7.162.058.028.12.042.182.042z" fill="#3F4B53"/><path d="M185.821 138.471a.407.407 0 00.401-.347c.455-3.121 1.75-10.914 2.664-15.548 1.492-7.547 7.53-31.16 10.95-42.822.412-1.405.875-3.06 1.364-4.808 1.093-3.907 2.333-8.336 3.416-11.439l.059-.169c.574-1.636 1.642-4.68.41-6.16a.407.407 0 00-.625.519c.938 1.126-.106 4.101-.552 5.372l-.06.17c-1.091 3.128-2.334 7.569-3.43 11.487a447.672 447.672 0 01-1.361 4.8c-3.426 11.677-9.473 35.328-10.968 42.893-.917 4.646-2.215 12.458-2.671 15.588a.406.406 0 00.403.464zm-19.87 9.035l.045-.001a.407.407 0 00.359-.449c-.377-3.474-.292-20.455 1.513-30.08l.371-2.004c.657-3.568 1.473-8.01 2.429-11.831 1.189-4.755 3.983-14.567 6.418-20.655.509-1.273.934-2.405 1.337-3.478.878-2.343 1.638-4.367 2.939-6.968l.167-.335c.358-.724 1.199-2.42 1.484-2.634.209-.081.293-.307.213-.516-.082-.209-.337-.303-.546-.222-.376.146-.78.793-1.881 3.01l-.164.333c-1.321 2.64-2.086 4.682-2.974 7.046a162.44 162.44 0 01-1.33 3.463c-2.451 6.124-5.257 15.983-6.452 20.758-.961 3.846-1.781 8.301-2.439 11.882l-.371 2c-1.73 9.225-1.964 26.244-1.522 30.319.022.208.2.362.404.362z" fill="#3F4B53"/><path d="M142.627 167.912c.18 0 .344-.12.393-.302 1.813-6.878.868-12.049.413-14.535-.094-.513-.19-1.042-.17-1.173.163-.253 1.661-.259 2.3-.262.27-.002.515-.003.711-.013.733-.037 1.726-.08 2.865-.128 1.583-.066 3.449-.145 5.301-.242 5.827-.306 8.791-.638 14.416-1.609 3.206-.555 10.332-2.956 10.744-3.506.403-.536.521-1.131.625-1.656.127-.642.237-1.198.815-1.63.64-.481 1.083-.637 1.51-.785.644-.225 1.252-.438 2.121-1.655 2.55-3.569 5.183-7.343 6.907-10.791 3.217-6.435 7.222-14.444 9.537-21.393.28-.836.668-2.1 1.133-3.614 1.655-5.391 4.156-13.54 6.264-17.37 2.498-4.535 5.763-7.253 9.981-8.309 3.887-.972 8.6.737 12.005 4.355a.406.406 0 00.592-.557c-3.604-3.828-8.626-5.63-12.795-4.586-4.449 1.113-7.881 3.96-10.494 8.705-2.15 3.904-4.666 12.1-6.33 17.524-.463 1.506-.849 2.763-1.126 3.595-2.298 6.894-6.288 14.875-9.494 21.287-1.697 3.395-4.31 7.139-6.841 10.682-.719 1.006-1.143 1.155-1.728 1.359a5.705 5.705 0 00-1.73.902c-.826.62-.984 1.419-1.125 2.124-.092.466-.18.907-.45 1.287-.605.372-6.71 2.617-10.259 3.23-5.588.966-8.533 1.296-14.321 1.601-1.85.096-3.712.174-5.292.241-1.143.047-2.137.09-2.873.128-.185.009-.417.01-.672.01-1.473.006-2.633.063-3.024.732-.157.267-.088.646.098 1.662.444 2.429 1.367 7.481-.4 14.182a.408.408 0 00.393.51z" fill="#3F4B53"/><path d="M165.121 169.891c.499 0 1.003-.003 1.513-.007 8.853-.091 21.343-1.217 23.575-2.479 2.47-1.396 4.785-3.032 6.351-4.485 2.843-2.64 4.456-4.667 6.689-7.473l.918-1.152c6.537-8.172 11.401-14.846 16.923-24.786 1.673-3.011 5.321-9.995 6.929-13.21 1.013-2.028 3.509-7.327 3.534-7.381a.408.408 0 00-.736-.346c-.024.053-2.516 5.345-3.526 7.364-1.603 3.207-5.243 10.175-6.911 13.179-5.494 9.889-10.338 16.535-16.848 24.671l-.92 1.155c-2.21 2.778-3.806 4.785-6.604 7.383-1.523 1.413-3.782 3.006-6.199 4.374-1.906 1.076-13.606 2.274-23.184 2.372-6.297.063-11.71-.293-16.062-.582-2.209-.145-4.117-.271-5.64-.306-.22.019-.41.174-.415.398a.406.406 0 00.398.415c1.504.033 3.404.159 5.604.304 4.012.267 8.928.592 14.611.592zm29.432-82.199c.864 0 1.672-1.248 2.281-2.188.128-.198.234-.363.311-.462.764-.983 2.12-3.58 2.177-3.69a.406.406 0 00-.72-.376c-.015.026-1.38 2.642-2.099 3.568-.085.11-.206.295-.351.519-1.05 1.62-1.472 1.877-1.638 1.808-.57-.228-1.561-1.759-2.08-3.21l-.261-.743c-.426-1.223-.908-2.608-1.466-3.509-.565-.912-1.758-1.766-4.24-.654a.406.406 0 00-.205.537.404.404 0 00.537.204c2.355-1.055 3.003-.004 3.217.341.511.825.978 2.165 1.39 3.348l.263.75c.431 1.205 1.502 3.273 2.544 3.69a.908.908 0 00.34.067zm-16.25-1.794c.067 0 .135-.01.202-.03.6-.18.938-1.103 1.387-2.49.125-.388.243-.753.349-.999.07-.166.144-.358.221-.569.414-1.1.98-2.61 2.569-3.403a.407.407 0 00-.363-.727c-1.874.936-2.531 2.686-2.967 3.844-.073.198-.14.38-.208.535-.12.28-.245.663-.375 1.068-.182.564-.551 1.707-.814 1.937a1.317 1.317 0 00-.195-.11c-.321-.161-.92-.46-1.174-1.768a.406.406 0 10-.797.154c.329 1.702 1.227 2.15 1.609 2.341.035.018.065.032.087.045a.746.746 0 00.469.172zm-4.962 62.262a.405.405 0 00.406-.406c0-3.836.324-7.33.664-11.028.176-1.894.357-3.851.492-5.864.115-1.749.173-3.504.227-5.203.154-4.849.299-9.432 1.735-14.101.816-2.648 1.978-5.258 3.102-7.782.901-2.023 1.833-4.117 2.588-6.232.561-1.571.768-3.255.967-4.885.087-.712.174-1.422.29-2.117.681-4.09 1.408-8.852 1.408-13.603a.406.406 0 00-.812 0c0 4.69-.722 9.411-1.398 13.469-.118.707-.206 1.428-.295 2.153-.194 1.585-.395 3.223-.925 4.71-.745 2.086-1.672 4.165-2.566 6.175-1.133 2.545-2.306 5.178-3.134 7.873-1.469 4.773-1.624 9.624-1.774 14.315-.053 1.69-.108 3.439-.224 5.174a231.223 231.223 0 01-.488 5.841c-.345 3.72-.669 7.231-.669 11.105 0 .225.182.406.406.406z" fill="#3F4B53"/><path d="M177.185 147.085a.404.404 0 00.406-.39c.138-3.429 1.691-5.915 2.824-7.73.645-1.033 1.154-1.848 1.278-2.59.191-1.15.297-2.316.4-3.445.129-1.422.263-2.891.568-4.316.47-2.192 1.381-4.319 2.261-6.376.757-1.769 1.54-3.599 2.055-5.487.497-1.82.655-3.729.807-5.575.129-1.562.263-3.178.603-4.708.556-2.501 1.36-4.995 2.139-7.407 1.03-3.193 2.095-6.496 2.619-9.905.127-.829.251-1.667.375-2.51.436-2.964.886-6.03 1.564-8.911.53-2.254 1.167-4.493 1.781-6.657.898-3.161 1.827-6.429 2.437-9.786.341-1.874.487-3.783.628-5.63.278-3.62.539-7.04 2.145-10.25a.407.407 0 00-.728-.364c-1.676 3.354-1.956 7.014-2.227 10.553-.14 1.825-.284 3.713-.617 5.545-.604 3.32-1.527 6.567-2.42 9.71-.617 2.173-1.255 4.42-1.79 6.693-.686 2.915-1.139 5.998-1.577 8.979-.124.84-.247 1.677-.374 2.504-.514 3.345-1.57 6.616-2.59 9.78-.784 2.429-1.594 4.942-2.159 7.48-.352 1.584-.487 3.228-.619 4.817-.149 1.81-.304 3.681-.78 5.428-.501 1.834-1.273 3.637-2.02 5.382-.895 2.092-1.822 4.256-2.308 6.525-.315 1.473-.451 2.967-.583 4.412-.101 1.115-.206 2.265-.392 3.385-.096.582-.592 1.376-1.165 2.293-1.182 1.893-2.8 4.485-2.947 8.128a.409.409 0 00.39.423h.016zm29.318-55.82a.406.406 0 00.394-.307c.279-1.114.248-2.267.22-3.382-.023-.833-.043-1.62.054-2.395.083-.672.16-1.342.236-2.01.158-1.392.321-2.83.555-4.232.408-2.45 1.381-4.98 2.321-7.427.193-.502.384-.997.567-1.486.215-.576.531-1.121.864-1.698.371-.64.754-1.304.991-2.017a.405.405 0 10-.77-.257c-.212.635-.558 1.233-.925 1.867-.335.58-.682 1.18-.921 1.82-.182.487-.372.98-.564 1.48-.955 2.484-1.943 5.053-2.365 7.584-.237 1.424-.401 2.873-.561 4.274-.075.665-.151 1.332-.235 2-.104.837-.081 1.692-.06 2.519.029 1.109.056 2.156-.195 3.162a.406.406 0 00.394.505zm-17.748 29.436a.408.408 0 00.381-.266c.052-.14 5.264-14.127 12.876-22.518a.406.406 0 10-.602-.545c-7.72 8.508-12.984 22.64-13.036 22.782-.078.21.03.444.241.52a.383.383 0 00.14.027zm-21.553-3.654a.406.406 0 00.406-.406c0-2.656-.32-6.031-.629-9.293-.18-1.912-.352-3.719-.447-5.263a20.962 20.962 0 00-.22-1.962c-.289-1.987-.435-2.984 2.244-7.85 2.073-3.765 3.473-7.365 4.828-10.847.945-2.432 1.84-4.728 2.933-7.038 2.786-5.878 4.152-8.119 6.753-9.806a.406.406 0 10-.441-.682c-2.93 1.9-4.396 4.549-7.046 10.14-1.107 2.336-2.004 4.646-2.957 7.091-1.344 3.457-2.736 7.032-4.782 10.75-2.81 5.106-2.642 6.261-2.335 8.359.077.534.167 1.139.212 1.894.095 1.559.267 3.371.45 5.291.307 3.244.625 6.598.625 9.216 0 .225.181.406.406.406zm-6.196 33.525a.406.406 0 00.406-.406c0-1.112.053-2.665.114-4.464.154-4.477.364-10.607-.117-14.778a88.07 88.07 0 00-.286-2.127c-.441-3.142-1.111-7.89-.566-10.07 1.483-5.927 2.852-10.104 4.186-12.772a.406.406 0 10-.727-.363c-1.361 2.722-2.749 6.953-4.246 12.937-.585 2.335.071 6.986.55 10.381.114.819.217 1.542.283 2.106.472 4.111.264 10.208.111 14.659-.061 1.806-.114 3.366-.114 4.491 0 .225.182.406.406.406z" fill="#3F4B53"/><path d="M108.712 138.276c.17 0 .329-.107.386-.277.44-1.317 8.178-4.428 13.298-6.487 2.709-1.09 5.048-2.031 6.343-2.677 1.396-.698 12.096-5.555 12.204-5.603a.412.412 0 00.219-.246c.007-.021.672-2.075 1.457-2.861.602-.601 1.137-.585 1.75-.57.771.024 1.638.043 2.391-1.215 2.517-4.193 4.078-7.409 5.732-10.813 1.208-2.485 2.456-5.054 4.158-8.173.799-1.465 1.592-2.98 2.392-4.51 2.419-4.623 4.92-9.402 7.91-13.39 1.609-2.145 3.853-3.922 6.024-5.641 1.46-1.157 2.972-2.354 4.265-3.647a.407.407 0 00-.575-.574c-1.259 1.26-2.752 2.44-4.194 3.584-2.212 1.75-4.498 3.562-6.17 5.79-3.031 4.04-5.548 8.85-7.98 13.5-.799 1.527-1.589 3.038-2.386 4.499-1.711 3.136-2.963 5.714-4.174 8.206-1.646 3.389-3.2 6.589-5.698 10.751-.512.85-.974.839-1.673.82-.664-.015-1.497-.04-2.345.81-.785.784-1.411 2.464-1.6 3.013-1.4.635-10.74 4.877-12.071 5.543-1.265.631-3.59 1.567-6.281 2.65-7.735 3.109-13.248 5.43-13.767 6.984a.404.404 0 00.385.534zm15.654 11.061c.015 0 .028-.002.042-.003 3.947-.413 13.877-2.979 17.377-4.339 4.485-1.746 12.778-5.738 14.312-6.892 1.527-1.148 4.889-4.465 5.031-4.606a.407.407 0 00.004-.575.408.408 0 00-.574-.003c-.035.034-3.466 3.419-4.949 4.535-1.497 1.124-9.677 5.054-14.119 6.783-3.766 1.464-13.553 3.909-17.167 4.289a.405.405 0 00-.36.447c.02.208.198.364.403.364zm5.614 17.334c.99 0 1.984-.025 2.981-.076a.406.406 0 00.385-.427c-.012-.223-.177-.419-.426-.384-4.121.208-8.206-.022-12.131-.686-.647-.11-1.307-.238-1.974-.367-2.215-.426-4.505-.87-6.712-.755-1.063.055-2.136.28-3.176.499-.461.097-.92.193-1.373.274-1.831.324-3.856.435-6.197.343-.825-.032-1.725-.133-2.195-.614.074-.081.226-.189.333-.232.509-.199 1.01-.428 1.513-.658.644-.295 1.308-.6 1.978-.828a115.919 115.919 0 004.794-1.771c.507-.2.999-.436 1.474-.666.925-.445 1.799-.868 2.775-1.026.653-.106 1.412-.189 2.088-.001a.407.407 0 00.217-.785c-.828-.228-1.695-.138-2.435-.016-1.092.178-2.061.645-2.998 1.097-.462.223-.938.453-1.416.64a120.576 120.576 0 01-4.762 1.76c-.709.241-1.392.554-2.052.857-.49.223-.976.447-1.472.639-.2.079-.743.381-.86.837a.673.673 0 00.14.607c.651.783 1.805.931 2.846.972 2.401.097 4.481-.02 6.369-.355.464-.082.931-.18 1.402-.278 1.007-.213 2.049-.433 3.049-.484 2.116-.104 4.35.326 6.516.742.673.13 1.339.259 1.993.369 3.033.515 6.16.773 9.326.773z" fill="#3F4B53"/><path d="M97.21 165.187c.557 0 1.104-.071 1.547-.244a.407.407 0 00-.297-.756c-.762.297-2.042.211-2.91-.033-.222-.061-.655-.279-.577-.559.119-.427.54-.631 1.028-.867a7.81 7.81 0 00.444-.227c.588-.333 1.183-.654 1.778-.975.611-.33 1.221-.66 1.825-1.001.739-.417 1.484-.818 2.228-1.221.761-.411 1.521-.82 2.275-1.248.59-.333 1.255-.556 1.962-.789.537-.18 1.089-.363 1.608-.602.364-.167.768-.406 1.196-.661 1.537-.908 3.448-2.042 5.37-1.114a.407.407 0 00.354-.732c-2.317-1.119-4.524.192-6.138 1.146-.41.244-.797.472-1.121.622-.477.22-.988.39-1.526.569-.711.237-1.447.482-2.105.854-.749.424-1.505.833-2.262 1.241-.747.403-1.498.807-2.241 1.228-.6.339-1.205.666-1.81.993-.6.324-1.201.648-1.794.982-.126.072-.26.136-.398.204-.552.266-1.239.599-1.456 1.381-.211.756.415 1.357 1.142 1.561.53.146 1.21.248 1.878.248z" fill="#3F4B53"/><path d="M95.975 162.669a.407.407 0 00.4-.477c-.22-1.26 1.183-2.295 2.207-3.052l.073-.054c.642-.474 1.31-.827 2.017-1.201.291-.152.581-.306.874-.47 1.964-1.101 3.996-2.648 5.549-3.873.186-.147.382-.324.595-.515 1.079-.971 2.425-2.18 4.666-1.296a.406.406 0 10.298-.756c-2.709-1.069-4.395.447-5.509 1.448-.195.177-.38.343-.555.481-1.527 1.206-3.527 2.728-5.441 3.803-.286.159-.572.31-.856.46-.703.371-1.43.755-2.122 1.265l-.072.054c-1.127.833-2.83 2.091-2.524 3.847a.409.409 0 00.4.336z" fill="#3F4B53"/><path d="M102.365 156.545c.188 0 .357-.13.398-.322.196-.928.898-2.042 1.464-2.938l.32-.512c.737-1.199 2.727-3.369 4.169-4.04.691-.321 4.169.919 6.038 1.586.701.251 1.329.475 1.798.625a61.666 61.666 0 0012.619 2.608c1.142.111 4.508.366 4.508.366l.061-.81c-.001 0-3.352-.256-4.49-.365a60.685 60.685 0 01-12.452-2.575 55.129 55.129 0 01-1.771-.614c-3.206-1.145-5.73-1.985-6.655-1.558-1.6.746-3.709 3.037-4.517 4.352l-.315.503c-.6.951-1.348 2.133-1.573 3.205a.404.404 0 00.398.489z" fill="#3F4B53"/><path d="M142.747 167.256a.405.405 0 00.026-.812c-.164-.012-4.048-.277-5.387-.254-.128.002-.364.024-.662.052-1.631.154-2.561.145-2.76-.027-.088-.203-.05-.349.126-.928.242-.788.645-2.109.855-4.927.265-3.555-.166-5.897-.373-7.023l-.054-.298c.818-.013 2.791.022 2.995.037 1.959.168 5.147-.073 5.283-.084a.407.407 0 00.374-.437.409.409 0 00-.437-.373c-.03.003-3.26.242-5.154.085-.037-.003-3.465-.185-3.767.107-.206.203-.165.432-.039 1.109.201 1.093.619 3.366.361 6.817-.202 2.727-.589 3.994-.821 4.75-.193.632-.309 1.013-.064 1.541.302.643 1.433.659 3.553.459.267-.025.478-.046.592-.047 1.323-.011 5.284.249 5.323.252a.3.3 0 00.03.001zm-23.953-18.944a.406.406 0 00.406-.406c0-1.246-.651-2.385-1.226-3.391l-.051-.088c-1.523-2.668-5.566-6.615-9.404-6.615a.406.406 0 100 .813c3.363 0 7.212 3.603 8.699 6.204l.051.089c.523.918 1.119 1.959 1.119 2.988 0 .224.181.406.406.406zm-36.022 10.399c1.454 0 2.922-.787 4.132-1.437l.103-.054c.776-.417 1.548-.899 2.296-1.364 1.066-.664 2.167-1.351 3.278-1.848.727-.323 1.38-.691 2.013-1.045 1.398-.788 2.72-1.531 4.524-1.582.313-.009.634-.038.958-.066 1.289-.114 2.405-.214 3.126.805.072.101.11.231.154.382.038.129.077.258.133.384.091.204.331.298.537.204a.406.406 0 00.205-.536c-.041-.091-.068-.187-.095-.28-.056-.194-.121-.412-.272-.623-.989-1.4-2.512-1.267-3.86-1.145-.307.026-.612.054-.91.063-2.004.057-3.41.849-4.9 1.684-.615.348-1.253.705-1.943 1.013-1.164.519-2.29 1.221-3.38 1.9-.735.459-1.496.934-2.246 1.337l-.105.056c-1.275.683-2.863 1.53-4.24 1.3a2.874 2.874 0 00-.308-.034c-.19-.013-.367-.026-.455-.101-.215-.185-.015-.529.125-.718.558-.764 1.228-1.355 2.313-2.042 3.039-1.922 5.827-4.473 8.525-6.942l.299-.274c.778-.711 2.744-2.278 4.255-1.475a.406.406 0 10.381-.716c-1.89-1.013-4.06.562-5.185 1.592l-.3.274c-2.671 2.445-5.433 4.971-8.41 6.855-.818.519-1.761 1.191-2.534 2.247-.504.686-.502 1.382.002 1.816.292.248.642.274.923.295.081.006.16.012.233.023.207.036.417.052.628.052z" fill="#3F4B53"/><path d="M79.165 158.393c.765 0 1.56-.253 1.992-.561a.406.406 0 10-.47-.661c-.517.366-1.691.563-2.273.261-.25-.129-.364-.333-.362-.644.044-.164.592-.619.799-.789a5.33 5.33 0 00.347-.3c.84-.852 1.707-1.614 2.624-2.422l.719-.636c1.791-1.594 3.427-3.274 4.729-4.858.25-.305.504-.632.765-.969 1.026-1.326 2.19-2.83 3.637-3.475.767-.341 1.776-.381 2.75-.419.553-.022 1.125-.046 1.64-.123a.407.407 0 00-.124-.805c-.47.073-.992.094-1.546.116-1.053.041-2.14.083-3.051.489-1.633.727-2.863 2.317-3.948 3.72-.256.329-.506.65-.75.95-1.276 1.552-2.881 3.2-4.642 4.767l-.717.633c-.887.782-1.804 1.589-2.665 2.46-.06.062-.164.147-.284.245-.62.512-1.094.94-1.097 1.413-.001.613.283 1.098.802 1.368.329.171.721.24 1.125.24z" fill="#3F4B53"/><path d="M79.759 154.846a.405.405 0 00.069-.806c-.222-.037-.5-.031-.79-.027-.99.015-1.478-.044-1.541-.463-.047-.298.286-.868 2.131-1.887.526-.291.997-.492 1.496-.705.372-.158.744-.316 1.115-.5 1.45-.72 3.22-2.059 4.782-3.241a70.6 70.6 0 011.75-1.297.41.41 0 00.096-.568.408.408 0 00-.568-.096c-.529.375-1.131.831-1.769 1.313-1.533 1.161-3.27 2.475-4.651 3.159-.358.178-.716.33-1.074.483-.495.211-1.007.429-1.514.709-.942.52-2.785 1.541-2.6 2.753.187 1.198 1.555 1.169 2.364 1.154.252-.006.491-.01.635.013a.414.414 0 00.069.006zm17.945-12.293c.018 0 .035-.002.054-.004.11-.014 2.706-.361 3.76-.615l.607-.145c2.536-.602 5.693-1.354 7.867-2.894a.407.407 0 00-.471-.664c-2.045 1.45-4.987 2.151-7.583 2.768l-.609.145c-1.014.245-3.651.597-3.678.6a.406.406 0 00.053.809z" fill="#3F4B53"/><path d="M115.251 149.948c.217 0 .398-.17.407-.39.087-2.172-.893-3.928-1.318-4.582-1.422-2.186-4.151-4.392-6.49-5.247a.406.406 0 10-.279.764c2.19.8 4.751 2.873 6.087 4.925.384.59 1.265 2.169 1.187 4.108a.407.407 0 00.39.422h.016zM251.227 200a.406.406 0 00.189-.767l-61.569-32.368a.409.409 0 00-.549.171.41.41 0 00.171.55l61.569 32.367a.416.416 0 00.189.047zm-129.29-68.895a.408.408 0 00.361-.216.409.409 0 00-.172-.55l-13.431-7.044a.404.404 0 00-.548.171.408.408 0 00.17.549l13.431 7.045a.41.41 0 00.189.045zm36.155 19.968a.406.406 0 00.189-.765l-13.431-7.045a.406.406 0 00-.378.719l13.431 7.046c.06.032.125.045.189.045zm-24.759 26.609a.405.405 0 00.214-.752l-20.566-12.751a.406.406 0 10-.428.69l20.566 12.753a.41.41 0 00.214.06zm-32.224-20.122a.408.408 0 00.217-.751l-6.92-4.322a.407.407 0 00-.43.691l6.919 4.32a.393.393 0 00.214.062zm-7.859 20.533a.406.406 0 00.23-.74l-36.512-25.051a.407.407 0 10-.46.67l36.511 25.051c.07.048.151.07.23.07z" fill="#3F4B53"/><path d="M93.162 178.081h.003l40.172-.281a.406.406 0 00-.003-.812h-.003l-40.172.281a.407.407 0 00.003.812zm-36.908-29.204h.003l29.53-.28a.407.407 0 00-.004-.813h-.004l-29.53.28a.406.406 0 00.004.813zm38.226 31.504h.005l39.247-.443a.406.406 0 00.402-.41c-.002-.224-.164-.424-.411-.402l-39.245.443a.405.405 0 00-.403.41.407.407 0 00.406.402zm-2.018-.313a.405.405 0 00.232-.74l-35.515-24.643a.405.405 0 00-.566.103.405.405 0 00.103.564l35.515 24.643a.4.4 0 00.231.073z" fill="#3F4B53"/><path d="M57.094 158.821a.408.408 0 00.405-.457L43.084 43.731a.408.408 0 00-.808.101L56.69 158.465a.409.409 0 00.404.356zM40.984 42.853a.406.406 0 00.166-.777L11.167 28.674a.406.406 0 10-.331.742l29.983 13.402c.054.025.11.035.165.035zm14.148 116.433a.407.407 0 00.232-.741l-32.631-22.772a.408.408 0 00-.566.101.408.408 0 00.101.566L54.9 159.212a.413.413 0 00.233.074zM14.26 100.293a.407.407 0 00.403-.465 385.836 385.836 0 01-1.868-14.605c-2.788-25.91-2.483-54.075-2.479-54.356a.407.407 0 00-.402-.411H9.91a.405.405 0 00-.406.4c-.004.283-.31 28.496 2.483 54.454.499 4.636 1.128 9.56 1.87 14.636a.41.41 0 00.403.347z" fill="#3F4B53"/><path d="M55.13 159.246c.018 0 .034 0 .052-.003a.408.408 0 00.353-.455l-14.533-114.1a.406.406 0 10-.806.102l14.532 114.101a.409.409 0 00.403.355z" fill="#3F4B53"/><path d="M40.59 45.147a.407.407 0 00.169-.776l-30.468-13.88a.407.407 0 00-.336.74L40.422 45.11a.41.41 0 00.169.037zm22.4 132.406a.406.406 0 00.248-.727L46.11 163.588a.408.408 0 00-.57.073.408.408 0 00.075.571l17.128 13.237c.073.058.16.084.248.084zM13.265 164.17h.003l29.292-.27a.406.406 0 00.401-.41c-.001-.225-.164-.412-.409-.404l-29.291.27a.406.406 0 00.004.814z" fill="#3F4B53"/><path d="M19.62 177.833h.002l43.37-.181a.406.406 0 000-.812h-.002l-43.37.181a.405.405 0 00.001.812zm.21 2.229h.003l43.553-.37a.407.407 0 00.403-.41c-.001-.224-.207-.378-.41-.403l-43.553.371a.405.405 0 00.004.812zm-8.399-9.489a.407.407 0 00.396-.318l15.406-69.256a.407.407 0 00-.794-.176l-15.405 69.256a.405.405 0 00.397.494zm-10.262-8.487c.187 0 .354-.13.396-.321L16.229 94.07a.406.406 0 00-.793-.172L.77 161.594a.404.404 0 00.398.492z" fill="#3F4B53"/><path d="M19.373 180.133a.406.406 0 00.265-.714L.671 163.013a.405.405 0 10-.53.615l18.966 16.405c.077.068.17.1.266.1zm-.789-3.8a.405.405 0 00.314-.15.405.405 0 00-.057-.571l-6.944-5.705a.407.407 0 00-.517.629l6.946 5.704a.405.405 0 00.258.093zm-9.054-6.806a.408.408 0 00.396-.317l.34-1.481 15.002-65.647a.407.407 0 10-.792-.181L9.134 169.028a.408.408 0 00.396.499zm17.697-68.304a.406.406 0 00.21-.755l-11.194-6.71a.408.408 0 00-.559.14.408.408 0 00.14.557l11.195 6.71a.409.409 0 00.208.058zm107.633 91.598c2.033 0 4.063-.215 6.041-.426 2.189-.235 4.452-.478 6.676-.416 1.06.029 2.118.08 3.177.131 1.571.077 3.198.156 4.811.156.185 0 .384.006.592.012.959.022 2.042.052 2.885-.338.264-.12.455-.341.554-.637.206-.616-.027-1.425-.222-1.79-.815-1.529-3.52-2.753-4.807-3.01a.406.406 0 10-.159.796c1.276.255 3.621 1.421 4.249 2.596.142.267.275.832.168 1.15-.035.107-.085.14-.123.158-.671.309-1.655.284-2.524.262-.214-.005-.421-.011-.613-.011-1.593 0-3.209-.078-4.773-.156a161.296 161.296 0 00-3.193-.132c-2.277-.06-4.569.184-6.785.42-2.484.265-5.054.539-7.573.372-.554-.038-1.816-.474-2.218-1.072-.113-.165-.138-.313-.083-.479.42-1.259 1.64-2.348 3.628-3.241l.139-.063c2.849-1.279 3.215-1.443 7.944-1.833 4.721-.385 8.271.846 8.307.858a.407.407 0 00.272-.767c-.151-.053-3.738-1.305-8.645-.9-4.87.4-5.314.601-8.211 1.901l-.14.062c-2.233 1.003-3.563 2.222-4.064 3.726-.135.404-.073.816.177 1.189.607.906 2.174 1.384 2.84 1.43a25.96 25.96 0 001.673.052z" fill="#3F4B53"/><path d="M135.406 194.798l.162-.001c.282-.005 1.113-.066 2.262-.151 2.959-.219 7.911-.587 9.655-.429.905.083 8.909.78 11.086-.111.729-.298 1.199-.753 1.397-1.354.249-.76.038-1.702-.63-2.796a.406.406 0 10-.694.422c.531.871.722 1.604.552 2.12-.122.369-.427.649-.931.856-1.626.666-7.714.325-10.706.054-1.814-.164-6.805.206-9.789.427-1.093.08-1.955.145-2.212.148-1.889.042-4.247-.444-4.934-1.541-.279-.444-.26-.967.057-1.602a.406.406 0 00-.727-.364c-.559 1.116-.318 1.921-.019 2.397.892 1.425 3.467 1.925 5.471 1.925zm-116.886-82.3l-8.178 35.824-2.778-2.189 8.115-35.648 2.841 2.013zm-7.925 36.947a.407.407 0 00.396-.315l8.383-36.715a.406.406 0 00-.162-.423l-3.56-2.522a.408.408 0 00-.632.241l-8.307 36.493a.407.407 0 00.146.409l3.486 2.744a.394.394 0 00.25.088zm225.218 41.787h.005a.407.407 0 00.401-.412c-.003-.22-.297-22.175 2.117-36.502.516-3.061 1.02-6.292 1.552-9.71 1.99-12.766 4.244-27.234 8.231-39.71 3.13-9.793 2.808-14.923-13.41-22.945a.407.407 0 00-.361.729c15.723 7.776 16.045 12.433 12.998 21.969-4.007 12.536-6.266 27.037-8.261 39.831a814.31 814.31 0 01-1.549 9.7c-2.428 14.402-2.133 36.428-2.13 36.649a.407.407 0 00.407.401z" fill="#3F4B53"/><path d="M239.742 193.294h.006a.404.404 0 00.4-.412c-.003-.22-.297-22.174 2.117-36.503.517-3.062 1.02-6.296 1.554-9.719 1.989-12.763 4.243-27.226 8.23-39.7 3.13-9.792 2.807-14.922-13.411-22.943a.407.407 0 10-.361.728c15.723 7.776 16.046 12.432 12.998 21.968-4.006 12.534-6.265 27.03-8.259 39.821a808.513 808.513 0 01-1.552 9.71c-2.427 14.402-2.132 36.43-2.128 36.65.003.222.185.4.406.4z" fill="#3F4B53"/><path fill-rule="evenodd" clip-rule="evenodd" d="M178.517 35.65a.994.994 0 101.989-.002.994.994 0 00-1.989.001zm-12.182 1.227a.994.994 0 101.987 0 .994.994 0 00-1.987 0z" fill="#3F4B53"/></svg>