<?xml version="1.0" encoding="UTF-8" standalone="no"?>
<!DOCTYPE svg PUBLIC "-//W3C//DTD SVG 1.1//EN" "http://www.w3.org/Graphics/SVG/1.1/DTD/svg11.dtd">
<svg width="100%" height="100%" viewBox="0 0 24 24" version="1.1" xmlns="http://www.w3.org/2000/svg" xmlns:xlink="http://www.w3.org/1999/xlink" xml:space="preserve" xmlns:serif="http://www.serif.com/" style="fill-rule:evenodd;clip-rule:evenodd;stroke-linejoin:round;stroke-miterlimit:2;">
    <g id="Enterprise">
        <rect x="13.5" y="1.5" width="4.5" height="20" style="fill:rgb(73,203,255);"/>
        <rect x="5.5" y="7" width="2.5" height="15" style="fill:rgb(73,203,255);"/>
        <g transform="matrix(1,0,0,1,0.980443,0)">
            <rect x="20.02" y="7" width="2.98" height="15" style="fill:rgb(73,203,255);"/>
        </g>
        <path d="M17,1L7,1L7,22L17,22L17,1ZM16,2L8,2L8,21L16,21L16,2Z"/>
        <rect x="11" y="16" width="2" height="5"/>
        <rect x="9" y="16" width="1" height="3"/>
        <g transform="matrix(1,0,0,1,-4,0)">
            <rect x="9" y="16" width="1" height="3"/>
        </g>
        <g transform="matrix(1,0,0,1,-6,0)">
            <rect x="9" y="16" width="1" height="3"/>
        </g>
        <rect x="14" y="16" width="1" height="3"/>
        <g transform="matrix(1,0,0,1,4,0)">
            <rect x="14" y="16" width="1" height="3"/>
        </g>
        <g transform="matrix(1,0,0,1,6.01956,0)">
            <rect x="14" y="16" width="1" height="3"/>
        </g>
        <rect x="9" y="10" width="1" height="3"/>
        <g transform="matrix(1,0,0,1,-6,0)">
            <rect x="9" y="10" width="1" height="3"/>
        </g>
        <g transform="matrix(1,0,0,1,9.01956,0)">
            <rect x="9" y="10" width="1" height="3"/>
        </g>
        <rect x="14" y="10" width="1" height="3"/>
        <g transform="matrix(1,0,0,1,-9,0)">
            <rect x="14" y="10" width="1" height="3"/>
        </g>
        <g transform="matrix(1,0,0,1,6.01956,0)">
            <rect x="14" y="10" width="1" height="3"/>
        </g>
        <rect x="9" y="4" width="1" height="3"/>
        <rect x="14" y="4" width="1" height="3"/>
        <path d="M8,6L1,6L1,22L8,22L8,6ZM7,7L2,7L2,21L7,21L7,7Z"/>
        <g transform="matrix(1,0,0,1,15.0196,0)">
            <path d="M8,6L1,6L1,22L8,22L8,6ZM7,7L2,7L2,21L7,21L7,7Z"/>
        </g>
    </g>
</svg>
