<svg width="451" height="407" fill="none" xmlns="http://www.w3.org/2000/svg"><path d="M427.259 200.088c0 110.443-89.531 199.977-199.976 199.977-110.444 0-199.976-89.534-199.976-199.977C27.307 89.644 116.839.111 227.283.111c110.445 0 199.976 89.533 199.976 199.977z" fill="#EBF6F1"/><path d="M373.701 155.375c-3.705-.022-7.299-.498-9.836-4.131-4.978-7.13-12.578-13.531-21.102-6.281-4.915 4.182-1.219 12.785-5.448 16.923-3.742 3.66-8.498 3.055-10.412 9.129-2.815 8.935 6.055 16.764 8.904 24.492 2.39 6.483-2.985 8.954-5.4 14.006-1.863 3.898-.904 8.067 1.122 11.792 3.578 6.568 11.509 11.855 9.672 20.356-1.533 7.098-2.959 13.422 3.303 18.8 4.291 3.688 12.257 7.047 11.65 13.87-.215 2.415-1.888 4.473-2.344 6.854-.726 3.768 1.715 7.436 4.55 10.021 6.449 5.882 12.112 11.432 16.943 18.837 2.063 3.16 10.327 10.304 7.024 14.629 6.004-7.86 12.348-15.486 17.802-23.749 4.487-6.797 11.248-16.739 6.644-25.109-1.431-2.603-4.093-4.544-4.824-7.424-1.315-5.202 3.795-10.027 5.695-14.452 2.982-6.948.793-15.018-4.462-20.234-2.486-2.466-5.185-5.182-5.548-8.665-.399-3.805 1.985-7.351 3.068-10.86.997-3.235 1.618-6.676 1.984-10.035.258-2.373.357-4.802-.201-7.121-1.063-4.413-5.038-6.868-7.98-10.001-7.002-7.452-3.319-16.219-6.381-24.883-2.747-7.778-8.714-6.731-14.423-6.764z" fill="#1D7E8E"/><path d="M383.618 333.593a283.153 283.153 0 001.055-24.667c0-21.711-2.358-43.405-6.358-64.728-5.259-28.026-12.161-56.169-22.635-82.774-3.461-8.792-7.351-17.424-11.77-25.785l-1.256.663c4.394 8.308 8.261 16.892 11.708 25.641 10.426 26.486 17.311 54.541 22.558 82.516 3.989 21.252 6.336 42.858 6.336 64.467 0 8.186-.338 16.373-1.049 24.543l1.411.124z" fill="#00A09D"/><path d="M319.312 176.606a179.227 179.227 0 0141.349 20.966c1.653 1.128 2.931 1.862 4.102 2.647 1.174.788 2.248 1.63 3.575 3.025l1.029-.975a21.524 21.524 0 00-3.813-3.226c-1.23-.825-2.489-1.545-4.093-2.642a180.578 180.578 0 00-41.676-21.13l-.473 1.335zm56.782 57.489a123.593 123.593 0 00-46.861-18.091l-.232 1.4a122.185 122.185 0 0146.325 17.879l.768-1.188zm5.704 38.501c-13.196-11.432-29.274-19.503-46.328-23.25l-.303 1.383c16.818 3.697 32.69 11.662 45.701 22.939l.93-1.072z" fill="#00A09D"/><path d="M368.733 201.819a129.904 129.904 0 0111.455-45.468l-1.287-.589a131.28 131.28 0 00-11.583 45.966l1.415.091zm7.357 31.867a114.617 114.617 0 0127.893-37.274l-.938-1.06a115.994 115.994 0 00-28.239 37.733l1.284.601zm6.711 40.684a42.535 42.535 0 014.683-12.353c2.551-4.468 5.91-8.462 9.36-12.379a377.015 377.015 0 017.577-8.354l-1.034-.967a372.353 372.353 0 00-7.606 8.382c-3.461 3.935-6.891 7.997-9.527 12.615a43.98 43.98 0 00-4.842 12.767l1.389.289z" fill="#00A09D"/><path d="M418.958 209.698c2.69.496 5.363.649 7.704-1.636 4.601-4.481 10.999-8.073 16.178-1.635 2.985 3.716-.885 9.445 1.61 13.031 2.208 3.172 5.743 3.393 6.29 8.062.805 6.871-6.715 11.324-9.85 16.534-2.631 4.371.927 6.909 1.978 10.908.811 3.084-.459 5.976-2.446 8.397-3.504 4.269-9.99 7.007-9.834 13.428.131 5.36.289 10.145-4.997 13.178-3.623 2.081-9.865 3.416-10.37 8.45-.178 1.781.749 3.507.752 5.296.005 2.834-2.274 5.156-4.689 6.638-5.491 3.376-10.366 6.617-14.896 11.319-1.934 2.007-8.918 6.044-7.121 9.638-3.266-6.531-6.812-12.94-9.627-19.69-2.313-5.55-5.842-13.697-1.343-19.134 1.397-1.689 3.597-2.727 4.527-4.717 1.675-3.591-1.364-7.798-2.129-11.27-1.205-5.452 1.502-11.002 6.035-14.06 2.146-1.446 4.479-3.039 5.224-5.517.817-2.704-.422-5.607-.723-8.303-.275-2.486-.249-5.065-.048-7.554.142-1.758.406-3.532 1.131-5.137 1.381-3.055 4.604-4.286 7.172-6.148 6.112-4.439 4.655-11.308 8.073-17.167 3.067-5.264 7.251-3.676 11.399-2.911z" fill="#00A09D"/><path d="M388.548 337.704c2.228-21.901 8.102-43.3 16.141-63.783 7.676-19.563 16.549-38.949 27.772-56.703 3.705-5.865 7.696-11.551 12.024-16.963l-1.105-.884c-4.368 5.457-8.388 11.186-12.118 17.09-11.291 17.862-20.198 37.33-27.894 56.941-8.073 20.577-13.983 42.101-16.231 64.158l1.411.144z" fill="#1D7E8E"/><path d="M455.106 231.357a133.503 133.503 0 00-33.2 9.573c-1.309.57-2.318.916-3.333 1.349-1.015.431-2.024.95-3.249 1.831l.828 1.151a14.494 14.494 0 012.976-1.678c.95-.405 1.982-.762 3.345-1.355a132.166 132.166 0 0132.846-9.47l-.213-1.401zm-48.498 36.186a90.05 90.05 0 0136.001-6.546l.037-1.417a91.451 91.451 0 00-36.571 6.65l.533 1.313zm-9.07 27.079a76.854 76.854 0 0136.238-10.29l-.039-1.417a78.286 78.286 0 00-36.911 10.48l.712 1.227z" fill="#1D7E8E"/><path d="M417.422 244.164a97.092 97.092 0 00-2.044-35.014l-1.375.337a95.799 95.799 0 012.013 34.501l1.406.176zm-9.906 21.632a85.885 85.885 0 00-15.296-31.349l-1.119.868a84.51 84.51 0 0115.041 30.83l1.374-.349zm-10.526 28.873a32.65 32.65 0 00-1.755-9.987c-1.281-3.736-3.215-7.169-5.182-10.503a282.854 282.854 0 00-4.36-7.14l-1.199.757a280.022 280.022 0 014.34 7.103c1.959 3.317 3.835 6.668 5.06 10.242a31.224 31.224 0 011.678 9.553l1.418-.025z" fill="#1D7E8E"/><path d="M361.593 330.02h54.95l-9.64 54.993h-35.669l-9.641-54.993z" fill="#9D786A"/><path d="M422.953 314.585h-68.407v15.435h68.407v-15.435z" fill="#94624F"/><path d="M362.871 337.314l-1.278-7.294 1.278 7.294z" fill="#D7E0DC"/><path d="M415.265 337.314h-52.394l-1.278-7.294h54.95l-1.278 7.294z" fill="#916F62"/><path d="M89.401 351.663H13.213v6.948H89.4v-6.948zm-4.766-111.415H18.938v11.268h65.697v-11.268z" fill="#94624F"/><path d="M103.986 232.562H0v7.684h103.986v-7.684z" fill="#9D786A"/><path d="M101.095 385.212H92.77L76.635 251.514h8.324l16.136 133.698zm-98.012 0h8.324l16.136-133.698H19.22L3.083 385.212z" fill="#94624F"/><path d="M54.779 240.248h-5.891v144.967h5.89V240.248z" fill="#9D786A"/><path d="M57.54 185.456l.047-3.94-.283-.003-.048 3.937" fill="#151614"/><path d="M64.79 185.807H49.77v42.903h15.02v-42.903z" fill="#D74034"/><path d="M64.79 185.805H49.77l1.235-1.409h12.502l1.284 1.409z" fill="#EF5132"/><path d="M76.918 192.627l.048-3.94-.283-.003-.048 3.937" fill="#151614"/><path d="M84.17 192.978H69.146v35.731H84.17v-35.731z" fill="#D74034"/><path d="M84.17 192.976H69.146l1.236-1.409h12.502l1.284 1.409z" fill="#EF5132"/><path d="M87.296 232.421H45.855c-.757 0-1.37-.615-1.37-1.372v-2.341h44.181v2.341c0 .757-.613 1.372-1.37 1.372z" fill="#0B2D4E"/><path d="M35.655 232.52h-13.75a7.37 7.37 0 01-7.37-7.37v-33.438h28.49v33.438c0 4.07-3.3 7.37-7.37 7.37z" fill="#00A09D"/><path d="M44.962 221.568c-4.395 0-7.959-3.617-7.959-8.076 0-4.462 3.564-8.076 7.96-8.076 4.395 0 7.959 3.614 7.959 8.076 0 4.459-3.564 8.076-7.96 8.076zm0-20.628c-6.832 0-12.37 5.618-12.37 12.552 0 6.931 5.538 12.552 12.37 12.552 6.833 0 12.371-5.621 12.371-12.552 0-6.934-5.538-12.552-12.37-12.552z" fill="#00A09D"/><path d="M18.717 217.027c-.847 0-1.54-.694-1.54-1.542v-19.86c0-.848.693-1.539 1.54-1.539.847 0 1.54.691 1.54 1.539v19.86c0 .848-.693 1.542-1.54 1.542z" fill="#33B3B1"/><path d="M36.284 191.712v33.594a7.214 7.214 0 01-7.216 7.214h6.58a7.214 7.214 0 007.216-7.214v-33.594h-6.58z" fill="#1D7E8E"/><path d="M174.061 334.211h102.944c28.557 0 51.592-23.369 51.175-51.926l.062-143.09c-.408-27.972-23.202-50.434-51.177-50.434H176.147c-27.976 0-50.768 22.462-51.176 50.434l-2.086 143.09c-.416 28.557 22.618 51.926 51.176 51.926z" fill="#66BBC4"/><path d="M174.061 334.926h102.944c28.557 0 51.592-23.372 51.175-51.929 0 0 .383-81.591.043-100.555-46.407 64.109-157.326 64.756-203.882.72-.405 24.903-1.456 99.835-1.456 99.835-.416 28.557 22.618 51.929 51.176 51.929z" fill="#66A5AF"/><path d="M150.11 248.692h152.465c1.174 0 2.126.953 2.126 2.126v35.465a2.126 2.126 0 01-2.126 2.126H150.11a2.126 2.126 0 01-2.126-2.126v-35.465c0-1.173.952-2.126 2.126-2.126z" fill="#66BBC4"/><path d="M153.351 248.692h145.983a5.369 5.369 0 015.367 5.369H147.984a5.368 5.368 0 015.367-5.369z" fill="#8ED2CC"/><path d="M153.351 288.412h145.984a5.368 5.368 0 005.366-5.366H147.984a5.368 5.368 0 005.367 5.366z" fill="#66A5AF"/><path d="M340.558 339.221H114.071v20.036h226.487v-20.036z" fill="#94624F"/><path d="M315.348 363.897c0 7.104 5.76 12.864 12.864 12.864 7.103 0 12.863-5.76 12.863-12.864 0-7.107-5.76-12.867-12.863-12.867-7.104 0-12.864 5.76-12.864 12.867z" fill="#94624F"/><path d="M320.633 376.758a7.895 7.895 0 0015.789 0 7.896 7.896 0 10-15.789 0zM112.31 364.241c0 7.104 5.759 12.864 12.864 12.864s12.865-5.76 12.865-12.864c0-7.107-5.76-12.867-12.865-12.867s-12.864 5.76-12.864 12.867z" fill="#94624F"/><path d="M117.595 377.109a7.896 7.896 0 1015.791-.003 7.896 7.896 0 00-15.791.003z" fill="#94624F"/><path d="M129.131 185.212c.59 2.679 11.915 52.623 12.447 56.549.532 3.923-.18 16.3-.156 14.097.024-2.205-.173 4.666 4.145 3.986 2.155-.338 18.586-5.641 35.269-8.272 16.73-2.639 33.71-2.608 35.352-2.903 3.28-.589 4.444-2.378 5.549-7.458 1.105-5.079-6.291-25.617-7.444-32.264-1.153-6.648-1.741-31.604-2.507-34.869-1.012-4.317-5.168-5.672-8.725-5.19-2.034.276-22.936 4.663-39.255 6.876-16.101 2.183-27.625 2.194-29.312 2.421-3.396.462-5.953 4.345-5.363 7.027z" fill="#00A09D"/><path d="M129.571 185.174c.59 2.679 11.915 52.624 12.447 56.55.532 3.923-.18 16.299-.156 14.097.025-2.206-.173 4.665 4.145 3.985 2.156-.337 18.587-5.641 35.269-8.272 16.73-2.639 33.711-2.607 35.352-2.902 3.28-.59 4.445-2.379 5.549-7.458.502-2.308-.75-7.804-2.374-13.74-35.075 17.912-80.301 13.638-80.784-49.5-2.165.097-3.575.145-4.085.213-3.396.462-5.953 4.348-5.363 7.027z" fill="#1D7E8E"/><path d="M108.936 211.483h23.257c8.595 0 15.564 6.97 15.564 15.565v62.077h156.716v-62.077c0-8.595 6.968-15.565 15.566-15.565h23.256c8.594 0 15.565 6.97 15.565 15.565v62.077l-3.577 45.083H96.949l-3.578-45.083v-62.077c0-8.595 6.969-15.565 15.565-15.565z" fill="#66BBC4"/><path d="M110.932 347.809h230.78c7.509 0 13.598-6.089 13.598-13.598H97.335c0 7.509 6.087 13.598 13.597 13.598z" fill="#66A5AF"/><path d="M327.993 139.194c-.408-27.973-27.82-64.031-84.091-64.031h-36.516c-54.985 0-82.304 35.745-82.304 64.031 53.505-13.981 37.708 21.841 101.277 21.841 63.57 0 53.79-31.725 101.634-21.841z" fill="#8ED2CC"/><path d="M304.337 229.44c0 19.233 15.594 34.824 34.827 34.824 19.231 0 34.824-15.591 34.824-34.824 0-19.233-15.593-34.824-34.824-34.824-19.233 0-34.827 15.591-34.827 34.824z" fill="#66BBC4"/><path d="M321.954 229.437c0 9.618 7.795 17.414 17.414 17.414 9.615 0 17.41-7.796 17.41-17.414 0-9.615-7.795-17.411-17.41-17.411-9.619 0-17.414 7.796-17.414 17.411z" fill="#8ED2CC"/><path d="M78.397 229.44c0 19.233 15.59 34.824 34.824 34.824 19.233 0 34.825-15.591 34.825-34.824 0-19.233-15.592-34.824-34.825-34.824-19.233 0-34.825 15.591-34.825 34.824z" fill="#66BBC4"/><path d="M96.014 229.437c0 9.618 7.795 17.414 17.412 17.414 9.616 0 17.412-7.796 17.412-17.414 0-9.615-7.796-17.411-17.412-17.411-9.617 0-17.412 7.796-17.412 17.411z" fill="#8ED2CC"/><path d="M220.215 118.1a6.086 6.086 0 1012.173.001 6.086 6.086 0 00-12.173-.001z" fill="#66A5AF"/><path d="M299.687 375.684c-8.555-.406-17.082.969-25.538 2.341-2.67.431-5.496 1.914-3.484 5.106 1.103 1.751 3.391 2.264 5.449 2.5 8.833 1.012 17.907-.108 26.785-.094" fill="#0B2D4E"/><path d="M362.616 363.817c1.298 7.932-2.424 19.395-11.084 21.714-3.492.933-7.696.604-11.301.581-4.389-.025-8.774-.062-13.162-.094-8.62-.062-17.238-.124-25.855-.184-5.681-.042-11.722-.187-16.461-3.316-5.636-3.719-8.442-10.596-4.695-16.515 3.218-5.086 9.236-8.201 14.976-9.437 9.618-2.072 19.608.675 29.169-1.049a28.094 28.094 0 004.595-1.224c8.632-3.13 17.207-7.441 26.017-2.333 4.229 2.452 7.01 7.033 7.801 11.857z" fill="#061F33"/><path d="M291.399 346.735c-1.437-1.522-2.322-1.82-3.192.343-1.003 2.498-1.681 5.219-1.65 7.926-3.6.751-7.015 2.404-9.896 4.714-2.216-1.576-4.85-2.571-7.489-3.163-2.276-.513-2.531.382-2.095 2.432.539 2.528 1.401 4.969 2.234 7.413.522 1.53.995 3.075 1.528 4.597.377 1.582 1.123 3.09 2.033 4.221 2.517 3.13 7.526 4.95 11.406 5.463 4.394.581 8.555-.542 11.515-3.881 2.656-2.996 4.467-7.084 5.156-11.007.394-2.234.21-4.621-.575-6.781-.882-2.423-2.622-4.186-4.139-6.213-1.548-2.07-3.056-4.181-4.836-6.064zm64.836 10.778c8.272 7.875 7.407 16.951 2.835 24.979-5.069 8.904-13.414 14.933-22.723 18.857-10.993 4.631-23.574 7.001-35.349 4.223-2.364-.558-4.952-1.72-5.649-4.051-2.064-6.891 8.688-6.769 12.52-7.095 7.881-.672 16.229-.754 23.894-3.314 8.411-2.814 14.397-8.813 18.604-16.489" fill="#0B2D4E"/><path d="M362.335 370.21c-.031-3.7-1.293-7.393-3.594-10.29-5.854-7.359-17.247-7.589-25.09-3.6-8.998 4.578-10.423 16.696-6.9 25.24.162.391-3.152.275-3.43.295-2.378.17-7.302-.287-8.252 2.63-.635 1.953.669 4.592 2.631 5.227.819.264 1.698.264 2.557.264 6.165-.008 12.325.011 18.488.023 4.827.008 8.47-.885 11.361-5.001 1.505-2.143 2.645-4.532 4.249-6.604" fill="#0B2D4E"/><path d="M290.613 372.924c.348.899-.219 1.956-1.265 2.362-1.046.405-2.177.005-2.525-.896-.349-.901.218-1.959 1.264-2.364 1.046-.406 2.177-.003 2.526.898z" fill="#061F33"/><path d="M299.268 356.419c.28.544.666 1.009 1.009 1.525.173.255.334.527.462.825.13.303.213.606.289.909.145.61.23 1.225.315 1.829.088.595.153 1.23.184 1.851.074 1.244-.023 2.5-.215 3.736a19.947 19.947 0 01-.978 3.62 19.69 19.69 0 01-1.693 3.348c-.68 1.051-1.451 2.046-2.344 2.919a15.561 15.561 0 01-2.925 2.316c-.542.312-1.112.59-1.721.754a4.051 4.051 0 01-1.848.1c1.238-.015 2.324-.599 3.26-1.316.473-.357.921-.757 1.352-1.168.212-.209.431-.411.635-.632.207-.209.405-.431.601-.657.771-.902 1.485-1.854 2.078-2.88a19.836 19.836 0 001.547-3.189 20.535 20.535 0 001.369-6.94c.017-.598-.014-1.179-.039-1.794a21.937 21.937 0 00-.122-1.797 5.535 5.535 0 00-.153-.859 6.078 6.078 0 00-.326-.822c-.258-.542-.567-1.089-.737-1.678z" fill="#73B8D4"/><path d="M262.463 255.124c-2.336 1.148-4.793 2.092-7.24 2.951a152.397 152.397 0 01-33.79 7.676c-12.022 1.321-24.768 1.063-35.414-4.674-17.662-9.522-15.489-26.286-15.487-43.368a4.78 4.78 0 014.779-4.779h79.167c4.249 0 8.986-.593 13.204 0 2.384.334 4.399.516 5.468 3.22.751 1.894.289 6.106.623 8.266 1.256 8.042 3.062 18.258-2.956 24.753-2.35 2.534-5.241 4.424-8.354 5.955z" fill="#0B2D4E"/><path d="M182.551 200.661c-.347-.786-.698-1.588-1.068-2.415a119.191 119.191 0 01-8.391-26.989c-.618-3.348-1.245-7.011-3.803-9.258-3.54-3.108-10.436-2.709-14.821-2.122-2.048.274-4.19.982-5.427 2.637-2.051 2.744-1.846 8.938-1.926 12.244-.49 20.094 15.396 36.709 28.332 50.27 2.491 2.61 5.195 5.25 8.645 6.307 3.451 1.054 7.832-.043 9.341-3.32 1.109-2.406.429-5.23-.448-7.73-1.507-4.297-3.777-8.237-6.361-11.971-1.746-2.523-2.893-4.989-4.073-7.653zm78.191 0c.349-.786.697-1.588 1.069-2.415a119.088 119.088 0 008.39-26.989c.618-3.348 1.245-7.011 3.804-9.258 3.538-3.108 10.435-2.709 14.82-2.122 2.047.274 4.19.982 5.426 2.637 2.052 2.744 1.848 8.938 1.927 12.244.491 20.094-15.395 36.709-28.332 50.27-2.492 2.61-5.193 5.25-8.646 6.307-3.45 1.054-7.832-.043-9.34-3.32-1.109-2.406-.428-5.23.447-7.73 1.509-4.297 3.779-8.237 6.362-11.971 1.746-2.523 2.894-4.989 4.073-7.653z" fill="#F8A17A"/><path d="M158.819 135.891a470.573 470.573 0 00-3.58 9.361c-3.987 10.711-13.469 28.883-2.775 38.756 1.212 1.12 4.127 1.057 5.63.759 4.301-.85 6.467-4.858 8.574-8.268 6.324-10.236 10.91-21.45 17.006-31.828 4.401-7.489 6.628-16.422 8.74-24.768 1.398-5.522 3.195-13.428-1.462-18.002-1.894-1.861-4.651-2.806-7.289-2.499-1.588.186-3.097.793-4.532 1.499-1.229.604-2.427 1.291-3.469 2.181-2.585 2.207-3.834 5.398-5.374 8.333-1.812 3.453-3.665 6.876-5.358 10.392-2.222 4.614-4.223 9.326-6.111 14.084z" fill="#F8A17A"/><path d="M163.433 118.989c5.909-10.838 13.596-20.589 25.442-24.564 3.394-1.139 7.585-1.42 10.129 1.098 1.595 1.578 2.172 3.962 2.037 6.201-.196 3.247-1.664 6.327-2.414 9.471-1.998 8.374-5.026 16.539-9.018 24.168-.86 1.645-7.168 19.503-6.66 19.945-4.16-3.615-10.089-8.118-15.067-10.485-1.322-.628-13.383-6.836-13.732-6.051 2.797-6.304 5.716-13.241 9.283-19.783z" fill="#D74034"/><path d="M286.183 135.891a483.26 483.26 0 013.58 9.361c3.986 10.711 13.468 28.883 2.775 38.756-1.213 1.12-4.127 1.057-5.63.759-4.303-.85-6.468-4.858-8.575-8.268-6.324-10.236-10.91-21.45-17.005-31.828-4.402-7.489-6.627-16.422-8.742-24.768-1.398-5.522-3.195-13.428 1.463-18.002 1.896-1.861 4.651-2.806 7.29-2.499 1.588.186 3.096.793 4.533 1.499 1.228.604 2.427 1.291 3.467 2.181 2.585 2.207 3.835 5.398 5.375 8.333 1.811 3.453 3.665 6.876 5.357 10.392 2.223 4.614 4.224 9.326 6.112 14.084z" fill="#F8A17A"/><path d="M281.187 118.989c-5.911-10.838-13.598-20.589-25.444-24.564-3.394-1.139-7.586-1.42-10.129 1.098-1.593 1.578-2.171 3.962-2.038 6.201.199 3.247 1.667 6.327 2.415 9.471 1.999 8.374 5.026 16.539 9.017 24.168.862 1.645 7.169 19.503 6.662 19.945 4.158-3.615 10.089-8.118 15.066-10.485 1.321-.628 13.383-6.836 13.732-6.051-2.795-6.304-5.715-13.241-9.281-19.783z" fill="#D74034"/><path d="M264.465 202.222c-.077-.323-.153-.646-.227-.969-2.795-12.099-3.206-24.586-2.855-36.951.343-12.124 3.045-24.053 3.393-36.185.403-13.988-2.032-33.861-19.539-35.478-7.24-.668-14.522-1.448-21.813-1.535v-.017c-.26 0-.52.008-.779.009-.26-.001-.52-.01-.78-.009v.017c-7.292.087-14.573.867-21.813 1.535-17.507 1.617-19.943 21.49-19.539 35.478.35 12.132 3.05 24.061 3.393 36.185.35 12.365-.059 24.852-2.853 36.951-.076.323-.152.646-.23.969-.549 2.273-1.436 4.578-1.02 6.88.898 4.975 12.875 7.387 16.912 8.459 7.527 1.995 15.299 2.885 23.049 3.458.706.051 1.399.102 2.085.15v.108l.796-.054.795.054v-.108c.686-.048 1.379-.099 2.085-.15 7.75-.573 15.522-1.463 23.048-3.458 4.04-1.072 16.016-3.484 16.912-8.459.417-2.302-.47-4.607-1.02-6.88z" fill="#EF5132"/><path d="M211.14 104.317c10.81 7.136 31.852 1.603 25.888-12.55-.723-1.718-1.601-3.38-2.083-5.17-.802-2.974-.723-6.036-.641-9.062.096-3.53.125-7.07.32-10.595-3.954-.739-7.159-1.11-11.355-.956-3.473.127-6.942-.194-10.413-.014-.28.015-.583.04-.78.204-.199.165-.236.424-.259.662-.465 4.767-.008 9.595-.373 14.372-.204 2.671-.569 5.728-1.79 8.207-1.877 3.813-4.669 7.354-1.979 11.494.88 1.354 2.068 2.486 3.465 3.408z" fill="#F8A17A"/><path d="M234.795 85.959c-.624-2.763-.462-5.659-.385-8.458.096-3.53.124-7.07.317-10.596-3.951-.739-7.156-1.109-11.353-.956-3.473.127-6.942-.194-10.413-.013-.28.014-.582.04-.78.204-.199.165-.235.423-.259.662-.465 4.767-.008 9.595-.373 14.371a31.075 31.075 0 01-.583 4.085c.545.422 1.1.827 1.671 1.2 4.286 2.802 10.064 3.733 15.194 2.447 2.61-.654 4.855-1.623 6.964-2.946z" fill="#E5785C"/><path d="M164.385 156.952l-.986 2.338h117.567l-1.182-2.627-115.399.289z" fill="#B8D1CE"/><path d="M272.941 233.582H171.555l-7.264-75.48c-.13-1.354.917-2.526 2.256-2.526H277.95c1.338 0 2.384 1.172 2.253 2.526l-7.262 75.48z" fill="#B8D1CE"/><path d="M273.766 235.716H170.788l-7.377-75.481a2.302 2.302 0 012.291-2.526h113.15a2.301 2.301 0 012.29 2.526l-7.376 75.481z" fill="#fff"/><path d="M273.362 235.713H170.446v4.581h102.916v-4.581zm-44.152-39.001a7.139 7.139 0 01-7.14 7.138 7.14 7.14 0 117.14-7.138z" fill="#B8D1CE"/><path d="M216.497 252.243a325.391 325.391 0 01-11.233 3.83c-3.835 1.224-25.839 4.762-21.475 13.241.857 1.664 2.934 2.208 4.775 2.548 10.586 1.956 21.364 1.074 32.057-.21" fill="#F8A17A"/><path d="M200.697 273.311c-4.552 1.31-9.435 1.964-13.701 2.942-1.923.44-3.847.882-5.795 1.191-3.094.496-6.23.663-9.359.828-2.273.122-4.547.241-6.82.362-1.238.066-2.533.12-3.661-.396-1.346-.618-2.212-1.934-3.005-3.187-1.574-2.483-3.439-4.819-4.752-7.46-.859-1.73-1.756-3.422-.812-5.318.462-.93 1.195-1.698 1.948-2.413.965-.918 1.989-1.788 3.146-2.449 3.805-2.168 7.842-1.216 11.88-.394 4.273.868 8.545 1.86 12.91 2.118 4.699.28 9.385-.306 14.051-.791" fill="#D5EFF7"/><path d="M184.421 279.136c.718-.049 1.438-.097 2.16-.142 1.698-.105 3.813-.301 5.126-1.508.204-.19.393-.403.496-.661.256-.637-.096-1.392-.646-1.803-.55-.411-1.252-.555-1.931-.657.786.119 1.981-2.815 2.116-3.356.367-1.475.546-3.209.402-4.729-.136-1.437-.503-2.815-1.45-3.92-.486-.567-2.174-2.293-3.054-2.041.763-.218 1.149-1.171.92-1.933-.23-.76-.931-1.304-1.685-1.554-.754-.249-1.565-.246-2.359-.235-4.172.059-8.407.349-12.53-.462-3.654-.717-7.073-.93-10.817-.627-2.79.224-5.527.964-8.082 2.095-.694.309-1.365.695-1.994 1.145-8.363 5.982-2.093 16.496 5.22 19.945 5.408 2.549 10.949 1.86 16.681 1.341 3.822-.343 7.605-.643 11.427-.898z" fill="#D74034"/><path d="M241.679 70.586c-3.276 3.955-7.869 6.56-12.415 8.95-1.116.585-2.251 1.17-3.479 1.456-3.765.88-7.566-1.161-10.707-3.417a61.995 61.995 0 01-11.664-10.922c-3.417-4.148-5.328-8.682-7.556-13.564-2.243-4.914-2.734-9.854-2.261-15.226.486-5.518-2.599-10.447-1.205-16.024a15.939 15.939 0 015.989-8.91c1.613-1.183 3.487-2.063 5.475-2.279 4.446-.483 8.226 2.538 12.62 2.745 4.433.21 8.699-1.405 12.958-2.374 3.722-.848 7.798-1.313 11.491-.05 4.111 1.407 6.089 4.552 8.363 8.192 1.942 3.11 4.867 5.444 7.203 8.206 3.132 3.7 4.121 8.409 3.126 13.228a40.95 40.95 0 01-4.498 11.869c-1.806 3.145-3.77 6.457-5.894 9.438-1.618 2.27-3.393 3.941-5.283 5.921-.82.859-1.5 1.838-2.263 2.76z" fill="#0B2D4E"/><path d="M245.483 51.66c-.071-4.525-.74-8.813-1.939-12.367-5.179-15.335-24.408-18.945-35.855-7.786-12.765 12.443-7.54 41.84 6.138 52.047 3.656 2.73 8.598 3.652 12.994 2.426 13.301-3.71 18.886-20.179 18.662-34.32z" fill="#F8A17A"/><path d="M248.696 39.247c-5.822-15.328-27.524-18.914-40.459-7.74-3.025 2.613-6.247 6.723-7.651 10.486-1.504 4.03-1.11 8.487-.694 12.768.323-3.535 1.978-6.713 4.3-9.35 1.144-1.3 2.429-2.474 3.773-3.564.488-.396 4.155-3.727 3.804-4.186 1.304 1.7 2.599 3.39 4.609 4.244 2.514 1.066 5.129 1.683 7.785 2.26 4.697 1.021 8.375 2.342 11.783 5.857 3.149 3.249 5.431 7.287 6.945 11.533.479 1.342 1.295 3.408 3.05 2.805.417-.143 4.028-2.835 4.065-3.023.635-3.245.918-6.544.864-9.725-.076-4.526-.822-8.813-2.174-12.365z" fill="#E5785C"/><path d="M238.518 48.603c1.168 1.912 1.885 4.062 2.591 6.19 1.117 3.363 1.998 6.981 3.433 10.211 4.878-2.945 8.096-9.892 10.318-14.915 1.973-4.457 2.526-8 .856-12.673-1.08-3.022-3.149-5.708-5.607-8.01-7.092-6.646-17.728-10.032-27.988-9.357-3.603.237-6.542 1.507-9.926 2.488-3.108.9-5.484 1.49-7.767 4.047-2.031 2.276-3.333 5.107-4.354 7.98-1.666 4.686-2.609 9.514-2.243 14.493.235 3.182.257 6.332 3.409 8.065l-.166-5.685c-.026-.906-.052-1.82.101-2.714.137-.798.414-1.564.689-2.325.841-2.322 1.614-4.183 3.208-6.096 2.084-2.502 4.836-4.767 5.418-7.971 4.936 4.796 10.76 7.8 17.246 10.033 4.112 1.416 8.293 2.231 10.734 6.162.014.025.031.051.048.077z" fill="#0B2D4E"/><path d="M245.595 52.067c5.874-3.288 7.773 4.87 6.798 8.948-.403 1.684-1.052 3.33-2.081 4.722-1.386 1.876-5.372 5.005-7.707 2.99-1.061-.913-1.182-2.482-1.231-3.88-.121-3.75.241-10.552 4.221-12.78zm-42.125 0c-5.872-3.288-7.77 4.87-6.795 8.948.402 1.684 1.05 3.33 2.079 4.722 1.386 1.876 5.373 5.005 7.708 2.99 1.059-.913 1.183-2.482 1.229-3.88.124-3.75-.24-10.552-4.221-12.78z" fill="#F8A17A"/><path d="M195.382 38.775c-.028-1.291-.468-2.463-1.039-3.558-.572-1.097-1.278-2.127-1.874-3.142-1.508-2.565-2.234-5.5-2.234-8.477 0-.675.037-1.352.111-2.027.456-4.189 3.003-8.123 6.638-10.254 1.793-1.053 3.872-1.646 5.967-1.646.99 0 1.985.132 2.956.41 1.379.393 2.662 1.131 3.963 1.885 1.301.752 2.62 1.52 4.096 1.926.931.255 1.865.366 2.794.366 2.819-.003 5.593-1.01 8.296-2.126 2.701-1.119 5.341-2.352 7.838-2.866a16.049 16.049 0 013.243-.336c2.359 0 4.658.542 6.656 1.664 1.998 1.124 3.696 2.825 4.867 5.174.567 1.14.987 2.394 1.454 3.643.471 1.248.992 2.493 1.795 3.6 1.343 1.85 3.257 3.04 5.048 4.253.896.605 1.763 1.215 2.523 1.901.76.687 1.409 1.448 1.888 2.363.601 1.147.859 2.397.859 3.721.003 2.79-1.171 5.9-2.701 8.797-1.531 2.9-3.402 5.586-4.76 7.58l.703.479c1.352-1.99 3.246-4.703 4.808-7.662 1.559-2.961 2.798-6.168 2.8-9.194 0-1.434-.283-2.83-.955-4.115-.536-1.026-1.261-1.866-2.072-2.6-1.219-1.1-2.633-1.968-3.966-2.886-1.332-.917-2.579-1.88-3.486-3.136-.726-1.001-1.225-2.172-1.687-3.4-.462-1.228-.887-2.51-1.488-3.722-1.245-2.5-3.076-4.336-5.213-5.537-2.141-1.202-4.587-1.773-7.073-1.773-1.137 0-2.282.12-3.416.353-2.639.548-5.31 1.806-7.99 2.913-2.679 1.11-5.36 2.063-7.971 2.061a9.669 9.669 0 01-2.569-.336c-1.333-.363-2.594-1.086-3.895-1.84-1.301-.753-2.641-1.534-4.155-1.968a11.603 11.603 0 00-3.19-.442c-2.256 0-4.478.635-6.398 1.763-3.875 2.277-6.56 6.427-7.052 10.895a19.542 19.542 0 00-.116 2.12c-.001 3.114.759 6.2 2.351 8.907.617 1.048 1.314 2.068 1.853 3.104.54 1.036.92 2.08.942 3.183l.851-.018z" fill="#0B2D4E"/><path d="M209.645 20.064c4.885.315 9.643-.741 14.415-1.716 2.406-.445 4.853-.663 7.299-.741a53.242 53.242 0 013.671.018c1.216.055 2.457.11 3.691.366 2.46.503 4.782 1.832 6.304 3.91.762 1.083.978 2.417 1.06 3.637.085 1.23.051 2.436.303 3.58.21 1.157.82 2.167 1.545 3.128.72.963 1.537 1.902 2.095 3.027.547 1.13.774 2.37.839 3.59.065 1.225-.028 2.442-.133 3.653.02-1.216.037-2.434-.082-3.636-.122-1.198-.408-2.386-.978-3.425-.564-1.044-1.381-1.938-2.146-2.895-.765-.943-1.483-2.054-1.749-3.302-.312-1.231-.306-2.48-.394-3.67-.091-1.183-.306-2.35-.972-3.271-.312-.461-.726-.877-1.174-1.265a9.922 9.922 0 00-1.414-1.033c-1.001-.602-2.118-.995-3.272-1.234-1.151-.252-2.347-.32-3.557-.386a52.453 52.453 0 00-3.62-.055c-2.415.041-4.823.274-7.215.618-2.38.375-4.788.875-7.215 1.121-2.428.235-4.886.298-7.301-.02z" fill="#73B8D4"/><path d="M211.844 273.972c4.991-.601 19.947-2.877 24.871-3.407 24.718-2.665 49.176-6.707 72.075-16.892 5.278-2.358 10.848-6.225 13.81-11.282 7.768-13.298-5.417-26.958-19.25-23.857-23.103 5.182-42.004 14.803-64.322 22.717-3.725 1.321-10.424 4.15-14.199 5.548-3.242 1.199-14.12 4.448-17.387 5.618" fill="#0B2D4E"/><path d="M221.214 322.595a320.864 320.864 0 003.784 10.871c1.358 3.662 11.802 22.593 2.716 24.322-1.785.34-3.441-.924-4.801-2.126-7.82-6.92-13.588-15.682-18.994-24.622" fill="#F8A17A"/><path d="M214.489 347.354c1.72 4.261 4.136 8.383 5.939 12.226.812 1.732 1.625 3.467 2.551 5.142 1.471 2.659 3.217 5.154 4.96 7.646 1.268 1.808 2.532 3.617 3.799 5.425.689.987 1.42 2.01 2.489 2.563 1.276.66 2.801.536 4.229.391 2.841-.281 5.741-.252 8.544-.828 1.834-.374 3.662-.7 4.55-2.554.433-.91.581-1.927.677-2.931.125-1.287.179-2.588-.008-3.866-.615-4.207-3.756-6.721-6.795-9.315-3.217-2.747-6.531-5.417-9.335-8.598-3.021-3.427-5.374-7.356-7.791-11.211" fill="#D5EFF7"/><path d="M219.797 363.015c-.393-.579-.788-1.157-1.185-1.735-.934-1.361-2.048-3.093-1.909-4.819.022-.267.072-.542.208-.774.334-.575 1.121-.757 1.764-.584.643.176 1.171.626 1.656 1.083-.561-.53.967-3.195 1.301-3.623.907-1.159 2.125-2.333 3.371-3.132 1.18-.754 2.453-1.298 3.864-1.233.723.031 3.051.289 3.382 1.114-.289-.715.21-1.579.927-1.857.72-.281 1.554-.068 2.197.357.641.428 1.123 1.049 1.59 1.661 2.447 3.226 4.757 6.634 7.838 9.301 2.73 2.364 4.938 4.847 6.943 7.892 1.493 2.265 2.565 4.796 3.225 7.427.182.714.287 1.457.321 2.208.425 9.964-11.356 11.455-18.361 7.926-5.179-2.608-7.963-7.254-10.993-11.943a473.242 473.242 0 00-6.139-9.269z" fill="#D74034"/><path d="M207.363 339.018c-2.524-4.172-9.72-16.96-12.258-21.041-12.733-20.478-24.259-41.585-30.157-65.167-1.351-5.443-1.727-12.011.369-17.295 5.52-13.881 23.837-11.968 29.732.457 9.845 20.75 13.787 40.941 21.075 62.723 1.216 3.634 3.056 10.446 4.245 14.165 1.021 3.195 5.038 13.448 6.095 16.642" fill="#0B2D4E"/></svg>