<svg width="129" height="91" viewBox="0 0 129 91" fill="none" xmlns="http://www.w3.org/2000/svg">
<path d="M126.881 0.713867H42.6687V56.0367H126.881V0.713867Z" fill="#2B2C59"/>
<path d="M58.6138 2.88794H55.693V5.80852H58.6138V2.88794Z" fill="#F09048"/>
<path d="M53.5689 2.93506H50.6479V5.85585H53.5689V2.93506Z" fill="#F09048"/>
<path d="M48.5275 2.96661H45.6068V5.8874H48.5275V2.96661Z" fill="#F09048"/>
<path d="M126.881 8.03931H42.6687V61.1889H126.881V8.03931Z" fill="#FFFDFE"/>
<path d="M82.4477 38.0334C82.0472 37.4582 81.4167 36.0171 81.2257 35.572V30.2386L87.9875 29.8895L87.9971 33.9148C88.0721 34.1014 88.2712 34.5461 88.6129 35.0441C87.7285 35.6378 84.3498 37.8326 82.4477 38.0334Z" fill="#F7A5A2"/>
<path d="M81.2257 30.9305L81.2274 34.1033C81.2274 34.1033 85.9728 36.2568 87.9548 35.1253C88.9888 34.535 88.3522 32.7975 88.2102 29.8738L81.2257 30.9305Z" fill="#F58F8E"/>
<path d="M80.2121 34.0639C78.5724 33.9948 77.1458 32.2713 76.2272 30.2927C75.4166 28.5465 74.6778 23.8058 74.8567 20.9917C75.1886 15.7712 77.4734 10.5044 84.2321 12.0687C92.3508 13.9479 91.7521 20.2746 90.3932 23.4646C90.3932 23.4646 92.1785 22.3529 92.3098 24.7097C92.4575 27.3609 91.033 27.9233 89.7783 27.6983C89.6693 27.679 89.5053 28.9445 88.9639 29.8189C88.5701 30.4548 84.8071 34.2572 80.2121 34.0639Z" fill="#F7A5A2"/>
<path d="M77.9686 29.965C77.9686 29.965 78.4981 32.0372 79.9309 31.4979C81.3639 30.9586 81.4884 29.9368 81.4884 29.9368C81.4884 29.9368 78.8096 30.1922 77.9686 29.965Z" fill="#FFFDFE"/>
<path d="M81.872 25.3663C81.8578 26.0012 82.1871 26.5232 82.6072 26.5328C83.0277 26.5421 83.3798 26.0351 83.394 25.4002C83.4083 24.7656 83.0791 24.2435 82.6589 24.2341C82.2386 24.2246 81.8863 24.7316 81.872 25.3663Z" fill="#46285A"/>
<path d="M84.0482 23.824C84.1054 23.663 84.0308 23.4858 83.8933 23.3914C83.5571 23.1609 82.7839 22.7087 82.1745 22.9463C81.3726 23.2588 81.6299 23.5918 81.8139 23.7135C81.9982 23.8355 82.4981 23.5049 83.1556 23.8667C83.6485 24.1381 83.9592 24.0754 84.0482 23.824Z" fill="#46285A"/>
<path d="M75.5034 25.2303C75.4938 25.8652 75.827 26.385 76.2473 26.3913C76.6678 26.3975 77.0162 25.888 77.0256 25.2531C77.0352 24.6184 76.7022 24.0987 76.2817 24.0923C75.8614 24.0861 75.5129 24.5957 75.5034 25.2303Z" fill="#46285A"/>
<path d="M75.047 23.537C75.0115 23.3946 75.0899 23.2493 75.2149 23.18C75.5213 23.0107 76.2193 22.6881 76.7203 22.9412C77.3799 23.2744 77.1328 23.5376 76.9653 23.6265C76.7981 23.7155 76.398 23.3919 75.8064 23.6471C75.3628 23.8383 75.1023 23.759 75.047 23.537Z" fill="#46285A"/>
<path d="M78.8369 26.6442C78.8369 26.6442 77.5312 27.4676 78.4111 28.0636C79.2912 28.6598 79.7455 28.1203 79.7455 28.1203C79.7455 28.1203 79.7311 27.8934 79.5751 27.8934C79.4191 27.8934 79.1208 28.1346 78.6525 27.8082C78.1842 27.4816 78.9364 26.9141 78.9933 26.8004C79.0499 26.6869 78.8369 26.6442 78.8369 26.6442Z" fill="#46285A"/>
<path d="M89.8356 26.5435C89.8356 26.5435 89.488 24.2138 90.4964 23.414C91.2664 22.8033 92.4782 19.5196 91.7133 16.1817C90.9484 12.8436 89.2814 12.1631 84.9697 11.3289C80.6582 10.4942 76.0663 12.9133 75.371 14.5127C74.6756 16.1121 74.5364 18.546 73.4238 18.6852C72.3113 18.8242 73.1457 22.0233 75.1624 21.9536C77.179 21.8841 76.6228 20.7019 80.7256 20.4932C84.8286 20.2848 87.9579 20.6324 88.0276 23.5878C88.0752 25.6088 88.5144 27.656 89.8356 26.5435Z" fill="#46285A"/>
<path d="M90.3943 23.466C91.0226 21.9911 91.4875 19.8461 91.0045 17.7799L91.888 17.4285C91.888 17.4285 91.8691 20.522 91.7642 23.348C91.1958 22.9681 90.3943 23.466 90.3943 23.466Z" fill="#46285A"/>
<path d="M89.7794 27.7066C90.3679 27.8122 90.9939 27.7444 91.4775 27.369C91.4586 27.4807 91.4391 27.5783 91.4185 27.6579C91.2147 28.4479 90.1765 29.0631 89.1498 29.4861C89.5461 28.6579 89.684 27.6896 89.7794 27.7066Z" fill="#46285A"/>
<path d="M74.6735 19.3678C74.6735 19.3678 74.2564 21.2455 78.116 19.9415C81.9755 18.6377 86.5651 19.4199 87.2954 20.0981C88.0255 20.7761 89.3816 17.3337 85.6786 16.4993C81.9755 15.6647 78.8981 17.8031 76.8119 18.7418C74.7258 19.6808 74.6735 19.3678 74.6735 19.3678Z" fill="#482B60"/>
<path d="M69.9295 50.7798C69.9295 50.7798 69.1098 58.6132 69.2009 60.89C69.2921 63.1672 72.9942 65.5578 75.5446 65.2846C78.0948 65.0113 74.8479 54.6054 74.4837 53.1482C74.1193 51.6905 73.5728 48.5938 69.9295 50.7798Z" fill="#F7A5A2"/>
<path d="M73.0398 39.2C73.0398 39.2 71.8924 39.8431 70.4082 43.348C69.9591 44.4088 69.2844 51.5087 69.2844 51.5087L76.2736 55.3336L75.439 49.5789L73.0398 39.2Z" fill="#E58849"/>
<path d="M73.3533 52.4769L73.4923 55.4673C73.4923 55.4673 69.007 52.5812 69.0765 52.303C69.146 52.0249 69.2503 49.6604 69.2503 49.6604L73.3533 52.4769Z" fill="#DA8043"/>
<path d="M93.9709 45.0742C93.9709 45.0742 93.5538 71.2565 92.9281 71.5695C92.3019 71.8825 75.6122 72.4041 74.3603 71.8825C73.1085 71.361 73.5259 53.3149 74.1516 50.1854C74.7776 47.0562 82.3926 41.7363 82.3926 41.7363L93.9709 45.0742Z" fill="#F09048"/>
<path d="M80.7164 36.1605C80.7164 36.1605 80.7247 38.3486 83.7608 38.1665C86.797 37.9844 88.8319 34.8992 88.8319 34.8992C88.8319 34.8992 95.7457 38.2507 99.0855 40.8009C101.772 42.8522 84.6414 50.4021 84.6414 50.4021L73.9114 67.9222C73.9114 67.9222 72.4459 39.4098 72.9378 39.2015C74.0179 38.7447 78.1054 36.6158 80.7164 36.1605Z" fill="#F09048"/>
<path d="M93.346 54.7315L93.033 71.3347L96.4693 53.4254L93.346 54.7315Z" fill="#DA8043"/>
<path d="M93.4504 51.2357L93.2418 64.518L96.4407 55.3385L93.4504 51.2357Z" fill="#DA8043"/>
<path d="M88.5225 33.7807L90.8086 35.9625C90.8086 35.9625 88.6789 40.0394 83.7763 39.5179C78.8734 38.9963 79.7081 36.4928 79.7081 36.4928L81.1944 35.2411C81.1944 35.2411 81.5076 37.1968 85.0019 36.571C88.4964 35.945 88.5225 33.7807 88.5225 33.7807Z" fill="#DA8043"/>
<path d="M102.966 50.6213C101.361 51.3438 97.7674 57.1163 96.0971 57.4907C96.9188 60.4565 98.3966 66.4188 99.0071 68.1741C99.9144 70.7836 99.7344 73.404 102.888 72.1146C103.923 71.6916 105.005 71.0227 105.196 68.6212C105.486 64.9873 103.647 53.6533 102.966 50.6213Z" fill="#F7A5A2"/>
<path d="M99.0047 40.854C99.0047 40.854 97.365 42.1742 94.693 44.5425C92.0215 46.9104 93.6429 50.7506 94.4242 54.0177C95.4263 58.2077 95.6758 59.303 95.6758 59.303C95.6758 59.303 103.717 54.39 104.021 53.6006C104.325 52.8113 101.737 41.7041 99.0047 40.854Z" fill="#F09048"/>
<path d="M104.647 53.3849L95.3978 59.8524L94.6675 57.1401L103.743 50.2905L104.647 53.3849Z" fill="#E58849"/>
<path d="M56.2556 30.3074H47.7374C43.0022 30.3074 39.1635 26.4687 39.1635 21.7333C39.1635 16.9979 43.0022 13.1592 47.7374 13.1592H56.2556C60.9908 13.1592 64.8297 16.9979 64.8297 21.7333C64.8297 26.4687 60.9908 30.3074 56.2556 30.3074Z" fill="#F09048"/>
<path d="M54.6651 26.6841L66.2873 32.9969L62.2484 26.3923L54.6651 26.6841Z" fill="#F09048"/>
<path d="M47.0829 21.5713C47.0829 22.5455 46.2931 23.3353 45.3189 23.3353C44.3446 23.3353 43.5548 22.5455 43.5548 21.5713C43.5548 20.597 44.3446 19.8073 45.3189 19.8073C46.2931 19.8073 47.0829 20.597 47.0829 21.5713Z" fill="#FFFDFE"/>
<path d="M53.6091 21.6816C53.6091 22.6561 52.8193 23.4459 51.8448 23.4459C50.8706 23.4459 50.0808 22.6561 50.0808 21.6816C50.0808 20.7074 50.8706 19.9176 51.8448 19.9176C52.8193 19.9176 53.6091 20.7074 53.6091 21.6816Z" fill="#FFFDFE"/>
<path d="M60.198 21.6816C60.198 22.6561 59.408 23.4459 58.4338 23.4459C57.4595 23.4459 56.6697 22.6561 56.6697 21.6816C56.6697 20.7074 57.4595 19.9176 58.4338 19.9176C59.408 19.9176 60.198 20.7074 60.198 21.6816Z" fill="#FFFDFE"/>
<path d="M122.147 10.5756H104.092V31.7495H122.147V10.5756Z" fill="#46285A"/>
<path d="M120.753 13.0963H113.942V15.8273H120.753V13.0963Z" fill="#C9D5E3"/>
<path d="M120.778 19.2559H112.3V20.7339H120.778V19.2559Z" fill="#C9D5E3"/>
<path d="M120.789 22.3278H106.912V23.8056H120.789V22.3278Z" fill="#C9D5E3"/>
<path d="M120.803 25.3998H110.453V26.8776H120.803V25.3998Z" fill="#C9D5E3"/>
<path d="M120.815 28.4717H106.656V29.9496H120.815V28.4717Z" fill="#C9D5E3"/>
<path d="M109.137 52.6032C109.137 55.1596 111.209 57.232 113.766 57.232C116.322 57.232 118.394 55.1596 118.394 52.6032C118.394 50.0469 116.322 47.9747 113.766 47.9747C111.209 47.9747 109.137 50.0469 109.137 52.6032Z" fill="#46285A"/>
<path d="M116.745 50.6843H111.866V54.5757H116.745V50.6843Z" fill="#C9D5E3"/>
<path d="M113.603 51.5193H110.689V53.8438H113.603V51.5193Z" fill="#C9D5E3"/>
<path d="M111.238 51.2357H110.173V54.1397H111.238V51.2357Z" fill="#C9D5E3"/>
<path d="M109.149 40.6937C109.149 43.2498 111.221 45.3222 113.778 45.3222C116.334 45.3222 118.406 43.2498 118.406 40.6937C118.406 38.1373 116.334 36.0649 113.778 36.0649C111.221 36.0649 109.149 38.1373 109.149 40.6937Z" fill="#46285A"/>
<path d="M110.165 40.7553L110.666 40.0753C110.689 40.0445 110.719 40.0275 110.745 40.0039L110.737 39.9929C110.737 39.9929 112.127 38.6347 113.81 38.7501C115.388 38.858 116.479 39.8533 116.613 39.9808C116.649 40.0024 116.687 40.0207 116.719 40.0545L117.272 40.6456C117.372 40.7519 117.426 40.9027 117.421 41.0591L117.395 41.8893L115.461 41.8636L115.435 41.1511C115.43 41.0162 115.47 40.884 115.546 40.7808L115.703 40.5679C115.38 40.1892 114.713 39.6276 113.577 39.6533C112.577 39.6761 112 40.0751 111.688 40.4021L111.892 40.6199C111.991 40.7262 112.046 40.8772 112.041 41.0334L112.015 41.8636L110.081 41.8381L110.055 41.1254C110.05 40.9905 110.09 40.8583 110.165 40.7553Z" fill="#C9D5E3"/>
<path d="M61.1328 65.5684H60.104V64.962H61.1328V63.886H61.7624V64.962H62.7913V65.5684H61.7624V66.6444H61.1328V65.5684Z" fill="white"/>
<path d="M41.7874 78.9906H40.7586V78.3842H41.7874V77.308H42.4172V78.3842H43.4458V78.9906H42.4172V80.0666H41.7874V78.9906Z" fill="white"/>
<path d="M20.7681 4.6648H19.7393V4.05837H20.7681V2.98236H21.3979V4.05837H22.4266V4.6648H21.3979V5.74081H20.7681V4.6648Z" fill="white"/>
<path d="M33.9342 6.82306H32.9054V6.21664H33.9342V5.14062H34.5638V6.21664H35.5927V6.82306H34.5638V7.89929H33.9342V6.82306Z" fill="white"/>
<path d="M27.8519 12.2328C27.3394 12.2328 26.9223 12.6499 26.9223 13.1624C26.9223 13.6751 27.3394 14.0922 27.8519 14.0922C28.3646 14.0922 28.7817 13.6751 28.7817 13.1624C28.7817 12.6499 28.3646 12.2328 27.8519 12.2328ZM27.8519 14.6153C27.0508 14.6153 26.3991 13.9634 26.3991 13.1624C26.3991 12.3615 27.0508 11.7098 27.8519 11.7098C28.6529 11.7098 29.3046 12.3615 29.3046 13.1624C29.3046 13.9634 28.6529 14.6153 27.8519 14.6153Z" fill="white"/>
<path d="M104.55 65.6001H103.521V64.9937H104.55V63.9175H105.179V64.9937H106.208V65.6001H105.179V66.6761H104.55V65.6001Z" fill="white"/>
<path d="M124.142 68.9146C123.629 68.9146 123.212 69.3317 123.212 69.8442C123.212 70.3569 123.629 70.774 124.142 70.774C124.655 70.774 125.072 70.3569 125.072 69.8442C125.072 69.3317 124.655 68.9146 124.142 68.9146ZM124.142 71.2969C123.341 71.2969 122.689 70.6454 122.689 69.8442C122.689 69.0433 123.341 68.3914 124.142 68.3914C124.943 68.3914 125.595 69.0433 125.595 69.8442C125.595 70.6454 124.943 71.2969 124.142 71.2969Z" fill="white"/>
<path d="M90.0235 66.5041C89.5108 66.5041 89.0937 66.9214 89.0937 67.4339C89.0937 67.9464 89.5108 68.3638 90.0235 68.3638C90.5361 68.3638 90.9532 67.9464 90.9532 67.4339C90.9532 66.9214 90.5361 66.5041 90.0235 66.5041ZM90.0235 68.8867C89.2227 68.8867 88.5708 68.235 88.5708 67.4339C88.5708 66.6331 89.2227 65.9812 90.0235 65.9812C90.8246 65.9812 91.4763 66.6331 91.4763 67.4339C91.4763 68.235 90.8246 68.8867 90.0235 68.8867Z" fill="white"/>
<path d="M12.261 43.5133H11.2323V42.9068H12.261V41.8308H12.8908V42.9068H13.9196V43.5133H12.8908V44.5893H12.261V43.5133Z" fill="white"/>
<path d="M2.9112 54.6353H1.88257V54.0289H2.9112V52.9529H3.541V54.0289H4.56984V54.6353H3.541V55.7113H2.9112V54.6353Z" fill="white"/>
<path d="M3.62303 68.9301C3.11031 68.9301 2.69321 69.3473 2.69321 69.86C2.69321 70.3725 3.11031 70.7896 3.62303 70.7896C4.13554 70.7896 4.55264 70.3725 4.55264 69.86C4.55264 69.3473 4.13554 68.9301 3.62303 68.9301ZM3.62303 71.3127C2.82197 71.3127 2.17007 70.661 2.17007 69.86C2.17007 69.0589 2.82197 68.4072 3.62303 68.4072C4.42388 68.4072 5.07556 69.0589 5.07556 69.86C5.07556 70.661 4.42388 71.3127 3.62303 71.3127Z" fill="white"/>
<path d="M4.26103 37.9112C3.74831 37.9112 3.33121 38.3283 3.33121 38.841C3.33121 39.3535 3.74831 39.7708 4.26103 39.7708C4.77354 39.7708 5.19064 39.3535 5.19064 38.841C5.19064 38.3283 4.77354 37.9112 4.26103 37.9112ZM4.26103 40.2937C3.45997 40.2937 2.80807 39.642 2.80807 38.841C2.80807 38.0399 3.45997 37.3882 4.26103 37.3882C5.06188 37.3882 5.71356 38.0399 5.71356 38.841C5.71356 39.642 5.06188 40.2937 4.26103 40.2937Z" fill="white"/>
<path d="M9.84489 22.106H8.80181C4.07768 22.106 0.248108 18.2764 0.248108 13.5525C0.248108 8.82836 4.07768 4.99878 8.80181 4.99878H9.84489C14.569 4.99878 18.3986 8.82836 18.3986 13.5525C18.3986 18.2764 14.569 22.106 9.84489 22.106Z" fill="#F09048"/>
<path d="M4.18259 17.9326L12.0187 28.5873L11.1705 20.8922L4.18259 17.9326Z" fill="#F09048"/>
<path d="M8.13273 15.9653L8.7449 16.1332C8.93613 16.1857 9.04875 16.3835 8.99626 16.5747L8.7143 17.6027C8.66182 17.7942 8.46421 17.9066 8.27276 17.8541L7.6606 17.6862C7.46915 17.6337 7.35675 17.4361 7.40923 17.2447L7.6912 16.2167C7.74368 16.0252 7.9415 15.9128 8.13273 15.9653ZM8.22729 13.9918C8.31908 13.6567 8.44211 13.3894 8.59637 13.1895C8.75042 12.9895 8.91361 12.8397 9.08593 12.7401C9.25826 12.6404 9.47371 12.5412 9.73252 12.4424C9.95435 12.3584 10.1333 12.28 10.269 12.2078C10.4048 12.1353 10.5302 12.0331 10.6451 11.901C10.7599 11.769 10.8464 11.5973 10.9044 11.3855C10.9921 11.0659 10.9636 10.7922 10.8196 10.5642C10.6749 10.3362 10.4448 10.1788 10.1292 10.0923C9.79796 10.0014 9.48519 10.0096 9.1909 10.1174C9.05619 10.1667 8.93379 10.2249 8.82352 10.2925C8.63398 10.4085 8.38601 10.3188 8.30676 10.1112L8.07536 9.50351C8.01226 9.33799 8.07643 9.14697 8.23239 9.06304C8.48354 8.92811 8.77401 8.82654 9.10399 8.75855C9.55594 8.66506 10.0266 8.68545 10.5155 8.81974C11.3548 9.05007 11.9338 9.40662 12.2528 9.88938C12.5715 10.3721 12.6363 10.9582 12.4472 11.647C12.3711 11.9243 12.2636 12.1506 12.1244 12.3255C11.9853 12.5006 11.8342 12.6372 11.6706 12.7352C11.507 12.8331 11.2934 12.9411 11.0291 13.059C10.7424 13.1831 10.506 13.3025 10.3192 13.4168C10.1326 13.5313 9.95605 13.696 9.78925 13.911C9.62266 14.1261 9.4922 14.4049 9.39828 14.7476C9.3458 14.939 9.14819 15.0514 8.95674 14.999L8.39706 14.8455C8.22474 14.7982 8.11085 14.6307 8.13528 14.4535C8.15844 14.2844 8.18925 14.1305 8.22729 13.9918Z" fill="#FFFDFE"/>
<path d="M34.6687 32.0499C34.6687 32.0499 34.361 35.9256 34.1457 36.2333C33.9305 36.5407 33.6534 39.4936 33.4074 40.5702C33.1613 41.6469 30.7314 44.4461 30.0546 44.5384C29.3778 44.6306 28.0551 44.4461 28.0551 44.4461L27.8091 39.7399C27.8091 39.7399 32.7614 31.2809 33.6228 31.0655C34.484 30.8502 34.6687 32.0499 34.6687 32.0499Z" fill="#F48C93"/>
<path d="M28.1165 40.986L28.2087 46.4305L19.2115 45.5538L19.8112 39.2787L28.1165 40.986Z" fill="#F48C93"/>
<path d="M28.0572 41.7611L28.1649 44.4526L28.657 41.4843L28.0572 41.7611Z" fill="#F4838C"/>
<path d="M17.5979 21.1032C18.6436 19.9958 31.9012 19.5343 33.9315 23.0411C34.7999 24.5412 34.8233 27.009 34.7619 28.4239C34.7619 28.4239 35.4692 31.623 34.6697 32.0537C34.5777 32.1033 34.4797 32.1717 34.3786 32.2533C34.2351 33.0635 34.0384 34.1801 33.8699 35.1471C33.7352 35.9199 33.6185 36.5973 33.5622 36.9445C33.3778 38.0825 32.9779 37.4674 32.9779 37.4674C32.9779 37.4674 32.9794 37.4589 32.9817 37.4444C32.9857 37.42 32.9927 37.3758 33.0012 37.3155C33.0012 37.3142 33.0015 37.3129 33.0017 37.3116C33.004 37.2951 33.0066 37.2768 33.0089 37.2579C33.0095 37.2541 33.01 37.2504 33.0106 37.2464C33.0129 37.2273 33.0157 37.2067 33.0182 37.1854C33.0187 37.1814 33.0191 37.1778 33.0197 37.1735C33.0221 37.1535 33.0246 37.1323 33.027 37.1106C33.0278 37.1036 33.0287 37.097 33.0295 37.0898C33.0318 37.0683 33.0342 37.0458 33.0365 37.0231C33.0374 37.0154 33.0382 37.0082 33.0389 37.0006C33.0412 36.9774 33.0433 36.9534 33.0457 36.929C33.0465 36.9207 33.0471 36.9124 33.048 36.9039C33.0501 36.8788 33.0522 36.8529 33.0544 36.8267C33.055 36.8187 33.0556 36.8106 33.0563 36.8025C33.0584 36.7751 33.0603 36.7471 33.062 36.7186C33.0627 36.7109 33.0631 36.7035 33.0635 36.6959C33.0652 36.6674 33.0669 36.6383 33.0684 36.609C33.0688 36.6005 33.0692 36.592 33.0695 36.5835C33.0709 36.5539 33.0722 36.5242 33.0733 36.494C33.0735 36.4855 33.0737 36.477 33.0739 36.4687C33.0748 36.4381 33.0756 36.4075 33.076 36.3765C33.0763 36.3678 33.0763 36.3593 33.0765 36.3506C33.0767 36.3193 33.0769 36.2879 33.0767 36.2562C33.0767 36.2479 33.0767 36.2394 33.0765 36.2312C33.0763 36.1993 33.0756 36.1674 33.0748 36.1351C33.0746 36.1268 33.0743 36.1185 33.0741 36.11C33.0731 36.078 33.0718 36.0459 33.0701 36.0136C33.0697 36.0053 33.0692 35.9972 33.0688 35.9889C33.0669 35.9564 33.0648 35.9241 33.0622 35.8918C33.0616 35.884 33.061 35.8763 33.0603 35.8685C33.0576 35.8359 33.0544 35.8036 33.051 35.7716C33.0501 35.7639 33.0491 35.7565 33.0482 35.7488C33.0444 35.7165 33.0403 35.6847 33.0357 35.6528C33.0346 35.646 33.0335 35.639 33.0325 35.6322C33.0276 35.5999 33.0223 35.5682 33.0163 35.5368C33.0153 35.5304 33.0138 35.5242 33.0125 35.5179C33.0066 35.4864 33 35.4552 32.9927 35.4244C32.9913 35.4186 32.9898 35.4129 32.9885 35.4071C32.9809 35.3763 32.9728 35.3457 32.9641 35.316C32.9628 35.3111 32.9611 35.3066 32.9598 35.3018C32.9507 35.2716 32.9409 35.2418 32.9307 35.2129C32.9292 35.2089 32.9277 35.2053 32.9262 35.2013C32.9154 35.1721 32.9039 35.1432 32.8918 35.1156C32.8903 35.1129 32.8891 35.1101 32.8878 35.1073C32.8748 35.0789 32.8614 35.0512 32.847 35.0249C32.8463 35.0236 32.8455 35.0223 32.8446 35.0211C32.7501 34.8498 32.6205 34.7219 32.4439 34.6666C32.2344 34.6012 32.0113 34.7261 31.9267 34.9289C31.4556 36.0586 31.3749 38.3598 31.9686 38.8436C31.955 39.1749 31.8891 39.4919 31.7166 39.7898C31.04 40.9587 26.6412 42.5121 24.9802 42.6352C23.3193 42.7582 18.9512 41.8968 17.5363 40.5435C16.1214 39.19 14.3988 30.2695 14.3988 27.8088C14.3988 25.348 16.5519 22.2105 17.5979 21.1032Z" fill="#46285A"/>
<path d="M26.5807 39.9903C26.5807 39.9903 25.3502 37.5909 25.4732 33.6538C25.5963 29.7163 26.8267 26.0867 24.4274 26.3327C16.4937 27.1466 16.7066 25.3793 15.4763 26.7326C14.2459 28.0862 16.1992 36.7605 17.3681 39.0983C18.5369 41.436 19.998 41.2822 21.9052 41.5899C23.8123 41.8973 26.5191 41.2822 26.5807 39.9903Z" fill="#3C2553"/>
<path d="M55.3732 48.5469C55.3732 48.5469 53.9968 44.9712 52.6433 43.2794C51.29 41.5876 49.8366 49.5619 49.8366 49.5619C49.8366 49.5619 51.4976 54.153 52.9433 54.3066C53.3689 54.3519 55.5479 54.4256 55.9193 53.8222C56.809 52.3769 55.4385 49.1979 55.3732 48.5469Z" fill="#F4838C"/>
<path d="M56.8944 35.3411L50.8983 57.0031L39.069 52.2828L44.4871 32.8355L56.8944 35.3411Z" fill="#303B66"/>
<path d="M55.7065 36.3969L50.3882 55.61L39.8961 51.4233L44.7016 34.1746L55.7065 36.3969Z" fill="white"/>
<path d="M53.9138 34.3886L53.4262 36.296L46.3826 34.7441L46.8161 33.1033L53.9138 34.3886Z" fill="#F09048"/>
<path d="M54.5102 37.5313L53.6334 40.6457L50.7267 39.8382L51.5571 36.9315L54.5102 37.5313Z" fill="#B3C8DC"/>
<path d="M53.2792 41.7665L43.9899 39.1213L43.8975 39.4595L53.1409 42.1972L53.2792 41.7665Z" fill="#B3C8DC"/>
<path d="M52.909 42.9796L43.6195 40.3342L43.5273 40.6727L52.7707 43.4103L52.909 42.9796Z" fill="#B3C8DC"/>
<path d="M51.9975 46.2265L42.7596 43.4062L42.6608 43.7428L51.8509 46.6544L51.9975 46.2265Z" fill="#B3C8DC"/>
<path d="M51.6243 47.4492L42.3942 44.6034L42.2946 44.9398L51.4764 47.8769L51.6243 47.4492Z" fill="#B3C8DC"/>
<path d="M51.2799 48.5523L42.0696 45.6432L41.9677 45.9791L51.1293 48.979L51.2799 48.5523Z" fill="#B3C8DC"/>
<path d="M50.9062 49.761L41.7042 46.8247L41.6014 47.1602L50.7543 50.187L50.9062 49.761Z" fill="#B3C8DC"/>
<path d="M50.3281 52.9517L41.288 49.5501L41.1682 49.8797L50.1547 53.3693L50.3281 52.9517Z" fill="#B3C8DC"/>
<path d="M52.1718 47.923C52.1718 47.923 51.0335 47.8231 50.1723 47.2386C49.3109 46.6543 49.0419 45.9006 49.4571 45.4161C49.5421 45.3171 50.5106 46.0468 51.9565 46.1082C53.4021 46.1698 54.4173 46.6311 55.1863 47.5233C55.9553 48.4151 56.8396 51.9681 56.6089 53.9981C56.5347 54.6517 52.7561 53.3061 52.4795 51.7373C52.2024 50.1685 52.9716 48.4151 52.1718 47.923Z" fill="#F48C93"/>
<path d="M9.97004 49.8967C9.97004 49.8967 7.07857 51.9269 7.26301 57.8329C7.44766 63.7386 7.54009 78.411 8.37047 79.7953C9.20106 81.1797 13.7227 83.8557 14.2764 83.0251C14.8302 82.1947 15.3837 60.4167 15.3837 60.4167L9.97004 49.8967Z" fill="#24254C"/>
<path d="M29.4101 49.1567C29.4101 49.1567 33.1936 50.7253 35.3161 51.4636C37.4385 52.202 35.6851 63.7369 35.6851 66.6897C35.6851 69.6428 36.977 77.0253 37.7152 80.5319C38.4536 84.0385 38.0909 88.1688 38.0909 88.1688C38.0909 88.1688 29.2254 91.144 23.5966 90.1289C17.9675 89.1139 13.5995 87.6682 13.5995 87.6682C13.5995 87.6682 14.8299 74.8104 14.5531 72.0422C14.3296 69.8077 10.4996 59.1579 9.27268 52.9005C8.86343 50.8132 10.1334 48.7685 12.1858 48.2105C13.5198 47.8478 15.206 47.4932 17.1369 47.3111C22.0278 46.8496 29.4101 49.1567 29.4101 49.1567Z" fill="#2B2C59"/>
<path d="M25.842 51.7476C25.842 51.7476 21.0127 50.1557 19.2595 49.1407C17.5061 48.1257 15.9374 48.6101 15.9374 48.6101C15.9374 48.6101 12.9845 51.5632 12.1539 52.6702C11.3233 53.7777 15.1068 65.6818 16.2142 70.3881C17.3217 75.0946 15.5683 86.8141 15.5683 86.8141L27.1339 89.3979C27.1339 89.3979 23.4735 73.3412 23.1968 69.8346C22.9197 66.3278 21.1666 62.6367 22.4585 58.7611C23.1397 56.717 25.842 51.7476 25.842 51.7476Z" fill="#26264E"/>
<path d="M29.1639 62.1373L35.7466 66.9358L36.2387 72.3496C36.2387 72.3496 30.0251 64.6597 29.1639 62.1373Z" fill="#1F1C3C"/>
<path d="M57.1414 54.9289C57.1414 54.9289 56.634 64.9874 55.7112 70.2474C54.7881 75.5074 53.7733 78.245 51.8355 77.9682C49.8974 77.6913 46.8984 75.9687 48.5594 69.2323C50.2204 62.4958 51.5584 57.7434 51.743 55.1596C51.743 55.1596 55.5726 54.0521 57.1414 54.9289Z" fill="#2B2C59"/>
<path d="M52.2947 69.2769C52.2947 69.2769 39.806 52.7284 35.1922 51.4362C30.5781 50.1444 27.8405 58.2958 29.2246 61.7102C30.6089 65.1244 48.0497 77.8591 51.3719 77.8591C51.3719 77.8591 55.7091 74.4449 52.2947 69.2769Z" fill="#2B2C59"/>
<path d="M57.2104 53.142L57.4794 55.9028C57.4794 55.9028 53.1339 56.4833 51.4198 56.0872L51.5123 54.2108C51.5123 54.2108 55.6725 54.2186 57.2104 53.142Z" fill="white"/>
<path d="M28.5786 45.4658L29.4092 49.1569C29.4092 49.1569 21.8115 49.3721 19.689 48.5415C17.5665 47.7111 17.136 47.3112 17.136 47.3112L19.1661 43.9891C19.1661 43.9891 24.057 45.7425 28.5786 45.4658Z" fill="white"/>
<path d="M26.4107 45.7817L26.549 48.5962C26.549 48.5962 22.0273 48.5501 21.2429 48.5501C20.4584 48.5501 17.967 47.1197 17.967 47.1197L19.2589 44.3514C19.2589 44.3514 23.0885 45.6433 26.4107 45.7817Z" fill="#D2DCE9"/>
<path d="M129 83.2944H0V86.2889H129V83.2944Z" fill="#46285A"/>
<path d="M128.48 82.7126H110.033C108.535 82.7126 107.322 81.4987 107.322 80.0014V79.3892C107.322 77.8918 108.535 76.6779 110.033 76.6779H128.48V82.7126Z" fill="#2B2C59"/>
<path d="M109.718 77.6388C108.771 77.6388 108.003 78.5478 108.003 79.6691C108.003 80.7905 108.771 81.6995 109.718 81.6995H128.735V77.6388H109.718Z" fill="white"/>
<path d="M128.307 78.7416H108.641V79.0176H128.307V78.7416Z" fill="#C7C4E0"/>
<path d="M128.386 80.0334H108.72V80.3095H128.386V80.0334Z" fill="#C7C4E0"/>
<path d="M118.006 76.3151H99.6629C98.1722 76.3151 96.9636 75.1065 96.9636 73.616V73.0125C96.9636 71.5217 98.1722 70.3134 99.6629 70.3134H118.006V76.3151Z" fill="#F09048"/>
<path d="M99.3464 71.2586C98.4044 71.2586 97.641 72.1627 97.641 73.2778C97.641 74.3932 98.4044 75.2973 99.3464 75.2973H118.259V71.2586H99.3464Z" fill="white"/>
<path d="M117.834 72.3613H98.275V72.6356H117.834V72.3613Z" fill="#C7C4E0"/>
<path d="M117.913 73.6531H98.3538V73.9276H117.913V73.6531Z" fill="#C7C4E0"/>
<path d="M106.25 82.6481H87.9066C86.416 82.6481 85.2074 81.4397 85.2074 79.9489V79.3455C85.2074 77.8549 86.416 76.6463 87.9066 76.6463H106.25V82.6481Z" fill="#46285A"/>
<path d="M87.5904 77.5915C86.6485 77.5915 85.8848 78.4956 85.8848 79.6107C85.8848 80.726 86.6485 81.6299 87.5904 81.6299H106.503V77.5915H87.5904Z" fill="white"/>
<path d="M106.31 78.7731H86.7513V79.0474H106.31V78.7731Z" fill="#C7C4E0"/>
<path d="M106.389 80.0806H86.83V80.3551H106.389V80.0806Z" fill="#C7C4E0"/>
<path d="M65.9019 70.7545H57.4929V82.7857H65.9019V70.7545Z" fill="#46285A"/>
<path d="M60.4346 71.4476H58.1545V82.0235H60.4346V71.4476Z" fill="#503069"/>
<path d="M65.6188 80.8526C65.4847 80.8526 65.3479 80.8485 65.2074 80.8411L65.2869 79.3828C66.3614 79.4423 67.1342 79.2262 67.5855 78.7441C68.1129 78.1804 68.2931 77.1787 68.121 75.7668C68.0547 75.222 67.8426 74.8304 67.4729 74.5694C66.4955 73.8804 64.747 74.2486 64.7297 74.2524L64.4087 72.8279C64.5056 72.8058 66.7968 72.3059 68.3143 73.3761C69.0204 73.8738 69.4552 74.6394 69.5707 75.5904C69.7975 77.4511 69.4883 78.8478 68.652 79.7417C67.9618 80.4797 66.9423 80.8526 65.6188 80.8526Z" fill="#46285A"/>
<path d="M77.2261 75.7302C77.2261 75.7302 72.5927 74.5388 72.5927 70.6996C72.5927 66.8607 73.0561 65.603 73.0561 65.603C73.0561 65.603 74.5123 68.0521 76.1008 70.2364C77.6893 72.4207 77.2261 75.7302 77.2261 75.7302Z" fill="#46285A"/>
<path d="M78.1496 76.1241C78.1496 76.1241 82.7831 74.9327 82.7831 71.0938C82.7831 67.2546 82.3196 65.9969 82.3196 65.9969C82.3196 65.9969 80.8635 68.446 79.275 70.6303C77.6864 72.8147 78.1496 76.1241 78.1496 76.1241Z" fill="#46285A"/>
<path d="M77.2898 70.9668C77.2898 70.9668 81.4192 68.6709 80.5085 65.8303C79.5978 62.9894 78.8581 62.2002 78.8581 62.2002C78.8581 62.2002 78.0524 64.457 77.058 66.5582C76.0634 68.6595 77.2898 70.9668 77.2898 70.9668Z" fill="#46285A"/>
<path d="M77.2901 70.9605C77.2901 70.9605 77.0009 74.4467 78.208 75.0362C78.208 75.0362 77.0009 72.5939 77.5903 70.3201C78.1797 68.0463 77.2422 69.7203 77.2901 70.9605Z" fill="#46285A"/>
<path d="M82.3357 74.1888H73.3725V82.7789H82.3357V74.1888Z" fill="#F09048"/>
<path d="M76.5841 74.5826H74.2468V82.1258H76.5841V74.5826Z" fill="#F8995A"/>
</svg>
