<?xml version="1.0" encoding="UTF-8" standalone="no"?>
<!DOCTYPE svg PUBLIC "-//W3C//DTD SVG 1.1//EN" "http://www.w3.org/Graphics/SVG/1.1/DTD/svg11.dtd">
<svg width="100%" height="100%" viewBox="0 0 2582 1409" version="1.1" xmlns="http://www.w3.org/2000/svg" xmlns:xlink="http://www.w3.org/1999/xlink" xml:space="preserve" xmlns:serif="http://www.serif.com/" style="fill-rule:evenodd;clip-rule:evenodd;stroke-linejoin:round;stroke-miterlimit:2;">
    <g transform="matrix(1,0,0,1,-209,-262.988)">
        <rect x="2023.29" y="1030.47" width="171.37" height="638.59" style="fill:rgb(130,180,121);fill-rule:nonzero;"/>
        <rect x="1943.27" y="1030.47" width="125.93" height="638.59" style="fill:rgb(168,210,159);fill-rule:nonzero;"/>
        <path d="M2036.46,1601.41C2036.46,1616.93 2023.87,1629.52 2008.35,1629.52C1992.83,1629.52 1980.24,1616.93 1980.24,1601.41C1980.24,1585.88 1992.83,1573.3 2008.35,1573.3C2023.87,1573.3 2036.46,1585.88 2036.46,1601.41Z" style="fill:rgb(130,180,121);fill-rule:nonzero;"/>
        <rect x="2274.67" y="1030.47" width="171.38" height="638.59" style="fill:rgb(105,157,238);fill-rule:nonzero;"/>
        <rect x="2194.66" y="1030.47" width="125.92" height="638.59" style="fill:rgb(175,205,251);fill-rule:nonzero;"/>
        <path d="M2287.84,1601.41C2287.84,1616.93 2275.26,1629.52 2259.74,1629.52C2244.21,1629.52 2231.63,1616.93 2231.63,1601.41C2231.63,1585.88 2244.21,1573.3 2259.74,1573.3C2275.26,1573.3 2287.84,1585.88 2287.84,1601.41Z" style="fill:rgb(105,157,238);fill-rule:nonzero;"/>
        <rect x="2231.63" y="1095.46" width="56.21" height="335.18" style="fill:white;fill-rule:nonzero;"/>
        <rect x="2523.11" y="1030.47" width="171.38" height="638.59" style="fill:rgb(216,103,19);fill-rule:nonzero;"/>
        <rect x="2443.1" y="1030.47" width="125.92" height="638.59" style="fill:rgb(241,163,79);fill-rule:nonzero;"/>
        <path d="M2536.29,1601.41C2536.29,1616.93 2523.7,1629.52 2508.18,1629.52C2492.65,1629.52 2480.07,1616.93 2480.07,1601.41C2480.07,1585.88 2492.65,1573.3 2508.18,1573.3C2523.7,1573.3 2536.29,1585.88 2536.29,1601.41Z" style="fill:rgb(216,103,19);fill-rule:nonzero;"/>
        <rect x="2480.07" y="1095.46" width="56.22" height="335.18" style="fill:white;fill-rule:nonzero;"/>
        <rect x="1978.12" y="1099.75" width="56.22" height="335.18" style="fill:white;fill-rule:nonzero;"/>
        <path d="M1611.89,906.727L1672.32,1625.16C1672.32,1625.16 1678.65,1668.71 1646.25,1668.79C1592.99,1668.91 1381.15,1668.79 1381.15,1668.79C1381.15,1668.79 1421.24,1659.72 1420.75,1639.32C1420.18,1615.28 1350.13,899.928 1350.13,899.928L1611.89,906.727Z" style="fill:rgb(216,103,19);fill-rule:nonzero;"/>
        <path d="M1363.96,1655.75C1374.44,1655.78 1576.77,1656.42 1628.64,1655.75C1651.25,1655.47 1655.21,1635.65 1655.4,1622.83C1655.49,1616.68 1654.71,1612.13 1654.71,1612.13L1653.14,1593.46L1649.13,1545.87L1645.6,1503.82L1641.05,1449.79L1637.22,1404.18L1594.29,893.686L1332.53,886.893C1332.53,886.893 1362.03,1186.26 1382.9,1404.18C1385.23,1428.46 1387.44,1451.74 1389.49,1473.47C1390.16,1480.41 1390.79,1487.19 1391.42,1493.8C1393.35,1514.42 1395.12,1533.35 1396.66,1550.07C1397.47,1558.88 1398.22,1567.07 1398.9,1574.57C1401.56,1603.96 1403.12,1622.72 1403.14,1626.29C1403.15,1628.37 1402.97,1630.31 1402.63,1632.11C1398.33,1655 1367.9,1655.75 1363.96,1655.75Z" style="fill:rgb(238,152,73);fill-rule:nonzero;"/>
        <path d="M990.871,515.784L2247.6,515.784L2100.42,1106.96L2080.27,1187.93L2011.73,1463.28L738.215,1463.28L990.871,515.784Z" style="fill:rgb(241,163,79);fill-rule:nonzero;"/>
        <path d="M2247.6,515.783L2268,522.583L2038.84,1483.85L2011.72,1463.29L2247.6,515.783Z" style="fill:rgb(238,152,73);fill-rule:nonzero;"/>
        <path d="M2038.84,1483.85L773.17,1483.85L738.219,1463.29L2011.72,1463.29L2038.84,1483.85Z" style="fill:rgb(216,103,19);fill-rule:nonzero;"/>
        <rect x="1320.34" y="1656.04" width="274.04" height="13.02" style="fill:rgb(241,163,79);fill-rule:nonzero;"/>
        <path d="M1390,1483.85L1391.42,1493.8L1649.13,1545.87L1645.6,1503.82L1643.91,1483.85L1390,1483.85Z" style="fill:rgb(216,103,19);fill-rule:nonzero;"/>
        <path d="M1565.11,1656.04L1503.75,1656.04C1437.07,1655.98 1369.88,1655.77 1363.96,1655.75C1367.9,1655.75 1398.33,1655 1402.63,1632.11C1402.96,1630.36 1403.14,1628.49 1403.14,1626.49L1403.14,1626.29C1403.12,1622.72 1401.56,1603.96 1398.9,1574.57L1655.4,1622.83C1655.21,1635.65 1651.25,1655.47 1628.64,1655.75C1615.38,1655.92 1592.31,1656.01 1565.11,1656.04Z" style="fill:rgb(229,132,51);fill-rule:nonzero;"/>
        <path d="M1536.56,1656.05C1525.82,1656.05 1514.79,1656.05 1503.75,1656.04L1565.11,1656.04C1555.98,1656.05 1546.39,1656.05 1536.56,1656.05Z" style="fill:rgb(231,139,55);fill-rule:nonzero;"/>
        <path d="M2011.73,1463.28L2011.72,1463.29" style="fill:none;fill-rule:nonzero;"/>
        <path d="M2011.73,1463.28L1468.84,1277.14L2058.09,1277.03L2020.21,1429.2L2011.72,1463.29" style="fill:rgb(231,139,55);fill-rule:nonzero;"/>
        <path d="M2011.73,1463.28L2011.72,1463.29L2020.21,1429.2L2011.73,1463.28Z" style="fill:rgb(229,132,51);fill-rule:nonzero;"/>
        <path d="M990.872,515.783L2247.6,515.783L2058.2,1277.03L786.965,1277.28L990.872,515.783Z" style="fill:rgb(241,163,79);fill-rule:nonzero;"/>
        <path d="M1341.21,1373.54C1344.84,1354.86 1362.92,1339.72 1381.6,1339.72C1400.27,1339.72 1412.47,1354.86 1408.84,1373.54C1405.21,1392.21 1387.13,1407.35 1368.45,1407.35C1349.77,1407.35 1337.58,1392.21 1341.21,1373.54Z" style="fill:rgb(216,103,19);fill-rule:nonzero;"/>
        <path d="M846.237,1244.28L2022.92,1244.28L2156.18,713.425L2166.39,672.716L2175.11,637.993L2195.55,556.572L1035.82,556.572L1013.38,637.993L1003.81,672.716L992.586,713.425L846.237,1244.28Z" style="fill:rgb(233,243,254);fill-rule:nonzero;"/>
        <path d="M1035.82,556.572L2195.55,556.572L2175.11,637.993L1013.38,637.993L1035.82,556.572Z" style="fill:rgb(168,210,159);fill-rule:nonzero;"/>
        <path d="M2139.93,583.191C2145.55,583.191 2148.97,587.748 2147.57,593.369C2146.17,598.99 2140.47,603.547 2134.85,603.547C2129.23,603.547 2125.81,598.99 2127.21,593.369C2128.61,587.748 2134.31,583.191 2139.93,583.191Z" style="fill:rgb(233,243,254);fill-rule:nonzero;"/>
        <path d="M2106.11,583.191C2111.73,583.191 2115.15,587.748 2113.75,593.369C2112.35,598.99 2106.66,603.547 2101.04,603.547C2095.41,603.547 2091.99,598.99 2093.39,593.369C2094.8,587.748 2100.49,583.191 2106.11,583.191Z" style="fill:rgb(233,243,254);fill-rule:nonzero;"/>
        <path d="M2056.98,593.369C2058.38,587.748 2064.07,583.191 2069.7,583.191C2075.32,583.191 2078.74,587.748 2077.33,593.369C2075.93,598.99 2070.24,603.547 2064.62,603.547C2059,603.547 2055.58,598.99 2056.98,593.369Z" style="fill:rgb(233,243,254);fill-rule:nonzero;"/>
        <path d="M421.452,1595.87C421.452,1595.87 406.473,1609.75 409.396,1619.61C412.318,1629.48 425.836,1636.05 427.663,1648.11C429.489,1660.17 436.795,1666.74 443.372,1666.74L474.723,1666.74C474.723,1666.74 479.563,1658.26 467.872,1655.7C456.182,1653.14 451.774,1638.98 452.505,1625.82C453.235,1612.67 451.409,1595.14 451.409,1595.14L426.566,1589.29L421.452,1595.87Z" style="fill:rgb(35,56,98);fill-rule:nonzero;"/>
        <path d="M693.011,1666.72L609.76,1666.72C609.037,1666.57 608.487,1666.41 608.137,1666.23C602.588,1663.46 604.318,1642.23 604.989,1635.65C605.119,1634.43 605.21,1633.71 605.21,1633.71C605.21,1633.71 634.442,1610.34 638.458,1628.24C638.581,1628.8 638.733,1629.35 638.893,1629.89C643.947,1646.63 666.638,1654.25 679.741,1656.37C689.733,1657.99 692.332,1663.8 693.011,1666.72Z" style="fill:rgb(35,56,98);fill-rule:nonzero;"/>
        <path d="M676.263,1187.43C676.263,1187.43 671.824,1242.81 666.607,1309.38C659.517,1399.81 650.99,1510.89 650.146,1531.93C648.688,1568.47 642.835,1626.92 642.835,1626.92C642.835,1626.92 628.96,1640.81 601.188,1634.95C601.188,1634.95 576.441,1551.52 569.372,1463.24C569.262,1461.79 569.153,1460.33 569.042,1458.87C562.467,1369 552.242,1179.76 552.242,1179.76L676.263,1187.43Z" style="fill:rgb(105,157,238);fill-rule:nonzero;"/>
        <path d="M676.263,1187.43C676.263,1187.43 671.824,1242.81 666.607,1309.38L569.372,1463.24C569.262,1461.79 569.153,1460.33 569.042,1458.87C562.467,1369 552.242,1179.76 552.242,1179.76L676.263,1187.43Z" style="fill:rgb(74,117,203);fill-rule:nonzero;"/>
        <path d="M655.993,1194.01C655.993,1194.01 575.986,1394.57 523.378,1488.83C470.771,1583.08 454.332,1609.39 454.332,1609.39C454.332,1609.39 424.192,1597.33 421.452,1589.11C421.452,1589.11 441.569,1407.15 476.799,1362.79C496.707,1337.72 520.09,1262.51 521.185,1236.2C522.283,1209.9 528.311,1157.84 528.311,1157.84L655.993,1194.01Z" style="fill:rgb(105,157,238);fill-rule:nonzero;"/>
        <path d="M736.903,1138.64L741.476,1147.75C741.476,1147.75 764.73,1151 758.329,1175.24C758.329,1175.24 754.881,1185.22 748.468,1182.06C742.055,1178.91 745.214,1179.17 736.023,1174.93C726.833,1170.68 721.514,1162.52 723.569,1155.03L722.097,1147.1L736.903,1138.64Z" style="fill:rgb(255,178,125);fill-rule:nonzero;"/>
        <path d="M614.959,884.415C618.517,863.411 618.625,850.962 618.625,850.962L578.032,818.248C579.54,863.231 550.715,884.862 550.715,884.862C550.715,884.862 604.809,911.489 636.077,901.627C636.077,901.627 628.378,891.788 614.959,884.415Z" style="fill:rgb(255,178,125);fill-rule:nonzero;"/>
        <path d="M628.187,850.22C628.187,850.22 576.545,858.799 571.698,826.557C566.851,794.315 556.92,773.708 589.688,766.867C622.454,760.026 630.725,771.364 634.96,781.732C639.196,792.1 641.496,847.157 628.187,850.22Z" style="fill:rgb(255,178,125);fill-rule:nonzero;"/>
        <path d="M572.039,828.782C572.039,828.782 573.081,785.592 620.135,778.661C652.365,773.913 632.846,746.981 629.162,742.716C629.162,742.716 604.524,747.417 579.307,752.952C526.38,764.568 566.445,822.359 572.039,828.782Z" style="fill:rgb(22,53,96);fill-rule:nonzero;"/>
        <path d="M731.484,1151.31C738.387,1144.22 743.513,1135 743.513,1135C743.513,1135 684.838,1062.1 680.068,1054.54C675.299,1046.98 639.664,925.727 639.664,925.727L549.551,907.472C549.551,907.472 624.768,1062.65 637.229,1081.57C657.821,1112.83 719.423,1159.36 719.423,1159.36C719.423,1159.36 726.062,1156.87 731.484,1151.31Z" style="fill:rgb(130,180,121);fill-rule:nonzero;"/>
        <path d="M679.713,1192.04C678.772,1192.83 677.679,1193.29 676.427,1193.29C664.687,1193.14 630.45,1199.66 601.481,1196.68C577.059,1194.34 555.444,1187.1 532.231,1176.7C529.148,1175.32 522.054,1171.53 522.213,1168.08C522.318,1164.31 522.692,1158.84 523.163,1151.95C524.806,1127.99 527.669,1086.78 524.877,1039.23C524.375,1030.38 524.111,1021.6 524.08,1012.95C523.84,948.516 536.398,891.521 562.072,872.339C564.266,870.768 577.949,877.666 590.319,883.768C601.749,889.407 609.742,889.276 620.541,887.091L634.777,897.39C647.929,909.602 662.334,926.199 668.595,951.403C673.923,972.85 677.049,1011.53 678.772,1051.6C679.554,1069.76 680.184,1088.08 680.343,1105.46L680.343,1106.09C680.495,1107.81 680.495,1109.69 680.495,1111.42C681.125,1156.03 680.495,1191.41 679.713,1192.04Z" style="fill:rgb(168,210,159);fill-rule:nonzero;"/>
        <path d="M523.163,1151.95C524.806,1127.99 527.669,1086.78 524.877,1039.23C524.375,1030.38 524.111,1021.6 524.08,1012.95C534.775,987.007 543.517,968.192 543.517,968.192L570.476,968.192C570.476,968.192 590.24,1103.19 523.163,1151.95Z" style="fill:rgb(130,180,121);fill-rule:nonzero;"/>
        <path d="M470.714,1160.34L465.597,1169.16C465.597,1169.16 475.623,1190.39 451.838,1198.33C451.838,1198.33 441.604,1200.91 440.73,1193.81C439.854,1186.72 441.363,1189.51 439.879,1179.49C438.394,1169.48 442.305,1160.56 449.693,1158.17L455.523,1152.59L470.714,1160.34Z" style="fill:rgb(255,178,125);fill-rule:nonzero;"/>
        <path d="M457.146,1162.75C466.854,1164.64 477.378,1163.88 477.378,1163.88C477.378,1163.88 506.198,1074.85 509.907,1066.71C513.617,1058.58 595.513,962.322 595.513,962.322L561.396,876.942C561.396,876.942 472.816,1024.9 463.822,1045.69C448.959,1080.05 443.801,1157.08 443.801,1157.08C443.801,1157.08 449.521,1161.27 457.146,1162.75Z" style="fill:rgb(168,210,159);fill-rule:nonzero;"/>
        <path d="M1491.25,1124.31L941.92,1124.31L1129.71,364.565L1679.04,364.565L1491.25,1124.31Z" style="fill:rgb(175,205,251);fill-rule:nonzero;"/>
        <path d="M1409.2,1076.91L859.867,1076.91L1047.66,317.162L1596.99,317.162L1409.2,1076.91Z" style="fill:rgb(192,216,249);fill-rule:nonzero;"/>
        <path d="M1320.29,1022.73L770.956,1022.73L958.748,262.988L1508.08,262.988L1320.29,1022.73Z" style="fill:rgb(212,227,244);fill-rule:nonzero;"/>
        <path d="M1585.8,364.565L1412,1072.36L955.313,1076.91L1425.79,1087.26L1585.8,364.565Z" style="fill:rgb(105,157,238);fill-rule:nonzero;"/>
        <path d="M1494.56,317.162L1329.44,1018.19L872.754,1022.73L1337.19,1034.21L1494.56,317.162Z" style="fill:rgb(105,157,238);fill-rule:nonzero;"/>
        <path d="M1091.42,526.279L937.796,526.279L985.889,333.291L1139.52,333.291L1091.42,526.279Z" style="fill:rgb(233,243,254);fill-rule:nonzero;"/>
        <path d="M1442.15,359.954L1166.9,359.954L1173.67,333.291L1448.92,333.291L1442.15,359.954Z" style="fill:rgb(175,205,251);fill-rule:nonzero;"/>
        <path d="M1429.74,414.693L1154.48,414.693L1161.25,388.03L1436.51,388.03L1429.74,414.693Z" style="fill:rgb(175,205,251);fill-rule:nonzero;"/>
        <path d="M1416.76,469.432L1141.5,469.432L1148.28,442.769L1423.53,442.769L1416.76,469.432Z" style="fill:rgb(175,205,251);fill-rule:nonzero;"/>
        <path d="M1401.52,524.171L1126.27,524.171L1133.04,497.508L1408.29,497.508L1401.52,524.171Z" style="fill:rgb(175,205,251);fill-rule:nonzero;"/>
        <path d="M1401.52,581.167L897.644,581.167L904.416,554.504L1408.29,554.504L1401.52,581.167Z" style="fill:rgb(175,205,251);fill-rule:nonzero;"/>
        <path d="M1388.07,638.163L884.193,638.163L890.965,611.5L1394.84,611.5L1388.07,638.163Z" style="fill:rgb(175,205,251);fill-rule:nonzero;"/>
        <path d="M1369.45,702.349L865.57,702.349L872.342,675.686L1376.22,675.686L1369.45,702.349Z" style="fill:rgb(175,205,251);fill-rule:nonzero;"/>
        <path d="M1352.52,757.769L848.641,757.769L855.413,731.106L1359.29,731.106L1352.52,757.769Z" style="fill:rgb(175,205,251);fill-rule:nonzero;"/>
        <g>
            <clipPath id="_clip1">
                <path d="M1091.42,526.279L937.796,526.279L985.889,333.291L1139.52,333.291L1091.42,526.279Z"/>
            </clipPath>
            <g clip-path="url(#_clip1)">
                <path d="M1107.51,556.788C1107.35,557.295 1107.14,557.776 1106.87,558.216C1103.84,563.101 1053.9,563.345 1048.2,559.247C1045.65,557.414 1044.87,532.15 1044.79,504.775C1044.69,470.934 1045.65,433.862 1045.65,433.862C1045.65,433.862 1065.19,442.93 1066.15,454.09C1067.1,465.25 1058.88,532.322 1064.59,536.42C1070.3,540.519 1096.62,541.052 1105.4,543.63C1105.4,543.63 1109.13,551.662 1107.51,556.788Z" style="fill:rgb(168,210,160);fill-rule:nonzero;"/>
                <path d="M1056.99,356.919C1053.57,353.361 1047.99,353.025 1044.39,352.774C1045.43,351.946 1047.28,351.834 1047.28,351.834C1045.12,351.219 1039.9,352.772 1039.9,352.772C1039.9,352.772 1022.45,340.782 1010.62,364.199C1010.62,364.199 1012.35,362.541 1014.67,360.703C1007.84,374.171 1010.12,396.181 1025.39,402.022C1035.31,405.819 1092.01,393.383 1056.99,356.919Z" style="fill:rgb(22,53,96);fill-rule:nonzero;"/>
                <path d="M1046.42,439.455C1046.51,439.514 1035.86,443.403 1028.62,440.376C1021.8,437.535 1018.38,427.779 1018.48,427.771C1021.54,427.565 1022.94,423.567 1025.17,405.896L1026.48,406.338L1048.63,413.788C1048.63,413.788 1047.19,420.875 1046.3,427.613C1045.55,433.271 1045.2,438.683 1046.42,439.455Z" style="fill:rgb(228,153,99);fill-rule:nonzero;"/>
                <path d="M1048.63,413.788C1048.63,413.788 1047.19,420.875 1046.3,427.613C1033.62,425.605 1028.4,413.128 1026.48,406.338L1048.63,413.788Z" style="fill:rgb(214,141,93);fill-rule:nonzero;"/>
                <path d="M1024.46,403.559C1024.46,403.559 1019.15,392.16 1018.72,382.945C1018.41,376.366 1024.78,352.954 1048.29,359.492C1048.29,359.492 1055.16,361.079 1061.12,366.344C1065.87,370.531 1072.39,379.087 1061.3,398.8L1058.21,405.544L1024.46,403.559Z" style="fill:rgb(22,53,96);fill-rule:nonzero;"/>
                <path d="M1052.05,420.72C1052.05,420.72 1021.89,417.315 1024.3,398.563C1026.71,379.811 1024.44,366.741 1043.8,368.123C1063.16,369.504 1065.98,377.14 1066.7,383.594C1067.41,390.049 1059.96,421.123 1052.05,420.72Z" style="fill:rgb(228,153,99);fill-rule:nonzero;"/>
                <path d="M1054.04,463.187C1053.79,460.983 1058.5,459.961 1059.36,462.007C1060.96,465.84 1060.79,470.387 1061.15,474.075C1062.19,484.606 1058.01,498.3 1058.01,498.3L1054.04,463.187Z" style="fill:rgb(130,180,121);fill-rule:nonzero;"/>
                <path d="M1067.15,373.053C1063.24,366.821 1059.57,367.589 1057.37,369.025C1052.13,358.462 1029.75,369.854 1029.75,369.854C1025.99,383.046 1015.29,389.495 1015.29,389.495C1015.29,389.495 1020.34,393.595 1033.41,391.982C1043.69,390.713 1052.75,377.482 1056.15,371.902C1057.73,373.726 1061.03,377.892 1061.7,381.64C1062.58,386.609 1061.98,396.525 1064.89,396.562C1064.89,396.562 1073.03,382.416 1067.15,373.053Z" style="fill:rgb(22,53,96);fill-rule:nonzero;"/>
                <path d="M1046.84,408.487C1046.84,408.487 1047.09,410.941 1053.06,411.342C1053.06,411.342 1058.08,411.68 1058.26,409.042C1058.26,409.042 1053.68,406.555 1046.84,408.487Z" style="fill:white;fill-rule:nonzero;"/>
                <path d="M1107.51,556.788C1107.35,557.295 1107.14,557.776 1106.87,558.216C1103.84,563.101 1053.9,563.345 1048.2,559.247C1045.65,557.414 1044.82,526.02 1051.85,498.941C1053.52,515.165 1050.46,547.598 1058.96,550.244C1068.58,553.248 1094.87,553.306 1107.51,556.788Z" style="fill:rgb(130,180,121);fill-rule:nonzero;"/>
                <path d="M1059.69,499.797C1039.87,557.025 1048.9,567.376 1041.82,572.335L1035.83,574.079C1028.48,578.951 1029.22,571.988 1007.29,578.295C996.839,581.303 983.423,585.341 971.912,587.265C967.577,587.984 963.514,588.413 959.979,588.367C953.205,588.285 948.376,586.479 947.337,581.762C944.316,568.054 971.477,536.211 968.89,511.745C968.869,511.536 968.849,511.322 968.833,511.114C968.691,508.984 968.925,506.591 969.476,504.004C972.25,490.899 983.106,472.739 993.901,457.431C1005.82,440.544 1017.65,427.127 1018.47,427.771C1041.76,446.015 1045.65,433.862 1045.65,433.862C1045.65,433.862 1066.45,480.28 1059.69,499.797Z" style="fill:rgb(168,210,160);fill-rule:nonzero;"/>
                <path d="M1037.94,573.513C1030.6,578.385 1029.22,571.988 1007.29,578.295C996.839,581.303 983.423,585.341 971.912,587.265C966.125,587.518 961.799,587.84 959.979,588.367C953.205,588.285 948.376,586.479 947.337,581.762C944.316,568.054 971.477,536.211 968.89,511.745C968.869,511.536 968.849,511.322 968.833,511.114C968.65,508.705 968.888,506.356 969.476,504.004C971.974,494.098 980.789,484.142 991.23,469.33C996.069,475.979 1039.06,474.571 1021.52,531.797C1016.14,549.338 1037.13,559.252 1037.94,573.513Z" style="fill:rgb(130,180,121);fill-rule:nonzero;"/>
                <path d="M1018.48,427.771C1018.48,427.771 984.184,423.791 975.908,439.513C967.631,455.234 961.995,513.524 968.697,532.147C975.4,550.77 1023.31,580.972 1028.85,582.65C1034.39,584.328 1039.06,576.056 1038.95,575.082C1038.83,574.107 991.104,524.015 991.921,519.563C992.739,515.11 1018.48,427.771 1018.48,427.771Z" style="fill:rgb(168,210,160);fill-rule:nonzero;"/>
            </g>
        </g>
        <path d="M2164.02,1576.68L2151.78,1628.27L2133.43,1628.16L2132.76,1576.68L2164.02,1576.68Z" style="fill:rgb(228,153,99);fill-rule:nonzero;"/>
        <path d="M2009.7,1578.88L1974.85,1628.27L1961.27,1610.83L1982.24,1572.09L2009.7,1578.88Z" style="fill:rgb(228,153,99);fill-rule:nonzero;"/>
        <path d="M2100.31,898.79C2106.64,895.19 2114.23,894.797 2119.54,895.111C2118.17,893.7 2115.48,893.186 2115.48,893.186C2118.77,892.696 2126.12,895.961 2126.12,895.961C2171.92,878.316 2179.11,945.742 2178.15,961.408C2177.19,977.071 2193.54,982.186 2217.36,994.528C2262.82,1018.08 2266.81,1049.61 2266.81,1049.61C2266.46,1049.82 2266.09,1050.06 2265.7,1050.33C2263.44,1046.51 2258.8,1039.33 2254.88,1038.25C2255.03,1038.6 2259.51,1048.13 2261.18,1053.59C2247.77,1063.79 2222.68,1086.39 2205.2,1102.42C2205.28,1099.29 2205.15,1094.84 2204.01,1092.49L2201.85,1105.5C2192.49,1114.1 2186.04,1120.15 2186.04,1120.15C2187.19,1107.49 2128.79,1040.69 2098.32,1020.69C2090.9,1009.77 2088.26,990.473 2088.06,988.955C2089.34,1004.25 2091.96,1012.83 2094.3,1017.66C2068.5,993.914 2083.52,908.329 2100.31,898.79Z" style="fill:rgb(22,53,96);fill-rule:nonzero;"/>
        <path d="M2100.12,1021.68C2099.97,1021.75 2114.83,1029.47 2126.01,1026.41C2136.53,1023.54 2143.4,1009.91 2143.26,1009.87C2138.8,1008.99 2137.52,1002.87 2137.62,976.566L2135.6,976.963L2101.74,983.667C2101.74,983.667 2102.51,994.323 2102.54,1004.36C2102.56,1012.79 2102.05,1020.78 2100.12,1021.68Z" style="fill:rgb(228,153,99);fill-rule:nonzero;"/>
        <path d="M2101.74,983.667C2101.74,983.667 2102.51,994.323 2102.54,1004.36C2121.48,1003.83 2131.5,986.542 2135.6,976.963L2101.74,983.667Z" style="fill:rgb(214,141,93);fill-rule:nonzero;"/>
        <path d="M2139.1,973.277C2139.1,973.277 2149.03,957.589 2151.41,944.174C2153.11,934.597 2148.23,899.098 2112.56,904.21C2112.56,904.21 2102.2,905.231 2092.46,911.809C2084.71,917.04 2073.54,928.333 2086.04,959.311L2089.28,969.776L2139.1,973.277Z" style="fill:rgb(22,53,96);fill-rule:nonzero;"/>
        <path d="M1966.8,1597.29L1984.74,1597.84L2004.17,1598.43C2004.17,1598.43 2049.04,1548.47 2074.21,1468.39C2074.8,1466.53 2075.42,1464.64 2076.07,1462.74C2089.85,1422.57 2118.4,1372.15 2133.45,1326.52C2135.85,1319.25 2138,1312.41 2139.93,1305.93C2140.55,1303.86 2141.15,1301.82 2141.72,1299.82C2152.81,1261.28 2156.02,1235.98 2158.98,1208.95L2050.32,1209.82C2050.32,1209.82 2032.77,1394.4 1966.8,1597.29Z" style="fill:rgb(43,71,139);fill-rule:nonzero;"/>
        <path d="M2065.53,1147.38C2065.8,1199.09 2057.94,1221.28 2057.94,1221.28C2057.94,1221.28 2104.47,1244.92 2159.77,1227.52C2160.42,1227.31 2201.36,1219.1 2201.36,1219.1C2200.43,1217 2189.14,1181.23 2188.24,1179.31C2176.56,1154.24 2174.96,1142.08 2173.57,1134.37C2171,1119.98 2170.95,1105.09 2172.23,1091.05C2175.6,1053.88 2185.64,1023.02 2185.64,1023.02C2170.57,1019.59 2156.46,1013.57 2140.78,1007.69C2137.17,1012.18 2126.14,1016.88 2116.58,1016.66C2105.56,1016.42 2101.99,1011.7 2102.56,1006.56C2090.82,1013.09 2081.46,1019.26 2081.46,1019.26C2071.48,1036.59 2051.25,1053.41 2049.78,1080C2049.42,1086.53 2065.52,1145.93 2065.53,1147.38Z" style="fill:rgb(231,241,253);fill-rule:nonzero;"/>
        <path d="M2002.44,1070.56C2018.39,1051.93 2059.72,1011.51 2102.37,1006.56L2065.57,1078.25C2065.57,1078.25 2063.5,1090.54 2052.6,1097.7C2025.91,1115.25 1991.96,1123 1991.96,1123C1991.96,1123 1968.98,1112.97 1937.56,1089.95C1927.69,1082.72 1910.36,1055.16 1910.36,1055.16L1915.04,1039.51C1915.04,1039.51 1944.46,1055.97 1954.97,1060.71C1960.96,1063.42 1974.75,1069.87 1984.47,1074.43C1990.65,1077.34 1998,1075.75 2002.44,1070.56Z" style="fill:rgb(105,157,238);fill-rule:nonzero;"/>
        <path d="M2095.42,993.172C2095.42,993.172 2140.24,993.911 2140.27,965.989C2140.3,938.066 2146.11,919.356 2117.49,917.704C2088.87,916.051 2083.3,926.699 2081.02,936.017C2078.75,945.334 2083.76,992.26 2095.42,993.172Z" style="fill:rgb(228,153,99);fill-rule:nonzero;"/>
        <path d="M2097.08,917.02C2097.08,917.02 2109.35,949.778 2128.18,954.622C2147.02,959.465 2155.19,954.419 2155.19,954.419C2155.19,954.419 2140.74,942.941 2137.75,922.906C2137.75,922.906 2106.33,901.428 2097.08,917.02Z" style="fill:rgb(22,53,96);fill-rule:nonzero;"/>
        <path d="M2100.12,919.679C2100.12,919.679 2090.95,926.993 2088.72,934.103C2086.48,941.213 2085.48,955.851 2081.21,955.353C2081.21,955.353 2071.96,933.087 2082.36,920.491C2093.38,907.135 2100.12,919.679 2100.12,919.679Z" style="fill:rgb(22,53,96);fill-rule:nonzero;"/>
        <path d="M1915.04,1039.51C1915.04,1039.51 1908.72,1016.74 1883.68,1019.96C1880.81,1020.86 1872.41,1024.21 1877.78,1033.19C1881.73,1039.82 1883.45,1036.4 1889.67,1045.31C1895.89,1054.21 1902.65,1056.22 1910.36,1055.16L1915.04,1039.51Z" style="fill:rgb(228,153,99);fill-rule:nonzero;"/>
        <path d="M2152.39,1625.38C2152.39,1625.38 2150.91,1635.6 2154.73,1646.53C2154.73,1646.53 2157.73,1660.21 2144.26,1660.47C2130.78,1660.72 2127.48,1659.45 2129,1651.06C2130.53,1642.67 2133.43,1628.16 2133.43,1628.16L2152.39,1625.38Z" style="fill:rgb(228,153,99);fill-rule:nonzero;"/>
        <path d="M2127.73,1666.31C2127.73,1666.31 2128.02,1666.49 2128.58,1666.76L2154.95,1666.76C2155.46,1666.49 2155.7,1666.31 2155.7,1666.31C2157.22,1659.45 2154.73,1646.53 2154.73,1646.53C2139.47,1660.51 2129.92,1646.18 2129.92,1646.18C2127.44,1652.16 2127.73,1666.31 2127.73,1666.31Z" style="fill:rgb(216,103,19);fill-rule:nonzero;"/>
        <path d="M1928.8,1652.43C1928.8,1652.43 1953.64,1624.86 1961.27,1610.83L1979.74,1620.29L1938.45,1659.07L1928.79,1657.8L1928.8,1652.43Z" style="fill:rgb(228,153,99);fill-rule:nonzero;"/>
        <path d="M1913.38,1666.76L1947.38,1666.76C1950.65,1664.31 1953.71,1658.65 1957.51,1651.05C1959.53,1647 1964.09,1644.76 1968.76,1643.53L1968.76,1666.5L1975.81,1666.5L1982.49,1642.09C1986.88,1634 1982.84,1626.67 1979.74,1620.29C1976.14,1620.28 1966.46,1622.74 1948.11,1643.42C1942.07,1650.21 1935.41,1652.64 1928.8,1652.43C1928.7,1652.49 1928.61,1652.54 1928.53,1652.57C1917.45,1657.55 1914.29,1663.74 1913.38,1666.76Z" style="fill:rgb(216,103,19);fill-rule:nonzero;"/>
        <path d="M2102.56,1006.56C2102.56,1006.56 2076.63,1070.63 2075.86,1083.59C2075.1,1096.56 2072.81,1295.63 2072.81,1295.63C2072.81,1295.63 2074.34,1304.78 2056.8,1300.97C2039.25,1297.16 2034.68,1293.34 2034.68,1293.34C2034.68,1293.34 2051.46,1170.54 2046.88,1127.83C2042.3,1085.12 2081.97,1015.46 2081.97,1015.46L2102.56,1006.56Z" style="fill:rgb(105,157,238);fill-rule:nonzero;"/>
        <path d="M1984.74,1597.84L2004.17,1598.43C2004.17,1598.43 2049.04,1548.47 2074.21,1468.39C2074.8,1466.53 2075.42,1464.64 2076.07,1462.74C2089.85,1422.57 2118.4,1372.15 2133.45,1326.52C2135.85,1319.25 2138,1312.41 2139.93,1305.93C2140.55,1303.86 2141.15,1301.82 2141.72,1299.82L2125.72,1287.67C2125.72,1287.67 2077.67,1365.47 2062.8,1438.69C2049.88,1502.28 1998.14,1578.81 1984.74,1597.84Z" style="fill:rgb(35,56,98);fill-rule:nonzero;"/>
        <path d="M2124.05,1445.5C2123.77,1481.11 2125.57,1562.97 2130.21,1596.85L2147.42,1596.85C2156.93,1596.85 2161.67,1596.72 2161.67,1596.72C2173.31,1537.8 2181.58,1489.04 2187.61,1447.03C2192.55,1412.56 2196.94,1383 2200.32,1357.56C2203.72,1331.95 2206.09,1310.51 2206.93,1292.4C2207.06,1289.54 2207.16,1286.77 2207.22,1284.07C2207.27,1281.37 2207.29,1278.73 2207.26,1276.18L2113.37,1267.03C2114.55,1329.41 2124.2,1424.81 2124.05,1445.5Z" style="fill:rgb(43,71,139);fill-rule:nonzero;"/>
        <path d="M2147.42,1596.85C2156.93,1596.85 2161.67,1596.72 2161.67,1596.72C2173.31,1537.8 2181.58,1489.04 2187.61,1447.03C2192.55,1412.56 2196.94,1383 2200.32,1357.56C2203.72,1331.95 2206.09,1310.51 2206.93,1292.4L2172.48,1312.66C2172.48,1312.66 2194.47,1320.42 2186.08,1379.15C2177.69,1437.88 2159.1,1588.54 2147.42,1596.85Z" style="fill:rgb(35,56,98);fill-rule:nonzero;"/>
        <path d="M2142.98,1291.82C2142.98,1291.82 2149.6,1315.71 2172.48,1312.66C2195.36,1309.61 2227.9,1295.88 2227.9,1295.88C2227.9,1295.88 2218.12,1264.98 2205.96,1224.39C2191.24,1175.25 2173.02,1111.9 2164.43,1071.94C2162.02,1060.74 2160.38,1051.39 2159.76,1044.69L2140.78,1007.86C2140.78,1007.86 2112.48,1071.39 2110.95,1087.41C2109.42,1103.42 2142.98,1291.82 2142.98,1291.82Z" style="fill:rgb(105,157,238);fill-rule:nonzero;"/>
        <path d="M2144,1120.97C2145.02,1146.9 2151.12,1197.24 2205.53,1224.19C2205.67,1224.25 2205.82,1224.33 2205.96,1224.39C2191.24,1175.25 2173.02,1111.9 2164.43,1071.94C2154.44,1086.87 2143.44,1106.69 2144,1120.97Z" style="fill:rgb(74,117,203);fill-rule:nonzero;"/>
        <path d="M1906.27,977.799L1889.12,994.958L1820.88,926.723L1838.04,909.564L1906.27,977.799Z" style="fill:rgb(43,71,139);fill-rule:nonzero;"/>
        <path d="M2265.08,1347.77L2259.09,1353.76C2247.31,1365.54 2228.22,1365.54 2216.44,1353.76L1882.53,1019.85C1870.75,1008.07 1870.75,988.977 1882.53,977.2L1888.52,971.215C1900.29,959.438 1919.39,959.438 1931.16,971.215L2265.08,1305.13C2276.85,1316.9 2276.85,1336 2265.08,1347.77Z" style="fill:rgb(198,84,71);fill-rule:nonzero;"/>
        <path d="M1806.73,895.413C1707.56,994.585 1546.77,994.585 1447.6,895.413C1348.43,796.242 1348.43,635.454 1447.6,536.283C1546.77,437.112 1707.56,437.112 1806.73,536.283C1905.9,635.454 1905.9,796.242 1806.73,895.413ZM1425.37,514.053C1313.92,625.502 1313.92,806.195 1425.37,917.643C1536.82,1029.09 1717.51,1029.09 1828.96,917.643C1940.41,806.195 1940.41,625.501 1828.96,514.053C1717.51,402.605 1536.82,402.605 1425.37,514.053Z" style="fill:rgb(198,84,71);fill-rule:nonzero;"/>
        <path d="M2165.83,1085.02L2140.78,1007.86C2140.85,1007.89 2172.42,1017.26 2188.31,1025.28C2188.31,1025.28 2198.23,1038.08 2204.38,1067.61C2204.38,1067.61 2210.87,1138.51 2196.38,1164.44C2196.38,1164.44 2150.61,1173.59 2077.39,1148.42L2077.39,1131.64C2077.39,1131.64 2157.48,1135.84 2173.88,1137.75L2165.83,1085.02Z" style="fill:rgb(228,153,99);fill-rule:nonzero;"/>
        <path d="M2140.78,1007.86C2140.78,1007.86 2187.22,1011.13 2198.41,1036.05C2209.6,1060.96 2213.16,1143.85 2198.92,1168.25C2198.92,1168.25 2179.32,1173.84 2144.65,1167.35C2144.22,1167.28 2143.79,1167.19 2143.37,1167.11C2143.37,1167.11 2132.31,1140.03 2142.22,1134.7C2142.22,1134.7 2171.46,1136.22 2168.41,1126.56C2165.36,1116.9 2140.78,1007.86 2140.78,1007.86Z" style="fill:rgb(105,157,238);fill-rule:nonzero;"/>
        <path d="M2085.6,1136.11C2085.6,1136.11 2079.22,1128.38 2077.86,1120.48C2076.5,1112.59 2072.28,1106.73 2061.26,1105.29C2050.25,1103.84 2045.52,1103.68 2045.55,1106.79C2045.57,1109.89 2054.54,1131.56 2070.34,1144.5C2086.15,1157.45 2085.6,1136.11 2085.6,1136.11Z" style="fill:rgb(228,153,99);fill-rule:nonzero;"/>
        <path d="M1477.8,799.358L1494.61,731.343L1496.1,729.855L1479.44,797.724L1477.8,799.358Z" style="fill:rgb(207,225,253);fill-rule:nonzero;"/>
        <path d="M1761.38,515.783L1710.17,515.783L1738.45,487.51C1749.57,492.933 1760.39,499.222 1770.79,506.369L1761.38,515.783Z" style="fill:rgb(243,247,251);fill-rule:nonzero;"/>
        <path d="M1720.59,556.572L1669.38,556.572L1710.17,515.783L1761.38,515.783L1720.59,556.572Z" style="fill:rgb(247,200,149);fill-rule:nonzero;"/>
        <path d="M1602.36,674.799L1611.46,637.993L1639.17,637.993L1602.36,674.799Z" style="fill:rgb(242,248,254);fill-rule:nonzero;"/>
        <path d="M1639.17,637.993L1611.46,637.993L1619.17,606.784L1669.38,556.572L1720.59,556.572L1639.17,637.993Z" style="fill:rgb(203,228,197);fill-rule:nonzero;"/>
        <path d="M1492.87,784.293L1507.43,718.529L1619.17,606.784L1611.46,637.993L1602.36,674.799L1492.87,784.293Z" style="fill:rgb(207,225,253);fill-rule:nonzero;"/>
        <path d="M1418.5,858.655C1411.42,848.435 1405.07,837.673 1399.52,826.438L1494.61,731.343L1477.8,799.358L1418.5,858.655Z" style="fill:rgb(217,232,251);fill-rule:nonzero;"/>
        <path d="M1479.44,797.724L1496.1,729.855L1507.43,718.529L1492.87,784.293L1479.44,797.724Z" style="fill:rgb(165,196,245);fill-rule:nonzero;"/>
        <path d="M1770.79,506.369C1760.39,499.222 1749.57,492.933 1738.45,487.51L1739.62,486.34C1750.85,491.888 1761.61,498.242 1771.83,505.326L1770.79,506.369Z" style="fill:rgb(221,152,145);fill-rule:nonzero;"/>
        <path d="M1505.59,686.95L1558.92,471.201C1559.16,471.132 1559.42,471.061 1559.67,470.993L1506.98,685.557L1505.59,686.95Z" style="fill:rgb(207,225,253);fill-rule:nonzero;"/>
        <path d="M1676.75,515.783L1641.67,515.783L1654.62,463.384C1675.14,465.602 1695.42,470.311 1715.02,477.52L1676.75,515.783Z" style="fill:rgb(243,247,251);fill-rule:nonzero;"/>
        <path d="M1635.96,556.572L1631.58,556.572L1641.67,515.783L1676.75,515.783L1635.96,556.572Z" style="fill:rgb(247,200,149);fill-rule:nonzero;"/>
        <path d="M1630.15,562.39L1631.58,556.572L1635.96,556.572L1630.15,562.39Z" style="fill:rgb(203,228,197);fill-rule:nonzero;"/>
        <path d="M1516.93,675.604L1562.4,470.259C1583.6,464.688 1605.38,461.904 1627.16,461.904C1636.33,461.904 1645.5,462.398 1654.62,463.384L1641.67,515.783L1631.58,556.572L1630.15,562.39L1516.93,675.604Z" style="fill:rgb(207,225,253);fill-rule:nonzero;"/>
        <path d="M1389.42,803.113C1389.1,802.255 1388.79,801.393 1388.47,800.53L1446.15,537.747C1446.62,537.26 1447.11,536.767 1447.6,536.283C1479.65,504.227 1518.14,482.533 1558.92,471.201L1505.59,686.95L1389.42,803.113ZM1383.94,786.784C1382.94,783.412 1382,780.008 1381.13,776.579L1438.03,546.379C1439.16,545.126 1440.29,543.886 1441.45,542.65L1383.94,786.784Z" style="fill:rgb(217,232,251);fill-rule:nonzero;"/>
        <path d="M1381.13,776.579C1376.08,756.607 1373.39,735.697 1373.39,714.155C1373.39,706.357 1373.74,698.649 1374.43,691.03C1376.17,673.146 1379.81,655.423 1385.34,638.163L1388.07,638.163L1393.84,615.43C1404.47,590.726 1419.2,567.36 1438.03,546.379L1381.13,776.579Z" style="fill:rgb(229,238,248);fill-rule:nonzero;"/>
        <path d="M1506.98,685.557L1559.67,470.993C1560.58,470.744 1561.49,470.499 1562.4,470.259L1516.93,675.604L1506.98,685.557Z" style="fill:rgb(165,196,245);fill-rule:nonzero;"/>
        <path d="M1388.47,800.53C1386.84,796.006 1385.33,791.424 1383.94,786.784L1441.45,542.65C1442.99,540.999 1444.55,539.367 1446.15,537.747L1388.47,800.53Z" style="fill:rgb(165,196,245);fill-rule:nonzero;"/>
        <path d="M1388.07,638.163L1385.34,638.163C1387.8,630.483 1390.63,622.894 1393.84,615.43L1388.07,638.163Z" style="fill:rgb(207,225,253);fill-rule:nonzero;"/>
        <path d="M1374.43,691.03C1386.11,561.622 1494.88,460.211 1627.33,460.211C1658.63,460.211 1688.6,465.888 1716.29,476.245L1715.02,477.52C1695.42,470.311 1675.14,465.602 1654.62,463.384C1645.5,462.398 1636.33,461.904 1627.16,461.904C1605.38,461.904 1583.6,464.688 1562.4,470.259C1561.49,470.499 1560.58,470.744 1559.67,470.993C1559.42,471.061 1559.16,471.132 1558.92,471.201C1518.14,482.533 1479.65,504.227 1447.6,536.283C1447.11,536.767 1446.62,537.26 1446.15,537.747C1444.55,539.367 1442.99,540.999 1441.45,542.65C1440.29,543.886 1439.16,545.126 1438.03,546.379C1419.2,567.36 1404.47,590.726 1393.84,615.43C1390.63,622.894 1387.8,630.483 1385.34,638.163C1379.81,655.423 1376.17,673.146 1374.43,691.03Z" style="fill:rgb(221,152,145);fill-rule:nonzero;"/>
        <path d="M1627.33,968.098C1594.46,968.098 1563.05,961.842 1534.22,950.467L1543.41,913.309L1818.72,637.993L1868.93,637.993C1879.78,671.759 1883.38,707.357 1879.73,742.331C1865.71,869.315 1758.06,968.098 1627.33,968.098Z" style="fill:rgb(242,248,254);fill-rule:nonzero;"/>
        <path d="M1868.93,637.993L1818.72,637.993L1854.39,602.32C1860.18,613.897 1865.03,625.83 1868.93,637.993Z" style="fill:rgb(203,228,197);fill-rule:nonzero;"/>
        <path d="M1534.22,950.467C1527.62,947.864 1521.16,944.993 1514.85,941.868L1543.41,913.309L1534.22,950.467Z" style="fill:rgb(207,225,253);fill-rule:nonzero;"/>
        <path d="M1879.73,742.331C1883.38,707.357 1879.78,671.759 1868.93,637.993C1865.03,625.83 1860.18,613.897 1854.39,602.32L1855.05,601.668C1871.83,635.576 1881.28,673.759 1881.28,714.155C1881.28,723.682 1880.75,733.076 1879.73,742.331Z" style="fill:rgb(221,152,145);fill-rule:nonzero;"/>
        <path d="M211.3,1671.36L2788.7,1671.36C2789.97,1671.36 2791,1670.33 2791,1669.06C2791,1667.8 2789.97,1666.76 2788.7,1666.76L211.3,1666.76C210.035,1666.76 209,1667.8 209,1669.06C209,1670.33 210.035,1671.36 211.3,1671.36Z" style="fill:rgb(40,50,80);fill-rule:nonzero;"/>
    </g>
</svg>
