<svg viewBox="0 0 2582 1409" xmlns="http://www.w3.org/2000/svg" fill-rule="evenodd" clip-rule="evenodd" stroke-linejoin="round" stroke-miterlimit="2"><path fill="#82b479" fill-rule="nonzero" d="M1814.29 767.482h171.37v638.59h-171.37z"/><path fill="#a8d29f" fill-rule="nonzero" d="M1734.27 767.482h125.93v638.59h-125.93z"/><path d="M1827.46 1338.422c0 15.52-12.59 28.11-28.11 28.11s-28.11-12.59-28.11-28.11c0-15.53 12.59-28.11 28.11-28.11s28.11 12.58 28.11 28.11z" fill="#82b479" fill-rule="nonzero"/><path fill="#699dee" fill-rule="nonzero" d="M2065.67 767.482h171.38v638.59h-171.38z"/><path fill="#afcdfb" fill-rule="nonzero" d="M1985.66 767.482h125.92v638.59h-125.92z"/><path d="M2078.84 1338.422c0 15.52-12.58 28.11-28.1 28.11-15.53 0-28.11-12.59-28.11-28.11 0-15.53 12.58-28.11 28.11-28.11 15.52 0 28.1 12.58 28.1 28.11z" fill="#699dee" fill-rule="nonzero"/><path fill="#fff" fill-rule="nonzero" d="M2022.63 832.472h56.21v335.18h-56.21z"/><path fill="#d86713" fill-rule="nonzero" d="M2314.11 767.482h171.38v638.59h-171.38z"/><path fill="#f1a34f" fill-rule="nonzero" d="M2234.1 767.482h125.92v638.59H2234.1z"/><path d="M2327.29 1338.422c0 15.52-12.59 28.11-28.11 28.11-15.53 0-28.11-12.59-28.11-28.11 0-15.53 12.58-28.11 28.11-28.11 15.52 0 28.11 12.58 28.11 28.11z" fill="#d86713" fill-rule="nonzero"/><path fill="#fff" fill-rule="nonzero" d="M2271.07 832.472h56.22v335.18h-56.22zm-501.95 4.29h56.22v335.18h-56.22z"/><path d="M1402.89 643.739l60.43 718.433s6.33 43.55-26.07 43.63c-53.26.12-265.1 0-265.1 0s40.09-9.07 39.6-29.47c-.57-24.04-70.62-739.392-70.62-739.392l261.76 6.799z" fill="#d86713" fill-rule="nonzero"/><path d="M1154.96 1392.762c10.48.03 212.81.67 264.68 0 22.61-.28 26.57-20.1 26.76-32.92.09-6.15-.69-10.7-.69-10.7l-1.57-18.67-4.01-47.59-3.53-42.05-4.55-54.03-3.83-45.61-42.93-510.494-261.76-6.793s29.5 299.367 50.37 517.287c2.33 24.28 4.54 47.56 6.59 69.29.67 6.94 1.3 13.72 1.93 20.33 1.93 20.62 3.7 39.55 5.24 56.27.81 8.81 1.56 17 2.24 24.5 2.66 29.39 4.22 48.15 4.24 51.72.01 2.08-.17 4.02-.51 5.82-4.3 22.89-34.73 23.64-38.67 23.64z" fill="#ee9849" fill-rule="nonzero"/><path d="M781.871 252.796H2038.6l-147.18 591.176-20.15 80.97-68.54 275.35H529.215l252.656-947.496z" fill="#f1a34f" fill-rule="nonzero"/><path d="M2038.6 252.795l20.4 6.8-229.16 961.267-27.12-20.56 235.88-947.507z" fill="#ee9849" fill-rule="nonzero"/><path d="M1829.84 1220.862H564.17l-34.951-20.56H1802.72l27.12 20.56z" fill="#d86713" fill-rule="nonzero"/><path fill="#f1a34f" fill-rule="nonzero" d="M1111.34 1393.052h274.04v13.02h-274.04z"/><path d="M1181 1220.862l1.42 9.95 257.71 52.07-3.53-42.05-1.69-19.97H1181z" fill="#d86713" fill-rule="nonzero"/><path d="M1356.11 1393.052h-61.36c-66.68-.06-133.87-.27-139.79-.29 3.94 0 34.37-.75 38.67-23.64.33-1.75.51-3.62.51-5.62v-.2c-.02-3.57-1.58-22.33-4.24-51.72l256.5 48.26c-.19 12.82-4.15 32.64-26.76 32.92-13.26.17-36.33.26-63.53.29z" fill="#e58433" fill-rule="nonzero"/><path d="M1327.56 1393.062c-10.74 0-21.77 0-32.81-.01h61.36c-9.13.01-18.72.01-28.55.01z" fill="#e78b37" fill-rule="nonzero"/><path d="M1802.73 1200.292l-.01.01" fill="none"/><path d="M1802.73 1200.292l-542.89-186.14 589.25-.11-37.88 152.17-8.49 34.09" fill="#e78b37" fill-rule="nonzero"/><path d="M1802.73 1200.292l-.01.01 8.49-34.09-8.48 34.08z" fill="#e58433" fill-rule="nonzero"/><path d="M781.872 252.795H2038.6l-189.4 761.247-1271.235.25 203.907-761.497z" fill="#f1a34f" fill-rule="nonzero"/><path d="M1132.21 1110.552c3.63-18.68 21.71-33.82 40.39-33.82 18.67 0 30.87 15.14 27.24 33.82-3.63 18.67-21.71 33.81-40.39 33.81s-30.87-15.14-27.24-33.81z" fill="#d86713" fill-rule="nonzero"/><path d="M637.237 981.292H1813.92l133.26-530.855 10.21-40.709 8.72-34.723 20.44-81.421H826.82l-22.44 81.421-9.57 34.723-11.224 40.709-146.349 530.855z" fill="#e9f3fe" fill-rule="nonzero"/><path d="M826.82 293.584h1159.73l-20.44 81.421H804.38l22.44-81.421z" fill="#a8d29f" fill-rule="nonzero"/><path d="M1930.93 320.203c5.62 0 9.04 4.557 7.64 10.178-1.4 5.621-7.1 10.178-12.72 10.178-5.62 0-9.04-4.557-7.64-10.178 1.4-5.621 7.1-10.178 12.72-10.178zm-33.82 0c5.62 0 9.04 4.557 7.64 10.178-1.4 5.621-7.09 10.178-12.71 10.178-5.63 0-9.05-4.557-7.65-10.178 1.41-5.621 7.1-10.178 12.72-10.178zm-49.13 10.178c1.4-5.621 7.09-10.178 12.72-10.178 5.62 0 9.04 4.557 7.63 10.178-1.4 5.621-7.09 10.178-12.71 10.178-5.62 0-9.04-4.557-7.64-10.178z" fill="#e9f3fe" fill-rule="nonzero"/><path d="M212.452 1332.882s-14.979 13.88-12.056 23.74c2.922 9.87 16.44 16.44 18.267 28.5 1.826 12.06 9.132 18.63 15.709 18.63h31.351s4.84-8.48-6.851-11.04c-11.69-2.56-16.098-16.72-15.367-29.88.73-13.15-1.096-30.68-1.096-30.68l-24.843-5.85-5.114 6.58zm271.559 70.85H400.76c-.723-.15-1.273-.31-1.623-.49-5.549-2.77-3.819-24-3.148-30.58.13-1.22.221-1.94.221-1.94s29.232-23.37 33.248-5.47c.123.56.275 1.11.435 1.65 5.054 16.74 27.745 24.36 40.848 26.48 9.992 1.62 12.591 7.43 13.27 10.35z" fill="#233862" fill-rule="nonzero"/><path d="M467.263 924.442s-4.439 55.38-9.656 121.95c-7.09 90.43-15.617 201.51-16.461 222.55-1.458 36.54-7.311 94.99-7.311 94.99s-13.875 13.89-41.647 8.03c0 0-24.747-83.43-31.816-171.71l-.33-4.37c-6.575-89.87-16.8-279.11-16.8-279.11l124.021 7.67z" fill="#699dee" fill-rule="nonzero"/><path d="M467.263 924.442s-4.439 55.38-9.656 121.95l-97.235 153.86-.33-4.37c-6.575-89.87-16.8-279.11-16.8-279.11l124.021 7.67z" fill="#4a75cb" fill-rule="nonzero"/><path d="M446.993 931.022s-80.007 200.56-132.615 294.82c-52.607 94.25-69.046 120.56-69.046 120.56s-30.14-12.06-32.88-20.28c0 0 20.117-181.96 55.347-226.32 19.908-25.07 43.291-100.28 44.386-126.59 1.098-26.3 7.126-78.36 7.126-78.36l127.682 36.17z" fill="#699dee" fill-rule="nonzero"/><path d="M527.903 875.652l4.573 9.11s23.254 3.25 16.853 27.49c0 0-3.448 9.98-9.861 6.82-6.413-3.15-3.254-2.89-12.445-7.13-9.19-4.25-14.509-12.41-12.454-19.9l-1.472-7.93 14.806-8.46zM405.959 621.427c3.558-21.004 3.666-33.453 3.666-33.453l-40.593-32.714c1.508 44.983-27.317 66.614-27.317 66.614s54.094 26.627 85.362 16.765c0 0-7.699-9.839-21.118-17.212z" fill="#ffb27d" fill-rule="nonzero"/><path d="M419.187 587.232s-51.642 8.579-56.489-23.663c-4.847-32.242-14.778-52.849 17.99-59.69 32.766-6.841 41.037 4.497 45.272 14.865 4.236 10.368 6.536 65.425-6.773 68.488z" fill="#ffb27d" fill-rule="nonzero"/><path d="M363.039 565.794s1.042-43.19 48.096-50.121c32.23-4.748 12.711-31.68 9.027-35.945 0 0-24.638 4.701-49.855 10.236-52.927 11.616-12.862 69.407-7.268 75.83z" fill="#163560" fill-rule="nonzero"/><path d="M522.484 888.322c6.903-7.09 12.029-16.31 12.029-16.31s-58.675-72.9-63.445-80.46c-4.769-7.56-40.404-128.813-40.404-128.813l-90.113-18.255s75.217 155.178 87.678 174.098c20.592 31.26 82.194 77.79 82.194 77.79s6.639-2.49 12.061-8.05z" fill="#82b479" fill-rule="nonzero"/><path d="M470.713 929.052c-.941.79-2.034 1.25-3.286 1.25-11.74-.15-45.977 6.37-74.946 3.39-24.422-2.34-46.037-9.58-69.25-19.98-3.083-1.38-10.177-5.17-10.018-8.62.105-3.77.479-9.24.95-16.13 1.643-23.96 4.506-65.17 1.714-112.72-.502-8.85-.766-17.63-.797-26.28-.24-64.434 12.318-121.429 37.992-140.611 2.194-1.571 15.877 5.327 28.247 11.429 11.43 5.639 19.423 5.508 30.222 3.323l14.236 10.299c13.152 12.212 27.557 28.809 33.818 54.013 5.328 21.447 8.454 60.127 10.177 100.197.782 18.16 1.412 36.48 1.571 53.86v.63c.152 1.72.152 3.6.152 5.33.63 44.61 0 79.99-.782 80.62z" fill="#a8d29f" fill-rule="nonzero"/><path d="M314.163 888.962c1.643-23.96 4.506-65.17 1.714-112.72-.502-8.85-.766-17.63-.797-26.28 10.695-25.943 19.437-44.758 19.437-44.758h26.959s19.764 134.998-47.313 183.758z" fill="#82b479" fill-rule="nonzero"/><path d="M261.714 897.352l-5.117 8.82s10.026 21.23-13.759 29.17c0 0-10.234 2.58-11.108-4.52-.876-7.09.633-4.3-.851-14.32-1.485-10.01 2.426-18.93 9.814-21.32l5.83-5.58 15.191 7.75z" fill="#ffb27d" fill-rule="nonzero"/><path d="M248.146 899.762c9.708 1.89 20.232 1.13 20.232 1.13s28.82-89.03 32.529-97.17c3.71-8.13 85.606-104.388 85.606-104.388l-34.117-85.38s-88.58 147.958-97.574 168.748c-14.863 34.36-20.021 111.39-20.021 111.39s5.72 4.19 13.345 5.67z" fill="#a8d29f" fill-rule="nonzero"/><path d="M1282.25 861.322H732.92l187.79-759.745h549.33l-187.79 759.745z" fill="#afcdfb" fill-rule="nonzero"/><path d="M1200.2 813.922H650.867L838.66 54.174h549.33L1200.2 813.922z" fill="#c0d8f9" fill-rule="nonzero"/><path d="M1111.29 759.742H561.956L749.748 0h549.332l-187.79 759.742z" fill="#d4e3f4" fill-rule="nonzero"/><path d="M1376.8 101.577L1203 809.372l-456.687 4.55 470.477 10.35 160.01-722.695z" fill="#699dee" fill-rule="nonzero"/><path d="M1285.56 54.174l-165.12 701.028-456.686 4.54 464.436 11.48 157.37-717.048z" fill="#699dee" fill-rule="nonzero"/><path d="M882.42 263.291H728.796l48.093-192.988H930.52l-48.1 192.988z" fill="#e9f3fe" fill-rule="nonzero"/><path d="M1233.15 96.966H957.9l6.77-26.663h275.25l-6.77 26.663zm-12.41 54.739H945.48l6.77-26.663h275.26l-6.77 26.663zm-12.98 54.739H932.5l6.78-26.663h275.25l-6.77 26.663zm-15.24 54.739H917.27l6.77-26.663h275.25l-6.77 26.663zm0 56.996H688.644l6.772-26.663h503.874l-6.77 26.663zm-13.45 56.996H675.193l6.772-26.663h503.875l-6.77 26.663zm-18.62 64.186H656.57l6.772-26.663h503.878l-6.77 26.663zm-16.93 55.42H639.641l6.772-26.663h503.877l-6.77 26.663z" fill="#afcdfb" fill-rule="nonzero"/><g transform="translate(-209 -262.988)"><clipPath id="a"><path d="M1091.42 526.279H937.796l48.093-192.988h153.631l-48.1 192.988z"/></clipPath><g clip-path="url(#a)" fill-rule="nonzero"><path d="M1107.51 556.788c-.16.507-.37.988-.64 1.428-3.03 4.885-52.97 5.129-58.67 1.031-2.55-1.833-3.33-27.097-3.41-54.472-.1-33.841.86-70.913.86-70.913s19.54 9.068 20.5 20.228c.95 11.16-7.27 78.232-1.56 82.33 5.71 4.099 32.03 4.632 40.81 7.21 0 0 3.73 8.032 2.11 13.158z" fill="#a8d2a0"/><path d="M1056.99 356.919c-3.42-3.558-9-3.894-12.6-4.145 1.04-.828 2.89-.94 2.89-.94-2.16-.615-7.38.938-7.38.938s-17.45-11.99-29.28 11.427c0 0 1.73-1.658 4.05-3.496-6.83 13.468-4.55 35.478 10.72 41.319 9.92 3.797 66.62-8.639 31.6-45.103z" fill="#163560"/><path d="M1046.42 439.455c.09.059-10.56 3.948-17.8.921-6.82-2.841-10.24-12.597-10.14-12.605 3.06-.206 4.46-4.204 6.69-21.875l1.31.442 22.15 7.45s-1.44 7.087-2.33 13.825c-.75 5.658-1.1 11.07.12 11.842z" fill="#e49963"/><path d="M1048.63 413.788s-1.44 7.087-2.33 13.825c-12.68-2.008-17.9-14.485-19.82-21.275l22.15 7.45z" fill="#d68d5d"/><path d="M1024.46 403.559s-5.31-11.399-5.74-20.614c-.31-6.579 6.06-29.991 29.57-23.453 0 0 6.87 1.587 12.83 6.852 4.75 4.187 11.27 12.743.18 32.456l-3.09 6.744-33.75-1.985z" fill="#163560"/><path d="M1052.05 420.72s-30.16-3.405-27.75-22.157.14-31.822 19.5-30.44c19.36 1.381 22.18 9.017 22.9 15.471.71 6.455-6.74 37.529-14.65 37.126z" fill="#e49963"/><path d="M1054.04 463.187c-.25-2.204 4.46-3.226 5.32-1.18 1.6 3.833 1.43 8.38 1.79 12.068 1.04 10.531-3.14 24.225-3.14 24.225l-3.97-35.113z" fill="#82b479"/><path d="M1067.15 373.053c-3.91-6.232-7.58-5.464-9.78-4.028-5.24-10.563-27.62.829-27.62.829-3.76 13.192-14.46 19.641-14.46 19.641s5.05 4.1 18.12 2.487c10.28-1.269 19.34-14.5 22.74-20.08 1.58 1.824 4.88 5.99 5.55 9.738.88 4.969.28 14.885 3.19 14.922 0 0 8.14-14.146 2.26-23.509z" fill="#163560"/><path d="M1046.84 408.487s.25 2.454 6.22 2.855c0 0 5.02.338 5.2-2.3 0 0-4.58-2.487-11.42-.555z" fill="#fff"/><path d="M1107.51 556.788c-.16.507-.37.988-.64 1.428-3.03 4.885-52.97 5.129-58.67 1.031-2.55-1.833-3.38-33.227 3.65-60.306 1.67 16.224-1.39 48.657 7.11 51.303 9.62 3.004 35.91 3.062 48.55 6.544z" fill="#82b479"/><path d="M1059.69 499.797c-19.82 57.228-10.79 67.579-17.87 72.538l-5.99 1.744c-7.35 4.872-6.61-2.091-28.54 4.216-10.451 3.008-23.867 7.046-35.378 8.97-4.335.719-8.398 1.148-11.933 1.102-6.774-.082-11.603-1.888-12.642-6.605-3.021-13.708 24.14-45.551 21.553-70.017a27.365 27.365 0 01-.057-.631c-.142-2.13.092-4.523.643-7.11 2.774-13.105 13.63-31.265 24.425-46.573 11.919-16.887 23.749-30.304 24.569-29.66 23.29 18.244 27.18 6.091 27.18 6.091s20.8 46.418 14.04 65.935z" fill="#a8d2a0"/><path d="M1037.94 573.513c-7.34 4.872-8.72-1.525-30.65 4.782-10.451 3.008-23.867 7.046-35.378 8.97-5.787.253-10.113.575-11.933 1.102-6.774-.082-11.603-1.888-12.642-6.605-3.021-13.708 24.14-45.551 21.553-70.017a27.365 27.365 0 01-.057-.631c-.183-2.409.055-4.758.643-7.11 2.498-9.906 11.313-19.862 21.754-34.674 4.839 6.649 47.83 5.241 30.29 62.467-5.38 17.541 15.61 27.455 16.42 41.716z" fill="#82b479"/><path d="M1018.48 427.771s-34.296-3.98-42.572 11.742c-8.277 15.721-13.913 74.011-7.211 92.634 6.703 18.623 54.613 48.825 60.153 50.503 5.54 1.678 10.21-6.594 10.1-7.568-.12-.975-47.846-51.067-47.029-55.519.818-4.453 26.559-91.792 26.559-91.792z" fill="#a8d2a0"/></g></g><path d="M1955.02 1313.692l-12.24 51.59-18.35-.11-.67-51.48h31.26zm-154.32 2.2l-34.85 49.39-13.58-17.44 20.97-38.74 27.46 6.79z" fill="#e49963" fill-rule="nonzero"/><path d="M1891.31 635.802c6.33-3.6 13.92-3.993 19.23-3.679-1.37-1.411-4.06-1.925-4.06-1.925 3.29-.49 10.64 2.775 10.64 2.775 45.8-17.645 52.99 49.781 52.03 65.447-.96 15.663 15.39 20.778 39.21 33.12 45.46 23.552 49.45 55.082 49.45 55.082-.35.21-.72.45-1.11.72-2.26-3.82-6.9-11-10.82-12.08.15.35 4.63 9.88 6.3 15.34-13.41 10.2-38.5 32.8-55.98 48.83.08-3.13-.05-7.58-1.19-9.93l-2.16 13.01c-9.36 8.6-15.81 14.65-15.81 14.65 1.15-12.66-57.25-79.46-87.72-99.46-7.42-10.92-10.06-30.217-10.26-31.735 1.28 15.295 3.9 23.875 6.24 28.705-25.8-23.746-10.78-109.331 6.01-118.87z" fill="#163560" fill-rule="nonzero"/><path d="M1891.12 758.692c-.15.07 14.71 7.79 25.89 4.73 10.52-2.87 17.39-16.5 17.25-16.54-4.46-.88-5.74-7-5.64-33.304l-2.02.397-33.86 6.704s.77 10.656.8 20.693c.02 8.43-.49 16.42-2.42 17.32z" fill="#e49963" fill-rule="nonzero"/><path d="M1892.74 720.679s.77 10.656.8 20.693c18.94-.53 28.96-17.818 33.06-27.397l-33.86 6.704z" fill="#d68d5d" fill-rule="nonzero"/><path d="M1930.1 710.289s9.93-15.688 12.31-29.103c1.7-9.577-3.18-45.076-38.85-39.964 0 0-10.36 1.021-20.1 7.599-7.75 5.231-18.92 16.524-6.42 47.502l3.24 10.465 49.82 3.501z" fill="#163560" fill-rule="nonzero"/><path d="M1757.8 1334.302l17.94.55 19.43.59s44.87-49.96 70.04-130.04c.59-1.86 1.21-3.75 1.86-5.65 13.78-40.17 42.33-90.59 57.38-136.22 2.4-7.27 4.55-14.11 6.48-20.59.62-2.07 1.22-4.11 1.79-6.11 11.09-38.54 14.3-63.84 17.26-90.87l-108.66.87s-17.55 184.58-83.52 387.47z" fill="#2b478b" fill-rule="nonzero"/><path d="M1856.53 884.392c.27 51.71-7.59 73.9-7.59 73.9s46.53 23.64 101.83 6.24c.65-.21 41.59-8.42 41.59-8.42-.93-2.1-12.22-37.87-13.12-39.79-11.68-25.07-13.28-37.23-14.67-44.94-2.57-14.39-2.62-29.28-1.34-43.32 3.37-37.17 13.41-68.03 13.41-68.03-15.07-3.43-29.18-9.45-44.86-15.33-3.61 4.49-14.64 9.19-24.2 8.97-11.02-.24-14.59-4.96-14.02-10.1-11.74 6.53-21.1 12.7-21.1 12.7-9.98 17.33-30.21 34.15-31.68 60.74-.36 6.53 15.74 65.93 15.75 67.38z" fill="#e7f1fd" fill-rule="nonzero"/><path d="M1793.44 807.572c15.95-18.63 57.28-59.05 99.93-64l-36.8 71.69s-2.07 12.29-12.97 19.45c-26.69 17.55-60.64 25.3-60.64 25.3s-22.98-10.03-54.4-33.05c-9.87-7.23-27.2-34.79-27.2-34.79l4.68-15.65s29.42 16.46 39.93 21.2c5.99 2.71 19.78 9.16 29.5 13.72a15.149 15.149 0 0017.97-3.87z" fill="#699dee" fill-rule="nonzero"/><path d="M1886.42 730.184s44.82.739 44.85-27.183c.03-27.923 5.84-46.633-22.78-48.285-28.62-1.653-34.19 8.995-36.47 18.313-2.27 9.317 2.74 56.243 14.4 57.155z" fill="#e49963" fill-rule="nonzero"/><path d="M1888.08 654.032s12.27 32.758 31.1 37.602c18.84 4.843 27.01-.203 27.01-.203s-14.45-11.478-17.44-31.513c0 0-31.42-21.478-40.67-5.886z" fill="#163560" fill-rule="nonzero"/><path d="M1891.12 656.691s-9.17 7.314-11.4 14.424c-2.24 7.11-3.24 21.748-7.51 21.25 0 0-9.25-22.266 1.15-34.862 11.02-13.356 17.76-.812 17.76-.812z" fill="#163560" fill-rule="nonzero"/><path d="M1706.04 776.522s-6.32-22.77-31.36-19.55c-2.87.9-11.27 4.25-5.9 13.23 3.95 6.63 5.67 3.21 11.89 12.12 6.22 8.9 12.98 10.91 20.69 9.85l4.68-15.65zm237.35 585.87s-1.48 10.22 2.34 21.15c0 0 3 13.68-10.47 13.94-13.48.25-16.78-1.02-15.26-9.41 1.53-8.39 4.43-22.9 4.43-22.9l18.96-2.78z" fill="#e49963" fill-rule="nonzero"/><path d="M1918.73 1403.322s.29.18.85.45h26.37c.51-.27.75-.45.75-.45 1.52-6.86-.97-19.78-.97-19.78-15.26 13.98-24.81-.35-24.81-.35-2.48 5.98-2.19 20.13-2.19 20.13z" fill="#d86713" fill-rule="nonzero"/><path d="M1719.8 1389.442s24.84-27.57 32.47-41.6l18.47 9.46-41.29 38.78-9.66-1.27.01-5.37z" fill="#e49963" fill-rule="nonzero"/><path d="M1704.38 1403.772h34c3.27-2.45 6.33-8.11 10.13-15.71 2.02-4.05 6.58-6.29 11.25-7.52v22.97h7.05l6.68-24.41c4.39-8.09.35-15.42-2.75-21.8-3.6-.01-13.28 2.45-31.63 23.13-6.04 6.79-12.7 9.22-19.31 9.01-.1.06-.19.11-.27.14-11.08 4.98-14.24 11.17-15.15 14.19z" fill="#d86713" fill-rule="nonzero"/><path d="M1893.56 743.572s-25.93 64.07-26.7 77.03c-.76 12.97-3.05 212.04-3.05 212.04s1.53 9.15-16.01 5.34c-17.55-3.81-22.12-7.63-22.12-7.63s16.78-122.8 12.2-165.51c-4.58-42.71 35.09-112.37 35.09-112.37l20.59-8.9z" fill="#699dee" fill-rule="nonzero"/><path d="M1775.74 1334.852l19.43.59s44.87-49.96 70.04-130.04c.59-1.86 1.21-3.75 1.86-5.65 13.78-40.17 42.33-90.59 57.38-136.22 2.4-7.27 4.55-14.11 6.48-20.59.62-2.07 1.22-4.11 1.79-6.11l-16-12.15s-48.05 77.8-62.92 151.02c-12.92 63.59-64.66 140.12-78.06 159.15z" fill="#233862" fill-rule="nonzero"/><path d="M1915.05 1182.512c-.28 35.61 1.52 117.47 6.16 151.35h17.21c9.51 0 14.25-.13 14.25-.13 11.64-58.92 19.91-107.68 25.94-149.69 4.94-34.47 9.33-64.03 12.71-89.47 3.4-25.61 5.77-47.05 6.61-65.16.13-2.86.23-5.63.29-8.33.05-2.7.07-5.34.04-7.89l-93.89-9.15c1.18 62.38 10.83 157.78 10.68 178.47z" fill="#2b478b" fill-rule="nonzero"/><path d="M1938.42 1333.862c9.51 0 14.25-.13 14.25-.13 11.64-58.92 19.91-107.68 25.94-149.69 4.94-34.47 9.33-64.03 12.71-89.47 3.4-25.61 5.77-47.05 6.61-65.16l-34.45 20.26s21.99 7.76 13.6 66.49c-8.39 58.73-26.98 209.39-38.66 217.7z" fill="#233862" fill-rule="nonzero"/><path d="M1933.98 1028.832s6.62 23.89 29.5 20.84c22.88-3.05 55.42-16.78 55.42-16.78s-9.78-30.9-21.94-71.49c-14.72-49.14-32.94-112.49-41.53-152.45-2.41-11.2-4.05-20.55-4.67-27.25l-18.98-36.83s-28.3 63.53-29.83 79.55c-1.53 16.01 32.03 204.41 32.03 204.41z" fill="#699dee" fill-rule="nonzero"/><path d="M1935 857.982c1.02 25.93 7.12 76.27 61.53 103.22.14.06.29.14.43.2-14.72-49.14-32.94-112.49-41.53-152.45-9.99 14.93-20.99 34.75-20.43 49.03z" fill="#4a75cb" fill-rule="nonzero"/><path d="M1697.27 714.811l-17.15 17.159-68.24-68.235 17.16-17.159 68.23 68.235z" fill="#2b478b" fill-rule="nonzero"/><path d="M2056.08 1084.782l-5.99 5.99c-11.78 11.78-30.87 11.78-42.65 0l-333.91-333.91c-11.78-11.78-11.78-30.873 0-42.65l5.99-5.985c11.77-11.777 30.87-11.777 42.64 0l333.92 333.915c11.77 11.77 11.77 30.87 0 42.64zm-458.35-452.357c-99.17 99.172-259.96 99.172-359.13 0-99.17-99.171-99.17-259.959 0-359.13 99.17-99.171 259.96-99.171 359.13 0 99.17 99.171 99.17 259.959 0 359.13zm-381.36-381.36c-111.45 111.449-111.45 292.142 0 403.59 111.45 111.447 292.14 111.447 403.59 0 111.45-111.448 111.45-292.142 0-403.59-111.45-111.448-292.14-111.448-403.59 0z" fill="#c65447" fill-rule="nonzero"/><path d="M1956.83 822.032l-25.05-77.16c.07.03 31.64 9.4 47.53 17.42 0 0 9.92 12.8 16.07 42.33 0 0 6.49 70.9-8 96.83 0 0-45.77 9.15-118.99-16.02v-16.78s80.09 4.2 96.49 6.11l-8.05-52.73z" fill="#e49963" fill-rule="nonzero"/><path d="M1931.78 744.872s46.44 3.27 57.63 28.19c11.19 24.91 14.75 107.8.51 132.2 0 0-19.6 5.59-54.27-.9-.43-.07-.86-.16-1.28-.24 0 0-11.06-27.08-1.15-32.41 0 0 29.24 1.52 26.19-8.14-3.05-9.66-27.63-118.7-27.63-118.7z" fill="#699dee" fill-rule="nonzero"/><path d="M1876.6 873.122s-6.38-7.73-7.74-15.63c-1.36-7.89-5.58-13.75-16.6-15.19-11.01-1.45-15.74-1.61-15.71 1.5.02 3.1 8.99 24.77 24.79 37.71 15.81 12.95 15.26-8.39 15.26-8.39z" fill="#e49963" fill-rule="nonzero"/><path d="M1268.8 536.37l16.81-68.015 1.49-1.488-16.66 67.869-1.64 1.634z" fill="#cfe1fd" fill-rule="nonzero"/><path d="M1552.38 252.795h-51.21l28.28-28.273a252.6 252.6 0 0132.34 18.859l-9.41 9.414z" fill="#f3f7fb" fill-rule="nonzero"/><path d="M1511.59 293.584h-51.21l40.79-40.789h51.21l-40.79 40.789z" fill="#f7c895" fill-rule="nonzero"/><path d="M1393.36 411.811l9.1-36.806h27.71l-36.81 36.806z" fill="#f2f8fe" fill-rule="nonzero"/><path d="M1430.17 375.005h-27.71l7.71-31.209 50.21-50.212h51.21l-81.42 81.421z" fill="#cbe4c5" fill-rule="nonzero"/><path d="M1283.87 521.305l14.56-65.764 111.74-111.745-7.71 31.209-9.1 36.806-109.49 109.494z" fill="#cfe1fd" fill-rule="nonzero"/><path d="M1209.5 595.667a254.54 254.54 0 01-18.98-32.217l95.09-95.095-16.81 68.015-59.3 59.297z" fill="#d9e8fb" fill-rule="nonzero"/><path d="M1270.44 534.736l16.66-67.869 11.33-11.326-14.56 65.764-13.43 13.431z" fill="#a5c4f5" fill-rule="nonzero"/><path d="M1561.79 243.381a252.6 252.6 0 00-32.34-18.859l1.17-1.17a254.133 254.133 0 0132.21 18.986l-1.04 1.043z" fill="#dd9891" fill-rule="nonzero"/><path d="M1296.59 423.962l53.33-215.749c.24-.069.5-.14.75-.208l-52.69 214.564-1.39 1.393z" fill="#cfe1fd" fill-rule="nonzero"/><path d="M1467.75 252.795h-35.08l12.95-52.399a253.972 253.972 0 0160.4 14.136l-38.27 38.263z" fill="#f3f7fb" fill-rule="nonzero"/><path d="M1426.96 293.584h-4.38l10.09-40.789h35.08l-40.79 40.789z" fill="#f7c895" fill-rule="nonzero"/><path d="M1421.15 299.402l1.43-5.818h4.38l-5.81 5.818z" fill="#cbe4c5" fill-rule="nonzero"/><path d="M1307.93 412.616l45.47-205.345a254.865 254.865 0 0164.76-8.355c9.17 0 18.34.494 27.46 1.48l-12.95 52.399-10.09 40.789-1.43 5.818-113.22 113.214z" fill="#cfe1fd" fill-rule="nonzero"/><path d="M1180.42 540.125c-.32-.858-.63-1.72-.95-2.583l57.68-262.783c.47-.487.96-.98 1.45-1.464 32.05-32.056 70.54-53.75 111.32-65.082l-53.33 215.749-116.17 116.163zm-5.48-16.329c-1-3.372-1.94-6.776-2.81-10.205l56.9-230.2c1.13-1.253 2.26-2.493 3.42-3.729l-57.51 244.134z" fill="#d9e8fb" fill-rule="nonzero"/><path d="M1172.13 513.591c-5.05-19.972-7.74-40.882-7.74-62.424 0-7.798.35-15.506 1.04-23.125a253.804 253.804 0 0110.91-52.867h2.73l5.77-22.733c10.63-24.704 25.36-48.07 44.19-69.051l-56.9 230.2z" fill="#e5eef8" fill-rule="nonzero"/><path d="M1297.98 422.569l52.69-214.564a306.5 306.5 0 012.73-.734l-45.47 205.345-9.95 9.953zm-118.51 114.973a264.287 264.287 0 01-4.53-13.746l57.51-244.134c1.54-1.651 3.1-3.283 4.7-4.903l-57.68 262.783z" fill="#a5c4f5" fill-rule="nonzero"/><path d="M1179.07 375.175h-2.73a252.47 252.47 0 018.5-22.733l-5.77 22.733z" fill="#cfe1fd" fill-rule="nonzero"/><path d="M1165.43 428.042c11.68-129.408 120.45-230.819 252.9-230.819 31.3 0 61.27 5.677 88.96 16.034l-1.27 1.275a253.972 253.972 0 00-60.4-14.136c-9.12-.986-18.29-1.48-27.46-1.48a254.865 254.865 0 00-68.24 9.297c-40.78 11.332-79.27 33.026-111.32 65.082-.49.484-.98.977-1.45 1.464-1.6 1.62-3.16 3.252-4.7 4.903a253.993 253.993 0 00-3.42 3.729c-18.83 20.981-33.56 44.347-44.19 69.051a252.47 252.47 0 00-8.5 22.733 253.804 253.804 0 00-10.91 52.867z" fill="#dd9891" fill-rule="nonzero"/><path d="M1418.33 705.11c-32.87 0-64.28-6.256-93.11-17.631l9.19-37.158 275.31-275.316h50.21c10.85 33.766 14.45 69.364 10.8 104.338-14.02 126.984-121.67 225.767-252.4 225.767z" fill="#f2f8fe" fill-rule="nonzero"/><path d="M1659.93 375.005h-50.21l35.67-35.673a251.286 251.286 0 0114.54 35.673z" fill="#cbe4c5" fill-rule="nonzero"/><path d="M1325.22 687.479a251.828 251.828 0 01-19.37-8.599l28.56-28.559-9.19 37.158z" fill="#cfe1fd" fill-rule="nonzero"/><path d="M1670.73 479.343c3.65-34.974.05-70.572-10.8-104.338a251.286 251.286 0 00-14.54-35.673l.66-.652c16.78 33.908 26.23 72.091 26.23 112.487 0 9.527-.53 18.921-1.55 28.176z" fill="#dd9891" fill-rule="nonzero"/><path d="M2.3 1408.372h2577.4a2.3 2.3 0 002.3-2.3c0-1.26-1.03-2.3-2.3-2.3H2.3a2.31 2.31 0 00-2.3 2.3c0 1.27 1.035 2.3 2.3 2.3z" fill="#283250" fill-rule="nonzero"/></svg>