<svg viewBox="0 0 48 48" xmlns="http://www.w3.org/2000/svg" fill-rule="evenodd" clip-rule="evenodd" stroke-linejoin="round" stroke-miterlimit="2"><path d="M30.5 6.7c0-1.49-1.21-2.7-2.7-2.7H6.2C4.71 4 3.5 5.21 3.5 6.7v31.6c0 1.49 1.21 2.7 2.7 2.7h21.6c1.49 0 2.7-1.21 2.7-2.7V6.7zm-1 .05A1.75 1.75 0 0027.75 5H6.25A1.75 1.75 0 004.5 6.75v31.5c0 .966.784 1.75 1.75 1.75h21.5a1.75 1.75 0 001.75-1.75V6.75z" fill="#0055a6"/><path d="M29.5 6.75A1.75 1.75 0 0027.75 5H6.25A1.75 1.75 0 004.5 6.75v31.5c0 .966.784 1.75 1.75 1.75h21.5a1.75 1.75 0 001.75-1.75V6.75z" fill="#90c9ff"/><path fill="#005f9b" d="M7 8h6v7H7z"/><path fill="#000716" d="M17 8h10v2H17zm0 4.756h10v2H17zM7 18.138h20v2H7zm0 4.256h20v2H7zm0 4.13h20v2H7zm0 4.13h20v2H7zm0 3.943h20v2H7z"/><path d="M45 16.356c0-1.435-1.165-2.6-2.6-2.6H21.6a2.601 2.601 0 00-2.6 2.6V43.4c0 1.435 1.165 2.6 2.6 2.6h20.8c1.435 0 2.6-1.165 2.6-2.6V16.356z" fill="#007690"/><path d="M44 17.157a2.4 2.4 0 00-2.4-2.4H22.4a2.401 2.401 0 00-2.4 2.4V42.6c0 1.324 1.075 2.4 2.4 2.4h19.2c1.325 0 2.4-1.076 2.4-2.4V17.157z" fill="#fff"/><circle cx="27.431" cy="23.569" r="5.431" fill="#009b11"/><circle cx="27.431" cy="23.569" r="5.431" fill="red" transform="translate(0 12.83)"/><path fill="#fff" d="M22.835 24.56l1.414-1.414 3.535 3.536-1.414 1.414z"/><path fill="#fff" d="M30.613 21.025l1.414 1.414-5.657 5.657-1.414-1.414zm-3.182 13.959l-2.121-2.121-1.415 1.414 2.122 2.121-2.122 2.122 1.415 1.414 2.121-2.121 2.121 2.121 1.414-1.414-2.121-2.122 2.121-2.121-1.414-1.414-2.121 2.121z"/></svg>