<svg width="32" height="32" fill="none" xmlns="http://www.w3.org/2000/svg"><path d="M6.268 0C2.821 0 0 2.821 0 6.268V25.72c0 3.447 2.821 6.267 6.268 6.267H25.72c3.447 0 6.267-2.82 6.267-6.267V6.269C31.986 2.82 29.166 0 25.719 0H6.269zm1.577 5.278c1.652 0 2.67 1.085 2.702 2.512 0 1.394-1.05 2.51-2.734 2.51h-.031c-1.622 0-2.67-1.116-2.67-2.51 0-1.427 1.08-2.512 2.733-2.512zm14.242 6.666c3.179 0 5.561 2.078 5.561 6.542v8.335h-4.83v-7.776c0-1.954-.7-3.287-2.447-3.287-1.335 0-2.13.899-2.48 1.767-.127.31-.158.744-.158 1.178v8.118h-4.831s.063-13.172 0-14.536h4.832v2.059c.641-.99 1.79-2.4 4.353-2.4zm-16.69.342h4.83v14.535h-4.83V12.286z" fill="#0064AF"/></svg>