<svg viewBox="0 0 48 48" xmlns="http://www.w3.org/2000/svg" fill-rule="evenodd" clip-rule="evenodd" stroke-linecap="round" stroke-linejoin="round" stroke-miterlimit="1.5"><path fill="#00669b" d="M14.8 33.457h13.8v6.404H14.8zM41.25 7.582a2.876 2.876 0 00-2.875-2.875h-34.5A2.876 2.876 0 001 7.582v23a2.876 2.876 0 002.875 2.875h34.5a2.876 2.876 0 002.875-2.875v-23z"/><path d="M40.1 7.709c0-1.022-.83-1.852-1.852-1.852H4.002c-1.023 0-1.852.83-1.852 1.852v22.747c0 1.022.83 1.851 1.852 1.851h34.246a1.852 1.852 0 001.852-1.851V7.709z" fill="#fff"/><path d="M14.8 33.457v4.6l13.8-4.6H14.8zm-4.6 4.6h23v1.804h-23z" fill="#003964"/><path d="M47 18.332c0-.952-.773-1.725-1.725-1.725h-13.8c-.952 0-1.725.773-1.725 1.725v24.804c0 .952.773 1.725 1.725 1.725h13.8c.952 0 1.725-.773 1.725-1.725V18.332z" fill="#00669b"/><path d="M45.85 18.804c0-.578-.468-1.047-1.046-1.047H31.947c-.579 0-1.047.47-1.047 1.047v23.86c0 .578.468 1.047 1.047 1.047h12.857c.578 0 1.046-.47 1.046-1.047v-23.86z" fill="#feffe9"/><path d="M33.2 41.907l11.5-23H32.05v23h1.15z" fill-opacity=".18"/><path d="M2.79 43.71a6.15 6.15 0 016.928-8.713 7.517 7.517 0 016.774-4.263 7.516 7.516 0 017.226 9.573 3.416 3.416 0 013.702 3.403H2.79z" fill="#0093d3" stroke="#fff" stroke-width="2.001"/><path d="M14.128 25.784A7.004 7.004 0 0121.125 19a7.004 7.004 0 016.997 6.784H14.128zM21.125 11c2.208 0 4 1.792 4 4s-1.792 4-4 4-4-1.792-4-4 1.792-4 4-4z" fill="#0093d3"/><path d="M34.826 35.925a4.635 4.635 0 014.63-4.49 4.635 4.635 0 014.631 4.49h-9.26zm4.63-9.784a2.648 2.648 0 010 5.294 2.648 2.648 0 010-5.294z" fill="#00447a"/></svg>