<?xml version="1.0" encoding="UTF-8" standalone="no"?>
<!DOCTYPE svg PUBLIC "-//W3C//DTD SVG 1.1//EN" "http://www.w3.org/Graphics/SVG/1.1/DTD/svg11.dtd">
<svg width="100%" height="100%" viewBox="0 0 48 48" version="1.1" xmlns="http://www.w3.org/2000/svg" xmlns:xlink="http://www.w3.org/1999/xlink" xml:space="preserve" xmlns:serif="http://www.serif.com/" style="fill-rule:evenodd;clip-rule:evenodd;stroke-linecap:round;stroke-linejoin:round;stroke-miterlimit:1.5;">
    <g>
        <g transform="matrix(1.15,0,0,1.15,-2.45,0.107415)">
            <rect x="15" y="29" width="12" height="5.568" style="fill:rgb(0,102,155);"/>
        </g>
        <g transform="matrix(1.15,0,0,1.15,-2.45,-5.64258)">
            <g transform="matrix(1,0,0,0.892857,0,3.64286)">
                <path d="M38,8.8C38,7.255 36.88,6 35.5,6L5.5,6C4.12,6 3,7.255 3,8.8L3,31.2C3,32.745 4.12,34 5.5,34L35.5,34C36.88,34 38,32.745 38,31.2L38,8.8Z" style="fill:rgb(0,102,155);"/>
            </g>
            <g transform="matrix(0.942857,0,0,0.821429,1.17143,5.07143)">
                <path d="M38,7.96C38,6.878 37.235,6 36.292,6L4.708,6C3.765,6 3,6.878 3,7.96L3,32.04C3,33.122 3.765,34 4.708,34L36.292,34C37.235,34 38,33.122 38,32.04L38,7.96Z" style="fill:white;"/>
            </g>
        </g>
        <g transform="matrix(1.53333,0,0,1.15,-9.73333,0.107415)">
            <path d="M16,29L16,33L25,29L16,29Z" style="fill:rgb(0,57,100);"/>
        </g>
        <g transform="matrix(1.15,0,0,1.15,-2.45,0.107415)">
            <rect x="11" y="33" width="20" height="1.568" style="fill:rgb(0,57,100);"/>
        </g>
        <g transform="matrix(1,0,0,1,0,4)">
            <g transform="matrix(1.15,0,0,1.15,1,1.10742)">
                <path d="M40,11.5C40,10.672 39.328,10 38.5,10L26.5,10C25.672,10 25,10.672 25,11.5L25,33.068C25,33.896 25.672,34.568 26.5,34.568L38.5,34.568C39.328,34.568 40,33.896 40,33.068L40,11.5Z" style="fill:rgb(0,102,155);"/>
            </g>
            <g transform="matrix(0.996667,0,0,1.05638,5.98333,3.1936)">
                <path d="M40,10.991C40,10.444 39.53,10 38.95,10L26.05,10C25.47,10 25,10.444 25,10.991L25,33.577C25,34.124 25.47,34.568 26.05,34.568L38.95,34.568C39.53,34.568 40,34.124 40,33.577L40,10.991Z" style="fill:rgb(254,255,233);"/>
            </g>
            <g transform="matrix(1.15,0,0,1.15,-2.45,1.10742)">
                <path d="M31,32L41,12L30,12L30,32L31,32Z" style="fill-opacity:0.18;"/>
            </g>
        </g>
        <g transform="matrix(0.682973,0,0,0.682973,-2.63081,19.8063)">
            <path d="M7.937,35C7.337,33.795 7,32.437 7,31C7,26.033 11.033,22 16,22C16.716,22 17.413,22.084 18.081,22.242C19.856,18.551 23.632,16 28,16C34.071,16 39,20.929 39,27C39,28.046 38.854,29.058 38.58,30.017C38.719,30.006 38.859,30 39,30C41.76,30 44,32.24 44,35L7.937,35Z" style="fill:rgb(0,147,211);stroke:white;stroke-width:2.93px;"/>
        </g>
    </g>
    <g transform="matrix(1,0,0,1,6.125,1)">
        <path d="M8.003,24.784C8.118,21.02 11.209,18 15,18C18.791,18 21.882,21.02 21.997,24.784L8.003,24.784ZM15,10C17.208,10 19,11.792 19,14C19,16.208 17.208,18 15,18C12.792,18 11,16.208 11,14C11,11.792 12.792,10 15,10Z" style="fill:rgb(0,147,211);"/>
    </g>
    <g transform="matrix(0.661794,0,0,0.661794,29.5299,19.5229)">
        <path d="M8.003,24.784C8.118,21.02 11.209,18 15,18C18.791,18 21.882,21.02 21.997,24.784L8.003,24.784ZM15,10C17.208,10 19,11.792 19,14C19,16.208 17.208,18 15,18C12.792,18 11,16.208 11,14C11,11.792 12.792,10 15,10Z" style="fill:rgb(0,68,122);"/>
    </g>
</svg>
