<svg viewBox="0 0 48 48" xmlns="http://www.w3.org/2000/svg" fill-rule="evenodd" clip-rule="evenodd" stroke-linecap="round" stroke-linejoin="round" stroke-miterlimit="1.5"><path fill="#00669b" d="M19.8 33.457h13.8v6.404H19.8zM46.25 7.582a2.876 2.876 0 00-2.875-2.875h-34.5A2.876 2.876 0 006 7.582v23a2.876 2.876 0 002.875 2.875h34.5a2.876 2.876 0 002.875-2.875v-23z"/><path d="M45.1 7.709c0-1.022-.83-1.852-1.852-1.852H9.002c-1.023 0-1.852.83-1.852 1.852v22.747c0 1.022.83 1.851 1.852 1.851h34.246a1.852 1.852 0 001.852-1.851V7.709z" fill="#fff"/><path d="M19.8 33.457v4.6l13.8-4.6H19.8zm-4.6 4.6h23v1.804h-23z" fill="#003964"/><path d="M22.688 25.784A7.004 7.004 0 0129.685 19a7.004 7.004 0 016.997 6.784H22.688zM29.685 11c2.208 0 4 1.792 4 4s-1.792 4-4 4-4-1.792-4-4 1.792-4 4-4z" fill="#0093d3"/><path fill="#00447a" d="M20.703 2h13v6h-13z"/><circle cx="21" cy="5" r="1" fill="#fff" transform="matrix(1.5 0 0 1.5 -4.297 -2.5)"/><path d="M8.003 24.784A7.004 7.004 0 0115 18a7.004 7.004 0 016.997 6.784H8.003zM15 10c2.208 0 4 1.792 4 4s-1.792 4-4 4-4-1.792-4-4 1.792-4 4-4z" fill="url(#_Linear1)" stroke="#fff" stroke-width="1.15" transform="translate(-11.16 -2.364) scale(1.74405)"/><defs><linearGradient id="_Linear1" x1="0" y1="0" x2="1" y2="0" gradientUnits="userSpaceOnUse" gradientTransform="matrix(6.9967 0 0 7.39195 15 17.392)"><stop offset="0" stop-color="#003ec8"/><stop offset="1" stop-color="#00447a"/></linearGradient></defs></svg>