<?xml version="1.0" encoding="UTF-8" standalone="no"?>
<!DOCTYPE svg PUBLIC "-//W3C//DTD SVG 1.1//EN" "http://www.w3.org/Graphics/SVG/1.1/DTD/svg11.dtd">
<svg width="100%" height="100%" viewBox="0 0 24 24" version="1.1" xmlns="http://www.w3.org/2000/svg" xmlns:xlink="http://www.w3.org/1999/xlink" xml:space="preserve" xmlns:serif="http://www.serif.com/" style="fill-rule:evenodd;clip-rule:evenodd;stroke-linecap:round;stroke-linejoin:round;stroke-miterlimit:1.5;">
    <g transform="matrix(1,0,0,1,1.24196,0)">
        <path d="M16.5,8.5C16.5,8.5 16.449,12.379 16,16.5L17.566,19.5C17.566,19.5 20.296,11.368 16.5,8.5Z" style="fill:rgb(73,203,255);"/>
    </g>
    <path d="M9.601,1.5C9.601,1.5 8.343,2.806 9.601,4C10.858,5.194 12.233,7.661 12.5,14L14.041,15C14.041,15 17.793,2.343 9.601,1.5Z" style="fill:rgb(73,203,255);"/>
    <g transform="matrix(0.798324,-0.21391,0.21391,0.798324,-0.220952,3.26065)">
        <path d="M10,1C10,1 4.649,2.514 5,8C5.351,13.486 7,18 7,18C7,18 9.917,16.662 13,18C13,18 14.793,12.402 15,8C15.207,3.598 11.145,1.374 10,1Z" style="fill:none;stroke:black;stroke-width:1.21px;"/>
    </g>
    <g transform="matrix(0.798324,-0.21391,0.21391,0.798324,-0.883662,3.92336)">
        <path d="M4,10C4,10 1.245,13.441 2.5,17.5C3.755,21.559 5,23 5,23C5,23 4.678,19.695 6,19C6,19 3.87,13.867 4,10Z" style="fill:none;stroke:black;stroke-width:1.21px;"/>
    </g>
    <g transform="matrix(-0.798324,0.21391,0.21391,0.798324,16.5542,-1.036)">
        <path d="M4,10C4,10 1.245,13.441 2.5,17.5C3.755,21.559 5,23 5,23C5,23 4.678,19.695 6,19C6,19 3.87,13.867 4,10Z" style="fill:none;stroke:black;stroke-width:1.21px;"/>
    </g>
    <g transform="matrix(0.570231,-0.152793,0.152793,0.570231,2.47157,4.76997)">
        <circle cx="10.25" cy="8.25" r="1.75"/>
    </g>
    <g transform="matrix(1.14046,-0.305586,0.305586,1.14046,-4.6303,1.63074)">
        <circle cx="10.25" cy="8.25" r="1.75" style="fill:none;stroke:black;stroke-width:0.85px;"/>
    </g>
</svg>
