<svg width="20" height="18" viewBox="0 0 20 18" fill="none" xmlns="http://www.w3.org/2000/svg">
<path d="M18 12.6H1.8V1.8H18V12.6ZM18 0H1.8C0.801 0 0 0.801 0 1.8V12.6C0 13.0774 0.189642 13.5352 0.527208 13.8728C0.864773 14.2104 1.32261 14.4 1.8 14.4H8.1V16.2H6.3V18H13.5V16.2H11.7V14.4H18C18.999 14.4 19.8 13.599 19.8 12.6V1.8C19.8 1.32261 19.6104 0.864773 19.2728 0.527208C18.9352 0.189642 18.4774 0 18 0ZM12.6 3.15L12.042 4.383L10.8 4.95L12.042 5.517L12.6 6.75L13.167 5.517L14.4 4.95L13.167 4.383L12.6 3.15ZM8.55 4.95L7.569 7.119L5.4 8.1L7.569 9.081L8.55 11.25L9.54 9.081L11.7 8.1L9.54 7.119L8.55 4.95Z" fill="#038F00"/>
</svg>
