<svg viewBox="0 0 1024 700" xmlns="http://www.w3.org/2000/svg" fill-rule="evenodd" clip-rule="evenodd" stroke-linejoin="round" stroke-miterlimit="2"><path fill="#46285a" fill-rule="nonzero" d="M2.487 597.935h1020v21.602h-1020z"/><path fill="#2b2c59" fill-rule="nonzero" d="M339.87 2.279h665.862V401.32H339.87z"/><path fill="#f09048" fill-rule="nonzero" d="M442.85 17.958h23.097v21.064H442.85zm-39.89.34h23.096v21.064H402.96zm-39.86.229h23.097v21.065H363.1z"/><path fill="#fffdfe" fill-rule="nonzero" d="M339.87 55.121h665.862v383.37H339.87z"/><path d="M654.402 271.464c-3.171-4.151-8.152-14.541-9.663-17.751v-38.476l53.467-2.514.071 29.034c.594 1.344 2.167 4.555 4.871 8.145-6.99 4.285-33.707 20.115-48.746 21.562z" fill="#f7a5a2" fill-rule="nonzero"/><path d="M644.74 220.235l.007 22.882s37.527 15.53 53.198 7.37c8.176-4.254 3.14-16.787 2.017-37.875l-55.223 7.623z" fill="#f58f8e" fill-rule="nonzero"/><path d="M636.722 242.833c-12.968-.498-24.243-12.928-31.51-27.2-6.404-12.596-12.248-46.794-10.832-67.091 2.625-37.653 20.684-75.646 74.128-64.363 64.196 13.56 59.46 59.192 48.715 82.201 0 0 14.121-8.018 15.157 8.982 1.17 19.12-10.097 23.176-20.02 21.555-.862-.142-2.159 8.99-6.436 15.292-3.116 4.594-32.87 32.015-69.202 30.624z" fill="#f7a5a2" fill-rule="nonzero"/><path d="M618.986 213.268s4.183 14.945 15.514 11.054c11.33-3.89 12.31-11.26 12.31-11.26s-21.174 1.843-27.824.206z" fill="#fffdfe" fill-rule="nonzero"/><path d="M649.847 180.099c-.11 4.578 2.49 8.342 5.812 8.413 3.329.063 6.112-3.59 6.223-8.168.11-4.578-2.491-8.342-5.812-8.413-3.32-.071-6.112 3.59-6.223 8.168zm17.206-11.125c.45-1.163-.135-2.444-1.226-3.124-2.657-1.66-8.769-4.926-13.584-3.21-6.341 2.254-4.31 4.657-2.854 5.535 1.455.878 5.408-1.502 10.61 1.107 3.899 1.953 6.35 1.502 7.054-.308zm-67.565 10.144c-.071 4.578 2.562 8.326 5.882 8.374 3.33.04 6.08-3.63 6.16-8.216.071-4.578-2.562-8.326-5.883-8.365-3.329-.048-6.08 3.63-6.16 8.207zm-3.606-12.216c-.277-1.028.34-2.072 1.328-2.578 2.42-1.217 7.94-3.542 11.9-1.716 5.22 2.396 3.266 4.302 1.938 4.942-1.32.64-4.484-1.692-9.165.143-3.502 1.383-5.566.814-6-.791zm29.968 22.416s-10.327 5.938-3.369 10.232c6.958 4.301 10.556.411 10.556.411s-.119-1.637-1.352-1.637c-1.234 0-3.59 1.74-7.29-.616-3.709-2.357 2.237-6.445 2.688-7.267.45-.814-1.233-1.123-1.233-1.123z" fill="#46285a" fill-rule="nonzero"/><path d="M712.818 188.59s-2.751-16.81 5.219-22.574c6.088-4.404 15.672-28.093 9.623-52.17-6.049-24.077-19.23-28.987-53.317-35.004-34.095-6.017-70.404 11.433-75.9 22.97-5.494 11.536-6.601 29.09-15.394 30.094-8.8 1.004-2.198 24.076 13.742 23.578 15.949-.506 11.552-9.03 43.995-10.54 32.442-1.502 57.183 1.004 57.737 22.322.371 14.58 3.842 29.35 14.295 21.325z" fill="#46285a" fill-rule="nonzero"/><path d="M717.23 166.388c4.974-10.635 8.65-26.109 4.824-41.014l6.99-2.53s-.15 22.314-.98 42.698c-4.492-2.744-10.833.846-10.833.846zm-4.862 30.592c4.657.76 9.607.269 13.434-2.435a22.14 22.14 0 01-.475 2.08c-1.605 5.7-9.812 10.136-17.933 13.188 3.131-5.978 4.223-12.96 4.974-12.833z" fill="#46285a" fill-rule="nonzero"/><path d="M592.933 136.832s-3.297 13.544 27.216 4.135c30.52-9.401 66.806-3.764 72.578 1.13 5.772 4.887 16.502-19.94-12.778-25.958-29.28-6.017-53.617 9.402-70.111 16.178-16.494 6.768-16.905 4.515-16.905 4.515z" fill="#482b60" fill-rule="nonzero"/><path d="M555.422 363.406s-6.484 56.503-5.764 72.926c.72 16.423 29.991 33.668 50.162 31.691 20.163-1.968-5.511-77.03-8.39-87.538-2.886-10.508-7.203-32.845-36.008-17.079z" fill="#f7a5a2" fill-rule="nonzero"/><path d="M580.013 279.877s-9.077 4.641-20.811 29.92c-3.55 7.654-8.888 58.867-8.888 58.867l55.27 27.588-6.602-41.512-18.97-74.863z" fill="#e58849" fill-rule="nonzero"/><path d="M582.488 375.646l1.099 21.57s-35.463-20.819-34.91-22.827c.546-2 1.368-19.056 1.368-19.056l32.443 20.313z" fill="#da8043" fill-rule="nonzero"/><path d="M745.514 322.25s-3.297 188.85-8.247 191.112c-4.95 2.254-136.917 6.017-146.817 2.254-9.892-3.756-6.594-133.929-1.645-156.495 4.95-22.575 65.162-60.947 65.162-60.947l91.547 24.076z" fill="#f09048" fill-rule="nonzero"/><path d="M640.707 257.95s.07 15.791 24.077 14.47c24.005-1.312 40.096-23.562 40.096-23.562s54.669 24.171 81.078 42.571c21.238 14.794-114.216 69.25-114.216 69.25l-84.834 126.369s-11.592-205.653-7.702-207.155c8.54-3.298 40.856-18.653 61.5-21.942z" fill="#f09048" fill-rule="nonzero"/><path d="M740.572 391.91l-2.475 119.76 27.168-129.184-24.693 9.425z" fill="#da8043" fill-rule="nonzero"/><path d="M741.402 366.696l-1.652 95.8 25.294-66.213-23.642-29.587zm-38.973-125.903l18.083 15.735s-16.842 29.406-55.61 25.642c-38.76-3.764-32.165-21.815-32.165-21.815l11.75-9.03s2.482 14.106 30.11 9.59c27.626-4.514 27.832-20.122 27.832-20.122z" fill="#da8043" fill-rule="nonzero"/><path d="M816.637 362.26c-12.69 5.21-41.1 46.849-54.313 49.553 6.5 21.388 18.186 64.394 23.01 77.053 7.171 18.827 5.748 37.724 30.686 28.426 8.184-3.052 16.74-7.876 18.25-25.2 2.293-26.211-12.248-107.962-17.633-129.832z" fill="#f7a5a2" fill-rule="nonzero"/><path d="M785.318 291.808s-12.968 9.52-34.095 26.607c-21.12 17.08-8.303 44.778-2.127 68.34 7.922 30.229 9.9 38.128 9.9 38.128s63.58-35.44 65.983-41.132c2.404-5.693-18.06-85.807-39.661-91.943z" fill="#f09048" fill-rule="nonzero"/><path d="M829.929 382.193l-73.132 46.651-5.772-19.562 71.756-49.41 7.148 22.321z" fill="#e58849" fill-rule="nonzero"/><path d="M447.302 215.735h-67.36c-37.44 0-67.786-27.69-67.786-61.84 0-34.158 30.347-61.848 67.786-61.848h67.36c37.44 0 67.794 27.69 67.794 61.848 0 34.15-30.354 61.84-67.794 61.84z" fill="#f09048" fill-rule="nonzero"/><path d="M434.722 189.603l91.895 45.536-31.936-47.64-59.959 2.104z" fill="#f09048" fill-rule="nonzero"/><path d="M374.771 152.725c0 7.021-6.246 12.722-13.948 12.722-7.701 0-13.948-5.7-13.948-12.722 0-7.03 6.247-12.723 13.948-12.723 7.702 0 13.948 5.693 13.948 12.723zm51.601.79c0 7.03-6.246 12.73-13.948 12.73-7.701 0-13.948-5.7-13.948-12.73 0-7.021 6.247-12.722 13.948-12.722 7.702 0 13.948 5.701 13.948 12.722zm52.099 0c0 7.03-6.246 12.73-13.948 12.73-7.701 0-13.947-5.7-13.947-12.73 0-7.021 6.246-12.722 13.947-12.722 7.702 0 13.948 5.701 13.948 12.722z" fill="#fffdfe" fill-rule="nonzero"/><path fill="#46285a" fill-rule="nonzero" d="M825.54 73.41H968.3v152.73H825.54z"/><path fill="#c9d5e3" fill-rule="nonzero" d="M903.424 91.596h53.855V111.3h-53.855zm-12.984 44.429h67.036v10.659h-67.035zm-42.602 22.155h109.725v10.66H847.838zm27.999 22.156h81.837v10.659h-81.837zM845.814 202.5h111.955v10.658H845.814z"/><path d="M865.431 376.556c0 18.439 16.383 33.39 36.601 33.39 20.21 0 36.594-14.951 36.594-33.39 0-18.44-16.383-33.384-36.594-33.384-20.218 0-36.601 14.944-36.601 33.384z" fill="#46285a" fill-rule="nonzero"/><path fill="#c9d5e3" fill-rule="nonzero" d="M887.01 362.718h38.577v28.07H887.01z"/><path fill="#c9d5e3" fill-rule="nonzero" d="M877.703 368.736h23.04v16.77h-23.04z"/><path fill="#c9d5e3" fill-rule="nonzero" d="M873.623 366.696h8.42v20.945h-8.42z"/><path d="M865.526 290.654c0 18.44 16.383 33.383 36.593 33.383 20.219 0 36.602-14.944 36.602-33.383s-16.383-33.391-36.602-33.391c-20.21 0-36.593 14.952-36.593 33.391z" fill="#46285a" fill-rule="nonzero"/><path d="M873.56 291.097l3.96-4.902c.183-.222.42-.348.625-.514l-.063-.08s10.99-9.796 24.298-8.966c12.478.775 21.104 7.954 22.164 8.872.284.158.585.292.838.537l4.372 4.262a3.95 3.95 0 011.178 2.981l-.205 5.994-15.292-.19-.198-5.14a3.959 3.959 0 01.87-2.672l1.241-1.534c-2.554-2.728-7.828-6.784-16.81-6.595-7.907.158-12.461 3.045-14.936 5.4l1.613 1.574a3.968 3.968 0 011.178 2.981l-.206 5.986-15.292-.182-.205-5.14a4.033 4.033 0 01.87-2.672z" fill="#c9d5e3" fill-rule="nonzero"/><path d="M80.331 156.583h-8.247c-37.352 0-67.636-27.627-67.636-61.698 0-34.079 30.284-61.698 67.636-61.698h8.247c37.353 0 67.636 27.62 67.636 61.698 0 34.071-30.283 61.698-67.636 61.698z" fill="#f09048" fill-rule="nonzero"/><path d="M35.562 126.474l61.959 76.855-6.705-55.507-55.254-21.348z" fill="#f09048" fill-rule="nonzero"/><path d="M66.794 112.288l4.84 1.21c1.51.38 2.403 1.803 1.984 3.187l-2.23 7.416c-.41 1.376-1.976 2.19-3.487 1.811l-4.839-1.21c-1.518-.38-2.403-1.802-1.992-3.186l2.23-7.417c.419-1.376 1.976-2.19 3.494-1.81zm.744-14.232c.727-2.42 1.7-4.349 2.917-5.788 1.218-1.447 2.515-2.522 3.875-3.242 1.36-.72 3.068-1.439 5.108-2.15 1.755-.602 3.17-1.17 4.246-1.693 1.075-.522 2.063-1.257 2.973-2.214.91-.948 1.59-2.19 2.048-3.716.695-2.309.474-4.278-.665-5.922-1.146-1.645-2.965-2.784-5.463-3.408-2.617-.656-5.092-.593-7.417.182a16.892 16.892 0 00-2.91 1.265c-1.494.838-3.455.19-4.08-1.305l-1.834-4.388c-.498-1.194.008-2.57 1.241-3.179 1.993-.972 4.286-1.7 6.895-2.19 3.574-.68 7.298-.53 11.165.435C92.27 62.41 96.849 64.98 99.37 68.46c2.523 3.487 3.029 7.71 1.534 12.683-.6 2-1.447 3.63-2.554 4.894-1.099 1.257-2.293 2.246-3.582 2.95-1.296.711-2.989 1.486-5.076 2.34-2.27.894-4.135 1.755-5.614 2.578-1.47.83-2.87 2.016-4.19 3.566-1.313 1.55-2.349 3.558-3.092 6.033-.411 1.383-1.977 2.19-3.487 1.81l-4.428-1.107c-1.36-.34-2.262-1.55-2.072-2.822.182-1.218.427-2.333.728-3.33z" fill="#fffdfe" fill-rule="nonzero"/><path d="M276.614 228.308s-2.435 27.95-4.135 30.173c-1.7 2.214-3.898 23.515-5.844 31.28-1.945 7.764-21.159 27.959-26.504 28.623-5.353.664-15.814-.664-15.814-.664l-1.945-33.945s39.156-61.018 45.971-62.568c6.808-1.558 8.271 7.1 8.271 7.1z" fill="#f48c93" fill-rule="nonzero"/><path d="M224.8 292.757l.735 39.274-71.14-6.325 4.737-45.26 65.668 12.311z" fill="#f48c93" fill-rule="nonzero"/><path d="M224.333 298.355l.854 19.412 3.89-21.412-4.744 2z" fill="#f4838c" fill-rule="nonzero"/><path d="M141.634 149.348c8.27-7.986 113.094-11.314 129.145 13.98 6.87 10.817 7.053 28.615 6.57 38.823 0 0 5.59 23.073-.727 26.18-.727.356-1.502.854-2.301 1.44a5424.93 5424.93 0 00-4.025 20.874 1409.085 1409.085 0 00-2.435 12.967c-1.455 8.208-4.618 3.772-4.618 3.772s.008-.063.032-.166c.032-.182.087-.498.15-.933 0-.008 0-.016.008-.024.016-.119.04-.253.055-.387.008-.032.008-.056.016-.087.016-.135.04-.285.056-.435.008-.032.008-.056.015-.087.016-.15.04-.3.056-.459l.024-.15.047-.482.024-.159a12.4 12.4 0 01.055-.521c.008-.056.008-.119.016-.174l.047-.562c.008-.055.016-.11.016-.174l.048-.6c.007-.056.007-.111.015-.167.008-.205.024-.419.032-.624.008-.064.008-.127.008-.19.016-.214.024-.427.032-.64 0-.064.007-.127.007-.182.008-.222.016-.443.016-.665v-.19c.008-.229.008-.45.008-.68 0-.063 0-.118-.008-.181 0-.23 0-.459-.008-.696 0-.055-.008-.119-.008-.182-.007-.23-.015-.459-.031-.688 0-.063-.008-.118-.008-.182a21.073 21.073 0 00-.055-.703c0-.056-.008-.111-.016-.166-.016-.238-.048-.467-.071-.696l-.024-.166-.095-.696c-.008-.048-.024-.095-.032-.142a8.858 8.858 0 00-.126-.688l-.024-.143c-.047-.221-.103-.45-.158-.672-.016-.04-.024-.079-.04-.126a8.95 8.95 0 00-.19-.657c-.007-.031-.023-.063-.031-.102a15.26 15.26 0 00-.23-.64c-.015-.032-.023-.056-.039-.088-.087-.205-.174-.411-.269-.617-.015-.015-.023-.04-.031-.055a10.485 10.485 0 00-.324-.593c-.008-.016-.016-.024-.016-.032-.751-1.233-1.78-2.158-3.171-2.553-1.66-.475-3.424.426-4.088 1.89-3.724 8.151-4.365 24.748.324 28.235-.102 2.388-.624 4.681-1.984 6.824-5.353 8.437-40.136 19.64-53.27 20.526-13.133.886-47.67-5.329-58.86-15.086-11.188-9.765-24.803-74.104-24.803-91.856 0-17.75 17.023-40.38 25.294-48.367z" fill="#46285a" fill-rule="nonzero"/><path d="M212.662 285.578s-9.733-17.309-8.76-45.703c.972-28.401 10.706-54.581-8.271-52.81-62.726 5.875-61.042-6.871-70.776 2.886-9.725 9.765 5.717 72.333 14.96 89.19 9.244 16.866 20.796 15.76 35.874 17.973 15.079 2.222 36.483-2.214 36.973-11.536z" fill="#3c2553" fill-rule="nonzero"/><path d="M440.32 347.3s-10.88-25.793-21.586-37.993c-10.698-12.209-22.187 45.315-22.187 45.315s13.134 33.114 24.56 34.221c3.368.324 20.597.862 23.53-3.495 7.038-10.421-3.795-33.352-4.317-38.048z" fill="#f4838c" fill-rule="nonzero"/><path d="M452.347 252.044l-47.41 156.25-93.532-34.047 42.84-140.278 98.102 18.075z" fill="#303b66" fill-rule="nonzero"/><path d="M442.961 259.659l-42.057 138.585-82.96-30.196 38-124.417 87.017 16.028z" fill="#fff" fill-rule="nonzero"/><path d="M428.784 245.173l-3.859 13.758-55.689-11.196 3.424-11.829 56.124 9.267z" fill="#f09048" fill-rule="nonzero"/><path d="M433.496 267.842l-6.934 22.464-22.978-5.827 6.563-20.962 23.35 4.325zm-9.733 30.545l-73.448-19.08-.727 2.444 73.084 19.744 1.09-3.108zm-2.926 8.753l-73.448-19.08-.735 2.444 73.092 19.744 1.091-3.108zm-7.203 23.42l-73.045-20.344-.782 2.427 72.665 21.001 1.162-3.083zm-2.957 8.817l-72.982-20.527-.782 2.428 72.594 21.19 1.17-3.091zm-2.72 7.963l-72.823-20.986-.807 2.42 72.436 21.641 1.194-3.076zM405 356.053l-72.76-21.175-.815 2.42 72.373 21.83 1.202-3.075zm-4.57 23.017l-71.48-24.535-.948 2.372 71.06 25.175 1.367-3.012z" fill="#b3c8dc" fill-rule="nonzero"/><path d="M415.01 342.8s-9.006-.727-15.814-4.941c-6.808-4.215-8.935-9.647-5.654-13.142.673-.72 8.334 4.547 19.768 4.99 11.426.442 19.451 3.771 25.532 10.208 6.08 6.428 13.078 32.062 11.251 46.698-.585 4.72-30.465-4.99-32.648-16.304-2.198-11.315 3.89-23.966-2.435-27.508z" fill="#f48c93" fill-rule="nonzero"/><path d="M77.32 358.123s-22.86 14.644-21.405 57.247c1.463 42.595 2.19 148.43 8.753 158.408 6.571 9.987 42.326 29.288 46.699 23.302 4.38-5.993 8.76-163.073 8.76-163.073L77.32 358.123z" fill="#ffe0a6" fill-rule="nonzero"/><path d="M231.031 352.786s29.92 11.315 46.699 16.636c16.786 5.33 2.918 88.527 2.918 109.828 0 21.302 10.215 74.555 16.05 99.842 5.844 25.294 2.974 55.088 2.974 55.088s-70.104 21.46-114.604 14.137c-44.508-7.322-79.046-17.75-79.046-17.75s9.725-92.742 7.535-112.707c-1.763-16.122-32.047-92.939-41.749-138.072-3.241-15.055 6.8-29.801 23.033-33.826a253.48 253.48 0 0139.148-6.491c38.673-3.33 97.042 13.315 97.042 13.315zM450.3 394.424s-4.01 72.547-11.307 110.492c-7.298 37.938-15.324 57.682-30.64 55.69-15.331-2.001-39.044-14.423-25.911-63.012 13.133-48.596 23.713-82.873 25.176-101.51 0 0 30.284-7.985 42.682-1.66z" fill="#ffe0a6" fill-rule="nonzero"/><path d="M411.982 497.91s-98.75-119.363-135.233-128.685c-36.482-9.315-58.132 49.482-47.18 74.112 10.943 24.622 148.848 116.478 175.115 116.478 0 0 34.293-24.623 7.298-61.904zM206.82 370.38s-38.184-11.48-52.045-18.803c-13.868-7.322-26.274-3.827-26.274-3.827s-23.342 21.302-29.913 29.288c-6.57 7.986 23.35 93.856 32.103 127.8 8.76 33.945-5.108 118.479-5.108 118.479l91.452 18.636s-28.94-115.813-31.13-141.108c-2.19-25.294-16.051-51.917-5.843-79.876 5.392-14.739 26.757-50.589 26.757-50.589z" fill="#ffe0a6" fill-rule="nonzero"/><path d="M233.086 445.323l52.052 34.616 3.89 39.045s-49.134-55.468-55.942-73.661z" fill="#1f1c3c" fill-opacity=".5" fill-rule="nonzero"/><path d="M454.845 380.446l2.127 19.91s-34.356 4.19-47.908 1.328l.727-13.537s32.901.063 45.054-7.701zM228.46 325.073l6.563 26.623s-60.069 1.558-76.856-4.436c-16.778-5.993-20.186-8.871-20.186-8.871l16.051-23.967s38.673 12.652 74.429 10.651z" fill="#fff" fill-rule="nonzero"/><path d="M211.318 327.35l1.091 20.305s-35.755-.332-41.954-.332c-6.207 0-25.903-10.318-25.903-10.318l10.215-19.965s30.284 9.314 56.551 10.31z" fill="#d2dce9" fill-rule="nonzero"/><path d="M1018.376 593.737h-145.86c-11.845 0-21.436-8.761-21.436-19.562v-4.412c0-10.801 9.591-19.554 21.436-19.554h145.86v43.528z" fill="#2b2c59" fill-rule="nonzero"/><path d="M870.025 557.135c-7.488 0-13.56 6.555-13.56 14.644s6.072 14.651 13.56 14.651h150.367v-29.295H870.025z" fill="#fff" fill-rule="nonzero"/><path fill="#c7c4e0" fill-rule="nonzero" d="M861.51 565.09h155.498v2H861.509zm.624 9.322h155.498v2H862.134z"/><path d="M935.558 547.591H790.52c-11.789 0-21.34-8.721-21.34-19.467v-4.356c0-10.754 9.551-19.467 21.34-19.467h145.038v43.29z" fill="#f09048" fill-rule="nonzero"/><path d="M788.014 511.116c-7.449 0-13.482 6.524-13.482 14.565 0 8.042 6.033 14.565 13.482 14.565h149.545v-29.13H788.014z" fill="#fff" fill-rule="nonzero"/><path fill="#c7c4e0" fill-rule="nonzero" d="M779.545 519.07h154.653v1.986H779.545zm.625 9.315h154.653v1.977H780.17z"/><path d="M842.604 593.27H697.566c-11.79 0-21.349-8.713-21.349-19.467v-4.357c0-10.753 9.56-19.467 21.349-19.467h145.038v43.291z" fill="#46285a" fill-rule="nonzero"/><path d="M695.06 556.795c-7.441 0-13.482 6.523-13.482 14.565 0 8.05 6.04 14.564 13.481 14.564h149.545v-29.129H695.06z" fill="#fff" fill-rule="nonzero"/><path fill="#c7c4e0" fill-rule="nonzero" d="M688.425 565.319h154.653v1.977H688.425zm.625 9.433h154.653v1.985H689.05z"/><path fill="#46285a" fill-rule="nonzero" d="M457.083 507.48h66.49v86.778h-66.49z"/><path fill="#503069" fill-rule="nonzero" d="M462.317 512.476h18.028v76.287h-18.028z"/><path d="M521.335 580.318c-1.06 0-2.143-.031-3.258-.079l.633-10.524c8.492.435 14.604-1.13 18.178-4.602 4.167-4.072 5.59-11.29 4.23-21.475-.522-3.93-2.198-6.76-5.123-8.642-7.725-4.966-21.555-2.31-21.69-2.286l-2.537-10.27c.767-.159 18.882-3.772 30.876 3.953 5.583 3.59 9.022 9.109 9.94 15.972 1.794 13.418-.657 23.492-7.267 29.944-5.456 5.321-13.521 8.01-23.982 8.01zm91.776-36.948s-36.633-8.596-36.633-36.286 3.661-36.76 3.661-36.76 11.513 17.665 24.077 33.423c12.556 15.75 8.895 39.622 8.895 39.622zm7.306 2.846s36.633-8.595 36.633-36.286c0-27.69-3.66-36.767-3.66-36.767s-11.513 17.664-24.077 33.423c-12.564 15.758-8.896 39.63-8.896 39.63zm-6.8-37.203s32.648-16.565 25.453-37.052c-7.203-20.487-13.054-26.18-13.054-26.18s-6.373 16.273-14.233 31.43c-7.867 15.158 1.834 31.802 1.834 31.802z" fill="#46285a" fill-rule="nonzero"/><path d="M613.617 508.966s-2.285 25.144 7.26 29.398c0 0-9.545-17.617-4.887-34.016 4.665-16.399-2.752-4.325-2.373 4.618z" fill="#46285a" fill-rule="nonzero"/><path fill="#f09048" fill-rule="nonzero" d="M582.646 532.252h70.87v61.959h-70.87z"/><path fill="#f8995a" fill-rule="nonzero" d="M589.557 535.09h18.478v54.408h-18.478z"/><g transform="translate(-39.949 19.163) scale(.94574)"><circle cx="250.757" cy="519" r="129" fill="#001d64"/><path d="M250.757 390c71.197 0 129 57.803 129 129s-57.803 129-129 129-129-57.803-129-129 57.803-129 129-129zm0 21.148c59.525 0 107.852 48.327 107.852 107.852 0 59.525-48.327 107.852-107.852 107.852-59.526 0-107.853-48.327-107.853-107.852 0-59.525 48.327-107.852 107.853-107.852z" fill="#fff"/></g><path d="M131.2 580.078s3.784-27.65 20.184-33.968l27.076-9.354s2.8 21.087-20.184 33.476l-27.076 9.846zM256.734 468.82l-4.43 2.461-18.215 23.63-2.954-11.815L131.2 522.48s-17.63 5.579-19.2 32.983l121.104-47.26s27.569-9.353 23.63-39.383zm-95.997 34.953s1.57-27.405 22.153-35.445c20.584-8.041 53.168-20.184 53.168-20.184s17.077-6.975 22.645-18.708c0 0 8.708 21.825-7.384 35.938 0 0-9.261 1.887-24.122-.493l1.969 11.323-68.429 27.569z" fill="#fff"/></svg>