<?xml version="1.0" encoding="UTF-8" standalone="no"?>
<!DOCTYPE svg PUBLIC "-//W3C//DTD SVG 1.1//EN" "http://www.w3.org/Graphics/SVG/1.1/DTD/svg11.dtd">
<svg width="100%" height="100%" viewBox="0 0 1024 700" version="1.1" xmlns="http://www.w3.org/2000/svg" xmlns:xlink="http://www.w3.org/1999/xlink" xml:space="preserve" xmlns:serif="http://www.serif.com/" style="fill-rule:evenodd;clip-rule:evenodd;stroke-linejoin:round;stroke-miterlimit:2;">
    <g transform="matrix(7.90698,0,0,7.90698,2.48696,2.27861)">
        <rect x="0" y="75.333" width="129" height="2.732" style="fill:rgb(70,40,90);fill-rule:nonzero;"/>
    </g>
    <g transform="matrix(7.90698,0,0,7.90698,2.48696,2.27861)">
        <rect x="42.669" y="0" width="84.212" height="50.467" style="fill:rgb(43,44,89);fill-rule:nonzero;"/>
    </g>
    <g transform="matrix(7.90698,0,0,7.90698,2.48696,2.27861)">
        <rect x="55.693" y="1.983" width="2.921" height="2.664" style="fill:rgb(240,144,72);fill-rule:nonzero;"/>
    </g>
    <g transform="matrix(7.90698,0,0,7.90698,2.48696,2.27861)">
        <rect x="50.648" y="2.026" width="2.921" height="2.664" style="fill:rgb(240,144,72);fill-rule:nonzero;"/>
    </g>
    <g transform="matrix(7.90698,0,0,7.90698,2.48696,2.27861)">
        <rect x="45.607" y="2.055" width="2.921" height="2.664" style="fill:rgb(240,144,72);fill-rule:nonzero;"/>
    </g>
    <g transform="matrix(7.90698,0,0,7.90698,2.48696,2.27861)">
        <rect x="42.669" y="6.683" width="84.212" height="48.485" style="fill:rgb(255,253,254);fill-rule:nonzero;"/>
    </g>
    <g transform="matrix(7.90698,0,0,7.90698,2.48696,2.27861)">
        <path d="M82.448,34.044C82.047,33.519 81.417,32.205 81.226,31.799L81.226,26.933L87.988,26.615L87.997,30.287C88.072,30.457 88.271,30.863 88.613,31.317C87.729,31.859 84.35,33.861 82.448,34.044Z" style="fill:rgb(247,165,162);fill-rule:nonzero;"/>
    </g>
    <g transform="matrix(7.90698,0,0,7.90698,2.48696,2.27861)">
        <path d="M81.226,27.565L81.227,30.459C81.227,30.459 85.973,32.423 87.955,31.391C88.989,30.853 88.352,29.268 88.21,26.601L81.226,27.565Z" style="fill:rgb(245,143,142);fill-rule:nonzero;"/>
    </g>
    <g transform="matrix(7.90698,0,0,7.90698,2.48696,2.27861)">
        <path d="M80.212,30.423C78.572,30.36 77.146,28.788 76.227,26.983C75.417,25.39 74.678,21.065 74.857,18.498C75.189,13.736 77.473,8.931 84.232,10.358C92.351,12.073 91.752,17.844 90.393,20.754C90.393,20.754 92.179,19.74 92.31,21.89C92.458,24.308 91.033,24.821 89.778,24.616C89.669,24.598 89.505,25.753 88.964,26.55C88.57,27.131 84.807,30.599 80.212,30.423Z" style="fill:rgb(247,165,162);fill-rule:nonzero;"/>
    </g>
    <g transform="matrix(7.90698,0,0,7.90698,2.48696,2.27861)">
        <path d="M77.969,26.684C77.969,26.684 78.498,28.574 79.931,28.082C81.364,27.59 81.488,26.658 81.488,26.658C81.488,26.658 78.81,26.891 77.969,26.684Z" style="fill:rgb(255,253,254);fill-rule:nonzero;"/>
    </g>
    <g transform="matrix(7.90698,0,0,7.90698,2.48696,2.27861)">
        <path d="M81.872,22.489C81.858,23.068 82.187,23.544 82.607,23.553C83.028,23.561 83.38,23.099 83.394,22.52C83.408,21.941 83.079,21.465 82.659,21.456C82.239,21.447 81.886,21.91 81.872,22.489Z" style="fill:rgb(70,40,90);fill-rule:nonzero;"/>
    </g>
    <g transform="matrix(7.90698,0,0,7.90698,2.48696,2.27861)">
        <path d="M84.048,21.082C84.105,20.935 84.031,20.773 83.893,20.687C83.557,20.477 82.784,20.064 82.175,20.281C81.373,20.566 81.63,20.87 81.814,20.981C81.998,21.092 82.498,20.791 83.156,21.121C83.649,21.368 83.959,21.311 84.048,21.082Z" style="fill:rgb(70,40,90);fill-rule:nonzero;"/>
    </g>
    <g transform="matrix(7.90698,0,0,7.90698,2.48696,2.27861)">
        <path d="M75.503,22.365C75.494,22.944 75.827,23.418 76.247,23.424C76.668,23.429 77.016,22.965 77.026,22.385C77.035,21.806 76.702,21.332 76.282,21.327C75.861,21.321 75.513,21.786 75.503,22.365Z" style="fill:rgb(70,40,90);fill-rule:nonzero;"/>
    </g>
    <g transform="matrix(7.90698,0,0,7.90698,2.48696,2.27861)">
        <path d="M75.047,20.82C75.012,20.69 75.09,20.558 75.215,20.494C75.521,20.34 76.219,20.046 76.72,20.277C77.38,20.58 77.133,20.821 76.965,20.902C76.798,20.983 76.398,20.688 75.806,20.92C75.363,21.095 75.102,21.023 75.047,20.82Z" style="fill:rgb(70,40,90);fill-rule:nonzero;"/>
    </g>
    <g transform="matrix(7.90698,0,0,7.90698,2.48696,2.27861)">
        <path d="M78.837,23.655C78.837,23.655 77.531,24.406 78.411,24.949C79.291,25.493 79.746,25.001 79.746,25.001C79.746,25.001 79.731,24.794 79.575,24.794C79.419,24.794 79.121,25.014 78.653,24.716C78.184,24.418 78.936,23.901 78.993,23.797C79.05,23.694 78.837,23.655 78.837,23.655Z" style="fill:rgb(70,40,90);fill-rule:nonzero;"/>
    </g>
    <g transform="matrix(7.90698,0,0,7.90698,2.48696,2.27861)">
        <path d="M89.836,23.563C89.836,23.563 89.488,21.437 90.496,20.708C91.266,20.151 92.478,17.155 91.713,14.11C90.948,11.065 89.281,10.444 84.97,9.683C80.658,8.922 76.066,11.129 75.371,12.588C74.676,14.047 74.536,16.267 73.424,16.394C72.311,16.521 73.146,19.439 75.162,19.376C77.179,19.312 76.623,18.234 80.726,18.043C84.829,17.853 87.958,18.17 88.028,20.866C88.075,22.71 88.514,24.578 89.836,23.563Z" style="fill:rgb(70,40,90);fill-rule:nonzero;"/>
    </g>
    <g transform="matrix(7.90698,0,0,7.90698,2.48696,2.27861)">
        <path d="M90.394,20.755C91.023,19.41 91.488,17.453 91.004,15.568L91.888,15.248C91.888,15.248 91.869,18.07 91.764,20.648C91.196,20.301 90.394,20.755 90.394,20.755Z" style="fill:rgb(70,40,90);fill-rule:nonzero;"/>
    </g>
    <g transform="matrix(7.90698,0,0,7.90698,2.48696,2.27861)">
        <path d="M89.779,24.624C90.368,24.72 90.994,24.658 91.478,24.316C91.459,24.418 91.439,24.507 91.418,24.579C91.215,25.3 90.177,25.861 89.15,26.247C89.546,25.491 89.684,24.608 89.779,24.624Z" style="fill:rgb(70,40,90);fill-rule:nonzero;"/>
    </g>
    <g transform="matrix(7.90698,0,0,7.90698,2.48696,2.27861)">
        <path d="M74.674,17.017C74.674,17.017 74.257,18.73 78.116,17.54C81.976,16.351 86.565,17.064 87.295,17.683C88.025,18.301 89.382,15.161 85.679,14.4C81.976,13.639 78.898,15.589 76.812,16.446C74.726,17.302 74.674,17.017 74.674,17.017Z" style="fill:rgb(72,43,96);fill-rule:nonzero;"/>
    </g>
    <g transform="matrix(7.90698,0,0,7.90698,2.48696,2.27861)">
        <path d="M69.93,45.672C69.93,45.672 69.11,52.818 69.201,54.895C69.292,56.972 72.994,59.153 75.545,58.903C78.095,58.654 74.848,49.161 74.484,47.832C74.119,46.503 73.573,43.678 69.93,45.672Z" style="fill:rgb(247,165,162);fill-rule:nonzero;"/>
    </g>
    <g transform="matrix(7.90698,0,0,7.90698,2.48696,2.27861)">
        <path d="M73.04,35.108C73.04,35.108 71.892,35.695 70.408,38.892C69.959,39.86 69.284,46.337 69.284,46.337L76.274,49.826L75.439,44.576L73.04,35.108Z" style="fill:rgb(229,136,73);fill-rule:nonzero;"/>
    </g>
    <g transform="matrix(7.90698,0,0,7.90698,2.48696,2.27861)">
        <path d="M73.353,47.22L73.492,49.948C73.492,49.948 69.007,47.315 69.077,47.061C69.146,46.808 69.25,44.651 69.25,44.651L73.353,47.22Z" style="fill:rgb(218,128,67);fill-rule:nonzero;"/>
    </g>
    <g transform="matrix(7.90698,0,0,7.90698,2.48696,2.27861)">
        <path d="M93.971,40.467C93.971,40.467 93.554,64.351 92.928,64.637C92.302,64.922 75.612,65.398 74.36,64.922C73.109,64.447 73.526,47.984 74.152,45.13C74.778,42.275 82.393,37.422 82.393,37.422L93.971,40.467Z" style="fill:rgb(240,144,72);fill-rule:nonzero;"/>
    </g>
    <g transform="matrix(7.90698,0,0,7.90698,2.48696,2.27861)">
        <path d="M80.716,32.335C80.716,32.335 80.725,34.332 83.761,34.165C86.797,33.999 88.832,31.185 88.832,31.185C88.832,31.185 95.746,34.242 99.086,36.569C101.772,38.44 84.641,45.327 84.641,45.327L73.912,61.309C73.912,61.309 72.446,35.3 72.938,35.11C74.018,34.693 78.105,32.751 80.716,32.335Z" style="fill:rgb(240,144,72);fill-rule:nonzero;"/>
    </g>
    <g transform="matrix(7.90698,0,0,7.90698,2.48696,2.27861)">
        <path d="M93.346,49.277L93.033,64.423L96.469,48.085L93.346,49.277Z" style="fill:rgb(218,128,67);fill-rule:nonzero;"/>
    </g>
    <g transform="matrix(7.90698,0,0,7.90698,2.48696,2.27861)">
        <path d="M93.451,46.088L93.242,58.204L96.441,49.83L93.451,46.088Z" style="fill:rgb(218,128,67);fill-rule:nonzero;"/>
    </g>
    <g transform="matrix(7.90698,0,0,7.90698,2.48696,2.27861)">
        <path d="M88.522,30.165L90.809,32.155C90.809,32.155 88.679,35.874 83.776,35.398C78.874,34.922 79.708,32.639 79.708,32.639L81.194,31.497C81.194,31.497 81.508,33.281 85.002,32.71C88.496,32.139 88.522,30.165 88.522,30.165Z" style="fill:rgb(218,128,67);fill-rule:nonzero;"/>
    </g>
    <g transform="matrix(7.90698,0,0,7.90698,2.48696,2.27861)">
        <path d="M102.966,45.527C101.361,46.186 97.768,51.452 96.097,51.794C96.919,54.499 98.397,59.938 99.007,61.539C99.914,63.92 99.734,66.31 102.888,65.134C103.923,64.748 105.005,64.138 105.196,61.947C105.486,58.632 103.647,48.293 102.966,45.527Z" style="fill:rgb(247,165,162);fill-rule:nonzero;"/>
    </g>
    <g transform="matrix(7.90698,0,0,7.90698,2.48696,2.27861)">
        <path d="M99.005,36.617C99.005,36.617 97.365,37.821 94.693,39.982C92.022,42.142 93.643,45.645 94.424,48.625C95.426,52.448 95.676,53.447 95.676,53.447C95.676,53.447 103.717,48.965 104.021,48.245C104.325,47.525 101.737,37.393 99.005,36.617Z" style="fill:rgb(240,144,72);fill-rule:nonzero;"/>
    </g>
    <g transform="matrix(7.90698,0,0,7.90698,2.48696,2.27861)">
        <path d="M104.647,48.048L95.398,53.948L94.668,51.474L103.743,45.225L104.647,48.048Z" style="fill:rgb(229,136,73);fill-rule:nonzero;"/>
    </g>
    <g transform="matrix(7.90698,0,0,7.90698,2.48696,2.27861)">
        <path d="M56.256,26.996L47.737,26.996C43.002,26.996 39.164,23.494 39.164,19.175C39.164,14.855 43.002,11.353 47.737,11.353L56.256,11.353C60.991,11.353 64.83,14.855 64.83,19.175C64.83,23.494 60.991,26.996 56.256,26.996Z" style="fill:rgb(240,144,72);fill-rule:nonzero;"/>
    </g>
    <g transform="matrix(7.90698,0,0,7.90698,2.48696,2.27861)">
        <path d="M54.665,23.691L66.287,29.45L62.248,23.425L54.665,23.691Z" style="fill:rgb(240,144,72);fill-rule:nonzero;"/>
    </g>
    <g transform="matrix(7.90698,0,0,7.90698,2.48696,2.27861)">
        <path d="M47.083,19.027C47.083,19.915 46.293,20.636 45.319,20.636C44.345,20.636 43.555,19.915 43.555,19.027C43.555,18.138 44.345,17.418 45.319,17.418C46.293,17.418 47.083,18.138 47.083,19.027Z" style="fill:rgb(255,253,254);fill-rule:nonzero;"/>
    </g>
    <g transform="matrix(7.90698,0,0,7.90698,2.48696,2.27861)">
        <path d="M53.609,19.127C53.609,20.016 52.819,20.737 51.845,20.737C50.871,20.737 50.081,20.016 50.081,19.127C50.081,18.239 50.871,17.518 51.845,17.518C52.819,17.518 53.609,18.239 53.609,19.127Z" style="fill:rgb(255,253,254);fill-rule:nonzero;"/>
    </g>
    <g transform="matrix(7.90698,0,0,7.90698,2.48696,2.27861)">
        <path d="M60.198,19.127C60.198,20.016 59.408,20.737 58.434,20.737C57.46,20.737 56.67,20.016 56.67,19.127C56.67,18.239 57.46,17.518 58.434,17.518C59.408,17.518 60.198,18.239 60.198,19.127Z" style="fill:rgb(255,253,254);fill-rule:nonzero;"/>
    </g>
    <g transform="matrix(7.90698,0,0,7.90698,2.48696,2.27861)">
        <rect x="104.092" y="8.996" width="18.055" height="19.316" style="fill:rgb(70,40,90);fill-rule:nonzero;"/>
    </g>
    <g transform="matrix(7.90698,0,0,7.90698,2.48696,2.27861)">
        <rect x="113.942" y="11.296" width="6.811" height="2.492" style="fill:rgb(201,213,227);fill-rule:nonzero;"/>
    </g>
    <g transform="matrix(7.90698,0,0,7.90698,2.48696,2.27861)">
        <rect x="112.3" y="16.915" width="8.478" height="1.348" style="fill:rgb(201,213,227);fill-rule:nonzero;"/>
    </g>
    <g transform="matrix(7.90698,0,0,7.90698,2.48696,2.27861)">
        <rect x="106.912" y="19.717" width="13.877" height="1.348" style="fill:rgb(201,213,227);fill-rule:nonzero;"/>
    </g>
    <g transform="matrix(7.90698,0,0,7.90698,2.48696,2.27861)">
        <rect x="110.453" y="22.519" width="10.35" height="1.348" style="fill:rgb(201,213,227);fill-rule:nonzero;"/>
    </g>
    <g transform="matrix(7.90698,0,0,7.90698,2.48696,2.27861)">
        <rect x="106.656" y="25.322" width="14.159" height="1.348" style="fill:rgb(201,213,227);fill-rule:nonzero;"/>
    </g>
    <g transform="matrix(7.90698,0,0,7.90698,2.48696,2.27861)">
        <path d="M109.137,47.335C109.137,49.667 111.209,51.558 113.766,51.558C116.322,51.558 118.394,49.667 118.394,47.335C118.394,45.003 116.322,43.113 113.766,43.113C111.209,43.113 109.137,45.003 109.137,47.335Z" style="fill:rgb(70,40,90);fill-rule:nonzero;"/>
    </g>
    <g transform="matrix(7.90698,0,0,7.90698,2.48696,2.27861)">
        <rect x="111.866" y="45.585" width="4.879" height="3.55" style="fill:rgb(201,213,227);fill-rule:nonzero;"/>
    </g>
    <g transform="matrix(7.90698,0,0,7.90698,2.48696,2.27861)">
        <rect x="110.689" y="46.346" width="2.914" height="2.121" style="fill:rgb(201,213,227);fill-rule:nonzero;"/>
    </g>
    <g transform="matrix(7.90698,0,0,7.90698,2.48696,2.27861)">
        <rect x="110.173" y="46.088" width="1.065" height="2.649" style="fill:rgb(201,213,227);fill-rule:nonzero;"/>
    </g>
    <g transform="matrix(7.90698,0,0,7.90698,2.48696,2.27861)">
        <path d="M109.149,36.471C109.149,38.803 111.221,40.693 113.777,40.693C116.334,40.693 118.406,38.803 118.406,36.471C118.406,34.139 116.334,32.248 113.777,32.248C111.221,32.248 109.149,34.139 109.149,36.471Z" style="fill:rgb(70,40,90);fill-rule:nonzero;"/>
    </g>
    <g transform="matrix(7.90698,0,0,7.90698,2.48696,2.27861)">
        <path d="M110.165,36.527L110.666,35.907C110.689,35.879 110.719,35.863 110.745,35.842L110.737,35.832C110.737,35.832 112.127,34.593 113.81,34.698C115.388,34.796 116.479,35.704 116.613,35.82C116.649,35.84 116.687,35.857 116.719,35.888L117.272,36.427C117.372,36.524 117.426,36.661 117.421,36.804L117.395,37.562L115.461,37.538L115.436,36.888C115.43,36.765 115.47,36.644 115.546,36.55L115.703,36.356C115.38,36.011 114.713,35.498 113.577,35.522C112.577,35.542 112.001,35.907 111.688,36.205L111.892,36.404C111.991,36.5 112.046,36.638 112.041,36.781L112.015,37.538L110.081,37.515L110.055,36.865C110.05,36.742 110.09,36.621 110.165,36.527Z" style="fill:rgb(201,213,227);fill-rule:nonzero;"/>
    </g>
    <g transform="matrix(7.90698,0,0,7.90698,2.48696,2.27861)">
        <path d="M9.845,19.515L8.802,19.515C4.078,19.515 0.248,16.021 0.248,11.712C0.248,7.402 4.078,3.909 8.802,3.909L9.845,3.909C14.569,3.909 18.399,7.402 18.399,11.712C18.399,16.021 14.569,19.515 9.845,19.515Z" style="fill:rgb(240,144,72);fill-rule:nonzero;"/>
    </g>
    <g transform="matrix(7.90698,0,0,7.90698,2.48696,2.27861)">
        <path d="M4.183,15.707L12.019,25.427L11.171,18.407L4.183,15.707Z" style="fill:rgb(240,144,72);fill-rule:nonzero;"/>
    </g>
    <g transform="matrix(7.90698,0,0,7.90698,2.48696,2.27861)">
        <path d="M8.133,13.913L8.745,14.066C8.936,14.114 9.049,14.294 8.996,14.469L8.714,15.407C8.662,15.581 8.464,15.684 8.273,15.636L7.661,15.483C7.469,15.435 7.357,15.255 7.409,15.08L7.691,14.142C7.744,13.968 7.941,13.865 8.133,13.913ZM8.227,12.113C8.319,11.807 8.442,11.563 8.596,11.381C8.75,11.198 8.914,11.062 9.086,10.971C9.258,10.88 9.474,10.789 9.732,10.699C9.954,10.623 10.133,10.551 10.269,10.485C10.405,10.419 10.53,10.326 10.645,10.205C10.76,10.085 10.846,9.928 10.904,9.735C10.992,9.443 10.964,9.194 10.82,8.986C10.675,8.778 10.445,8.634 10.129,8.555C9.798,8.472 9.485,8.48 9.191,8.578C9.056,8.623 8.934,8.676 8.823,8.738C8.634,8.844 8.386,8.762 8.307,8.573L8.075,8.018C8.012,7.867 8.076,7.693 8.232,7.616C8.484,7.493 8.774,7.401 9.104,7.339C9.556,7.253 10.027,7.272 10.516,7.394C11.355,7.605 11.934,7.93 12.253,8.37C12.572,8.811 12.636,9.345 12.447,9.974C12.371,10.227 12.264,10.433 12.124,10.593C11.985,10.752 11.834,10.877 11.671,10.966C11.507,11.056 11.293,11.154 11.029,11.262C10.742,11.375 10.506,11.484 10.319,11.588C10.133,11.693 9.956,11.843 9.789,12.039C9.623,12.235 9.492,12.489 9.398,12.802C9.346,12.977 9.148,13.079 8.957,13.031L8.397,12.891C8.225,12.848 8.111,12.695 8.135,12.534C8.158,12.38 8.189,12.239 8.227,12.113Z" style="fill:rgb(255,253,254);fill-rule:nonzero;"/>
    </g>
    <g transform="matrix(7.90698,0,0,7.90698,2.48696,2.27861)">
        <path d="M34.669,28.586C34.669,28.586 34.361,32.121 34.146,32.402C33.931,32.682 33.653,35.376 33.407,36.358C33.161,37.34 30.731,39.894 30.055,39.978C29.378,40.062 28.055,39.894 28.055,39.894L27.809,35.601C27.809,35.601 32.761,27.884 33.623,27.688C34.484,27.491 34.669,28.586 34.669,28.586Z" style="fill:rgb(244,140,147);fill-rule:nonzero;"/>
    </g>
    <g transform="matrix(7.90698,0,0,7.90698,2.48696,2.27861)">
        <path d="M28.116,36.737L28.209,41.704L19.212,40.904L19.811,35.18L28.116,36.737Z" style="fill:rgb(244,140,147);fill-rule:nonzero;"/>
    </g>
    <g transform="matrix(7.90698,0,0,7.90698,2.48696,2.27861)">
        <path d="M28.057,37.445L28.165,39.9L28.657,37.192L28.057,37.445Z" style="fill:rgb(244,131,140);fill-rule:nonzero;"/>
    </g>
    <g transform="matrix(7.90698,0,0,7.90698,2.48696,2.27861)">
        <path d="M17.598,18.6C18.644,17.59 31.901,17.169 33.931,20.368C34.8,21.736 34.823,23.987 34.762,25.278C34.762,25.278 35.469,28.196 34.67,28.589C34.578,28.634 34.48,28.697 34.379,28.771C34.235,29.51 34.038,30.529 33.87,31.411C33.735,32.116 33.619,32.734 33.562,33.051C33.378,34.089 32.978,33.528 32.978,33.528C32.978,33.528 32.979,33.52 32.982,33.507C32.986,33.484 32.993,33.444 33.001,33.389C33.001,33.388 33.001,33.387 33.002,33.386C33.004,33.371 33.007,33.354 33.009,33.337C33.01,33.333 33.01,33.33 33.011,33.326C33.013,33.309 33.016,33.29 33.018,33.271C33.019,33.267 33.019,33.264 33.02,33.26C33.022,33.241 33.025,33.222 33.027,33.202C33.028,33.196 33.029,33.19 33.03,33.183C33.032,33.164 33.034,33.143 33.036,33.122C33.037,33.115 33.038,33.109 33.039,33.102C33.041,33.081 33.043,33.059 33.046,33.036C33.047,33.029 33.047,33.021 33.048,33.014C33.05,32.991 33.052,32.967 33.054,32.943C33.055,32.936 33.056,32.929 33.056,32.921C33.058,32.896 33.06,32.871 33.062,32.845C33.063,32.838 33.063,32.831 33.064,32.824C33.065,32.798 33.067,32.771 33.068,32.745C33.069,32.737 33.069,32.729 33.069,32.721C33.071,32.694 33.072,32.667 33.073,32.64C33.073,32.632 33.074,32.624 33.074,32.617C33.075,32.589 33.076,32.561 33.076,32.533C33.076,32.525 33.076,32.517 33.076,32.509C33.077,32.48 33.077,32.452 33.077,32.423C33.077,32.415 33.077,32.408 33.076,32.4C33.076,32.371 33.076,32.342 33.075,32.312C33.075,32.305 33.074,32.297 33.074,32.289C33.073,32.26 33.072,32.231 33.07,32.202C33.07,32.194 33.069,32.187 33.069,32.179C33.067,32.149 33.065,32.12 33.062,32.09C33.062,32.083 33.061,32.076 33.06,32.069C33.058,32.039 33.054,32.01 33.051,31.981C33.05,31.974 33.049,31.967 33.048,31.96C33.044,31.93 33.04,31.901 33.036,31.872C33.035,31.866 33.033,31.86 33.032,31.854C33.028,31.824 33.022,31.795 33.016,31.767C33.015,31.761 33.014,31.755 33.013,31.749C33.007,31.721 33,31.692 32.993,31.664C32.991,31.659 32.99,31.654 32.988,31.648C32.981,31.62 32.973,31.592 32.964,31.565C32.963,31.561 32.961,31.557 32.96,31.552C32.951,31.525 32.941,31.497 32.931,31.471C32.929,31.467 32.928,31.464 32.926,31.46C32.915,31.434 32.904,31.408 32.892,31.382C32.89,31.38 32.889,31.377 32.888,31.375C32.875,31.349 32.861,31.324 32.847,31.3C32.846,31.298 32.845,31.297 32.845,31.296C32.75,31.14 32.62,31.023 32.444,30.973C32.234,30.913 32.011,31.027 31.927,31.212C31.456,32.243 31.375,34.342 31.968,34.783C31.955,35.085 31.889,35.375 31.717,35.646C31.04,36.713 26.641,38.13 24.98,38.242C23.319,38.354 18.951,37.568 17.536,36.334C16.121,35.099 14.399,26.962 14.399,24.717C14.399,22.472 16.552,19.61 17.598,18.6Z" style="fill:rgb(70,40,90);fill-rule:nonzero;"/>
    </g>
    <g transform="matrix(7.90698,0,0,7.90698,2.48696,2.27861)">
        <path d="M26.581,35.829C26.581,35.829 25.35,33.64 25.473,30.049C25.596,26.457 26.827,23.146 24.427,23.37C16.494,24.113 16.707,22.501 15.476,23.735C14.246,24.97 16.199,32.883 17.368,35.015C18.537,37.148 19.998,37.008 21.905,37.288C23.812,37.569 26.519,37.008 26.581,35.829Z" style="fill:rgb(60,37,83);fill-rule:nonzero;"/>
    </g>
    <g transform="matrix(7.90698,0,0,7.90698,2.48696,2.27861)">
        <path d="M55.373,43.635C55.373,43.635 53.997,40.373 52.643,38.83C51.29,37.286 49.837,44.561 49.837,44.561C49.837,44.561 51.498,48.749 52.943,48.889C53.369,48.93 55.548,48.998 55.919,48.447C56.809,47.129 55.439,44.229 55.373,43.635Z" style="fill:rgb(244,131,140);fill-rule:nonzero;"/>
    </g>
    <g transform="matrix(7.90698,0,0,7.90698,2.48696,2.27861)">
        <path d="M56.894,31.588L50.898,51.349L39.069,47.043L44.487,29.302L56.894,31.588Z" style="fill:rgb(48,59,102);fill-rule:nonzero;"/>
    </g>
    <g transform="matrix(7.90698,0,0,7.90698,2.48696,2.27861)">
        <path d="M55.707,32.551L50.388,50.078L39.896,46.259L44.702,30.524L55.707,32.551Z" style="fill:white;fill-rule:nonzero;"/>
    </g>
    <g transform="matrix(7.90698,0,0,7.90698,2.48696,2.27861)">
        <path d="M53.914,30.719L53.426,32.459L46.383,31.043L46.816,29.547L53.914,30.719Z" style="fill:rgb(240,144,72);fill-rule:nonzero;"/>
    </g>
    <g transform="matrix(7.90698,0,0,7.90698,2.48696,2.27861)">
        <path d="M54.51,33.586L53.633,36.427L50.727,35.69L51.557,33.039L54.51,33.586Z" style="fill:rgb(179,200,220);fill-rule:nonzero;"/>
    </g>
    <g transform="matrix(7.90698,0,0,7.90698,2.48696,2.27861)">
        <path d="M53.279,37.449L43.99,35.036L43.898,35.345L53.141,37.842L53.279,37.449Z" style="fill:rgb(179,200,220);fill-rule:nonzero;"/>
    </g>
    <g transform="matrix(7.90698,0,0,7.90698,2.48696,2.27861)">
        <path d="M52.909,38.556L43.62,36.143L43.527,36.452L52.771,38.949L52.909,38.556Z" style="fill:rgb(179,200,220);fill-rule:nonzero;"/>
    </g>
    <g transform="matrix(7.90698,0,0,7.90698,2.48696,2.27861)">
        <path d="M51.998,41.518L42.76,38.945L42.661,39.252L51.851,41.908L51.998,41.518Z" style="fill:rgb(179,200,220);fill-rule:nonzero;"/>
    </g>
    <g transform="matrix(7.90698,0,0,7.90698,2.48696,2.27861)">
        <path d="M51.624,42.633L42.394,40.037L42.295,40.344L51.476,43.024L51.624,42.633Z" style="fill:rgb(179,200,220);fill-rule:nonzero;"/>
    </g>
    <g transform="matrix(7.90698,0,0,7.90698,2.48696,2.27861)">
        <path d="M51.28,43.64L42.07,40.986L41.968,41.292L51.129,44.029L51.28,43.64Z" style="fill:rgb(179,200,220);fill-rule:nonzero;"/>
    </g>
    <g transform="matrix(7.90698,0,0,7.90698,2.48696,2.27861)">
        <path d="M50.906,44.742L41.704,42.064L41.601,42.37L50.754,45.131L50.906,44.742Z" style="fill:rgb(179,200,220);fill-rule:nonzero;"/>
    </g>
    <g transform="matrix(7.90698,0,0,7.90698,2.48696,2.27861)">
        <path d="M50.328,47.653L41.288,44.55L41.168,44.85L50.155,48.034L50.328,47.653Z" style="fill:rgb(179,200,220);fill-rule:nonzero;"/>
    </g>
    <g transform="matrix(7.90698,0,0,7.90698,2.48696,2.27861)">
        <path d="M52.172,43.066C52.172,43.066 51.033,42.974 50.172,42.441C49.311,41.908 49.042,41.221 49.457,40.779C49.542,40.688 50.511,41.354 51.957,41.41C53.402,41.466 54.417,41.887 55.186,42.701C55.955,43.514 56.84,46.756 56.609,48.607C56.535,49.204 52.756,47.976 52.48,46.545C52.202,45.114 52.972,43.514 52.172,43.066Z" style="fill:rgb(244,140,147);fill-rule:nonzero;"/>
    </g>
    <g transform="matrix(1,0,0,1,-4,1.09008)">
        <g transform="matrix(7.90698,0,0,7.90698,2.48696,2.27861)">
            <path d="M9.97,44.866C9.97,44.866 7.079,46.718 7.263,52.106C7.448,57.493 7.54,70.878 8.37,72.14C9.201,73.403 13.723,75.844 14.276,75.087C14.83,74.329 15.384,54.463 15.384,54.463L9.97,44.866Z" style="fill:rgb(255,224,166);fill-rule:nonzero;"/>
        </g>
        <g transform="matrix(7.90698,0,0,7.90698,2.48696,2.27861)">
            <path d="M29.41,44.191C29.41,44.191 33.194,45.622 35.316,46.295C37.439,46.969 35.685,57.491 35.685,60.185C35.685,62.879 36.977,69.614 37.715,72.812C38.454,76.011 38.091,79.779 38.091,79.779C38.091,79.779 29.225,82.493 23.597,81.567C17.968,80.641 13.6,79.322 13.6,79.322C13.6,79.322 14.83,67.593 14.553,65.068C14.33,63.029 10.5,53.314 9.273,47.606C8.863,45.702 10.133,43.837 12.186,43.328C13.52,42.997 15.206,42.673 17.137,42.507C22.028,42.086 29.41,44.191 29.41,44.191Z" style="fill:rgb(255,224,166);fill-rule:nonzero;"/>
        </g>
        <g transform="matrix(7.90698,0,0,7.90698,2.48696,2.27861)">
            <path d="M57.141,49.457C57.141,49.457 56.634,58.632 55.711,63.431C54.788,68.229 53.773,70.726 51.836,70.474C49.897,70.221 46.898,68.65 48.559,62.505C50.22,56.359 51.558,52.024 51.743,49.667C51.743,49.667 55.573,48.657 57.141,49.457Z" style="fill:rgb(255,224,166);fill-rule:nonzero;"/>
        </g>
        <g transform="matrix(7.90698,0,0,7.90698,2.48696,2.27861)">
            <path d="M52.295,62.545C52.295,62.545 39.806,47.449 35.192,46.27C30.578,45.092 27.84,52.528 29.225,55.643C30.609,58.757 48.05,70.374 51.372,70.374C51.372,70.374 55.709,67.26 52.295,62.545Z" style="fill:rgb(255,224,166);fill-rule:nonzero;"/>
        </g>
    </g>
    <g transform="matrix(7.90698,0,0,7.90698,2.48696,2.27861)">
        <path d="M25.842,46.554C25.842,46.554 21.013,45.102 19.26,44.176C17.506,43.25 15.937,43.692 15.937,43.692C15.937,43.692 12.985,46.386 12.154,47.396C11.323,48.406 15.107,59.266 16.214,63.559C17.322,67.852 15.568,78.543 15.568,78.543L27.134,80.9C27.134,80.9 23.474,66.253 23.197,63.054C22.92,59.855 21.167,56.488 22.458,52.952C23.14,51.088 25.842,46.554 25.842,46.554Z" style="fill:rgb(255,224,166);fill-rule:nonzero;"/>
    </g>
    <g transform="matrix(7.90698,0,0,7.90698,2.48696,2.27861)">
        <path d="M29.164,56.032L35.747,60.41L36.239,65.348C36.239,65.348 30.025,58.333 29.164,56.032Z" style="fill:rgb(31,28,60);fill-opacity:0.5;fill-rule:nonzero;"/>
    </g>
    <g transform="matrix(7.90698,0,0,7.90698,2.48696,2.27861)">
        <path d="M57.21,47.827L57.479,50.345C57.479,50.345 53.134,50.875 51.42,50.513L51.512,48.801C51.512,48.801 55.673,48.809 57.21,47.827Z" style="fill:white;fill-rule:nonzero;"/>
    </g>
    <g transform="matrix(7.90698,0,0,7.90698,2.48696,2.27861)">
        <path d="M28.579,40.824L29.409,44.191C29.409,44.191 21.812,44.388 19.689,43.63C17.567,42.872 17.136,42.508 17.136,42.508L19.166,39.477C19.166,39.477 24.057,41.077 28.579,40.824Z" style="fill:white;fill-rule:nonzero;"/>
    </g>
    <g transform="matrix(7.90698,0,0,7.90698,2.48696,2.27861)">
        <path d="M26.411,41.112L26.549,43.68C26.549,43.68 22.027,43.638 21.243,43.638C20.458,43.638 17.967,42.333 17.967,42.333L19.259,39.808C19.259,39.808 23.089,40.986 26.411,41.112Z" style="fill:rgb(210,220,233);fill-rule:nonzero;"/>
    </g>
    <g transform="matrix(7.90698,0,0,7.90698,2.48696,2.27861)">
        <path d="M128.48,74.802L110.033,74.802C108.535,74.802 107.322,73.694 107.322,72.328L107.322,71.77C107.322,70.404 108.535,69.297 110.033,69.297L128.48,69.297L128.48,74.802Z" style="fill:rgb(43,44,89);fill-rule:nonzero;"/>
    </g>
    <g transform="matrix(7.90698,0,0,7.90698,2.48696,2.27861)">
        <path d="M109.718,70.173C108.771,70.173 108.003,71.002 108.003,72.025C108.003,73.048 108.771,73.878 109.718,73.878L128.735,73.878L128.735,70.173L109.718,70.173Z" style="fill:white;fill-rule:nonzero;"/>
    </g>
    <g transform="matrix(7.90698,0,0,7.90698,2.48696,2.27861)">
        <rect x="108.641" y="71.179" width="19.666" height="0.253" style="fill:rgb(199,196,224);fill-rule:nonzero;"/>
    </g>
    <g transform="matrix(7.90698,0,0,7.90698,2.48696,2.27861)">
        <rect x="108.72" y="72.358" width="19.666" height="0.253" style="fill:rgb(199,196,224);fill-rule:nonzero;"/>
    </g>
    <g transform="matrix(7.90698,0,0,7.90698,2.48696,2.27861)">
        <path d="M118.006,68.966L99.663,68.966C98.172,68.966 96.964,67.863 96.964,66.504L96.964,65.953C96.964,64.593 98.172,63.491 99.663,63.491L118.006,63.491L118.006,68.966Z" style="fill:rgb(240,144,72);fill-rule:nonzero;"/>
    </g>
    <g transform="matrix(7.90698,0,0,7.90698,2.48696,2.27861)">
        <path d="M99.346,64.353C98.404,64.353 97.641,65.178 97.641,66.195C97.641,67.212 98.404,68.037 99.346,68.037L118.259,68.037L118.259,64.353L99.346,64.353Z" style="fill:white;fill-rule:nonzero;"/>
    </g>
    <g transform="matrix(7.90698,0,0,7.90698,2.48696,2.27861)">
        <rect x="98.275" y="65.359" width="19.559" height="0.251" style="fill:rgb(199,196,224);fill-rule:nonzero;"/>
    </g>
    <g transform="matrix(7.90698,0,0,7.90698,2.48696,2.27861)">
        <rect x="98.354" y="66.537" width="19.559" height="0.25" style="fill:rgb(199,196,224);fill-rule:nonzero;"/>
    </g>
    <g transform="matrix(7.90698,0,0,7.90698,2.48696,2.27861)">
        <path d="M106.25,74.743L87.907,74.743C86.416,74.743 85.207,73.641 85.207,72.281L85.207,71.73C85.207,70.37 86.416,69.268 87.907,69.268L106.25,69.268L106.25,74.743Z" style="fill:rgb(70,40,90);fill-rule:nonzero;"/>
    </g>
    <g transform="matrix(7.90698,0,0,7.90698,2.48696,2.27861)">
        <path d="M87.59,70.13C86.649,70.13 85.885,70.955 85.885,71.972C85.885,72.99 86.649,73.814 87.59,73.814L106.503,73.814L106.503,70.13L87.59,70.13Z" style="fill:white;fill-rule:nonzero;"/>
    </g>
    <g transform="matrix(7.90698,0,0,7.90698,2.48696,2.27861)">
        <rect x="86.751" y="71.208" width="19.559" height="0.25" style="fill:rgb(199,196,224);fill-rule:nonzero;"/>
    </g>
    <g transform="matrix(7.90698,0,0,7.90698,2.48696,2.27861)">
        <rect x="86.83" y="72.401" width="19.559" height="0.251" style="fill:rgb(199,196,224);fill-rule:nonzero;"/>
    </g>
    <g transform="matrix(7.90698,0,0,7.90698,2.48696,2.27861)">
        <rect x="57.493" y="63.893" width="8.409" height="10.975" style="fill:rgb(70,40,90);fill-rule:nonzero;"/>
    </g>
    <g transform="matrix(7.90698,0,0,7.90698,2.48696,2.27861)">
        <rect x="58.155" y="64.525" width="2.28" height="9.648" style="fill:rgb(80,48,105);fill-rule:nonzero;"/>
    </g>
    <g transform="matrix(7.90698,0,0,7.90698,2.48696,2.27861)">
        <path d="M65.619,73.105C65.485,73.105 65.348,73.101 65.207,73.095L65.287,71.764C66.361,71.819 67.134,71.621 67.586,71.182C68.113,70.667 68.293,69.754 68.121,68.466C68.055,67.969 67.843,67.611 67.473,67.373C66.496,66.745 64.747,67.081 64.73,67.084L64.409,65.785C64.506,65.765 66.797,65.308 68.314,66.285C69.02,66.739 69.455,67.437 69.571,68.305C69.798,70.002 69.488,71.276 68.652,72.092C67.962,72.765 66.942,73.105 65.619,73.105Z" style="fill:rgb(70,40,90);fill-rule:nonzero;"/>
    </g>
    <g transform="matrix(7.90698,0,0,7.90698,2.48696,2.27861)">
        <path d="M77.226,68.432C77.226,68.432 72.593,67.345 72.593,63.843C72.593,60.341 73.056,59.194 73.056,59.194C73.056,59.194 74.512,61.428 76.101,63.421C77.689,65.413 77.226,68.432 77.226,68.432Z" style="fill:rgb(70,40,90);fill-rule:nonzero;"/>
    </g>
    <g transform="matrix(7.90698,0,0,7.90698,2.48696,2.27861)">
        <path d="M78.15,68.792C78.15,68.792 82.783,67.705 82.783,64.203C82.783,60.701 82.32,59.553 82.32,59.553C82.32,59.553 80.864,61.787 79.275,63.78C77.686,65.773 78.15,68.792 78.15,68.792Z" style="fill:rgb(70,40,90);fill-rule:nonzero;"/>
    </g>
    <g transform="matrix(7.90698,0,0,7.90698,2.48696,2.27861)">
        <path d="M77.29,64.087C77.29,64.087 81.419,61.992 80.509,59.401C79.598,56.81 78.858,56.09 78.858,56.09C78.858,56.09 78.052,58.148 77.058,60.065C76.063,61.982 77.29,64.087 77.29,64.087Z" style="fill:rgb(70,40,90);fill-rule:nonzero;"/>
    </g>
    <g transform="matrix(7.90698,0,0,7.90698,2.48696,2.27861)">
        <path d="M77.29,64.081C77.29,64.081 77.001,67.261 78.208,67.799C78.208,67.799 77.001,65.571 77.59,63.497C78.18,61.423 77.242,62.95 77.29,64.081Z" style="fill:rgb(70,40,90);fill-rule:nonzero;"/>
    </g>
    <g transform="matrix(7.90698,0,0,7.90698,2.48696,2.27861)">
        <rect x="73.373" y="67.026" width="8.963" height="7.836" style="fill:rgb(240,144,72);fill-rule:nonzero;"/>
    </g>
    <g transform="matrix(7.90698,0,0,7.90698,2.48696,2.27861)">
        <rect x="74.247" y="67.385" width="2.337" height="6.881" style="fill:rgb(248,153,90);fill-rule:nonzero;"/>
    </g>
    <g transform="matrix(0.945736,0,0,0.945736,-39.9488,19.1628)">
        <circle cx="250.757" cy="519" r="129" style="fill:rgb(0,29,100);"/>
        <path d="M250.757,390C321.954,390 379.757,447.803 379.757,519C379.757,590.197 321.954,648 250.757,648C179.56,648 121.757,590.197 121.757,519C121.757,447.803 179.56,390 250.757,390ZM250.757,411.148C310.282,411.148 358.609,459.475 358.609,519C358.609,578.525 310.282,626.852 250.757,626.852C191.231,626.852 142.904,578.525 142.904,519C142.904,459.475 191.231,411.148 250.757,411.148Z" style="fill:white;"/>
    </g>
    <g id="Shape-3" serif:id="Shape 3" transform="matrix(0.492293,0,0,0.492293,-47.0105,267.472)">
        <path d="M362,635C362,635 369.688,578.833 403,566L458,547C458,547 463.688,589.833 417,615L362,635ZM617,409L608,414L571,462L565,438L362,518C362,518 326.188,529.333 323,585L569,489C569,489 625,470 617,409ZM422,480C422,480 425.188,424.333 467,408C508.812,391.667 575,367 575,367C575,367 609.688,352.833 621,329C621,329 638.688,373.333 606,402C606,402 587.188,405.833 557,401L561,424L422,480Z" style="fill:white;"/>
    </g>
</svg>
