<svg width="48" height="48" viewBox="0 0 48 48" fill="none" xmlns="http://www.w3.org/2000/svg">
<path d="M27 6H3V38H27V6Z" fill="#005785"/>
<path d="M25.999 7.00195H3.99902V37.002H25.999V7.00195Z" fill="#FBFFDE"/>
<path fill-rule="evenodd" clip-rule="evenodd" d="M7.6875 25.782C7.8025 22.018 10.8935 18.998 14.6845 18.998C18.4755 18.998 21.5665 22.018 21.6815 25.782H7.6875ZM14.6845 10.998C16.8925 10.998 18.6845 12.79 18.6845 14.998C18.6845 17.206 16.8925 18.998 14.6845 18.998C12.4765 18.998 10.6845 17.206 10.6845 14.998C10.6845 12.79 12.4765 10.998 14.6845 10.998Z" fill="#0093D3"/>
<path fill-rule="evenodd" clip-rule="evenodd" d="M30 13.998H36L33 16.998L30 13.998Z" fill="#333333"/>
<path fill-rule="evenodd" clip-rule="evenodd" d="M30 29.1445H36L33 32.1445L30 29.1445Z" fill="#333333"/>
<path fill-rule="evenodd" clip-rule="evenodd" d="M44.0006 5.5C44.0006 4.12 42.8806 3 41.5006 3H24.1826C22.8026 3 21.6826 4.12 21.6826 5.5V10.5C21.6826 11.88 22.8026 13 24.1826 13H41.5006C42.8806 13 44.0006 11.88 44.0006 10.5V5.5Z" fill="#9B6500"/>
<path fill-rule="evenodd" clip-rule="evenodd" d="M44.0006 20.582C44.0006 19.202 42.8806 18.082 41.5006 18.082H24.1826C22.8026 18.082 21.6826 19.202 21.6826 20.582V25.582C21.6826 26.962 22.8026 28.082 24.1826 28.082H41.5006C42.8806 28.082 44.0006 26.962 44.0006 25.582V20.582Z" fill="#FF64E5"/>
<path fill-rule="evenodd" clip-rule="evenodd" d="M44.0006 35.7285C44.0006 34.3485 42.8806 33.2285 41.5006 33.2285H24.1826C22.8026 33.2285 21.6826 34.3485 21.6826 35.7285V40.7285C21.6826 42.1085 22.8026 43.2285 24.1826 43.2285H41.5006C42.8806 43.2285 44.0006 42.1085 44.0006 40.7285V35.7285Z" fill="#FFB37A"/>
</svg>
