<svg width="100" height="100" viewBox="0 0 100 100" fill="none" xmlns="http://www.w3.org/2000/svg">
<rect width="100" height="100" fill="white"/>
<path d="M34.5283 47.82C35.3613 47.82 36.0521 48.12 36.6413 48.74C37.2305 49.36 37.5149 50.1 37.5149 51C37.5149 51.9 37.2305 52.64 36.6413 53.26C36.0521 53.88 35.3613 54.18 34.5283 54.18C33.6749 54.18 33.0045 53.88 32.5372 53.3V54H30.9524V45.58H32.5372V48.7C33.0045 48.12 33.6749 47.82 34.5283 47.82ZM33.0248 52.22C33.3499 52.54 33.7562 52.7 34.2438 52.7C34.7314 52.7 35.1378 52.54 35.4629 52.22C35.7879 51.9 35.9505 51.5 35.9505 51C35.9505 50.5 35.7879 50.1 35.4629 49.78C35.1378 49.46 34.7314 49.3 34.2438 49.3C33.7562 49.3 33.3499 49.46 33.0248 49.78C32.6997 50.1 32.5575 50.5 32.5575 51C32.5372 51.5 32.6997 51.9 33.0248 52.22Z" fill="black"/>
<path d="M39.9734 51.64C40.1765 52.4 40.7657 52.78 41.7003 52.78C42.3099 52.78 42.7568 52.58 43.0616 52.18L44.3416 52.9C43.7321 53.76 42.8584 54.18 41.68 54.18C40.6641 54.18 39.8514 53.88 39.2419 53.28C38.6324 52.68 38.3276 51.92 38.3276 51C38.3276 50.1 38.6324 49.34 39.2419 48.72C39.8514 48.12 40.6235 47.82 41.5581 47.82C42.4521 47.82 43.2038 48.12 43.7727 48.74C44.3619 49.36 44.6464 50.1 44.6464 51C44.6464 51.2 44.6261 51.42 44.5854 51.64H39.9734ZM39.9327 50.44H43.0616C42.9803 50.04 42.7772 49.72 42.513 49.52C42.2286 49.32 41.9035 49.22 41.5581 49.22C41.1314 49.22 40.7861 49.32 40.5016 49.54C40.2172 49.74 40.0343 50.04 39.9327 50.44Z" fill="black"/>
<path d="M49.2178 49.48H47.8362V51.98C47.8362 52.18 47.8972 52.34 47.9988 52.44C48.1003 52.54 48.2629 52.6 48.4661 52.6C48.6692 52.62 48.913 52.62 49.2178 52.6V54C48.141 54.12 47.3689 54.02 46.9219 53.7C46.4749 53.38 46.2515 52.8 46.2515 51.98V49.48H45.1949V47.98H46.2515V46.76L47.8362 46.3V47.98H49.2178V49.48Z" fill="black"/>
<path d="M54.0127 49.48H52.6311V51.98C52.6311 52.18 52.6921 52.34 52.7937 52.44C52.8953 52.54 53.0578 52.6 53.261 52.6C53.4642 52.62 53.708 52.62 54.0127 52.6V54C52.9359 54.12 52.1638 54.02 51.7169 53.7C51.2699 53.38 51.0464 52.8 51.0464 51.98V49.48H49.9899V47.98H51.0464V46.76L52.6311 46.3V47.98H54.0127V49.48Z" fill="black"/>
<path d="M56.4711 51.64C56.6743 52.4 57.2635 52.78 58.1981 52.78C58.8076 52.78 59.2546 52.58 59.5594 52.18L60.8394 52.9C60.2298 53.76 59.3562 54.18 58.1778 54.18C57.1619 54.18 56.3492 53.88 55.7397 53.28C55.1301 52.68 54.8254 51.92 54.8254 51C54.8254 50.1 55.1301 49.34 55.7397 48.72C56.3492 48.12 57.1213 47.82 58.0559 47.82C58.9498 47.82 59.7016 48.12 60.2705 48.74C60.8597 49.36 61.1441 50.1 61.1441 51C61.1441 51.2 61.1238 51.42 61.0832 51.64H56.4711ZM56.4508 50.44H59.5797C59.4984 50.04 59.2952 49.72 59.0311 49.52C58.7467 49.32 58.4216 49.22 58.0762 49.22C57.6495 49.22 57.3041 49.32 57.0197 49.54C56.7149 49.74 56.532 50.04 56.4508 50.44Z" fill="black"/>
<path d="M63.8667 49.02C64.0089 48.64 64.2527 48.34 64.5981 48.16C64.9435 47.96 65.3092 47.88 65.7359 47.88V49.6C65.2483 49.54 64.8216 49.64 64.4356 49.88C64.0495 50.12 63.8667 50.54 63.8667 51.12V54H62.2819V47.98H63.8667V49.02Z" fill="black"/>
<path d="M70.1448 47.82C70.9778 47.82 71.6686 48.12 72.2578 48.74C72.847 49.36 73.1314 50.1 73.1314 51C73.1314 51.9 72.847 52.64 72.2578 53.26C71.6686 53.88 70.9778 54.18 70.1448 54.18C69.2914 54.18 68.621 53.88 68.1537 53.3V56.42H66.5689V47.98H68.1537V48.7C68.621 48.12 69.2914 47.82 70.1448 47.82ZM68.6413 52.22C68.9664 52.54 69.3727 52.7 69.8603 52.7C70.348 52.7 70.7543 52.54 71.0794 52.22C71.4045 51.9 71.567 51.5 71.567 51C71.567 50.5 71.4045 50.1 71.0794 49.78C70.7543 49.46 70.348 49.3 69.8603 49.3C69.3727 49.3 68.9664 49.46 68.6413 49.78C68.3162 50.1 68.174 50.5 68.174 51C68.1537 51.5 68.3162 51.9 68.6413 52.22Z" fill="black"/>
<path d="M74.2896 54V45.2H75.8743V54H74.2896Z" fill="black"/>
<path d="M82.0102 47.98H83.595V54H82.0102V53.28C81.5429 53.86 80.8724 54.16 80.0191 54.16C79.2064 54.16 78.4953 53.86 77.9264 53.24C77.3372 52.62 77.0527 51.88 77.0527 50.98C77.0527 50.08 77.3372 49.34 77.9264 48.72C78.5156 48.1 79.2064 47.8 80.0191 47.8C80.8724 47.8 81.5429 48.1 82.0102 48.68V47.98ZM79.1048 52.22C79.4299 52.54 79.8362 52.7 80.3238 52.7C80.8115 52.7 81.2178 52.54 81.5429 52.22C81.868 51.9 82.0305 51.5 82.0305 51C82.0305 50.5 81.868 50.1 81.5429 49.78C81.2178 49.46 80.8115 49.3 80.3238 49.3C79.8362 49.3 79.4299 49.46 79.1048 49.78C78.7797 50.1 78.6375 50.5 78.6375 51C78.6172 51.5 78.7797 51.9 79.1048 52.22Z" fill="black"/>
<path d="M87.9632 54.18C87.0489 54.18 86.2769 53.88 85.647 53.26C85.0375 52.64 84.7327 51.9 84.7327 51C84.7327 50.1 85.0375 49.34 85.647 48.74C86.2565 48.12 87.0286 47.82 87.9632 47.82C88.5524 47.82 89.101 47.96 89.5886 48.24C90.0762 48.52 90.4419 48.9 90.7061 49.38L89.3448 50.16C89.2229 49.92 89.04 49.72 88.7962 49.56C88.5524 49.42 88.268 49.34 87.9632 49.34C87.4959 49.34 87.0896 49.5 86.7848 49.8C86.48 50.1 86.3175 50.5 86.3175 50.98C86.3175 51.46 86.48 51.84 86.7848 52.16C87.0896 52.46 87.4959 52.62 87.9632 52.62C88.2883 52.62 88.5727 52.54 88.8165 52.4C89.0603 52.26 89.2432 52.06 89.3651 51.82L90.7264 52.6C90.4623 53.08 90.0762 53.46 89.5886 53.74C89.101 54.04 88.5727 54.18 87.9632 54.18Z" fill="black"/>
<path d="M92.9207 51.64C93.1238 52.4 93.713 52.78 94.6476 52.78C95.2572 52.78 95.7041 52.58 96.0089 52.18L97.2889 52.9C96.6794 53.76 95.8057 54.18 94.6273 54.18C93.6114 54.18 92.7987 53.88 92.1892 53.28C91.5797 52.68 91.2749 51.92 91.2749 51C91.2749 50.1 91.5797 49.34 92.1892 48.72C92.7987 48.12 93.5708 47.82 94.5054 47.82C95.3994 47.82 96.1511 48.12 96.72 48.74C97.3092 49.36 97.5937 50.1 97.5937 51C97.5937 51.2 97.5733 51.42 97.5327 51.64H92.9207ZM92.88 50.44H96.0089C95.9276 50.04 95.7245 49.72 95.4603 49.52C95.1759 49.32 94.8508 49.22 94.5054 49.22C94.0787 49.22 93.7333 49.32 93.4489 49.54C93.1645 49.74 92.9816 50.04 92.88 50.44Z" fill="black"/>
<path d="M22.419 47.8805C20.9968 44.7605 16.6692 41.7805 11.3257 43.7005C10.2083 40.5005 7.30286 38.5405 4.53968 41.3605C3.66603 42.2605 1.71556 46.3605 4.07238 51.6205C5.04762 53.8205 6.81524 55.6405 8.90794 56.8405C5.92127 54.2805 4.98667 51.6805 4.45841 49.3605C3.82857 46.6205 4.74286 42.3605 6.89651 41.8005C7.89206 41.5605 9.11111 42.8205 9.61905 44.4405C7.48571 45.5805 6.12444 47.2605 5.90095 49.4805C5.55556 52.9005 10.2692 54.4805 11.7524 49.8205C12.179 48.4805 12.1384 46.7005 11.7727 45.1205C14.353 44.1605 17.2787 44.8205 19.1683 46.7805C22.48 50.2805 21.1594 54.0405 19.4324 56.2005C17.6038 58.5205 14.7187 59.7805 11.7524 59.5805C6.46984 59.1805 2.75175 54.0005 2 50.8405C2.50794 54.9805 7.70921 62.5605 15.7346 60.4405C20.8952 59.0605 24.7759 53.0405 22.419 47.8805ZM9.05016 50.8605C8.15619 51.3005 7.54667 50.5805 7.50603 49.7605C7.4654 48.1405 8.70476 46.8205 10.0051 45.9805C10.2286 47.0205 10.5333 50.1205 9.05016 50.8605Z" fill="black"/>
</svg>
