<svg width="444" height="569" viewBox="0 0 444 569" fill="none" xmlns="http://www.w3.org/2000/svg">
<path fill-rule="evenodd" clip-rule="evenodd" d="M239.908 51.1246C299.807 59.6395 366.212 38.2825 415.581 73.2552C465.128 108.354 470.814 176.506 495.322 232.059C523.462 295.846 592.266 356.242 569.495 422.137C546.663 488.205 457.45 498.168 393.559 526.53C343.82 548.611 294.324 569.139 239.908 568.447C186.05 567.763 132.206 554.916 89.0702 522.659C46.3139 490.684 15.279 443.916 3.69126 391.799C-7.26155 342.538 24.8662 296.446 27.5697 246.055C31.753 168.08 -33.7545 70.3652 23.7691 17.5576C78.8263 -32.9857 165.913 40.6059 239.908 51.1246Z" fill="#FCFBE3"/>
</svg>
