<svg width="328" height="323" viewBox="0 0 328 323" fill="none" xmlns="http://www.w3.org/2000/svg">
<g filter="url(#filter0_d)">
<path d="M83.795 231.43C83.795 230.734 84.3596 230.168 85.0569 230.168C85.7536 230.168 86.3188 230.734 86.3188 231.43V237.265C86.3188 237.961 85.7536 238.527 85.0569 238.527C84.3596 238.527 83.795 237.961 83.795 237.265V231.43Z" fill="#FBB040"/>
<path d="M113.014 203.093C112.317 203.093 111.752 202.528 111.752 201.831C111.752 201.134 112.317 200.569 113.014 200.569H118.848C119.546 200.569 120.11 201.134 120.11 201.831C120.11 202.528 119.546 203.093 118.848 203.093H113.014Z" fill="#FBB040"/>
<path d="M110.468 216.735C109.883 216.355 109.719 215.573 110.1 214.989C110.48 214.405 111.262 214.24 111.846 214.62L116.734 217.805C117.317 218.186 117.483 218.968 117.103 219.552C116.722 220.136 115.94 220.3 115.356 219.92L110.468 216.735Z" fill="#FBB040"/>
<path d="M59.8866 216.735C60.471 216.355 60.6363 215.573 60.2551 214.989C59.8744 214.405 59.0933 214.24 58.5089 214.62L53.6203 217.805C53.0371 218.186 52.8718 218.968 53.2524 219.552C53.6337 220.136 54.4148 220.3 54.9986 219.92L59.8866 216.735Z" fill="#FBB040"/>
<path d="M98.2478 229.275C97.7548 228.783 97.7548 227.983 98.2478 227.491C98.7414 226.998 99.5394 226.998 100.032 227.491L104.158 231.616C104.651 232.108 104.651 232.907 104.158 233.4C103.666 233.894 102.866 233.893 102.373 233.4L98.2478 229.275Z" fill="#FBB040"/>
<path d="M70.151 227.491C70.644 226.998 71.4431 226.997 71.9355 227.491C72.4285 227.983 72.4285 228.783 71.9355 229.275L67.81 233.4C67.3176 233.894 66.519 233.894 66.0248 233.4C65.5324 232.907 65.5324 232.108 66.0248 231.616L70.151 227.491Z" fill="#FBB040"/>
<path d="M51.263 203.093C50.5663 203.093 50 202.528 50 201.831C50 201.134 50.5663 200.569 51.263 200.569H57.0969C57.7936 200.569 58.3588 201.134 58.3588 201.831C58.3588 202.528 57.7936 203.093 57.0969 203.093H51.263Z" fill="#FBB040"/>
<path d="M93.1546 169.586L92.2757 161.034L76.7501 162.211L75.9742 170.75L93.1546 169.586Z" fill="#58595B"/>
<path d="M75.1688 169.473C75.1414 169.067 75.4476 168.716 75.8533 168.688L93.1122 167.52C93.5179 167.492 93.8695 167.799 93.8963 168.204C93.9236 168.61 93.6169 168.961 93.2112 168.988L75.9534 170.156C75.5477 170.185 75.1962 169.878 75.1688 169.473Z" fill="#3A393B"/>
<path d="M84.5499 227.769C98.0826 227.769 109.053 216.799 109.053 203.267C109.053 193.859 103.749 185.695 95.9697 181.589C94.6171 179.141 93.0426 175.086 93.1503 169.592L75.9699 170.756L75.9449 170.755C75.8291 175.659 74.3838 179.318 73.1295 181.589C65.351 185.695 60.0474 193.859 60.0474 203.267C60.0474 216.799 71.0173 227.769 84.5499 227.769Z" fill="#FBB040"/>
<path d="M75.1688 167.651C75.1414 167.245 75.4476 166.894 75.8533 166.867L93.1122 165.697C93.5179 165.669 93.8695 165.977 93.8963 166.382C93.9236 166.787 93.6169 167.138 93.2112 167.166L75.9534 168.335C75.5477 168.362 75.1962 168.056 75.1688 167.651Z" fill="#3A393B"/>
<path d="M75.1688 165.729C75.1414 165.324 75.4476 164.973 75.8533 164.946L93.1122 163.777C93.5179 163.748 93.8695 164.055 93.8963 164.461C93.9236 164.866 93.6169 165.218 93.2112 165.244L75.9534 166.414C75.5477 166.442 75.1962 166.135 75.1688 165.729Z" fill="#3A393B"/>
<path d="M75.1688 163.823C75.1414 163.418 75.4476 163.066 75.8533 163.039L93.1122 161.87C93.5179 161.842 93.8695 162.149 93.8963 162.555C93.9236 162.96 93.6169 163.31 93.2112 163.338L75.9534 164.507C75.5477 164.535 75.1962 164.228 75.1688 163.823Z" fill="#3A393B"/>
<path d="M76.7466 162.216L92.2722 161.038L89.4766 156.623H88.5529C88.0837 155.131 86.6903 154.048 85.042 154.048C83.3959 154.048 82.0019 155.131 81.5328 156.623H80.4996L76.7466 162.216Z" fill="#3A393B"/>
<path d="M84.5499 227.769C86.349 227.769 88.0998 227.57 89.7884 227.202C88.5981 227.146 87.4119 226.977 86.2419 226.675C80.8702 225.288 76.4746 221.404 74.1126 216.407C69.4091 206.464 71.59 191.977 81.4831 185.892C86.4829 182.816 92.687 182.103 98.6221 183.214C97.7758 182.619 96.8911 182.075 95.9697 181.589C94.6171 179.141 93.0426 175.086 93.1503 169.592L75.9699 170.756L75.9449 170.755C75.8291 175.659 74.3838 179.318 73.1295 181.589C65.351 185.695 60.0474 193.859 60.0474 203.267C60.0474 216.799 71.0173 227.769 84.5499 227.769Z" fill="#D39536"/>
<path d="M88.6356 170.079L91.118 192.881L91.1186 192.882C91.2216 193.764 91.3549 195.601 91.8089 197.237C92.0371 198.055 92.3432 198.828 92.7867 199.418C93.2262 200.007 93.835 200.42 94.6027 200.426H94.6353C95.3501 200.428 95.9228 200.157 96.2982 199.735C96.6748 199.315 96.8576 198.759 96.8576 198.195C96.8611 197.16 96.2272 196.056 94.9688 195.684C94.8111 195.638 94.6487 195.62 94.4852 195.62C94.0428 195.621 93.5911 195.748 93.1755 195.866C92.764 195.987 92.3816 196.096 92.1517 196.093C92.0825 196.093 92.0295 196.084 91.9951 196.071H91.9957C91.8101 196.004 91.6168 195.974 91.4242 195.974C90.806 195.977 90.2007 196.276 89.7001 196.702C89.2007 197.129 88.8014 197.689 88.6262 198.273C88.5564 198.508 88.525 198.732 88.525 198.94C88.525 199.31 88.6239 199.631 88.795 199.872C88.9638 200.11 89.2188 200.275 89.5098 200.275C89.7537 200.277 89.9935 200.153 90.1733 199.94C90.3555 199.727 90.4935 199.426 90.5831 199.028C90.6332 198.805 90.657 198.593 90.657 198.395C90.6605 197.71 90.3584 197.172 89.9114 196.84C89.4656 196.504 88.8934 196.357 88.3195 196.356C87.7014 196.357 87.0757 196.528 86.5838 196.869C86.0937 197.207 85.7381 197.743 85.7404 198.413C85.7404 198.588 85.7637 198.77 85.8126 198.96C85.8813 199.219 86.0251 199.493 86.2218 199.723C86.4179 199.947 86.6735 200.146 87.007 200.152C87.1473 200.152 87.2928 200.109 87.4197 200.025L87.4389 200.012L87.4202 200.024C87.642 199.877 87.7922 199.661 87.883 199.427C87.9743 199.193 88.011 198.936 88.011 198.679C88.0052 198.049 87.8044 197.409 87.4528 197.031L87.4534 197.032C87.0058 196.566 86.3673 196.361 85.7422 196.361C85.276 196.361 84.8109 196.474 84.4174 196.698C84.0967 196.882 83.7999 197.186 83.57 197.545C83.343 197.905 83.1823 198.32 83.1806 198.742C83.1748 199.168 83.3698 199.608 83.8063 199.879H83.8069C83.9582 199.976 84.1218 200.028 84.2842 200.028C84.4605 200.029 84.6252 199.965 84.7579 199.867C84.9576 199.72 85.0973 199.503 85.1945 199.256C85.2911 199.008 85.3429 198.727 85.3429 198.436C85.3423 198.015 85.2341 197.57 84.9628 197.202C84.6933 196.833 84.2527 196.558 83.6631 196.494H83.6637C83.5921 196.486 83.5164 196.483 83.4373 196.483C82.9181 196.485 82.2132 196.635 81.6026 196.926C81.2982 197.073 81.0183 197.254 80.8023 197.485C80.5881 197.714 80.4362 198.007 80.4368 198.34C80.4368 198.604 80.5323 198.879 80.7197 199.147C80.8611 199.349 80.9973 199.499 81.1405 199.607C81.2825 199.713 81.4379 199.778 81.6009 199.779C81.7499 199.78 81.8896 199.72 81.9909 199.633C82.1451 199.501 82.2353 199.323 82.2976 199.128C82.3587 198.931 82.3884 198.712 82.3884 198.487C82.3867 198.075 82.293 197.641 82.0409 197.309C81.7918 196.988 81.4344 196.761 81.041 196.61C80.6463 196.46 80.2133 196.386 79.796 196.386C79.4619 196.386 79.1382 196.433 78.8513 196.537C78.0527 196.833 77.4602 197.644 77.4532 198.511C77.4526 198.73 77.4928 198.951 77.5813 199.164V199.166C77.7937 199.678 78.278 199.968 78.7657 199.966C79.1074 199.968 79.459 199.821 79.7069 199.523C79.9252 199.264 80.0166 198.95 80.0154 198.645C80.0142 198.245 79.8716 197.854 79.6714 197.508C79.47 197.164 79.2098 196.864 78.9392 196.657L78.888 196.617L78.9392 196.657C78.5044 196.326 77.9241 196.05 77.3525 195.99L77.225 195.977L77.3525 195.99C76.8164 195.936 76.285 195.866 75.7496 195.866C75.0703 195.865 74.3765 195.982 73.6926 196.391C72.6379 197.016 72.167 197.889 72.1682 198.674C72.1682 199.135 72.3306 199.562 72.6199 199.876C72.9086 200.19 73.3288 200.385 73.8073 200.384C74.3462 200.384 74.9469 200.144 75.5499 199.613C77.1861 198.166 77.8647 195.875 78.2268 193.496C78.5859 191.116 78.6225 188.625 78.8984 186.768L78.8996 186.761L80.3413 170.387L79.8297 170.342L78.3886 186.708L78.6441 186.731L78.3903 186.693C78.108 188.604 78.0725 191.084 77.7186 193.42C77.3676 195.758 76.6931 197.927 75.2106 199.227C74.6745 199.699 74.1902 199.871 73.8073 199.871C73.4662 199.87 73.1949 199.739 72.9976 199.528C72.8015 199.315 72.6821 199.015 72.6821 198.674C72.6833 198.097 73.0209 197.392 73.9551 196.831C74.5459 196.481 75.1244 196.381 75.7496 196.38C76.2402 196.38 76.7553 196.445 77.3007 196.501C77.7396 196.544 78.264 196.784 78.6266 197.064H78.6272C78.8333 197.221 79.0608 197.479 79.2279 197.767C79.3961 198.054 79.5026 198.373 79.5014 198.645C79.5003 198.855 79.4456 199.033 79.3129 199.194C79.1621 199.373 78.9677 199.452 78.7657 199.453C78.4765 199.452 78.1872 199.285 78.0556 198.968C77.9945 198.821 77.9666 198.667 77.9666 198.511C77.959 197.891 78.4427 197.224 79.0265 197.02C79.2424 196.941 79.5119 196.898 79.796 196.899C80.151 196.898 80.5288 196.964 80.8576 197.09C81.1871 197.216 81.4641 197.401 81.6341 197.623H81.6347C81.786 197.814 81.8774 198.159 81.875 198.487C81.8756 198.725 81.8291 198.954 81.7604 199.096C81.7266 199.168 81.6888 199.216 81.6609 199.239L81.6009 199.265C81.5799 199.266 81.5305 199.257 81.4484 199.196C81.3669 199.135 81.2598 199.024 81.1411 198.853C80.9991 198.649 80.9507 198.481 80.9507 198.34C80.9513 198.164 81.0253 198.001 81.1783 197.835C81.4065 197.588 81.811 197.366 82.2406 197.22C82.669 197.073 83.1241 196.996 83.4373 196.996C83.5007 196.996 83.5572 196.999 83.6055 197.006H83.6061C84.0723 197.06 84.3575 197.251 84.5496 197.507C84.7405 197.764 84.8295 198.103 84.8295 198.436C84.8301 198.741 84.7527 199.037 84.6375 199.236C84.5804 199.335 84.5152 199.409 84.4541 199.453C84.3924 199.497 84.3406 199.514 84.2842 199.514C84.2318 199.514 84.1672 199.499 84.0816 199.445C83.7929 199.256 83.6998 199.033 83.6945 198.742C83.6928 198.458 83.8139 198.118 84.0036 197.821C84.1916 197.523 84.4483 197.27 84.6718 197.144C84.9756 196.971 85.3598 196.874 85.7422 196.875C86.2579 196.874 86.7596 197.048 87.0821 197.387C87.2968 197.599 87.5035 198.172 87.4976 198.679C87.4976 198.887 87.4662 199.083 87.4045 199.241C87.3422 199.4 87.2538 199.518 87.1362 199.596L87.1368 199.596L87.007 199.638C86.915 199.643 86.7532 199.557 86.6106 199.387C86.468 199.224 86.3522 198.998 86.3103 198.831C86.2713 198.68 86.2538 198.541 86.2538 198.413C86.2561 197.927 86.4919 197.564 86.8778 197.29C87.2625 197.021 87.798 196.869 88.3195 196.87C88.8049 196.869 89.2729 197 89.6023 197.249C89.9312 197.502 90.1396 197.855 90.1431 198.395C90.1431 198.552 90.1244 198.725 90.0819 198.915C90.0057 199.257 89.8916 199.481 89.7834 199.606C89.6734 199.731 89.5843 199.761 89.5098 199.762C89.4225 199.762 89.3136 199.712 89.2129 199.573C89.1146 199.436 89.0378 199.217 89.0383 198.94C89.0383 198.784 89.0622 198.609 89.1187 198.419C89.2543 197.958 89.6006 197.46 90.0336 197.092C90.4661 196.72 90.9812 196.485 91.4242 196.488C91.5633 196.488 91.6954 196.509 91.8217 196.555H91.8223C91.93 196.594 92.0405 196.607 92.1517 196.607C92.5126 196.604 92.9061 196.476 93.3176 196.361C93.7262 196.241 94.1452 196.132 94.4852 196.133C94.6103 196.133 94.7238 196.148 94.8233 196.177C95.8489 196.481 96.3401 197.357 96.3436 198.195C96.3442 198.649 96.1958 199.081 95.9158 199.393C95.6341 199.703 95.2244 199.911 94.6353 199.912H94.6074H94.6086C94.0271 199.904 93.5841 199.617 93.1971 199.109C92.6208 198.35 92.2536 197.109 92.0289 195.895C91.8013 194.681 91.707 193.499 91.6285 192.823L91.629 192.825L89.146 170.023L88.6356 170.079Z" fill="white"/>
<path d="M91.1926 169.725C91.114 175.15 92.6716 179.161 94.0132 181.589C101.792 185.695 107.095 193.859 107.095 203.267C107.095 216.47 96.6499 227.229 83.5724 227.745C83.8983 227.757 84.2237 227.769 84.5526 227.769C98.0852 227.769 109.056 216.799 109.056 203.267C109.056 193.859 103.751 185.695 95.9724 181.589C94.6197 179.141 93.0452 175.086 93.1529 169.592L91.1926 169.725Z" fill="#FFD540"/>
<path d="M85.365 46.7275H83.7533V157.222H85.365V46.7275Z" fill="#3A393B"/>
<path d="M138.318 181.054C138.318 180.357 138.883 179.792 139.58 179.792C140.277 179.792 140.842 180.357 140.842 181.054V186.888C140.842 187.584 140.277 188.15 139.58 188.15C138.883 188.15 138.318 187.584 138.318 186.888V181.054Z" fill="#FBB040"/>
<path d="M167.537 152.716C166.84 152.716 166.275 152.152 166.275 151.455C166.275 150.757 166.84 150.193 167.537 150.193H173.372C174.069 150.193 174.634 150.757 174.634 151.455C174.634 152.152 174.069 152.716 173.372 152.716H167.537Z" fill="#FBB040"/>
<path d="M164.998 166.358C164.413 165.978 164.249 165.197 164.63 164.612C165.01 164.029 165.792 163.864 166.376 164.244L171.264 167.429C171.847 167.81 172.013 168.592 171.632 169.176C171.252 169.76 170.47 169.924 169.886 169.544L164.998 166.358Z" fill="#FBB040"/>
<path d="M114.41 166.358C114.994 165.978 115.159 165.197 114.778 164.612C114.398 164.029 113.616 163.864 113.032 164.244L108.143 167.429C107.56 167.81 107.395 168.592 107.775 169.176C108.157 169.76 108.938 169.924 109.522 169.544L114.41 166.358Z" fill="#FBB040"/>
<path d="M152.77 178.899C152.278 178.407 152.278 177.608 152.77 177.115C153.264 176.622 154.062 176.622 154.555 177.115L158.681 181.24C159.173 181.733 159.173 182.532 158.681 183.024C158.188 183.518 157.389 183.517 156.896 183.024L152.77 178.899Z" fill="#FBB040"/>
<path d="M124.68 177.115C125.173 176.622 125.972 176.621 126.465 177.115C126.958 177.608 126.958 178.407 126.465 178.899L122.34 183.024C121.847 183.518 121.048 183.518 120.555 183.024C120.062 182.532 120.062 181.733 120.555 181.24L124.68 177.115Z" fill="#FBB040"/>
<path d="M105.786 152.716C105.089 152.716 104.523 152.152 104.523 151.455C104.523 150.757 105.089 150.193 105.786 150.193H111.62C112.317 150.193 112.882 150.757 112.882 151.455C112.882 152.152 112.317 152.716 111.62 152.716H105.786Z" fill="#FBB040"/>
<path d="M147.678 119.21L146.799 110.658L131.273 111.835L130.497 120.374L147.678 119.21Z" fill="#58595B"/>
<path d="M129.692 119.097C129.664 118.691 129.971 118.34 130.376 118.313L147.635 117.144C148.041 117.116 148.392 117.423 148.42 117.828C148.447 118.234 148.14 118.585 147.734 118.612L130.476 119.78C130.071 119.809 129.719 119.503 129.692 119.097Z" fill="#3A393B"/>
<path d="M139.073 177.393C152.605 177.393 163.576 166.423 163.576 152.891C163.576 143.483 158.271 135.319 150.493 131.213C149.14 128.765 147.566 124.71 147.673 119.216L130.493 120.38L130.468 120.379C130.353 125.284 128.907 128.942 127.652 131.213C119.875 135.319 114.57 143.483 114.57 152.891C114.57 166.423 125.54 177.393 139.073 177.393Z" fill="#FBB040"/>
<path d="M129.692 117.275C129.664 116.869 129.971 116.518 130.376 116.491L147.635 115.321C148.041 115.293 148.392 115.601 148.42 116.006C148.447 116.411 148.14 116.762 147.734 116.79L130.476 117.959C130.071 117.986 129.719 117.68 129.692 117.275Z" fill="#3A393B"/>
<path d="M129.692 115.354C129.664 114.948 129.971 114.597 130.376 114.57L147.635 113.401C148.041 113.372 148.392 113.68 148.42 114.085C148.447 114.49 148.14 114.842 147.734 114.869L130.476 116.038C130.071 116.066 129.719 115.759 129.692 115.354Z" fill="#3A393B"/>
<path d="M129.692 113.447C129.664 113.042 129.971 112.691 130.376 112.663L147.635 111.495C148.041 111.466 148.392 111.773 148.42 112.179C148.447 112.584 148.14 112.935 147.734 112.962L130.476 114.131C130.071 114.159 129.719 113.852 129.692 113.447Z" fill="#3A393B"/>
<path d="M131.27 111.839L146.796 110.662L144 106.247H143.076C142.607 104.754 141.213 103.672 139.565 103.672C137.919 103.672 136.525 104.754 136.056 106.247H135.023L131.27 111.839Z" fill="#3A393B"/>
<path d="M139.073 177.393C140.872 177.393 142.623 177.194 144.311 176.826C143.121 176.77 141.935 176.602 140.765 176.299C135.394 174.912 130.998 171.028 128.636 166.031C123.932 156.088 126.113 141.601 136.006 135.516C141.006 132.44 147.21 131.727 153.145 132.838C152.299 132.244 151.414 131.699 150.493 131.213C149.14 128.765 147.566 124.71 147.673 119.216L130.493 120.38L130.468 120.379C130.353 125.284 128.907 128.942 127.652 131.213C119.875 135.319 114.57 143.483 114.57 152.891C114.57 166.423 125.54 177.393 139.073 177.393Z" fill="#D39536"/>
<path d="M143.158 119.703L145.641 142.505V142.506C145.745 143.388 145.878 145.225 146.331 146.86C146.559 147.68 146.866 148.452 147.31 149.042C147.749 149.631 148.358 150.044 149.125 150.05H149.158C149.872 150.053 150.445 149.781 150.821 149.359C151.197 148.939 151.38 148.383 151.38 147.819C151.383 146.784 150.75 145.68 149.492 145.308C149.334 145.262 149.171 145.244 149.008 145.244C148.566 145.245 148.114 145.372 147.699 145.49C147.286 145.61 146.904 145.72 146.674 145.717C146.605 145.717 146.552 145.708 146.518 145.695L146.495 145.688L146.518 145.696C146.332 145.628 146.139 145.598 145.947 145.598C145.329 145.6 144.723 145.9 144.223 146.325C143.723 146.753 143.324 147.313 143.149 147.897C143.079 148.132 143.047 148.356 143.047 148.564C143.047 148.934 143.146 149.255 143.317 149.496C143.486 149.734 143.742 149.899 144.032 149.899C144.276 149.901 144.516 149.777 144.696 149.564C144.878 149.351 145.016 149.05 145.105 148.651C145.156 148.428 145.179 148.217 145.179 148.019C145.183 147.334 144.881 146.796 144.434 146.464C143.988 146.128 143.416 145.981 142.842 145.98C142.224 145.981 141.598 146.152 141.106 146.493C140.616 146.831 140.26 147.367 140.263 148.036C140.263 148.212 140.287 148.394 140.336 148.583C140.404 148.844 140.547 149.117 140.744 149.347C140.94 149.571 141.196 149.77 141.529 149.776C141.67 149.777 141.815 149.733 141.942 149.649L141.943 149.648C142.165 149.501 142.315 149.285 142.405 149.051C142.497 148.817 142.533 148.561 142.533 148.303C142.528 147.673 142.327 147.033 141.976 146.656C141.529 146.19 140.89 145.985 140.265 145.985C139.798 145.985 139.333 146.098 138.94 146.322C138.619 146.506 138.322 146.81 138.093 147.169C137.865 147.529 137.705 147.945 137.703 148.367C137.697 148.791 137.892 149.232 138.329 149.503C138.481 149.6 138.645 149.653 138.807 149.652C138.983 149.653 139.148 149.589 139.28 149.491C139.48 149.344 139.62 149.127 139.717 148.88C139.813 148.632 139.865 148.351 139.865 148.059C139.865 147.639 139.756 147.194 139.485 146.826C139.216 146.457 138.775 146.183 138.186 146.119C138.114 146.11 138.039 146.107 137.96 146.107C137.441 146.109 136.736 146.259 136.126 146.55C135.821 146.696 135.541 146.878 135.325 147.109C135.111 147.338 134.959 147.63 134.959 147.964C134.959 148.228 135.055 148.503 135.242 148.771C135.384 148.973 135.52 149.124 135.663 149.231C135.805 149.337 135.96 149.403 136.124 149.403C136.272 149.404 136.412 149.344 136.513 149.257C136.668 149.125 136.758 148.947 136.82 148.752C136.881 148.556 136.911 148.336 136.911 148.111C136.909 147.699 136.815 147.264 136.563 146.933C136.314 146.612 135.957 146.385 135.563 146.234C135.169 146.084 134.736 146.01 134.318 146.009C133.984 146.01 133.661 146.057 133.374 146.161C132.575 146.457 131.983 147.268 131.976 148.135C131.976 148.354 132.016 148.576 132.104 148.789C132.316 149.302 132.801 149.592 133.288 149.591C133.63 149.592 133.981 149.446 134.229 149.147C134.448 148.888 134.539 148.574 134.538 148.269C134.537 147.869 134.394 147.478 134.194 147.132C133.992 146.787 133.732 146.489 133.462 146.281C133.027 145.95 132.446 145.674 131.875 145.614C131.339 145.56 130.808 145.49 130.272 145.49C129.593 145.489 128.899 145.606 128.215 146.014C127.161 146.64 126.69 147.513 126.691 148.298C126.691 148.759 126.853 149.186 127.143 149.5C127.431 149.814 127.851 150.01 128.33 150.009C128.869 150.008 129.47 149.768 130.073 149.237C131.709 147.79 132.388 145.499 132.749 143.121C133.108 140.74 133.145 138.249 133.421 136.392L133.422 136.385L134.864 120.011L134.353 119.966L132.911 136.332L133.167 136.355L132.913 136.317C132.631 138.228 132.595 140.708 132.241 143.044C131.89 145.382 131.216 147.551 129.734 148.851C129.197 149.323 128.713 149.496 128.33 149.495C127.989 149.494 127.717 149.363 127.52 149.152C127.324 148.939 127.205 148.639 127.205 148.298C127.206 147.721 127.543 147.015 128.478 146.456C129.068 146.105 129.647 146.005 130.272 146.004C130.763 146.004 131.278 146.07 131.823 146.125C132.262 146.167 132.786 146.408 133.149 146.688C133.356 146.846 133.583 147.103 133.75 147.391C133.918 147.678 134.025 147.997 134.024 148.269C134.023 148.479 133.968 148.658 133.835 148.818C133.684 148.997 133.49 149.076 133.288 149.077C132.999 149.076 132.71 148.909 132.578 148.592C132.517 148.445 132.489 148.291 132.489 148.135C132.482 147.515 132.965 146.848 133.549 146.644C133.765 146.565 134.034 146.522 134.318 146.523C134.673 146.522 135.051 146.588 135.38 146.715C135.709 146.84 135.987 147.025 136.157 147.247C136.309 147.438 136.4 147.783 136.397 148.111C136.399 148.349 136.351 148.578 136.283 148.72C136.249 148.792 136.211 148.841 136.183 148.863L136.124 148.89C136.103 148.89 136.053 148.881 135.971 148.819C135.889 148.759 135.783 148.649 135.663 148.478C135.521 148.272 135.473 148.105 135.473 147.964C135.474 147.788 135.548 147.625 135.701 147.459C135.929 147.211 136.333 146.99 136.763 146.844C137.191 146.696 137.647 146.62 137.96 146.62C138.023 146.62 138.08 146.624 138.128 146.629C138.595 146.684 138.88 146.875 139.072 147.131C139.263 147.388 139.352 147.727 139.352 148.059C139.352 148.365 139.275 148.661 139.16 148.859C139.103 148.959 139.038 149.033 138.977 149.077C138.915 149.121 138.863 149.138 138.807 149.139C138.754 149.138 138.69 149.123 138.604 149.069C138.315 148.88 138.223 148.657 138.217 148.367C138.215 148.082 138.336 147.742 138.526 147.444C138.714 147.147 138.971 146.894 139.194 146.768C139.499 146.594 139.882 146.498 140.265 146.499C140.781 146.498 141.282 146.671 141.604 147.011C141.819 147.223 142.026 147.796 142.02 148.303C142.02 148.511 141.989 148.707 141.927 148.865C141.865 149.024 141.777 149.142 141.659 149.22L141.659 149.22L141.529 149.262C141.437 149.267 141.276 149.181 141.133 149.012C140.991 148.848 140.875 148.622 140.833 148.455C140.794 148.304 140.776 148.166 140.776 148.036C140.779 147.552 141.014 147.188 141.4 146.914C141.785 146.645 142.32 146.493 142.842 146.493C143.327 146.493 143.795 146.624 144.125 146.873C144.454 147.126 144.662 147.479 144.666 148.019C144.666 148.176 144.647 148.349 144.604 148.539C144.528 148.881 144.414 149.105 144.306 149.23C144.196 149.356 144.107 149.385 144.032 149.386C143.945 149.387 143.836 149.336 143.735 149.197C143.637 149.06 143.561 148.842 143.561 148.564C143.561 148.408 143.585 148.233 143.641 148.043C143.777 147.582 144.123 147.084 144.557 146.716C144.989 146.345 145.504 146.109 145.947 146.112C146.086 146.112 146.218 146.134 146.344 146.179H146.345C146.452 146.217 146.563 146.23 146.674 146.231C147.035 146.228 147.428 146.1 147.84 145.984C148.249 145.866 148.668 145.756 149.008 145.757C149.133 145.757 149.246 145.772 149.346 145.801C150.371 146.106 150.863 146.98 150.867 147.819C150.867 148.273 150.718 148.705 150.438 149.017C150.157 149.327 149.747 149.535 149.158 149.537L149.13 149.536H149.131C148.55 149.528 148.107 149.241 147.719 148.733C147.144 147.974 146.776 146.732 146.551 145.52C146.324 144.305 146.23 143.124 146.151 142.447L146.151 142.449L143.669 119.647L143.158 119.703Z" fill="white"/>
<path d="M145.716 119.349C145.637 124.775 147.195 128.785 148.536 131.213C156.315 135.319 161.618 143.483 161.618 152.891C161.618 166.094 151.173 176.853 138.095 177.369C138.421 177.381 138.747 177.393 139.076 177.393C152.608 177.393 163.579 166.423 163.579 152.891C163.579 143.483 158.274 135.319 150.495 131.213C149.143 128.765 147.569 124.71 147.676 119.216L145.716 119.349Z" fill="#FFD540"/>
<path d="M139.888 46.7275H138.276V106.846H139.888V46.7275Z" fill="#3A393B"/>
<path d="M186.941 261.865C186.941 261.168 187.505 260.603 188.203 260.603C188.899 260.603 189.464 261.168 189.464 261.865V267.699C189.464 268.396 188.899 268.961 188.203 268.961C187.505 268.961 186.941 268.396 186.941 267.699V261.865Z" fill="#FBB040"/>
<path d="M216.16 233.527C215.464 233.527 214.898 232.963 214.898 232.265C214.898 231.569 215.464 231.003 216.16 231.003H221.994C222.692 231.003 223.256 231.569 223.256 232.265C223.256 232.963 222.692 233.527 221.994 233.527H216.16Z" fill="#FBB040"/>
<path d="M213.62 247.183C213.036 246.803 212.871 246.021 213.252 245.436C213.632 244.853 214.414 244.688 214.999 245.068L219.887 248.253C220.47 248.634 220.635 249.416 220.255 250C219.874 250.584 219.092 250.749 218.509 250.368L213.62 247.183Z" fill="#FBB040"/>
<path d="M163.033 247.183C163.617 246.803 163.782 246.021 163.4 245.436C163.02 244.853 162.239 244.688 161.654 245.068L156.766 248.253C156.183 248.634 156.017 249.416 156.398 250C156.779 250.584 157.561 250.749 158.144 250.368L163.033 247.183Z" fill="#FBB040"/>
<path d="M201.393 259.723C200.9 259.231 200.9 258.431 201.393 257.938C201.887 257.446 202.685 257.446 203.178 257.938L207.304 262.064C207.796 262.556 207.796 263.355 207.304 263.849C206.811 264.342 206.011 264.341 205.518 263.849L201.393 259.723Z" fill="#FBB040"/>
<path d="M173.303 257.939C173.796 257.446 174.595 257.445 175.088 257.939C175.58 258.432 175.58 259.231 175.088 259.723L170.962 263.849C170.469 264.343 169.671 264.343 169.177 263.849C168.685 263.355 168.685 262.556 169.177 262.064L173.303 257.939Z" fill="#FBB040"/>
<path d="M154.409 233.527C153.712 233.527 153.146 232.963 153.146 232.265C153.146 231.569 153.712 231.003 154.409 231.003H160.243C160.939 231.003 161.505 231.569 161.505 232.265C161.505 232.963 160.939 233.527 160.243 233.527H154.409Z" fill="#FBB040"/>
<path d="M196.3 200.019L195.422 191.468L179.896 192.645L179.12 201.183L196.3 200.019Z" fill="#58595B"/>
<path d="M178.314 199.92C178.287 199.514 178.593 199.164 178.999 199.136L196.258 197.969C196.663 197.941 197.015 198.247 197.042 198.651C197.07 199.058 196.763 199.409 196.357 199.436L179.099 200.605C178.693 200.633 178.342 200.326 178.314 199.92Z" fill="#3A393B"/>
<path d="M187.695 258.205C201.228 258.205 212.199 247.234 212.199 233.701C212.199 224.294 206.894 216.13 199.115 212.024C197.763 209.576 196.189 205.521 196.296 200.026L179.115 201.19L179.091 201.19C178.975 206.095 177.53 209.752 176.275 212.024C168.497 216.13 163.193 224.294 163.193 233.701C163.193 247.234 174.163 258.205 187.695 258.205Z" fill="#FBB040"/>
<path d="M178.314 198.085C178.287 197.679 178.593 197.328 178.999 197.301L196.258 196.132C196.663 196.103 197.015 196.411 197.042 196.817C197.07 197.221 196.763 197.572 196.357 197.6L179.099 198.769C178.693 198.796 178.342 198.49 178.314 198.085Z" fill="#3A393B"/>
<path d="M178.314 196.179C178.287 195.772 178.593 195.421 178.999 195.394L196.258 194.225C196.663 194.197 197.015 194.503 197.042 194.91C197.07 195.314 196.763 195.665 196.357 195.693L179.099 196.862C178.693 196.89 178.342 196.583 178.314 196.179Z" fill="#3A393B"/>
<path d="M178.314 194.258C178.287 193.852 178.593 193.5 178.999 193.474L196.258 192.305C196.663 192.276 197.015 192.583 197.042 192.989C197.07 193.394 196.763 193.745 196.357 193.772L179.099 194.942C178.693 194.969 178.342 194.663 178.314 194.258Z" fill="#3A393B"/>
<path d="M179.892 192.65L195.418 191.473L192.622 187.057H191.698C191.229 185.565 189.836 184.482 188.188 184.482C186.542 184.482 185.148 185.565 184.678 187.057H183.645L179.892 192.65Z" fill="#3A393B"/>
<path d="M187.695 258.205C189.495 258.205 191.245 258.006 192.934 257.637C191.744 257.581 190.557 257.412 189.388 257.111C184.016 255.724 179.62 251.839 177.258 246.843C172.555 236.899 174.736 222.411 184.629 216.327C189.628 213.251 195.833 212.539 201.768 213.649C200.921 213.054 200.037 212.51 199.115 212.024C197.763 209.576 196.189 205.521 196.296 200.026L179.115 201.19L179.091 201.19C178.975 206.095 177.53 209.752 176.275 212.024C168.497 216.13 163.193 224.294 163.193 233.701C163.193 247.234 174.163 258.205 187.695 258.205Z" fill="#D39536"/>
<path d="M191.781 200.513L194.264 223.314V223.316C194.367 224.197 194.5 226.035 194.954 227.67C195.182 228.489 195.488 229.262 195.932 229.852C196.371 230.441 196.981 230.854 197.748 230.86H197.781C198.495 230.862 199.068 230.59 199.443 230.169C199.82 229.748 200.003 229.192 200.003 228.629C200.007 227.594 199.373 226.49 198.114 226.119C197.957 226.072 197.794 226.054 197.631 226.054C197.188 226.055 196.736 226.182 196.321 226.3C195.91 226.421 195.527 226.53 195.298 226.527C195.227 226.527 195.174 226.518 195.141 226.505C194.955 226.438 194.762 226.408 194.57 226.408C193.952 226.41 193.346 226.709 192.846 227.135C192.346 227.563 191.946 228.123 191.771 228.708C191.702 228.942 191.67 229.166 191.67 229.375C191.67 229.744 191.769 230.065 191.94 230.305C192.109 230.544 192.364 230.709 192.655 230.709C192.899 230.71 193.138 230.586 193.318 230.374C193.5 230.16 193.638 229.86 193.728 229.461C193.778 229.238 193.802 229.027 193.802 228.829C193.805 228.144 193.503 227.606 193.056 227.273C192.61 226.938 192.038 226.79 191.464 226.79C190.846 226.791 190.221 226.961 189.729 227.303C189.239 227.641 188.883 228.177 188.885 228.846C188.885 229.021 188.909 229.204 188.958 229.393C189.026 229.653 189.169 229.927 189.367 230.157C189.563 230.381 189.819 230.58 190.152 230.585C190.292 230.586 190.438 230.543 190.564 230.458L190.565 230.458C190.788 230.311 190.938 230.095 191.028 229.861C191.119 229.627 191.156 229.371 191.156 229.113C191.15 228.483 190.95 227.843 190.598 227.465C190.151 227 189.513 226.796 188.888 226.795C188.421 226.796 187.956 226.908 187.562 227.132C187.242 227.316 186.945 227.62 186.715 227.979C186.488 228.339 186.327 228.755 186.326 229.177C186.32 229.601 186.515 230.042 186.952 230.313C187.103 230.409 187.267 230.462 187.429 230.462C187.606 230.462 187.771 230.399 187.903 230.301C188.103 230.153 188.243 229.937 188.339 229.69C188.436 229.443 188.488 229.16 188.488 228.869C188.488 228.449 188.379 228.004 188.108 227.636C187.838 227.267 187.398 226.992 186.809 226.928C186.737 226.92 186.661 226.917 186.582 226.917C186.064 226.918 185.358 227.069 184.748 227.36C184.444 227.506 184.163 227.688 183.948 227.919C183.733 228.148 183.581 228.44 183.582 228.773C183.582 229.039 183.677 229.312 183.865 229.581C184.006 229.783 184.143 229.933 184.285 230.04C184.427 230.147 184.583 230.213 184.746 230.213C184.895 230.214 185.035 230.153 185.136 230.067C185.29 229.935 185.38 229.757 185.443 229.561C185.504 229.365 185.533 229.146 185.534 228.921C185.532 228.508 185.438 228.073 185.186 227.743C184.937 227.421 184.579 227.195 184.186 227.044C183.791 226.894 183.358 226.819 182.941 226.819C182.607 226.819 182.283 226.867 181.996 226.97C181.198 227.267 180.605 228.078 180.598 228.945C180.598 229.163 180.638 229.386 180.726 229.598C180.939 230.111 181.423 230.401 181.911 230.4C182.253 230.401 182.604 230.255 182.852 229.957C183.07 229.698 183.162 229.384 183.16 229.079C183.159 228.679 183.017 228.287 182.817 227.942C182.615 227.598 182.355 227.298 182.084 227.091C181.649 226.76 181.07 226.485 180.497 226.424C179.961 226.37 179.43 226.301 178.894 226.301C178.215 226.3 177.521 226.416 176.838 226.824C175.783 227.45 175.313 228.323 175.314 229.107C175.313 229.568 175.476 229.996 175.765 230.309C176.054 230.624 176.474 230.82 176.952 230.819C177.492 230.818 178.092 230.578 178.695 230.047C180.332 228.6 181.01 226.309 181.372 223.931C181.731 221.55 181.767 219.059 182.043 217.202L182.045 217.195L183.487 200.82L182.975 200.776L181.533 217.142L181.79 217.165L181.535 217.127C181.254 219.038 181.217 221.518 180.864 223.854C180.513 226.191 179.839 228.361 178.356 229.661C177.819 230.133 177.335 230.305 176.952 230.305C176.611 230.304 176.34 230.173 176.143 229.961C175.946 229.749 175.827 229.448 175.827 229.107C175.828 228.531 176.166 227.825 177.101 227.265C177.691 226.915 178.269 226.815 178.894 226.814C179.385 226.814 179.9 226.879 180.446 226.935C180.885 226.978 181.409 227.218 181.772 227.499C181.979 227.656 182.206 227.913 182.373 228.201C182.541 228.489 182.648 228.807 182.647 229.079C182.646 229.289 182.591 229.468 182.458 229.628C182.307 229.807 182.113 229.886 181.911 229.887C181.622 229.886 181.333 229.719 181.201 229.402C181.14 229.255 181.112 229.101 181.112 228.945C181.105 228.325 181.588 227.658 182.171 227.453C182.387 227.375 182.657 227.332 182.941 227.333C183.296 227.332 183.674 227.398 184.003 227.524C184.332 227.649 184.609 227.834 184.78 228.057C184.932 228.248 185.022 228.592 185.02 228.921C185.021 229.159 184.974 229.387 184.905 229.531C184.872 229.602 184.834 229.65 184.806 229.673L184.746 229.699C184.725 229.699 184.675 229.691 184.593 229.63C184.512 229.569 184.405 229.458 184.286 229.287C184.144 229.082 184.096 228.915 184.096 228.773C184.096 228.598 184.17 228.435 184.324 228.269C184.552 228.021 184.956 227.8 185.386 227.654C185.814 227.506 186.269 227.429 186.582 227.43C186.646 227.43 186.703 227.433 186.751 227.439C187.217 227.493 187.502 227.685 187.694 227.941C187.885 228.198 187.975 228.537 187.974 228.869C187.975 229.175 187.898 229.471 187.782 229.669C187.725 229.769 187.66 229.843 187.6 229.887C187.538 229.931 187.486 229.948 187.429 229.948C187.377 229.948 187.313 229.933 187.227 229.879C186.938 229.689 186.845 229.466 186.839 229.177C186.838 228.891 186.959 228.552 187.149 228.255C187.337 227.957 187.593 227.704 187.817 227.578C188.121 227.404 188.505 227.308 188.888 227.308C189.403 227.308 189.905 227.481 190.227 227.82C190.441 228.034 190.648 228.606 190.642 229.113C190.642 229.32 190.611 229.517 190.549 229.675C190.487 229.834 190.399 229.951 190.281 230.03L190.282 230.029L190.152 230.072C190.06 230.077 189.898 229.99 189.756 229.822C189.614 229.658 189.497 229.432 189.455 229.265C189.416 229.114 189.399 228.975 189.399 228.846C189.401 228.361 189.636 227.997 190.022 227.724C190.408 227.454 190.943 227.302 191.464 227.303C191.95 227.302 192.418 227.433 192.747 227.683C193.076 227.936 193.285 228.288 193.289 228.829C193.289 228.986 193.269 229.159 193.227 229.349C193.151 229.691 193.037 229.915 192.928 230.039C192.818 230.165 192.729 230.194 192.655 230.196C192.567 230.196 192.459 230.145 192.358 230.007C192.26 229.869 192.183 229.652 192.183 229.375C192.183 229.218 192.207 229.043 192.264 228.854C192.399 228.392 192.746 227.894 193.179 227.525C193.612 227.155 194.127 226.919 194.57 226.921C194.708 226.922 194.841 226.943 194.967 226.989C195.075 227.027 195.186 227.04 195.298 227.041C195.659 227.038 196.052 226.91 196.463 226.794C196.871 226.676 197.29 226.566 197.631 226.567C197.755 226.567 197.869 226.582 197.968 226.611C198.994 226.915 199.485 227.79 199.489 228.629C199.489 229.083 199.341 229.514 199.061 229.826C198.779 230.137 198.369 230.344 197.781 230.346H197.752H197.753C197.173 230.337 196.73 230.05 196.342 229.543C195.766 228.784 195.399 227.542 195.174 226.329C194.947 225.115 194.853 223.933 194.774 223.257V223.258L192.292 200.458L191.781 200.513Z" fill="white"/>
<path d="M194.338 200.16C194.26 205.586 195.817 209.596 197.159 212.024C204.937 216.13 210.241 224.294 210.241 233.701C210.241 246.906 199.796 257.664 186.718 258.18C187.044 258.192 187.37 258.205 187.698 258.205C201.231 258.205 212.201 247.234 212.201 233.701C212.201 224.294 206.896 216.13 199.118 212.024C197.765 209.576 196.191 205.521 196.298 200.026L194.338 200.16Z" fill="#FFD540"/>
<path d="M188.517 46.7275H186.906V187.66H188.517V46.7275Z" fill="#3A393B"/>
<path d="M241.464 205.449C241.464 204.752 242.028 204.187 242.725 204.187C243.422 204.187 243.987 204.752 243.987 205.449V211.283C243.987 211.98 243.422 212.545 242.725 212.545C242.028 212.545 241.464 211.98 241.464 211.283V205.449Z" fill="#FBB040"/>
<path d="M270.683 177.098C269.986 177.098 269.421 176.533 269.421 175.836C269.421 175.139 269.986 174.574 270.683 174.574H276.517C277.214 174.574 277.779 175.139 277.779 175.836C277.779 176.533 277.214 177.098 276.517 177.098H270.683Z" fill="#FBB040"/>
<path d="M268.143 190.753C267.559 190.373 267.394 189.591 267.776 189.007C268.156 188.424 268.937 188.259 269.522 188.638L274.41 191.824C274.993 192.205 275.158 192.987 274.778 193.57C274.398 194.155 273.615 194.319 273.032 193.938L268.143 190.753Z" fill="#FBB040"/>
<path d="M217.555 190.753C218.139 190.373 218.305 189.591 217.924 189.007C217.543 188.424 216.762 188.259 216.177 188.638L211.289 191.824C210.706 192.205 210.54 192.987 210.921 193.57C211.302 194.155 212.084 194.319 212.667 193.938L217.555 190.753Z" fill="#FBB040"/>
<path d="M255.916 203.294C255.423 202.801 255.423 202.002 255.916 201.509C256.409 201.017 257.208 201.017 257.701 201.509L261.827 205.634C262.319 206.127 262.319 206.926 261.827 207.419C261.334 207.912 260.534 207.911 260.041 207.419L255.916 203.294Z" fill="#FBB040"/>
<path d="M227.826 201.509C228.319 201.017 229.118 201.016 229.611 201.509C230.104 202.003 230.104 202.802 229.611 203.294L225.485 207.42C224.993 207.913 224.194 207.913 223.701 207.42C223.208 206.926 223.208 206.127 223.701 205.635L227.826 201.509Z" fill="#FBB040"/>
<path d="M208.932 177.098C208.235 177.098 207.668 176.533 207.668 175.836C207.668 175.139 208.235 174.574 208.932 174.574H214.765C215.462 174.574 216.027 175.139 216.027 175.836C216.027 176.533 215.462 177.098 214.765 177.098H208.932Z" fill="#FBB040"/>
<path d="M250.823 143.603L249.944 135.052L234.419 136.229L233.643 144.767L250.823 143.603Z" fill="#58595B"/>
<path d="M232.837 143.491C232.81 143.085 233.116 142.735 233.522 142.707L250.781 141.539C251.186 141.511 251.538 141.818 251.565 142.223C251.592 142.628 251.286 142.98 250.88 143.007L233.622 144.175C233.216 144.204 232.865 143.897 232.837 143.491Z" fill="#3A393B"/>
<path d="M242.225 201.775C255.757 201.775 266.728 190.805 266.728 177.272C266.728 167.864 261.424 159.7 253.645 155.594C252.292 153.146 250.719 149.091 250.826 143.597L233.645 144.761L233.621 144.76C233.504 149.665 232.059 153.322 230.805 155.594C223.026 159.7 217.723 167.864 217.723 177.272C217.723 190.805 228.693 201.775 242.225 201.775Z" fill="#FBB040"/>
<path d="M232.837 141.655C232.81 141.249 233.116 140.898 233.522 140.87L250.781 139.702C251.186 139.674 251.538 139.98 251.565 140.386C251.592 140.791 251.286 141.142 250.88 141.17L233.622 142.34C233.216 142.367 232.865 142.06 232.837 141.655Z" fill="#3A393B"/>
<path d="M232.837 139.749C232.81 139.343 233.116 138.992 233.522 138.964L250.781 137.796C251.186 137.768 251.538 138.075 251.565 138.48C251.592 138.885 251.286 139.236 250.88 139.264L233.622 140.434C233.216 140.461 232.865 140.154 232.837 139.749Z" fill="#3A393B"/>
<path d="M232.837 137.829C232.81 137.423 233.116 137.071 233.522 137.044L250.781 135.875C251.186 135.847 251.538 136.154 251.565 136.56C251.592 136.964 251.286 137.316 250.88 137.343L233.622 138.513C233.216 138.54 232.865 138.233 232.837 137.829Z" fill="#3A393B"/>
<path d="M234.415 136.22L249.941 135.044L247.145 130.628H246.221C245.752 129.136 244.359 128.053 242.711 128.053C241.064 128.053 239.67 129.136 239.201 130.628H238.168L234.415 136.22Z" fill="#3A393B"/>
<path d="M242.225 201.775C244.024 201.775 245.775 201.576 247.464 201.208C246.273 201.152 245.087 200.982 243.918 200.681C238.546 199.294 234.15 195.41 231.788 190.414C227.084 180.47 229.265 165.982 239.159 159.898C244.158 156.822 250.362 156.109 256.298 157.219C255.451 156.625 254.567 156.08 253.645 155.594C252.292 153.146 250.719 149.091 250.826 143.597L233.645 144.761L233.621 144.76C233.504 149.665 232.059 153.322 230.805 155.594C223.026 159.7 217.723 167.864 217.723 177.272C217.723 190.805 228.693 201.775 242.225 201.775Z" fill="#D39536"/>
<path d="M246.304 144.098L248.786 166.899L248.787 166.901C248.89 167.782 249.023 169.619 249.477 171.255C249.706 172.074 250.012 172.846 250.455 173.437C250.895 174.025 251.504 174.439 252.271 174.444H252.304C253.019 174.447 253.591 174.176 253.967 173.754C254.343 173.333 254.526 172.777 254.526 172.214C254.53 171.179 253.896 170.074 252.637 169.704C252.48 169.657 252.317 169.638 252.154 169.638C251.712 169.64 251.26 169.767 250.845 169.885C250.433 170.005 250.051 170.115 249.821 170.112C249.751 170.112 249.698 170.102 249.664 170.09C249.479 170.023 249.286 169.992 249.093 169.993C248.475 169.995 247.87 170.294 247.369 170.72C246.869 171.148 246.47 171.708 246.295 172.292C246.225 172.527 246.193 172.751 246.193 172.959C246.193 173.329 246.292 173.65 246.463 173.89C246.632 174.128 246.888 174.294 247.178 174.294C247.422 174.295 247.662 174.171 247.842 173.958C248.024 173.745 248.162 173.445 248.252 173.046C248.302 172.823 248.325 172.612 248.325 172.414C248.329 171.729 248.027 171.191 247.58 170.858C247.134 170.523 246.561 170.375 245.988 170.375C245.37 170.375 244.744 170.546 244.252 170.888C243.762 171.225 243.407 171.762 243.409 172.431C243.409 172.606 243.432 172.789 243.482 172.978C243.55 173.238 243.694 173.512 243.89 173.742C244.086 173.966 244.342 174.164 244.675 174.17C244.815 174.171 244.961 174.127 245.088 174.043C245.31 173.896 245.461 173.68 245.551 173.446C245.643 173.212 245.679 172.956 245.679 172.698C245.674 172.067 245.473 171.428 245.122 171.05C244.674 170.584 244.036 170.38 243.411 170.379C242.944 170.38 242.479 170.493 242.086 170.717C241.765 170.901 241.468 171.205 241.239 171.564C241.011 171.924 240.851 172.339 240.849 172.761C240.843 173.186 241.038 173.627 241.475 173.897C241.627 173.994 241.79 174.047 241.953 174.047C242.129 174.047 242.294 173.984 242.426 173.886C242.626 173.738 242.766 173.522 242.863 173.275C242.96 173.027 243.011 172.745 243.011 172.454C243.011 172.034 242.903 171.589 242.631 171.22C242.362 170.852 241.921 170.577 241.332 170.513C241.261 170.505 241.185 170.501 241.106 170.501C240.587 170.503 239.882 170.654 239.271 170.945C238.967 171.091 238.687 171.273 238.471 171.504C238.257 171.733 238.105 172.025 238.105 172.358C238.105 172.623 238.201 172.897 238.388 173.166C238.53 173.368 238.666 173.518 238.809 173.625C238.951 173.732 239.106 173.797 239.269 173.798C239.418 173.799 239.557 173.738 239.659 173.652C239.814 173.52 239.904 173.342 239.966 173.146C240.027 172.95 240.057 172.731 240.057 172.506C240.055 172.094 239.961 171.658 239.709 171.327C239.46 171.006 239.103 170.78 238.709 170.629C238.315 170.479 237.881 170.404 237.464 170.404C237.13 170.404 236.807 170.452 236.52 170.555C235.721 170.852 235.129 171.663 235.122 172.53C235.121 172.748 235.161 172.97 235.25 173.183C235.462 173.696 235.946 173.986 236.434 173.985C236.776 173.986 237.127 173.84 237.375 173.542C237.594 173.283 237.685 172.969 237.684 172.664C237.683 172.264 237.54 171.872 237.34 171.527C237.138 171.183 236.878 170.883 236.608 170.676C236.173 170.344 235.593 170.069 235.021 170.009C234.484 169.955 233.953 169.886 233.417 169.885C232.739 169.885 232.045 170 231.361 170.409C230.307 171.034 229.836 171.907 229.837 172.692C229.837 173.153 229.999 173.581 230.288 173.894C230.577 174.209 230.997 174.404 231.476 174.403C232.015 174.403 232.615 174.163 233.219 173.631C234.855 172.185 235.534 169.893 235.895 167.515C236.254 165.135 236.291 162.644 236.567 160.787L236.568 160.78L238.01 144.405L237.499 144.36L236.057 160.727L236.313 160.749L236.059 160.712C235.776 162.622 235.741 165.103 235.387 167.438C235.036 169.776 234.362 171.946 232.879 173.246C232.343 173.717 231.859 173.89 231.476 173.89C231.135 173.889 230.863 173.758 230.666 173.546C230.47 173.333 230.351 173.034 230.351 172.692C230.352 172.115 230.689 171.41 231.624 170.85C232.214 170.5 232.793 170.4 233.417 170.399C233.908 170.399 234.424 170.464 234.969 170.52C235.408 170.562 235.932 170.803 236.295 171.084C236.502 171.241 236.729 171.498 236.896 171.786C237.065 172.074 237.171 172.392 237.17 172.664C237.169 172.873 237.114 173.052 236.981 173.212C236.831 173.392 236.636 173.47 236.434 173.472C236.146 173.471 235.856 173.304 235.724 172.986C235.663 172.839 235.635 172.686 235.635 172.53C235.627 171.91 236.111 171.243 236.695 171.038C236.911 170.96 237.18 170.917 237.464 170.917C237.819 170.917 238.197 170.983 238.526 171.109C238.856 171.234 239.133 171.42 239.303 171.641C239.454 171.832 239.546 172.177 239.544 172.506C239.544 172.744 239.498 172.972 239.429 173.115C239.395 173.187 239.357 173.235 239.329 173.258L239.269 173.284C239.248 173.284 239.199 173.275 239.116 173.214C239.035 173.153 238.928 173.043 238.81 172.872C238.668 172.667 238.619 172.5 238.619 172.358C238.62 172.183 238.694 172.02 238.847 171.854C239.075 171.605 239.479 171.385 239.909 171.239C240.337 171.091 240.793 171.014 241.106 171.015C241.169 171.015 241.226 171.018 241.274 171.023C241.741 171.078 242.026 171.269 242.218 171.526C242.409 171.783 242.498 172.121 242.498 172.454C242.499 172.759 242.421 173.056 242.306 173.254C242.249 173.354 242.184 173.428 242.123 173.472C242.061 173.516 242.009 173.532 241.953 173.533C241.9 173.533 241.836 173.518 241.75 173.464C241.461 173.275 241.369 173.051 241.363 172.761C241.361 172.477 241.482 172.137 241.672 171.839C241.86 171.542 242.117 171.289 242.34 171.163C242.645 170.989 243.028 170.893 243.411 170.893C243.927 170.893 244.428 171.066 244.751 171.405C244.965 171.618 245.172 172.191 245.166 172.698C245.166 172.905 245.135 173.102 245.073 173.26C245.011 173.419 244.923 173.536 244.805 173.614L244.675 173.656C244.583 173.662 244.422 173.575 244.279 173.406C244.137 173.243 244.021 173.017 243.979 172.85C243.94 172.699 243.922 172.56 243.922 172.431C243.925 171.946 244.16 171.582 244.546 171.309C244.931 171.039 245.466 170.887 245.988 170.888C246.473 170.888 246.941 171.018 247.271 171.268C247.6 171.521 247.808 171.874 247.812 172.414C247.812 172.57 247.793 172.744 247.75 172.933C247.674 173.276 247.56 173.499 247.452 173.624C247.342 173.75 247.253 173.779 247.178 173.78C247.09 173.781 246.982 173.73 246.881 173.592C246.783 173.454 246.707 173.236 246.707 172.959C246.707 172.803 246.731 172.628 246.787 172.439C246.923 171.977 247.269 171.479 247.703 171.11C248.135 170.739 248.65 170.504 249.093 170.506C249.232 170.506 249.364 170.528 249.49 170.573C249.599 170.612 249.71 170.625 249.821 170.625C250.182 170.622 250.575 170.495 250.987 170.379C251.395 170.261 251.814 170.151 252.154 170.152C252.279 170.152 252.392 170.166 252.492 170.196C253.517 170.5 254.009 171.374 254.012 172.214C254.013 172.667 253.864 173.099 253.584 173.411C253.303 173.722 252.893 173.929 252.304 173.931H252.276H252.277C251.696 173.922 251.253 173.635 250.866 173.127C250.29 172.368 249.922 171.127 249.697 169.914C249.47 168.699 249.376 167.518 249.297 166.842L249.298 166.843L246.815 144.042L246.304 144.098Z" fill="white"/>
<path d="M248.861 143.73C248.782 149.156 250.34 153.166 251.682 155.594C259.46 159.7 264.764 167.864 264.764 177.272C264.764 190.476 254.318 201.234 241.241 201.75C241.567 201.762 241.892 201.775 242.221 201.775C255.753 201.775 266.724 190.805 266.724 177.272C266.724 167.864 261.419 159.7 253.641 155.594C252.288 153.146 250.714 149.091 250.821 143.597L248.861 143.73Z" fill="#FFD540"/>
<path d="M243.04 46.7275H241.429V131.235H243.04V46.7275Z" fill="#3A393B"/>
</g>
<defs>
<filter id="filter0_d" x="0" y="-2" width="328" height="328" filterUnits="userSpaceOnUse" color-interpolation-filters="sRGB">
<feFlood flood-opacity="0" result="BackgroundImageFix"/>
<feColorMatrix in="SourceAlpha" type="matrix" values="0 0 0 0 0 0 0 0 0 0 0 0 0 0 0 0 0 0 127 0"/>
<feOffset dy="4"/>
<feGaussianBlur stdDeviation="25"/>
<feColorMatrix type="matrix" values="0 0 0 0 1 0 0 0 0 0.78 0 0 0 0 0 0 0 0 0.5 0"/>
<feBlend mode="normal" in2="BackgroundImageFix" result="effect1_dropShadow"/>
<feBlend mode="normal" in="SourceGraphic" in2="effect1_dropShadow" result="shape"/>
</filter>
</defs>
</svg>
