<svg width="48" height="48" viewBox="0 0 48 48" fill="none" xmlns="http://www.w3.org/2000/svg">
<path fill-rule="evenodd" clip-rule="evenodd" d="M30.5 6.70195C30.5 5.21195 29.29 4.00195 27.8 4.00195H6.19997C4.70997 4.00195 3.49997 5.21195 3.49997 6.70195V38.302C3.49997 39.792 4.70997 41.002 6.19997 41.002H27.8C29.29 41.002 30.5 39.792 30.5 38.302V6.70195ZM29.5 6.75195C29.5 5.78595 28.716 5.00195 27.75 5.00195H6.24997C5.28397 5.00195 4.49997 5.78595 4.49997 6.75195V38.252C4.49997 39.218 5.28397 40.002 6.24997 40.002H27.75C28.716 40.002 29.5 39.218 29.5 38.252V6.75195Z" fill="#0055A6"/>
<path fill-rule="evenodd" clip-rule="evenodd" d="M29.5001 6.74805C29.5001 5.78227 28.7164 4.99805 27.7501 4.99805H6.25001C5.2837 4.99805 4.5 5.78227 4.5 6.74805V38.248C4.5 39.2138 5.2837 39.998 6.25001 39.998H27.7501C28.7164 39.998 29.5001 39.2138 29.5001 38.248V6.74805Z" fill="#90C9FF"/>
<path d="M13 7.99805H7.00003V14.998H13V7.99805Z" fill="#005F9B"/>
<path d="M27 7.99805H17V9.99805H27V7.99805Z" fill="#000716"/>
<path d="M27 12.7559H17V14.7559H27V12.7559Z" fill="#000716"/>
<path d="M27 18.1406H7.00003V20.1406H27V18.1406Z" fill="#000716"/>
<path d="M27 22.3945H7.00003V24.3945H27V22.3945Z" fill="#000716"/>
<path d="M27 26.5254H7.00003V28.5254H27V26.5254Z" fill="#000716"/>
<path d="M27 30.6562H7.00003V32.6562H27V30.6562Z" fill="#000716"/>
<path d="M27 34.5996H7.00003V36.5996H27V34.5996Z" fill="#000716"/>
<path fill-rule="evenodd" clip-rule="evenodd" d="M45 16.3577C45 14.9229 43.835 13.7578 42.4 13.7578H21.6C20.165 13.7578 19 14.9229 19 16.3577V43.4016C19 44.8364 20.165 46.0015 21.6 46.0015H42.4C43.835 46.0015 45 44.8364 45 43.4016V16.3577Z" fill="#007690"/>
<path fill-rule="evenodd" clip-rule="evenodd" d="M44 17.1543C44 15.8296 42.9246 14.7539 41.6 14.7539H22.4C21.0754 14.7539 20 15.8296 20 17.1543V42.5975C20 43.9221 21.0754 44.9978 22.4 44.9978H41.6C42.9246 44.9978 44 43.9221 44 42.5975V17.1543Z" fill="white"/>
<path d="M27.431 29.0026C30.4305 29.0026 32.862 26.5711 32.862 23.5716C32.862 20.5722 30.4305 18.1406 27.431 18.1406C24.4316 18.1406 22 20.5722 22 23.5716C22 26.5711 24.4316 29.0026 27.431 29.0026Z" fill="#009B11"/>
<path d="M27.431 41.8288C30.4305 41.8288 32.862 39.3973 32.862 36.3978C32.862 33.3983 30.4305 30.9668 27.431 30.9668C24.4316 30.9668 22 33.3983 22 36.3978C22 39.3973 24.4316 41.8288 27.431 41.8288Z" fill="#FF0000"/>
<path d="M24.2495 23.1477L22.8353 24.5619L26.3708 28.0974L27.785 26.6832L24.2495 23.1477Z" fill="white"/>
<path d="M32.0271 22.4434L30.6129 21.0292L24.956 26.686L26.3702 28.1002L32.0271 22.4434Z" fill="white"/>
<path fill-rule="evenodd" clip-rule="evenodd" d="M27.431 34.9862L25.31 32.8652L23.895 34.2792L26.017 36.4002L23.895 38.5222L25.31 39.9362L27.431 37.8152L29.552 39.9362L30.966 38.5222L28.845 36.4002L30.966 34.2792L29.552 32.8652L27.431 34.9862Z" fill="white"/>
</svg>
