<svg width="254" height="200" viewBox="0 0 254 200" fill="none" xmlns="http://www.w3.org/2000/svg">
<path fill-rule="evenodd" clip-rule="evenodd" d="M183.249 68.06C183.898 66.2425 182.553 61.2473 182.553 61.2473C182.553 61.2473 178.195 61.5769 176.729 61.2104C174.327 60.6096 172.666 58.8188 171.235 56.8882C166.189 50.0772 166.034 39.6205 165.714 31.4508C165.607 28.7238 165.651 26.1425 165.906 23.4192C166.428 17.8559 168.752 12.97 174.812 11.9209C179.339 11.1377 183.472 13.0417 187.45 14.9537C197.009 19.5499 202.92 28.6589 204.637 38.9661C205.064 41.5282 204.456 46.1561 204.456 46.1561C204.456 46.1561 204.054 51.4174 204.054 52.6763C204.054 55.9566 205.262 58.2434 205.262 58.2434C205.262 58.2434 203.419 64.2728 202.11 66.4153C199.661 70.422 196.31 74.7255 191.949 76.778C189.011 78.1603 183.885 78.2319 182.809 74.5431C182.316 72.8527 182.333 69.8545 182.333 69.8545L183.249 68.06Z" fill="#FFEFE9"/>
<path fill-rule="evenodd" clip-rule="evenodd" d="M133.83 153.397C133.83 153.397 134.656 158.673 134.508 160.846C134.445 161.791 133.099 166.262 133.099 166.262C133.099 166.262 128.156 166.462 122.709 165.952C119.144 165.617 115.123 164.537 112.972 164.439C108.161 164.22 106.439 166.07 101.62 165.653C100.243 165.532 98.6323 164.701 98.6323 164.701C98.6323 164.701 95.4761 164.755 94.661 164.185C93.8459 163.615 95.3705 162.419 95.3705 162.419C95.3705 162.419 95.7033 160.857 97.5783 159.148C99.4532 157.437 102.445 155.891 102.445 155.891C102.445 155.891 105.354 148.938 108.589 148.19C110.747 147.693 113.513 149.483 115.476 150.058C117.971 150.789 122.287 152.023 125.96 152.636C130.294 153.357 133.83 153.397 133.83 153.397Z" fill="#FFEFE9"/>
<path fill-rule="evenodd" clip-rule="evenodd" d="M115.663 149.747C115.663 149.747 115.263 147.126 114.766 145.95C113.534 143.03 107.811 139.827 107.811 139.827C107.811 139.827 103.475 141.063 101.566 141.502C97.9614 142.335 93.3817 142.103 90.9409 142.967C88.7478 143.742 85.9654 148.222 85.9654 148.222C85.9654 148.222 79.1442 151.195 77.3484 152.654C75.554 154.113 79.3201 154.756 79.3201 154.756C79.3201 154.756 77.3733 155.731 77.5741 156.935C77.643 157.345 78.1034 157.784 78.9448 157.986C79.7848 158.187 80.9341 157.741 80.9341 157.741C80.9341 157.741 81.9633 158.798 83.4688 158.379C88.4546 156.995 92.8818 152.938 97.7841 151.304C98.7267 150.99 101.572 150.907 102.572 151.241C103.29 151.48 104.262 152.65 104.262 152.65C104.262 152.65 105.357 151.327 105.743 151.049C107.545 149.747 107.196 148.092 109.497 148.338C110.186 148.413 115.663 149.747 115.663 149.747Z" fill="#FFEFE9"/>
<path fill-rule="evenodd" clip-rule="evenodd" d="M204.264 47.3193C204.264 47.3193 204.276 48.7326 204.187 49.6724C204.064 50.9653 204.187 55.3443 204.187 55.3443C204.187 55.3443 205.305 56.1865 206.154 56.5788C208.156 57.5023 209.503 57.9027 211.749 57.7365C218.013 57.2725 223.159 53.3095 224.173 47.28C226.256 34.8953 218.231 33.3903 218.231 33.3903C218.231 33.3903 218.424 31.2957 218.424 30.8052C218.424 29.4628 218.37 27.6254 218.231 26.291C217.807 22.2326 216.589 18.7034 214.72 15.064C211.704 9.19044 206.887 5.1187 200.869 2.48566C197.955 1.211 194.463 1.10443 191.339 0.749366C189.584 0.549994 187.16 0.876025 185.397 1.13521C180.696 1.82671 176.112 3.80739 172.433 6.69125C171 7.81463 168.933 9.74517 167.804 11.1667C166.27 13.0958 165.334 19.3077 166.452 20.6198C166.452 20.6198 167.644 17.8545 167.688 17.7643C168.138 16.8246 168.65 15.3742 169.386 14.6392C171.507 12.5173 175.915 12.0621 178.684 13.4815C180.638 14.4847 181.924 16.515 183.198 18.2276C185.949 21.9268 188.202 25.9276 190.992 29.6091C192.589 31.7176 194.646 32.3996 197.165 32.6959C198.205 32.8184 200.343 31.1547 200.444 31.3069C200.574 31.5027 200.643 33.3054 200.637 33.5063C200.615 34.3331 200.561 35.148 200.522 35.9754C200.437 37.7508 201.094 39.7937 201.795 41.4153C202.386 42.7851 203.164 44.1741 204.033 45.3894C204.393 45.8933 204.264 47.3193 204.264 47.3193Z" fill="#D0AF9C"/>
<path fill-rule="evenodd" clip-rule="evenodd" d="M204.868 58.7994C202.227 64.0827 199.454 68.3509 195.014 72.3228C193.005 74.1203 189.254 76.9618 186.312 76.735C181.428 76.3596 182.776 68.7817 182.776 68.7817C182.776 68.7817 181.573 70.4476 181.441 70.5903C180.813 71.2655 180.474 72.3848 180.084 73.2211C179.518 74.4329 178.961 75.7021 178.564 76.9611C178.296 77.8084 177.251 80.3523 176.981 81.5646C175.877 86.531 174.927 86.6166 173.438 91.4825C172.297 95.2106 170.947 100.294 169.62 104.964C167.594 112.098 166.397 123.98 165.971 132.069C165.797 135.394 165.763 139.729 165.763 143.059C165.763 143.618 165.929 149.762 165.929 149.762C165.929 149.762 169.465 148.75 170.384 148.804C172.378 148.922 179.737 145.871 179.737 145.871C179.737 145.871 179.536 143.899 180.899 142.633C181.749 141.844 183.872 141.019 183.872 141.019L186.185 138.204C186.185 138.204 186.508 132.704 187.652 127.633C188.279 124.856 189.73 117.951 190.222 115.292C191.982 105.766 195.472 94.6956 197.949 84.7903C199.294 79.4072 200.925 73.6874 202.796 68.4491C203.202 67.3107 204.054 63.7324 204.477 62.6051C204.629 62.1995 204.868 58.7994 204.868 58.7994Z" fill="white"/>
<path fill-rule="evenodd" clip-rule="evenodd" d="M107.602 139.816C107.602 139.816 109.154 138.085 110.079 138.454C112.925 139.592 118.055 143.808 118.733 146.741C118.92 147.556 119.664 150.18 118.765 150.695C117.68 151.315 115.591 149.742 115.591 149.742C115.591 149.742 115.327 147.319 115.034 146.776C114.443 145.686 113.273 143.767 111.945 142.581C109.891 140.747 107.602 139.816 107.602 139.816Z" fill="white"/>
<path fill-rule="evenodd" clip-rule="evenodd" d="M143.206 152.508C143.206 152.508 144.124 156.023 143.929 160.574C143.875 161.817 143.392 163.352 143.304 164.011C143.215 164.671 143.19 165.152 143.03 165.75C142.925 166.147 142.483 167.04 142.483 167.04C142.483 167.04 138.358 166.643 137.581 166.529C136.776 166.411 133.752 166.57 133.752 166.57C133.752 166.57 134.646 161.481 134.69 159.227C134.714 158.019 134.55 156.205 134.391 154.835C134.243 153.539 134.047 152.655 135.843 152.567C137.835 152.468 143.206 152.508 143.206 152.508Z" fill="white"/>
<path fill-rule="evenodd" clip-rule="evenodd" d="M207.69 30.2491C208.746 30.9 209.265 32.5846 209.435 33.6934C209.901 36.7227 209.278 40.8867 207.577 43.4385C206.617 44.8784 204.955 46.5238 203.045 45.7052C201.422 45.01 201.171 43.1193 200.914 41.5804C200.405 38.5216 200.268 34.8593 201.368 31.9262C202.036 30.1436 203.626 28.3799 205.719 28.7988C206.65 28.985 206.96 29.7992 207.69 30.2491Z" fill="#969696"/>
<path fill-rule="evenodd" clip-rule="evenodd" d="M202.937 29.4672C202.63 27.6283 203.289 25.4989 203.632 23.7021C204.381 19.7901 205.552 15.4384 205.197 11.4185C204.552 4.12327 197.727 -2.04599 190.335 0.641876C190.193 0.693625 189.823 0.737897 189.929 0.844767C190.036 0.951343 191.053 0.827322 191.204 0.844767C192.351 0.977144 193.495 1.31241 194.593 1.65589C197.703 2.62754 201.18 4.63548 202.445 7.79759C203.78 11.1356 202.686 14.2386 202.184 17.5891C201.69 20.8776 201.256 24.1211 200.996 27.4392C200.893 28.7631 200.338 30.7556 200.735 32.0455C200.874 32.4978 201.416 31.6644 201.489 31.5528C202.004 30.7564 203.024 29.7671 203.024 28.7719L202.937 29.4672Z" fill="#969696"/>
<path fill-rule="evenodd" clip-rule="evenodd" d="M167.865 57.1705C167.612 56.041 165.052 55.415 165.316 56.7663C165.609 58.2676 168.38 59.4741 167.865 57.1705Z" fill="#969696"/>
<path fill-rule="evenodd" clip-rule="evenodd" d="M204.55 55.9011C205.155 55.9011 206.37 56.6451 206.853 57.0065C209.134 58.7183 210.675 61.5139 212.117 64.037C212.535 64.7678 213.269 66.4012 213.269 66.4012C213.269 66.4012 220.439 71.3875 222.899 73.8477C226.725 77.6735 230.43 80.9841 233.114 85.8145C235.601 90.2916 235.253 97.4649 234.828 102.554C234.676 104.385 233.932 109.765 233.747 111.613C233.099 118.094 232.833 119.127 231.634 127.31C230.435 135.494 230.224 138.167 229.681 144.681C229.283 149.463 229.487 154.683 229.961 159.43C230.232 162.139 231.357 164.716 231.735 167.364C231.871 168.314 231.908 169.325 231.642 170.258C231.478 170.831 231.074 172.976 231.074 172.976C231.074 172.976 232.049 174.629 232.198 175.372C232.57 177.23 232.09 178.19 231.735 179.967C231.381 181.739 232.24 183.409 232.482 185.101C232.625 186.105 233.039 186.74 233.039 187.773C233.039 187.968 233.443 190.013 233.443 190.013L189.93 167.213C189.93 167.213 187.955 168.089 186.917 168.238C185.167 168.488 178.829 169.305 177.057 169.305C168.437 169.305 165.603 169.63 156.963 169.176C153.647 169.001 149.573 169.141 146.29 168.673C146.034 168.636 143.301 168.658 143.182 168.421C142.737 167.528 143.726 163.856 143.759 162.887C143.851 160.118 143.997 158.065 143.575 155.333C143.448 154.501 142.779 152.601 143.146 151.868C143.411 151.339 144.534 151.352 145.943 151.311C147.352 151.272 152.645 151.207 155.62 150.979C160.148 150.63 165.021 150.493 169.315 149.206C171.745 148.476 179.215 146.166 179.215 146.166C179.215 146.166 180.002 143.546 181.309 142.375C182.153 141.623 184.39 140.617 184.39 140.617L186.55 137.521C186.55 137.521 187.883 125.947 188.664 121.982C189.985 115.282 192.846 107.176 194.252 99.2107C195.478 92.2627 198.172 84.0486 200.103 77.2936C201.506 72.3828 202.357 69.4327 203.951 64.6511C204.316 63.5553 206.329 58.9303 204.943 58.2382L204.55 55.9011Z" fill="#79A8C6"/>
<path fill-rule="evenodd" clip-rule="evenodd" d="M182.002 64.715C183.847 63.0475 183.111 68.0507 183.111 68.0507C183.111 68.0507 182.253 69.3702 181.215 71.4456C179.846 74.1858 178.931 76.5419 177.582 79.3088C175.895 82.7679 174.731 87.5016 173.602 91.169C172.292 95.4313 170.859 99.6439 169.927 104.018C167.263 116.519 165.705 128.801 165.705 141.608C165.705 142.572 166.148 149.788 166.148 149.788L160.691 150.468C160.691 149.44 160.804 146.981 160.804 145.953C160.804 143.399 161.426 141.04 161.131 138.51C160.989 137.296 160.999 133.432 160.999 133.432C160.999 133.432 158.337 135.863 157.843 136.266C156.534 137.337 154.38 138.941 152.885 139.642C147.701 142.071 142.088 144.72 137.909 145.929C132.892 147.381 118.784 150.61 118.784 150.61C118.784 150.61 119.122 148.018 118.907 147.285C118.452 145.737 117.458 144.164 116.479 142.898C115.347 141.432 113.096 139.932 111.498 139.044C111.155 138.853 108.551 138.28 108.704 137.673C108.888 136.936 112.012 135.609 112.501 135.314C113.76 134.556 117.928 132.645 121.245 131.597C125.405 130.283 129.691 128.423 133.48 126.382C135.213 125.45 140.836 122.936 140.836 122.936C140.836 122.936 141.499 120.581 142.462 119.618C142.983 119.099 145.939 118.89 145.939 118.89C145.939 118.89 147.105 116.679 147.954 115.299C150.383 111.351 151.312 108.302 153.565 104.272C156.738 98.5927 158.468 94.1524 161.998 88.6609C162.945 87.1876 165.303 82.6386 167.101 80.5471C170.84 76.1954 176.877 71.908 176.877 71.908C176.877 71.908 180.155 66.3824 182.002 64.715Z" fill="#79A8C6"/>
<path d="M165.681 27.1575H165.693C165.917 27.1516 166.093 26.9647 166.087 26.7404C165.853 17.7339 169.686 14.5932 170.123 14.2641C170.304 14.13 170.34 13.8753 170.205 13.6956C170.069 13.5168 169.815 13.48 169.637 13.6141C168.865 14.1927 165.035 17.5428 165.275 26.762C165.281 26.9828 165.461 27.1575 165.681 27.1575Z" fill="#3F4B53"/>
<path d="M178.928 61.8273C180.055 61.8273 181.144 61.6954 182.092 61.5214C186.914 60.6362 192.057 57.8547 193.799 55.1888C193.923 55.0013 193.87 54.7494 193.682 54.6267C193.493 54.502 193.242 54.5575 193.12 54.7444C191.484 57.2466 186.575 59.872 181.945 60.722C178.587 61.3403 175.746 60.9558 173.943 59.6434C168.125 55.4118 166.682 43.4875 166.682 41.9392C166.682 41.7149 166.501 41.5331 166.276 41.5331C166.052 41.5331 165.87 41.7149 165.87 41.9392C165.87 44.6578 167.769 56.1585 173.465 60.3006C175.057 61.4586 177.044 61.8273 178.928 61.8273Z" fill="#3F4B53"/>
<path d="M170.964 44.6258C171.139 44.6258 171.298 44.5141 171.353 44.3394C171.419 44.1244 171.298 43.8972 171.084 43.8314C170.036 43.509 169.599 42.563 169.78 41.8343C169.84 41.5992 170.086 41.3885 170.348 41.1657C170.62 40.9324 170.929 40.6691 171.112 40.3034C171.527 39.4707 171.483 38.7738 171.436 38.0357C171.423 37.8011 171.407 37.5573 171.407 37.2968C171.407 37.0725 171.225 36.8907 171.001 36.8907C170.776 36.8907 170.593 37.0725 170.593 37.2968C170.593 37.5754 170.609 37.8359 170.625 38.087C170.669 38.7665 170.703 39.3034 170.385 39.9397C170.275 40.1584 170.054 40.3474 169.819 40.5472C169.489 40.8294 169.114 41.1497 168.992 41.6373C168.718 42.7334 169.337 44.1438 170.844 44.6078C170.885 44.6201 170.924 44.6258 170.964 44.6258Z" fill="#3F4B53"/>
<path d="M176.826 28.468C176.93 28.468 177.033 28.4282 177.114 28.3489C178.064 27.398 180.126 27.6231 181.053 28.2408C181.24 28.3662 181.491 28.3142 181.617 28.1274C181.741 27.9413 181.69 27.6887 181.503 27.5639C180.342 26.7897 177.827 26.4839 176.539 27.7746C176.381 27.9333 176.381 28.1909 176.539 28.3489C176.618 28.4282 176.722 28.468 176.826 28.468Z" fill="#3F4B53"/>
<path d="M166.235 29.6737C166.344 29.6737 166.452 29.6303 166.533 29.5452C166.98 29.0667 167.95 29.0279 168.519 29.3129C168.72 29.411 168.965 29.3316 169.065 29.131C169.166 28.9297 169.084 28.6859 168.883 28.5856C168.041 28.1649 166.678 28.2009 165.939 28.9896C165.785 29.1534 165.794 29.4102 165.958 29.564C166.036 29.6374 166.136 29.6737 166.235 29.6737Z" fill="#3F4B53"/>
<path d="M174.79 51.9237C175.405 51.9237 176.037 51.8543 176.603 51.7476C178.617 51.3681 180.202 50.4863 180.841 49.3905C180.956 49.1964 180.89 48.9473 180.696 48.8349C180.501 48.7195 180.253 48.788 180.141 48.9806C179.625 49.863 178.211 50.6171 176.452 50.9497C174.914 51.2389 173.442 51.1278 172.874 50.6761C172.696 50.5391 172.443 50.5665 172.302 50.7425C172.163 50.9186 172.193 51.1747 172.368 51.314C172.931 51.7592 173.84 51.9237 174.79 51.9237Z" fill="#3F4B53"/>
<path d="M164.918 56.4795C165.022 56.4795 165.126 56.4398 165.205 56.3604C165.365 56.2017 165.365 55.9449 165.205 55.7861C162.981 53.5611 163.618 49.6585 165.151 46.9737C165.399 46.5416 165.698 46.139 166.016 45.7133C166.401 45.1952 166.8 44.6593 167.099 44.0611C167.2 43.8606 167.118 43.6159 166.917 43.5155C166.718 43.4167 166.475 43.4969 166.372 43.6974C166.105 44.2313 165.746 44.7155 165.364 45.2278C165.047 45.6548 164.717 46.0958 164.446 46.5712C162.764 49.5148 162.105 53.8338 164.632 56.3604C164.711 56.4398 164.815 56.4795 164.918 56.4795Z" fill="#3F4B53"/>
<path d="M166.89 59.1489C167.479 59.1489 167.961 58.8862 168.19 58.436C168.438 57.9448 168.334 57.317 167.919 56.7968C167.778 56.6208 167.523 56.594 167.347 56.7333C167.173 56.8731 167.143 57.1294 167.284 57.3047C167.498 57.5724 167.567 57.8653 167.464 58.0694C167.372 58.2506 167.14 58.3488 166.841 58.335C166.24 58.3113 165.63 57.8221 165.224 57.4563C164.978 57.2361 164.774 56.8589 164.858 56.6093C164.918 56.4303 165.019 56.3092 165.158 56.2477C165.383 56.1495 165.72 56.1942 166.11 56.3704C166.312 56.4621 166.554 56.3725 166.646 56.1677C166.739 55.9633 166.648 55.7225 166.444 55.6301C165.673 55.2817 165.144 55.369 164.833 55.5032C164.478 55.6581 164.22 55.9519 164.088 56.3517C163.879 56.9757 164.235 57.6598 164.681 58.0609C165.18 58.5103 165.944 59.1128 166.809 59.1474C166.836 59.1482 166.863 59.1489 166.89 59.1489Z" fill="#3F4B53"/>
<path d="M182.35 70.1576C182.498 70.1576 182.642 70.0754 182.713 69.9333C183.082 69.1958 183.426 68.4564 183.582 67.5206C183.929 65.4397 182.789 61.4017 182.741 61.2306C182.679 61.0148 182.453 60.8921 182.238 60.9506C182.023 61.0126 181.897 61.237 181.959 61.4527C181.97 61.4933 183.097 65.486 182.78 67.3864C182.642 68.2124 182.339 68.8641 181.986 69.5696C181.886 69.7702 181.967 70.0147 182.168 70.1151C182.226 70.1439 182.288 70.1576 182.35 70.1576Z" fill="#3F4B53"/>
<path d="M204.855 58.5238C204.987 58.5238 205.116 58.4604 205.194 58.3435C205.318 58.1566 205.268 57.9042 205.082 57.78C204.624 57.4748 204.249 55.7202 204.17 53.5137C204.112 51.9069 204.072 48.8716 204.442 46.5976C204.478 46.3759 204.327 46.1674 204.106 46.1314C203.888 46.0946 203.676 46.2453 203.64 46.4677C203.259 48.8096 203.299 51.9056 203.357 53.5428C203.414 55.0982 203.653 57.8038 204.63 58.4552C204.699 58.5023 204.778 58.5238 204.855 58.5238Z" fill="#3F4B53"/>
<path d="M204.261 46.4318C205.232 46.4326 206.162 46.0392 206.962 45.2904C208.433 43.9109 209.724 40.1859 209.895 37.776C210.041 35.7261 210.063 33.1101 209.334 32.2846C209.185 32.1164 208.928 32.1013 208.76 32.2492C208.592 32.3979 208.576 32.654 208.725 32.8229C209.123 33.2738 209.264 35.1959 209.084 37.7182C208.91 40.1786 207.608 43.5704 206.406 44.6973C205.73 45.3307 204.965 45.6505 204.149 45.6173C203.391 45.587 202.672 45.2385 202.125 44.6367C201.396 43.8344 200.954 42.1845 200.849 39.8654C200.736 37.3712 200.872 32.8012 203.057 30.2189C203.517 29.6743 204.297 29.3525 205.149 29.3525H205.196C206.094 29.3654 206.903 29.7392 207.413 30.3784C207.553 30.5546 207.81 30.5811 207.985 30.4418C208.16 30.302 208.188 30.0457 208.048 29.8706C207.384 29.0407 206.349 28.5559 205.208 28.54H205.15C204.061 28.54 203.051 28.9685 202.436 29.6938C200.073 32.4881 199.918 37.2897 200.037 39.9022C200.154 42.4483 200.653 44.2254 201.524 45.1837C202.219 45.9476 203.14 46.39 204.117 46.429C204.165 46.4311 204.214 46.4318 204.261 46.4318Z" fill="#3F4B53"/>
<path d="M196.306 29.4834C197.332 29.4834 198.395 29.3529 199.143 28.9783C199.344 28.878 199.426 28.6335 199.325 28.4328C199.224 28.2323 198.979 28.1522 198.78 28.2511C197.618 28.8311 195.267 28.7136 194.042 28.451C191.153 27.8325 188.909 25.8816 187.535 24.3542C186.217 22.8903 185.359 21.4459 184.451 19.917C183.98 19.1226 183.492 18.3016 182.919 17.4423L182.825 17.3023C181.189 14.8449 178.716 11.1327 175.127 12.925C174.926 13.0253 174.844 13.2698 174.944 13.4704C175.045 13.6709 175.29 13.7518 175.49 13.6521C178.434 12.1803 180.582 15.4012 182.149 17.7525L182.242 17.8932C182.804 18.7353 183.285 19.5468 183.752 20.3319C184.682 21.8968 185.559 23.3745 186.931 24.8982C189.017 27.2164 191.417 28.72 193.871 29.246C194.48 29.3766 195.378 29.4834 196.306 29.4834Z" fill="#3F4B53"/>
<path d="M196.698 32.4887C197.586 32.4887 198.437 32.3399 199.139 32.0015C199.341 31.9042 199.425 31.661 199.328 31.459C199.23 31.2569 198.984 31.174 198.785 31.27C196.742 32.2556 192.889 31.2959 191.817 29.9027C191.68 29.723 191.424 29.6913 191.248 29.8284C191.069 29.9647 191.036 30.2202 191.173 30.3976C192.084 31.5809 194.502 32.4887 196.698 32.4887Z" fill="#3F4B53"/>
<path d="M176.12 10.1403C176.281 10.1403 176.432 10.0452 176.496 9.88787C177.634 7.10794 179.89 4.55026 182.245 3.37337C182.446 3.2731 182.527 3.02858 182.427 2.82803C182.326 2.62661 182.081 2.54656 181.881 2.6461C179.361 3.9067 176.952 6.62813 175.744 9.58045C175.659 9.78833 175.759 10.0249 175.967 10.11C176.017 10.1309 176.068 10.1403 176.12 10.1403Z" fill="#3F4B53"/>
<path d="M165.948 16.7448C165.975 16.7448 166.003 16.7426 166.03 16.7367C166.251 16.6912 166.392 16.4763 166.346 16.2569C166.102 15.0623 166.562 13.5406 167.677 11.8557C170.001 8.3522 174.764 4.7959 177.032 4.34218C177.253 4.29805 177.395 4.08461 177.351 3.86442C177.307 3.64364 177.089 3.49866 176.873 3.54557C174.44 4.03183 169.494 7.64721 167 11.407C165.745 13.3025 165.257 14.9887 165.55 16.42C165.59 16.6127 165.76 16.7448 165.948 16.7448Z" fill="#3F4B53"/>
<path d="M206.618 48.7004C206.644 48.7004 206.671 48.6984 206.697 48.6934C213.155 47.4313 217.257 39.4726 218.335 32.6118C219.954 22.3073 214.759 8.63565 203.262 3.59519C203.06 3.50562 202.817 3.59886 202.726 3.80439C202.636 4.01006 202.73 4.2496 202.935 4.33976C214.073 9.22292 219.103 22.4854 217.533 32.4862C216.497 39.0757 212.615 46.7085 206.541 47.8953C206.321 47.9386 206.177 48.1522 206.22 48.3722C206.258 48.5663 206.427 48.7004 206.618 48.7004Z" fill="#3F4B53"/>
<path d="M218.083 49.3772C218.165 49.3772 218.247 49.3526 218.319 49.3014C221.902 46.7415 222.553 40.7113 220.913 36.6853C219.871 34.1298 218.834 32.8872 217.741 32.8872C217.517 32.8872 217.335 33.0691 217.335 33.2934C217.335 33.5179 217.517 33.6997 217.741 33.6997C218.065 33.6997 218.949 34.0207 220.16 36.9919C221.652 40.6535 221.068 46.3381 217.847 48.6404C217.664 48.771 217.622 49.0244 217.752 49.2069C217.832 49.3181 217.957 49.3772 218.083 49.3772Z" fill="#3F4B53"/>
<path d="M210.626 58.0907C212.154 58.0907 213.618 57.8476 214.515 57.6145C219.757 56.2544 224.091 51.0366 224.82 45.2075C224.963 44.0639 225.063 40.3864 224.102 39.2891C223.955 39.1202 223.698 39.1035 223.529 39.2509C223.36 39.3988 223.343 39.6556 223.491 39.8243C224.091 40.5098 224.219 43.4557 224.013 45.1064C223.324 50.6188 219.243 55.5481 214.31 56.828C212.984 57.1721 209.069 57.7811 206.892 56.4854C206.7 56.3699 206.45 56.4334 206.335 56.6266C206.22 56.8194 206.284 57.069 206.476 57.1837C207.62 57.8642 209.153 58.0907 210.626 58.0907Z" fill="#3F4B53"/>
<path d="M200.37 37.6546C200.594 37.6546 200.776 37.4728 200.776 37.2485C200.776 32.7839 201.375 26.3105 202.301 20.7565C202.445 19.8934 202.62 19.019 202.797 18.1374C203.367 15.2961 203.958 12.3582 203.562 9.47565C203.264 7.30688 201.992 5.33207 199.881 3.76421C196.654 1.36676 191.817 0.17624 187.841 0.804703C187.62 0.8393 187.468 1.04791 187.504 1.26942C187.538 1.49019 187.746 1.64309 187.969 1.60703C191.683 1.0205 196.381 2.177 199.397 4.41657C201.328 5.85161 202.49 7.63878 202.757 9.58603C203.134 12.3328 202.557 15.2023 202 17.9779C201.821 18.8683 201.644 19.7514 201.499 20.6222C200.791 24.8712 199.963 31.7744 199.963 37.2485C199.963 37.4728 200.145 37.6546 200.37 37.6546Z" fill="#3F4B53"/>
<path d="M203.319 29.7331C203.544 29.7331 203.725 29.5512 203.725 29.3269C203.725 25.3766 204.397 22.1674 204.99 19.3363C205.22 18.2387 205.437 17.202 205.611 16.1645C206.177 12.7613 206.549 8.44588 204.375 5.24961C204.266 5.09026 201.671 1.32975 197.445 0.137764C197.227 0.0779528 197.004 0.202708 196.944 0.4185C196.883 0.634291 197.009 0.859316 197.225 0.91986C201.168 2.03253 203.601 5.55703 203.703 5.70714C205.715 8.66445 205.351 12.7778 204.808 16.0302C204.638 17.052 204.423 18.0808 204.195 19.1704C203.594 22.0397 202.913 25.2923 202.913 29.3269C202.913 29.5512 203.095 29.7331 203.319 29.7331Z" fill="#3F4B53"/>
<path d="M212.716 66.4864C212.777 66.4864 212.839 66.4726 212.897 66.4439C213.098 66.3435 213.18 66.0989 213.079 65.8984C212.856 65.451 212.635 64.9951 212.413 64.5361C211.119 61.8558 209.781 59.0838 207.355 57.143L207.135 56.9661C206.279 56.2728 205.213 55.4098 204.039 55.4098C203.814 55.4098 203.633 55.5917 203.633 55.8162C203.633 56.0404 203.814 56.2222 204.039 56.2222C204.925 56.2222 205.868 56.9848 206.624 57.5975L206.848 57.7779C209.129 59.6034 210.427 62.2909 211.682 64.8897C211.905 65.3523 212.127 65.811 212.352 66.2621C212.423 66.404 212.567 66.4864 212.716 66.4864Z" fill="#3F4B53"/>
<path d="M233 189.877C233.198 189.877 233.368 189.742 233.397 189.543C233.451 189.17 233.154 187.918 232.421 185.064C232.307 184.621 232.202 184.211 232.118 183.877C231.827 182.716 231.661 181.028 231.906 180.049C232.05 179.473 232.54 176.984 232.4 175.946C232.192 174.399 231.446 173.25 231.108 172.795C231.739 171.283 232.108 168.144 231.804 166.628C231.557 165.391 231.188 164.146 230.831 162.943C230.38 161.424 229.914 159.852 229.69 158.282C229.223 155.013 229.112 151.473 229.375 148.311C230.132 139.226 231.93 125.878 232.699 120.179C232.945 118.351 233.065 117.464 233.079 117.275C233.174 116.043 233.418 114.221 233.7 112.108C234.615 105.258 236 94.9057 234.385 89.172C232.347 81.9331 223.906 74.5896 222.234 73.1914C215.573 67.6163 214.842 67.1992 214.488 67.1992C214.264 67.1992 214.082 67.3811 214.082 67.6056C214.082 67.8082 214.231 67.9763 214.425 68.0067C215.108 68.2865 219.9 72.2974 221.713 73.8147C222.718 74.6553 231.588 82.2347 233.603 89.3927C235.171 94.9642 233.801 105.217 232.894 112.001C232.61 114.124 232.365 115.958 232.268 117.213C232.255 117.386 232.104 118.512 231.893 120.072C231.124 125.777 229.324 139.137 228.565 148.243C228.296 151.464 228.41 155.069 228.885 158.398C229.118 160.027 229.593 161.626 230.052 163.174C230.404 164.36 230.768 165.586 231.008 166.788C231.296 168.23 230.898 171.42 230.272 172.672C230.198 172.819 230.221 172.996 230.329 173.121C230.34 173.133 231.362 174.329 231.594 176.054C231.709 176.9 231.267 179.253 231.118 179.851C230.828 181.012 231.024 182.853 231.33 184.075C231.414 184.41 231.519 184.821 231.634 185.268C232 186.69 232.611 189.071 232.592 189.436C232.581 189.653 232.741 189.853 232.956 189.875C232.972 189.875 232.986 189.877 233 189.877Z" fill="#3F4B53"/>
<path d="M209.308 53.3367C210.241 53.3367 211.14 53.1846 212.057 52.8821C212.27 52.8115 212.386 52.582 212.315 52.3684C212.246 52.1563 212.018 52.0402 211.802 52.1103C210.077 52.6801 208.478 52.6687 206.461 52.064C205.805 51.8693 204.999 51.5748 204.576 51.0258C204.44 50.8462 204.184 50.8136 204.007 50.9514C203.828 51.0879 203.795 51.3431 203.932 51.5207C204.497 52.2545 205.455 52.613 206.228 52.8433C207.33 53.1722 208.338 53.3367 209.308 53.3367Z" fill="#3F4B53"/>
<path d="M186.709 77.1917C186.723 77.1917 186.738 77.191 186.753 77.1895C187.789 77.0791 191.141 75.5099 192.348 74.7855C195.876 72.6693 199.521 68.419 201.572 65.4226C203.531 62.5589 205.053 59.0352 205.247 58.3583C205.308 58.1427 205.183 57.9182 204.967 57.8562C204.753 57.7979 204.526 57.9197 204.464 58.1361C204.302 58.7055 202.814 62.1685 200.901 64.9637C198.739 68.1239 195.126 72.1707 191.93 74.0885C190.709 74.8209 187.491 76.2941 186.667 76.3815C186.444 76.4052 186.282 76.605 186.306 76.8289C186.328 77.0373 186.504 77.1917 186.709 77.1917Z" fill="#3F4B53"/>
<path d="M184.814 77.0522C184.962 77.0522 185.106 76.9698 185.177 76.8276C185.278 76.6271 185.196 76.3825 184.995 76.2823C183.49 75.5305 182.673 71.2037 182.944 70.0312C182.994 69.8126 182.858 69.5941 182.639 69.5435C182.419 69.4922 182.202 69.6294 182.151 69.848C181.86 71.1105 182.636 76.0118 184.632 77.0097C184.69 77.0384 184.752 77.0522 184.814 77.0522Z" fill="#3F4B53"/>
<path d="M185.821 138.471C186.019 138.471 186.192 138.325 186.222 138.124C186.677 135.003 187.972 127.21 188.886 122.576C190.378 115.029 196.416 91.4161 199.836 79.7544C200.248 78.349 200.711 76.6946 201.2 74.9456C202.293 71.0387 203.533 66.6102 204.616 63.507L204.675 63.3383C205.249 61.7018 206.317 58.6571 205.085 57.1772C204.94 57.0041 204.685 56.9824 204.513 57.1246C204.34 57.2681 204.317 57.5242 204.46 57.6967C205.398 58.8231 204.354 61.7985 203.908 63.0691L203.848 63.2386C202.757 66.3671 201.514 70.8078 200.418 74.7262C199.93 76.4715 199.467 78.1232 199.057 79.5257C195.631 91.2032 189.584 114.854 188.089 122.419C187.172 127.065 185.874 134.877 185.418 138.007C185.386 138.228 185.539 138.435 185.762 138.467C185.781 138.47 185.801 138.471 185.821 138.471Z" fill="#3F4B53"/>
<path d="M165.951 147.506C165.965 147.506 165.98 147.506 165.996 147.505C166.219 147.48 166.38 147.279 166.355 147.056C165.978 143.582 166.063 126.601 167.868 116.976L168.239 114.972C168.896 111.404 169.712 106.962 170.668 103.141C171.857 98.3859 174.651 88.5743 177.086 82.4862C177.595 81.2129 178.02 80.0807 178.423 79.0079C179.301 76.6651 180.061 74.6413 181.362 72.0395L181.529 71.7048C181.887 70.9805 182.728 69.2856 183.013 69.0714C183.222 68.9899 183.306 68.7641 183.226 68.5548C183.144 68.3463 182.889 68.2525 182.68 68.3333C182.304 68.479 181.9 69.1261 180.799 71.3433L180.635 71.676C179.314 74.3159 178.549 76.3579 177.661 78.722C177.261 79.79 176.838 80.9169 176.331 82.1847C173.88 88.3095 171.074 98.168 169.879 102.943C168.918 106.789 168.098 111.244 167.44 114.825L167.069 116.825C165.339 126.05 165.105 143.069 165.547 147.144C165.569 147.352 165.747 147.506 165.951 147.506Z" fill="#3F4B53"/>
<path d="M142.627 167.912C142.807 167.912 142.971 167.792 143.02 167.61C144.833 160.732 143.888 155.561 143.433 153.075C143.339 152.562 143.243 152.033 143.263 151.902C143.426 151.649 144.924 151.643 145.563 151.64C145.833 151.638 146.078 151.637 146.274 151.627C147.007 151.59 148 151.547 149.139 151.499C150.722 151.433 152.588 151.354 154.44 151.257C160.267 150.951 163.231 150.619 168.856 149.648C172.062 149.093 179.188 146.692 179.6 146.142C180.003 145.606 180.121 145.011 180.225 144.486C180.352 143.844 180.462 143.288 181.04 142.856C181.68 142.375 182.123 142.219 182.55 142.071C183.194 141.846 183.802 141.633 184.671 140.416C187.221 136.847 189.854 133.073 191.578 129.625C194.795 123.19 198.8 115.181 201.115 108.232C201.395 107.396 201.783 106.132 202.248 104.618C203.903 99.2265 206.404 91.0786 208.512 87.2489C211.01 82.7129 214.275 79.995 218.493 78.9394C222.38 77.9674 227.093 79.6762 230.498 83.2937C230.653 83.4575 230.909 83.4639 231.072 83.311C231.236 83.1574 231.243 82.9004 231.09 82.7367C227.486 78.909 222.464 77.1075 218.295 78.1514C213.846 79.2641 210.414 82.1119 207.801 86.8564C205.651 90.7605 203.135 98.9566 201.471 104.38C201.008 105.886 200.622 107.143 200.345 107.975C198.047 114.869 194.057 122.85 190.851 129.262C189.154 132.657 186.541 136.401 184.01 139.944C183.291 140.95 182.867 141.099 182.282 141.303C181.841 141.457 181.294 141.649 180.552 142.205C179.726 142.825 179.568 143.624 179.427 144.329C179.335 144.795 179.247 145.236 178.977 145.616C178.372 145.988 172.267 148.233 168.718 148.846C163.13 149.812 160.185 150.142 154.397 150.447C152.547 150.543 150.685 150.621 149.105 150.688C147.962 150.735 146.968 150.778 146.232 150.816C146.047 150.825 145.815 150.826 145.56 150.826C144.087 150.832 142.927 150.889 142.536 151.558C142.379 151.825 142.448 152.204 142.634 153.22C143.078 155.649 144.001 160.701 142.234 167.402C142.177 167.619 142.307 167.842 142.523 167.899C142.558 167.908 142.593 167.912 142.627 167.912Z" fill="#3F4B53"/>
<path d="M165.121 169.891C165.62 169.891 166.124 169.888 166.634 169.884C175.487 169.793 187.977 168.667 190.209 167.405C192.679 166.009 194.994 164.373 196.56 162.92C199.403 160.28 201.016 158.253 203.249 155.447L204.167 154.295C210.704 146.123 215.568 139.449 221.09 129.509C222.763 126.498 226.411 119.514 228.019 116.299C229.032 114.271 231.528 108.972 231.553 108.918C231.648 108.715 231.561 108.473 231.358 108.377C231.155 108.284 230.913 108.369 230.817 108.572C230.793 108.625 228.301 113.917 227.291 115.936C225.688 119.143 222.048 126.111 220.38 129.115C214.886 139.004 210.042 145.65 203.532 153.786L202.612 154.941C200.402 157.719 198.806 159.726 196.008 162.324C194.485 163.737 192.226 165.33 189.809 166.698C187.903 167.774 176.203 168.972 166.625 169.07C160.328 169.133 154.915 168.777 150.563 168.488C148.354 168.343 146.446 168.217 144.923 168.182C144.703 168.201 144.513 168.356 144.508 168.58C144.502 168.805 144.681 168.989 144.906 168.995C146.41 169.028 148.31 169.154 150.51 169.299C154.522 169.566 159.438 169.891 165.121 169.891Z" fill="#3F4B53"/>
<path d="M194.553 87.692C195.417 87.692 196.225 86.4444 196.834 85.5043C196.962 85.3058 197.068 85.1406 197.145 85.0425C197.909 84.059 199.265 81.4617 199.322 81.3513C199.426 81.1521 199.348 80.9068 199.149 80.803C198.952 80.6997 198.706 80.7762 198.602 80.9762C198.587 81.0021 197.222 83.6183 196.503 84.5439C196.418 84.6543 196.297 84.839 196.152 85.0627C195.102 86.6832 194.68 86.9401 194.514 86.8707C193.944 86.6428 192.953 85.1124 192.434 83.6617L192.173 82.9176C191.747 81.6954 191.265 80.3102 190.707 79.4091C190.142 78.4971 188.949 77.6429 186.467 78.7546C186.262 78.8463 186.17 79.0865 186.262 79.2915C186.354 79.4963 186.593 79.5901 186.799 79.4963C189.154 78.4408 189.802 79.492 190.016 79.837C190.527 80.6623 190.994 82.0021 191.406 83.1847L191.669 83.9342C192.1 85.14 193.171 87.2085 194.213 87.6255C194.327 87.671 194.44 87.692 194.553 87.692Z" fill="#3F4B53"/>
<path d="M178.303 85.8982C178.37 85.8982 178.438 85.8882 178.505 85.8678C179.105 85.6883 179.443 84.7647 179.892 83.3773C180.017 82.9898 180.135 82.6248 180.241 82.3794C180.311 82.2129 180.385 82.0208 180.462 81.8103C180.876 80.7092 181.442 79.2006 183.031 78.4069C183.232 78.3066 183.313 78.0627 183.213 77.8614C183.112 77.6609 182.868 77.5816 182.668 77.6796C180.794 78.6161 180.137 80.3665 179.701 81.5245C179.628 81.7222 179.561 81.9033 179.493 82.0591C179.373 82.3391 179.248 82.7222 179.118 83.1269C178.936 83.6912 178.567 84.8342 178.304 85.0642C178.241 85.0195 178.18 84.9884 178.109 84.9538C177.788 84.7928 177.189 84.4942 176.935 83.1861C176.893 82.9652 176.676 82.8233 176.459 82.8643C176.239 82.9069 176.095 83.1205 176.138 83.3405C176.467 85.0418 177.365 85.4899 177.747 85.6811C177.782 85.6991 177.812 85.7129 177.834 85.7264C177.975 85.8391 178.136 85.8982 178.303 85.8982Z" fill="#3F4B53"/>
<path d="M173.341 148.16C173.566 148.16 173.747 147.979 173.747 147.754C173.747 143.918 174.071 140.424 174.411 136.726C174.587 134.832 174.768 132.875 174.903 130.862C175.018 129.113 175.076 127.358 175.13 125.659C175.284 120.81 175.429 116.227 176.865 111.558C177.681 108.91 178.843 106.3 179.967 103.776C180.868 101.753 181.8 99.6595 182.555 97.544C183.116 95.9726 183.323 94.2886 183.522 92.6595C183.609 91.9466 183.696 91.2368 183.812 90.5418C184.493 86.4517 185.22 81.6905 185.22 76.9387C185.22 76.7143 185.038 76.5325 184.814 76.5325C184.59 76.5325 184.408 76.7143 184.408 76.9387C184.408 81.6285 183.686 86.35 183.01 90.4076C182.892 91.1148 182.804 91.8364 182.715 92.5607C182.521 94.1457 182.32 95.7842 181.79 97.2713C181.045 99.3571 180.118 101.436 179.224 103.446C178.091 105.991 176.918 108.624 176.09 111.319C174.621 116.092 174.466 120.943 174.316 125.634C174.263 127.324 174.208 129.073 174.092 130.808C173.958 132.81 173.778 134.763 173.604 136.649C173.259 140.369 172.935 143.88 172.935 147.754C172.935 147.979 173.117 148.16 173.341 148.16Z" fill="#3F4B53"/>
<path d="M177.185 147.085C177.404 147.085 177.584 146.914 177.591 146.695C177.729 143.266 179.282 140.78 180.415 138.965C181.06 137.932 181.569 137.117 181.693 136.375C181.884 135.225 181.99 134.059 182.093 132.93C182.222 131.508 182.356 130.039 182.661 128.614C183.131 126.422 184.042 124.295 184.922 122.238C185.679 120.469 186.462 118.639 186.977 116.751C187.474 114.931 187.632 113.022 187.784 111.176C187.913 109.614 188.047 107.998 188.387 106.468C188.943 103.967 189.747 101.473 190.526 99.0611C191.556 95.8678 192.621 92.5654 193.145 89.1562C193.272 88.3272 193.396 87.4888 193.52 86.6462C193.956 83.6817 194.406 80.6166 195.084 77.735C195.614 75.4809 196.251 73.2422 196.865 71.0777C197.763 67.9169 198.692 64.6493 199.302 61.2919C199.643 59.4182 199.789 57.5091 199.93 55.6628C200.208 52.0422 200.469 48.6224 202.075 45.4117C202.175 45.2112 202.094 44.9665 201.893 44.8662C201.694 44.7674 201.449 44.8475 201.347 45.0482C199.671 48.4016 199.391 52.0618 199.12 55.6008C198.98 57.4261 198.836 59.3143 198.503 61.1462C197.899 64.4651 196.976 67.7133 196.083 70.8555C195.466 73.0294 194.828 75.2768 194.293 77.5488C193.607 80.4638 193.154 83.5467 192.716 86.5279C192.592 87.3685 192.469 88.2054 192.342 89.0322C191.828 92.3771 190.772 95.6484 189.752 98.8114C188.968 101.241 188.158 103.754 187.593 106.292C187.241 107.876 187.106 109.52 186.974 111.109C186.825 112.919 186.67 114.79 186.194 116.537C185.693 118.371 184.921 120.174 184.174 121.919C183.279 124.011 182.352 126.175 181.866 128.444C181.551 129.917 181.415 131.411 181.283 132.856C181.182 133.971 181.077 135.121 180.891 136.241C180.795 136.823 180.299 137.617 179.726 138.534C178.544 140.427 176.926 143.019 176.779 146.662C176.77 146.886 176.946 147.075 177.169 147.085H177.185Z" fill="#3F4B53"/>
<path d="M206.503 91.265C206.686 91.265 206.851 91.1417 206.897 90.9577C207.176 89.8437 207.145 88.6907 207.117 87.576C207.094 86.7427 207.074 85.9555 207.171 85.1806C207.254 84.5087 207.331 83.8394 207.407 83.1706C207.565 81.7794 207.728 80.3416 207.962 78.9389C208.37 76.4894 209.343 73.9591 210.283 71.5117C210.476 71.0103 210.667 70.5146 210.85 70.0261C211.065 69.4504 211.381 68.9049 211.714 68.3278C212.085 67.6871 212.468 67.0241 212.705 66.3106C212.777 66.0977 212.661 65.8674 212.449 65.7968C212.236 65.7232 212.005 65.8409 211.935 66.0536C211.723 66.6892 211.377 67.2874 211.01 67.9215C210.675 68.5016 210.328 69.1019 210.089 69.7404C209.907 70.2275 209.717 70.7211 209.525 71.2203C208.57 73.7051 207.582 76.2745 207.16 78.8054C206.923 80.229 206.759 81.6778 206.599 83.079C206.524 83.7442 206.448 84.4114 206.364 85.0796C206.26 85.9158 206.283 86.7707 206.304 87.5977C206.333 88.7066 206.36 89.7543 206.109 90.7599C206.054 90.9778 206.187 91.1986 206.405 91.2527C206.438 91.2615 206.471 91.265 206.503 91.265Z" fill="#3F4B53"/>
<path d="M188.755 120.701C188.92 120.701 189.076 120.598 189.136 120.435C189.188 120.295 194.4 106.308 202.012 97.9167C202.163 97.7508 202.151 97.4939 201.984 97.3431C201.82 97.1924 201.561 97.2045 201.41 97.3714C193.69 105.88 188.426 120.012 188.374 120.154C188.296 120.364 188.404 120.598 188.615 120.674C188.661 120.692 188.708 120.701 188.755 120.701Z" fill="#3F4B53"/>
<path d="M167.202 117.047C167.426 117.047 167.608 116.866 167.608 116.641C167.608 113.985 167.288 110.61 166.979 107.348C166.799 105.436 166.627 103.629 166.532 102.085C166.485 101.295 166.394 100.673 166.312 100.123C166.023 98.136 165.877 97.1387 168.556 92.2729C170.629 88.5082 172.029 84.9077 173.384 81.4259C174.329 78.9944 175.224 76.698 176.317 74.3885C179.103 68.5104 180.469 66.2694 183.07 64.5825C183.259 64.4598 183.313 64.2088 183.191 64.0204C183.068 63.8314 182.816 63.7781 182.629 63.8999C179.699 65.7997 178.233 68.449 175.583 74.0408C174.476 76.3761 173.579 78.6857 172.626 81.1315C171.282 84.5883 169.89 88.1634 167.844 91.8805C165.034 96.9865 165.202 98.1424 165.509 100.24C165.586 100.774 165.676 101.379 165.721 102.134C165.816 103.693 165.988 105.505 166.171 107.425C166.478 110.669 166.796 114.023 166.796 116.641C166.796 116.866 166.977 117.047 167.202 117.047Z" fill="#3F4B53"/>
<path d="M161.006 150.572C161.23 150.572 161.412 150.391 161.412 150.166C161.412 149.054 161.465 147.501 161.526 145.702C161.68 141.225 161.89 135.095 161.409 130.924C161.343 130.354 161.241 129.624 161.123 128.797C160.682 125.655 160.012 120.907 160.557 118.727C162.04 112.8 163.409 108.623 164.743 105.955C164.844 105.755 164.762 105.51 164.561 105.41C164.362 105.311 164.117 105.39 164.016 105.592C162.655 108.314 161.267 112.545 159.77 118.529C159.185 120.864 159.841 125.515 160.32 128.91C160.434 129.729 160.537 130.452 160.603 131.016C161.075 135.127 160.867 141.224 160.714 145.675C160.653 147.481 160.6 149.041 160.6 150.166C160.6 150.391 160.782 150.572 161.006 150.572Z" fill="#3F4B53"/>
<path d="M108.712 138.276C108.882 138.276 109.041 138.169 109.098 137.999C109.538 136.682 117.276 133.571 122.396 131.512C125.105 130.422 127.444 129.481 128.739 128.835C130.135 128.137 140.835 123.28 140.943 123.232C141.047 123.183 141.128 123.094 141.162 122.986C141.169 122.965 141.834 120.911 142.619 120.125C143.221 119.524 143.756 119.54 144.369 119.555C145.14 119.579 146.007 119.598 146.76 118.34C149.277 114.147 150.838 110.931 152.492 107.527C153.7 105.042 154.948 102.473 156.65 99.3541C157.449 97.8887 158.242 96.3735 159.042 94.8433C161.461 90.2205 163.962 85.4415 166.952 81.4543C168.561 79.3094 170.805 77.5316 172.976 75.8129C174.436 74.6557 175.948 73.4587 177.241 72.1665C177.399 72.0077 177.399 71.7509 177.241 71.5921C177.082 71.4333 176.824 71.4333 176.666 71.5921C175.407 72.8512 173.914 74.0329 172.472 75.1758C170.26 76.9269 167.974 78.7378 166.302 80.9666C163.271 85.0063 160.754 89.8159 158.322 94.4666C157.523 95.9925 156.733 97.5035 155.936 98.9645C154.225 102.101 152.973 104.679 151.762 107.171C150.116 110.56 148.562 113.76 146.064 117.922C145.552 118.772 145.09 118.761 144.391 118.742C143.727 118.727 142.894 118.702 142.046 119.552C141.261 120.336 140.635 122.016 140.446 122.565C139.046 123.2 129.706 127.442 128.375 128.108C127.11 128.739 124.785 129.675 122.094 130.758C114.359 133.867 108.846 136.188 108.327 137.742C108.255 137.955 108.371 138.185 108.583 138.255C108.627 138.27 108.67 138.276 108.712 138.276Z" fill="#3F4B53"/>
<path d="M124.366 149.337C124.381 149.337 124.394 149.335 124.408 149.334C128.355 148.921 138.285 146.355 141.785 144.995C146.27 143.249 154.563 139.257 156.097 138.103C157.624 136.955 160.986 133.638 161.128 133.497C161.288 133.34 161.289 133.082 161.132 132.922C160.973 132.763 160.716 132.763 160.558 132.919C160.523 132.953 157.092 136.338 155.609 137.454C154.112 138.578 145.932 142.508 141.49 144.237C137.724 145.701 127.937 148.146 124.323 148.526C124.101 148.55 123.938 148.749 123.963 148.973C123.983 149.181 124.161 149.337 124.366 149.337Z" fill="#3F4B53"/>
<path d="M129.98 166.671C130.97 166.671 131.964 166.646 132.961 166.595C133.185 166.584 133.358 166.392 133.346 166.168C133.334 165.945 133.169 165.749 132.92 165.784C128.799 165.992 124.714 165.762 120.789 165.098C120.142 164.988 119.482 164.86 118.815 164.731C116.6 164.305 114.31 163.861 112.103 163.976C111.04 164.031 109.967 164.256 108.927 164.475C108.466 164.572 108.007 164.668 107.554 164.749C105.723 165.073 103.698 165.184 101.357 165.092C100.532 165.06 99.6316 164.959 99.1625 164.478C99.2358 164.397 99.3883 164.289 99.4953 164.246C100.004 164.047 100.505 163.818 101.008 163.588C101.652 163.293 102.316 162.988 102.986 162.76C104.38 162.285 105.903 161.722 107.78 160.989C108.287 160.789 108.779 160.553 109.254 160.323C110.179 159.878 111.053 159.455 112.029 159.297C112.682 159.191 113.441 159.108 114.117 159.296C114.337 159.354 114.557 159.228 114.617 159.013C114.677 158.796 114.549 158.571 114.334 158.511C113.506 158.283 112.639 158.373 111.899 158.495C110.807 158.673 109.838 159.14 108.901 159.592C108.439 159.815 107.963 160.045 107.485 160.232C105.619 160.959 104.106 161.519 102.723 161.992C102.014 162.233 101.331 162.546 100.671 162.849C100.181 163.072 99.6947 163.296 99.1992 163.488C98.9998 163.567 98.4559 163.869 98.3386 164.325C98.2844 164.542 98.3342 164.758 98.4794 164.932C99.1303 165.715 100.284 165.863 101.325 165.904C103.726 166.001 105.806 165.884 107.694 165.549C108.158 165.467 108.625 165.369 109.096 165.271C110.103 165.058 111.145 164.838 112.145 164.787C114.261 164.683 116.495 165.113 118.661 165.529C119.334 165.659 120 165.788 120.654 165.898C123.687 166.413 126.814 166.671 129.98 166.671Z" fill="#3F4B53"/>
<path d="M97.2099 165.187C97.767 165.187 98.3138 165.116 98.7565 164.943C98.9647 164.861 99.0687 164.625 98.9867 164.417C98.9046 164.209 98.6685 164.103 98.4604 164.187C97.6981 164.484 96.4183 164.398 95.5504 164.154C95.3276 164.093 94.8951 163.875 94.9728 163.595C95.0916 163.168 95.5123 162.964 96.0005 162.728C96.1529 162.655 96.3039 162.58 96.4447 162.501C97.0325 162.168 97.6277 161.847 98.2229 161.526C98.8342 161.196 99.444 160.866 100.048 160.525C100.787 160.108 101.532 159.707 102.276 159.304C103.037 158.893 103.797 158.484 104.551 158.056C105.141 157.723 105.806 157.5 106.513 157.267C107.05 157.087 107.602 156.904 108.121 156.665C108.485 156.498 108.889 156.259 109.317 156.004C110.854 155.096 112.765 153.962 114.687 154.89C114.891 154.986 115.133 154.903 115.23 154.7C115.328 154.498 115.243 154.255 115.041 154.158C112.724 153.039 110.517 154.35 108.903 155.304C108.493 155.548 108.106 155.776 107.782 155.926C107.305 156.146 106.794 156.316 106.256 156.495C105.545 156.732 104.809 156.977 104.151 157.349C103.402 157.773 102.646 158.182 101.889 158.59C101.142 158.993 100.391 159.397 99.6478 159.818C99.0482 160.157 98.4428 160.484 97.8373 160.811C97.2377 161.135 96.6367 161.459 96.0444 161.793C95.9184 161.865 95.7835 161.929 95.6457 161.997C95.0945 162.263 94.407 162.596 94.19 163.378C93.9789 164.134 94.6049 164.735 95.332 164.939C95.8612 165.085 96.5429 165.187 97.2099 165.187Z" fill="#3F4B53"/>
<path d="M95.9753 162.669C95.9987 162.669 96.0222 162.667 96.0456 162.663C96.267 162.623 96.4136 162.414 96.3755 162.192C96.1556 160.932 97.5585 159.897 98.5818 159.14L98.6551 159.086C99.2972 158.612 99.9657 158.259 100.672 157.885C100.963 157.733 101.253 157.579 101.546 157.415C103.51 156.314 105.542 154.767 107.095 153.542C107.281 153.395 107.477 153.218 107.69 153.027C108.769 152.056 110.115 150.847 112.356 151.731C112.561 151.813 112.802 151.711 112.884 151.501C112.966 151.293 112.863 151.057 112.654 150.975C109.945 149.906 108.259 151.422 107.145 152.423C106.95 152.6 106.765 152.766 106.59 152.904C105.063 154.11 103.063 155.632 101.149 156.707C100.863 156.866 100.577 157.017 100.293 157.167C99.5904 157.538 98.8632 157.922 98.1713 158.432L98.0995 158.486C96.9721 159.319 95.2687 160.577 95.5751 162.333C95.6103 162.529 95.7818 162.669 95.9753 162.669Z" fill="#3F4B53"/>
<path d="M102.365 156.545C102.553 156.545 102.722 156.415 102.763 156.223C102.959 155.295 103.661 154.181 104.227 153.285L104.547 152.773C105.284 151.574 107.274 149.404 108.716 148.733C109.407 148.412 112.885 149.652 114.754 150.319C115.455 150.57 116.083 150.794 116.552 150.944C120.712 152.263 124.958 153.141 129.171 153.552C130.313 153.663 133.679 153.918 133.679 153.918L133.74 153.108C133.739 153.108 130.388 152.852 129.25 152.743C125.094 152.338 120.904 151.472 116.798 150.168C116.336 150.022 115.719 149.802 115.027 149.554C111.821 148.409 109.297 147.569 108.372 147.996C106.772 148.742 104.663 151.033 103.855 152.348L103.54 152.851C102.94 153.802 102.192 154.984 101.967 156.056C101.921 156.276 102.061 156.491 102.28 156.536C102.31 156.542 102.338 156.545 102.365 156.545Z" fill="#3F4B53"/>
<path d="M142.747 167.256C142.958 167.256 143.137 167.092 143.151 166.877C143.166 166.652 142.996 166.459 142.773 166.444C142.609 166.432 138.725 166.167 137.386 166.19C137.258 166.192 137.022 166.214 136.724 166.242C135.093 166.396 134.163 166.387 133.964 166.215C133.876 166.012 133.914 165.866 134.09 165.287C134.332 164.499 134.735 163.178 134.945 160.36C135.21 156.805 134.779 154.463 134.572 153.337C134.553 153.234 134.534 153.132 134.518 153.039C135.336 153.026 137.309 153.061 137.513 153.076C139.472 153.244 142.66 153.003 142.796 152.992C143.019 152.975 143.186 152.78 143.17 152.555C143.153 152.333 142.958 152.168 142.733 152.182C142.703 152.185 139.473 152.424 137.579 152.267C137.542 152.264 134.114 152.082 133.812 152.374C133.606 152.577 133.647 152.806 133.773 153.483C133.974 154.576 134.392 156.849 134.134 160.3C133.932 163.027 133.545 164.294 133.313 165.05C133.12 165.682 133.004 166.063 133.249 166.591C133.551 167.234 134.682 167.25 136.802 167.05C137.069 167.025 137.28 167.004 137.394 167.003C138.717 166.992 142.678 167.252 142.717 167.255C142.728 167.256 142.736 167.256 142.747 167.256Z" fill="#3F4B53"/>
<path d="M118.794 148.312C119.018 148.312 119.2 148.13 119.2 147.906C119.2 146.66 118.549 145.521 117.974 144.515L117.923 144.427C116.4 141.759 112.357 137.812 108.519 137.812C108.294 137.812 108.113 137.994 108.113 138.219C108.113 138.443 108.294 138.625 108.519 138.625C111.882 138.625 115.731 142.228 117.218 144.829L117.269 144.918C117.792 145.836 118.388 146.877 118.388 147.906C118.388 148.13 118.569 148.312 118.794 148.312Z" fill="#3F4B53"/>
<path d="M82.772 158.711C84.2262 158.711 85.6936 157.924 86.9045 157.274L87.0072 157.22C87.7827 156.803 88.5552 156.321 89.3029 155.856C90.3686 155.192 91.4696 154.505 92.5808 154.008C93.3079 153.685 93.9617 153.317 94.5936 152.963C95.9921 152.175 97.3144 151.432 99.1176 151.381C99.4313 151.372 99.7523 151.343 100.076 151.315C101.365 151.201 102.481 151.101 103.202 152.12C103.274 152.221 103.312 152.351 103.356 152.502C103.394 152.631 103.433 152.76 103.489 152.886C103.58 153.09 103.82 153.184 104.026 153.09C104.231 152.999 104.322 152.759 104.231 152.554C104.19 152.463 104.163 152.367 104.136 152.274C104.08 152.08 104.015 151.862 103.864 151.651C102.875 150.251 101.352 150.384 100.004 150.506C99.6966 150.532 99.3917 150.56 99.0941 150.569C97.0901 150.626 95.6843 151.418 94.1948 152.253C93.5791 152.601 92.9414 152.958 92.2509 153.266C91.087 153.785 89.9611 154.487 88.8719 155.166C88.136 155.625 87.3751 156.1 86.6245 156.503L86.5205 156.559C85.2451 157.242 83.6574 158.089 82.2808 157.859C82.1841 157.841 82.08 157.833 81.9715 157.825C81.7824 157.812 81.605 157.799 81.5171 157.724C81.3016 157.539 81.5024 157.195 81.6417 157.006C82.2002 156.242 82.8702 155.651 83.955 154.964C86.994 153.042 89.7822 150.491 92.4796 148.022L92.7787 147.748C93.5571 147.037 95.523 145.47 97.0344 146.273C97.2294 146.379 97.4771 146.304 97.5842 146.106C97.6882 145.908 97.615 145.662 97.4156 145.557C95.5259 144.544 93.3548 146.119 92.2304 147.149L91.9299 147.423C89.2589 149.868 86.497 152.394 83.5196 154.278C82.7016 154.797 81.759 155.469 80.9864 156.525C80.4821 157.211 80.4836 157.907 80.9879 158.341C81.2796 158.589 81.63 158.615 81.9114 158.636C81.9921 158.642 82.0712 158.648 82.1445 158.659C82.3512 158.695 82.5609 158.711 82.772 158.711Z" fill="#3F4B53"/>
<path d="M79.1646 158.393C79.9299 158.393 80.7259 158.14 81.1569 157.832C81.3401 157.703 81.3826 157.449 81.2536 157.266C81.1246 157.083 80.8696 157.039 80.6863 157.171C80.1703 157.537 78.996 157.734 78.414 157.432C78.1648 157.303 78.0505 157.099 78.052 156.788C78.0959 156.624 78.6442 156.169 78.8509 155.999C78.9975 155.879 79.1236 155.774 79.1983 155.699C80.0383 154.847 80.9047 154.085 81.8224 153.277L82.5408 152.641C84.3322 151.047 85.9682 149.367 87.27 147.783C87.5207 147.478 87.7743 147.151 88.0352 146.814C89.0614 145.488 90.2254 143.984 91.6723 143.339C92.439 142.998 93.4476 142.958 94.4225 142.92C94.9751 142.898 95.5469 142.874 96.0629 142.797C96.2843 142.762 96.4353 142.555 96.4015 142.332C96.3678 142.111 96.1582 141.961 95.9383 141.992C95.4677 142.065 94.9458 142.086 94.3917 142.108C93.3391 142.149 92.2514 142.191 91.341 142.597C89.7079 143.324 88.478 144.914 87.3931 146.317C87.1366 146.646 86.8874 146.967 86.6426 147.267C85.3672 148.819 83.7619 150.467 82.0013 152.034L81.2844 152.667C80.3975 153.449 79.4798 154.256 78.6193 155.127C78.5592 155.189 78.4551 155.274 78.3349 155.372C77.7148 155.884 77.2413 156.312 77.2383 156.785C77.2369 157.398 77.5213 157.883 78.0402 158.153C78.3686 158.324 78.7615 158.393 79.1646 158.393Z" fill="#3F4B53"/>
<path d="M79.7587 154.846C79.9537 154.846 80.1252 154.707 80.1589 154.509C80.1971 154.287 80.0475 154.078 79.8276 154.04C79.6063 154.003 79.3277 154.009 79.0389 154.013C78.048 154.028 77.5598 153.969 77.4967 153.55C77.4498 153.252 77.7826 152.682 79.6283 151.663C80.1545 151.372 80.6251 151.171 81.1236 150.958C81.4959 150.8 81.8683 150.642 82.2392 150.458C83.689 149.738 85.4584 148.399 87.0212 147.217C87.6501 146.741 88.2453 146.291 88.7701 145.92C88.9519 145.789 88.9958 145.536 88.8668 145.352C88.7363 145.169 88.4827 145.127 88.2995 145.256C87.7703 145.631 87.1678 146.087 86.5301 146.569C84.9967 147.73 83.2595 149.044 81.8785 149.728C81.5208 149.906 81.1631 150.058 80.8054 150.211C80.3099 150.422 79.7983 150.64 79.2911 150.92C78.3485 151.44 76.5057 152.461 76.6919 153.673C76.8781 154.871 78.2459 154.842 79.0551 154.827C79.3072 154.821 79.5462 154.817 79.6898 154.84C79.7133 154.844 79.7367 154.846 79.7587 154.846Z" fill="#3F4B53"/>
<path d="M97.704 142.553C97.7216 142.553 97.7391 142.551 97.7582 142.549C97.8682 142.535 100.464 142.188 101.518 141.934L102.125 141.789C104.661 141.187 107.818 140.435 109.992 138.895C110.174 138.766 110.218 138.511 110.089 138.328C109.958 138.143 109.704 138.102 109.521 138.231C107.476 139.681 104.534 140.382 101.938 140.999L101.329 141.144C100.315 141.389 97.6776 141.741 97.6512 141.744C97.4283 141.773 97.273 141.978 97.3023 142.2C97.3287 142.405 97.5031 142.553 97.704 142.553Z" fill="#3F4B53"/>
<path d="M115.251 149.948C115.468 149.948 115.649 149.778 115.658 149.558C115.745 147.386 114.765 145.63 114.34 144.976C112.918 142.79 110.189 140.584 107.85 139.729C107.642 139.651 107.406 139.76 107.329 139.971C107.252 140.182 107.36 140.415 107.571 140.493C109.761 141.293 112.322 143.366 113.658 145.418C114.042 146.008 114.923 147.587 114.845 149.526C114.837 149.75 115.011 149.94 115.235 149.948H115.251Z" fill="#3F4B53"/>
<path d="M251.227 200C251.373 200 251.514 199.921 251.587 199.782C251.691 199.584 251.614 199.337 251.416 199.233L189.847 166.865C189.649 166.763 189.403 166.837 189.298 167.036C189.194 167.234 189.271 167.48 189.469 167.586L251.038 199.953C251.099 199.984 251.163 200 251.227 200Z" fill="#3F4B53"/>
<path d="M121.937 131.105C122.084 131.105 122.225 131.026 122.298 130.889C122.402 130.689 122.324 130.444 122.126 130.339L108.695 123.295C108.497 123.191 108.252 123.265 108.147 123.466C108.043 123.664 108.119 123.91 108.317 124.015L121.748 131.06C121.808 131.091 121.873 131.105 121.937 131.105Z" fill="#3F4B53"/>
<path d="M158.092 151.073C158.237 151.073 158.38 150.996 158.453 150.856C158.556 150.657 158.479 150.412 158.281 150.308L144.85 143.263C144.652 143.159 144.407 143.235 144.302 143.434C144.198 143.633 144.274 143.878 144.472 143.982L157.903 151.028C157.963 151.06 158.028 151.073 158.092 151.073Z" fill="#3F4B53"/>
<path d="M133.333 177.682C133.47 177.682 133.602 177.614 133.679 177.49C133.798 177.299 133.738 177.048 133.547 176.93L112.981 164.179C112.789 164.06 112.54 164.12 112.421 164.311C112.302 164.501 112.362 164.752 112.553 164.869L133.119 177.622C133.187 177.663 133.26 177.682 133.333 177.682Z" fill="#3F4B53"/>
<path d="M101.109 157.56C101.245 157.56 101.377 157.492 101.455 157.369C101.574 157.18 101.515 156.928 101.326 156.809L94.4067 152.487C94.2176 152.369 93.9654 152.429 93.8467 152.618C93.7279 152.807 93.7866 153.059 93.9771 153.178L100.895 157.498C100.961 157.541 101.037 157.56 101.109 157.56Z" fill="#3F4B53"/>
<path d="M93.2493 178.093C93.3783 178.093 93.5059 178.033 93.585 177.917C93.7111 177.732 93.6642 177.48 93.4795 177.353L56.9679 152.302C56.7803 152.173 56.5296 152.223 56.4021 152.406C56.276 152.592 56.3229 152.844 56.5076 152.972L93.0192 178.023C93.0895 178.071 93.1702 178.093 93.2493 178.093Z" fill="#3F4B53"/>
<path d="M93.162 178.081H93.165L133.337 177.8C133.561 177.798 133.742 177.615 133.74 177.391C133.739 177.168 133.557 176.988 133.334 176.988H133.331L93.1591 177.269C92.9348 177.271 92.7545 177.454 92.756 177.678C92.7574 177.903 92.9392 178.081 93.162 178.081Z" fill="#3F4B53"/>
<path d="M56.2542 148.877H56.2572L85.7863 148.597C86.0106 148.595 86.1909 148.412 86.1894 148.188C86.1865 147.963 86.0062 147.784 85.7834 147.784H85.779L56.2498 148.064C56.0256 148.066 55.8452 148.249 55.8482 148.473C55.8496 148.698 56.0314 148.877 56.2542 148.877Z" fill="#3F4B53"/>
<path d="M94.4806 180.381H94.485L133.732 179.938C133.956 179.935 134.137 179.752 134.134 179.528C134.132 179.304 133.97 179.104 133.723 179.126L94.4777 179.569C94.2519 179.57 94.0716 179.755 94.0745 179.979C94.0775 180.202 94.2592 180.381 94.4806 180.381Z" fill="#3F4B53"/>
<path d="M92.4621 180.068C92.5911 180.068 92.7172 180.007 92.7963 179.892C92.9239 179.709 92.8784 179.456 92.6937 179.328L57.179 154.685C56.9958 154.557 56.7422 154.601 56.6132 154.788C56.4856 154.971 56.5311 155.224 56.7158 155.352L92.2305 179.995C92.3023 180.045 92.3829 180.068 92.4621 180.068Z" fill="#3F4B53"/>
<path d="M57.0937 158.821C57.1113 158.821 57.1274 158.82 57.145 158.818C57.3678 158.789 57.5261 158.587 57.4983 158.364L43.0848 43.7313C43.0555 43.5077 42.8503 43.3495 42.6304 43.3786C42.4076 43.4067 42.2492 43.6102 42.2771 43.8323L56.6905 158.465C56.7169 158.67 56.8928 158.821 57.0937 158.821Z" fill="#3F4B53"/>
<path d="M40.9844 42.8532C41.1398 42.8532 41.2878 42.7638 41.3553 42.6129C41.4476 42.4081 41.3553 42.1678 41.15 42.0762L11.1665 28.6743C10.9612 28.5813 10.7208 28.6743 10.6299 28.8792C10.5376 29.0842 10.6299 29.3245 10.8352 29.4161L40.8187 42.818C40.873 42.8425 40.9287 42.8532 40.9844 42.8532Z" fill="#3F4B53"/>
<path d="M55.1324 159.286C55.2599 159.286 55.386 159.224 55.4651 159.111C55.5941 158.928 55.5487 158.674 55.364 158.545L22.7329 135.773C22.5511 135.647 22.2975 135.688 22.167 135.874C22.0394 136.057 22.0849 136.311 22.2681 136.44L54.8993 159.212C54.9711 159.261 55.0517 159.286 55.1324 159.286Z" fill="#3F4B53"/>
<path d="M14.2596 100.293C14.2786 100.293 14.2991 100.292 14.3197 100.289C14.541 100.257 14.695 100.05 14.6627 99.8282C13.9209 94.7631 13.292 89.8492 12.7951 85.2234C10.0068 59.3131 10.3117 31.1485 10.3161 30.867C10.319 30.6426 10.1387 30.4587 9.9144 30.4558H9.90999C9.68716 30.4558 9.50685 30.6339 9.50391 30.8569C9.49952 31.1391 9.19462 59.3519 11.9873 85.3101C12.4857 89.9465 13.1146 94.8706 13.8579 99.9464C13.8887 100.148 14.0617 100.293 14.2596 100.293Z" fill="#3F4B53"/>
<path d="M55.1308 159.246C55.1484 159.246 55.1645 159.246 55.1821 159.243C55.4049 159.214 55.5632 159.011 55.5354 158.788L41.0017 44.688C40.9724 44.465 40.7642 44.3085 40.5473 44.336C40.3245 44.3648 40.1661 44.5684 40.1955 44.7905L54.7277 158.891C54.7555 159.096 54.93 159.246 55.1308 159.246Z" fill="#3F4B53"/>
<path d="M40.5908 45.1465C40.7447 45.1465 40.8928 45.0585 40.9602 44.9084C41.0526 44.7042 40.9631 44.4633 40.7594 44.3703L10.2906 30.4922C10.0868 30.3998 9.84635 30.4892 9.75253 30.6942C9.66018 30.8984 9.74962 31.1394 9.95485 31.2323L40.4222 45.1104C40.4764 45.1351 40.5351 45.1465 40.5908 45.1465Z" fill="#3F4B53"/>
<path d="M62.9907 177.553C63.1124 177.553 63.2326 177.5 63.3133 177.396C63.4496 177.219 63.4173 176.964 63.2385 176.826L46.1101 163.588C45.9341 163.452 45.6776 163.483 45.5398 163.661C45.4035 163.839 45.4357 164.094 45.6146 164.232L62.743 177.469C62.8163 177.527 62.9028 177.553 62.9907 177.553Z" fill="#3F4B53"/>
<path d="M13.2652 164.17H13.2681L42.5597 163.9C42.784 163.897 42.9643 163.714 42.9614 163.49C42.9599 163.265 42.7972 163.078 42.5524 163.086L13.2608 163.356C13.0365 163.359 12.8562 163.542 12.8591 163.767C12.8606 163.989 13.0423 164.17 13.2652 164.17Z" fill="#3F4B53"/>
<path d="M19.6205 177.833H19.622L62.9929 177.652C63.2172 177.651 63.3989 177.469 63.3975 177.245C63.3975 177.021 63.2157 176.84 62.9914 176.84H62.9899L19.6191 177.021C19.3948 177.021 19.213 177.204 19.2145 177.428C19.2145 177.652 19.3963 177.833 19.6205 177.833Z" fill="#3F4B53"/>
<path d="M19.8303 180.062H19.8333L63.3859 179.692C63.6102 179.691 63.7905 179.506 63.7891 179.282C63.7876 179.058 63.5823 178.904 63.3786 178.879L19.8259 179.25C19.6017 179.251 19.4213 179.434 19.4243 179.659C19.4257 179.883 19.6075 180.062 19.8303 180.062Z" fill="#3F4B53"/>
<path d="M11.4313 170.573C11.6174 170.573 11.7846 170.444 11.8271 170.255L27.233 100.999C27.2814 100.78 27.1436 100.563 26.9237 100.514C26.7067 100.466 26.4883 100.603 26.4385 100.823L11.034 170.079C10.9856 170.297 11.1234 170.514 11.3433 170.562C11.3726 170.57 11.4019 170.573 11.4313 170.573Z" fill="#3F4B53"/>
<path d="M1.16873 162.086C1.35637 162.086 1.52349 161.956 1.56453 161.765L16.2287 94.07C16.2771 93.8507 16.1378 93.6342 15.9179 93.5873C15.7009 93.5398 15.4825 93.6789 15.4356 93.8982L0.771453 161.594C0.723076 161.813 0.863791 162.03 1.08222 162.076C1.11154 162.083 1.13941 162.086 1.16873 162.086Z" fill="#3F4B53"/>
<path d="M19.3727 180.133C19.4856 180.133 19.5999 180.085 19.6791 179.992C19.8257 179.822 19.8081 179.566 19.638 179.419L0.671244 163.013C0.502655 162.867 0.244658 162.884 0.0980606 163.056C-0.0470715 163.224 -0.0294743 163.481 0.140579 163.628L19.1073 180.033C19.1836 180.101 19.2774 180.133 19.3727 180.133Z" fill="#3F4B53"/>
<path d="M18.5844 176.333C18.7002 176.333 18.8175 176.282 18.8981 176.183C19.0403 176.01 19.0154 175.754 18.8409 175.612L11.8966 169.907C11.7251 169.767 11.4671 169.79 11.3249 169.965C11.1812 170.138 11.2076 170.394 11.3805 170.536L18.3264 176.24C18.4011 176.302 18.4935 176.333 18.5844 176.333Z" fill="#3F4B53"/>
<path d="M9.53033 169.527C9.71504 169.527 9.88215 169.399 9.92613 169.21L10.2662 167.729L25.2676 102.082C25.3174 101.863 25.1811 101.645 24.9627 101.595C24.7472 101.546 24.5258 101.682 24.4759 101.901L9.13448 169.028C9.08464 169.247 9.22099 169.465 9.43942 169.516C9.46874 169.522 9.50101 169.527 9.53033 169.527Z" fill="#3F4B53"/>
<path d="M27.2273 101.223C27.3651 101.223 27.5 101.153 27.5762 101.026C27.692 100.833 27.629 100.584 27.437 100.468L16.2428 93.7584C16.0478 93.643 15.8001 93.7064 15.6842 93.8976C15.5699 94.0904 15.6315 94.3399 15.8235 94.4554L27.0192 101.165C27.0851 101.204 27.157 101.223 27.2273 101.223Z" fill="#3F4B53"/>
<path d="M134.86 192.821C136.893 192.821 138.923 192.606 140.901 192.395C143.09 192.16 145.353 191.917 147.577 191.979C148.637 192.008 149.695 192.059 150.754 192.11C152.325 192.187 153.952 192.266 155.565 192.266C155.75 192.266 155.949 192.272 156.157 192.278C157.116 192.3 158.199 192.33 159.042 191.94C159.306 191.82 159.497 191.599 159.596 191.303C159.802 190.687 159.569 189.878 159.374 189.513C158.559 187.984 155.854 186.76 154.567 186.503C154.351 186.456 154.133 186.601 154.089 186.821C154.045 187.043 154.189 187.255 154.408 187.299C155.684 187.554 158.029 188.72 158.657 189.895C158.799 190.162 158.932 190.727 158.825 191.045C158.79 191.152 158.74 191.185 158.702 191.203C158.031 191.512 157.047 191.487 156.178 191.465C155.964 191.46 155.757 191.454 155.565 191.454C153.972 191.454 152.356 191.376 150.792 191.298C149.729 191.247 148.665 191.196 147.599 191.166C145.322 191.106 143.03 191.35 140.814 191.586C138.33 191.851 135.76 192.125 133.241 191.958C132.687 191.92 131.425 191.484 131.023 190.886C130.91 190.721 130.885 190.573 130.94 190.407C131.36 189.148 132.58 188.059 134.568 187.166L134.707 187.103C137.556 185.824 137.922 185.66 142.651 185.27C147.372 184.885 150.922 186.116 150.958 186.128C151.169 186.203 151.4 186.093 151.475 185.882C151.551 185.67 151.441 185.437 151.23 185.361C151.079 185.308 147.492 184.056 142.585 184.461C137.715 184.861 137.271 185.062 134.374 186.362L134.234 186.424C132.001 187.427 130.671 188.646 130.17 190.15C130.035 190.554 130.097 190.966 130.347 191.339C130.954 192.245 132.521 192.723 133.187 192.769C133.744 192.805 134.303 192.821 134.86 192.821Z" fill="#3F4B53"/>
<path d="M135.406 194.798C135.461 194.798 135.516 194.797 135.568 194.797C135.85 194.792 136.681 194.731 137.83 194.646C140.789 194.427 145.741 194.059 147.485 194.217C148.39 194.3 156.394 194.997 158.571 194.106C159.3 193.808 159.77 193.353 159.968 192.752C160.217 191.992 160.006 191.05 159.338 189.956C159.222 189.764 158.971 189.701 158.779 189.82C158.587 189.937 158.527 190.188 158.644 190.378C159.175 191.249 159.366 191.982 159.196 192.498C159.074 192.867 158.769 193.147 158.265 193.354C156.639 194.02 150.551 193.679 147.559 193.408C145.745 193.244 140.754 193.614 137.77 193.835C136.677 193.915 135.815 193.98 135.558 193.983C133.669 194.025 131.311 193.539 130.624 192.442C130.345 191.998 130.364 191.475 130.681 190.84C130.781 190.639 130.7 190.394 130.499 190.295C130.3 190.195 130.055 190.275 129.954 190.476C129.395 191.592 129.636 192.397 129.935 192.873C130.827 194.298 133.402 194.798 135.406 194.798Z" fill="#3F4B53"/>
<path d="M18.5203 112.498L10.3417 148.322L7.56362 146.133L15.6793 110.485L18.5203 112.498ZM10.5953 149.445C10.6407 149.445 10.6862 149.438 10.7316 149.422C10.8621 149.376 10.9603 149.265 10.9911 149.13L19.3735 112.415C19.4102 112.253 19.3471 112.088 19.2122 111.992L15.6529 109.47C15.5415 109.392 15.3993 109.374 15.2717 109.422C15.1456 109.47 15.0518 109.579 15.021 109.711L6.71338 146.204C6.67966 146.358 6.73537 146.516 6.85851 146.613L10.3446 149.357C10.4164 149.416 10.5059 149.445 10.5953 149.445Z" fill="#3F4B53"/>
<path d="M235.813 191.232H235.818C236.043 191.229 236.222 191.044 236.219 190.82C236.216 190.6 235.922 168.645 238.336 154.318C238.852 151.257 239.356 148.026 239.888 144.608C241.878 131.842 244.132 117.374 248.119 104.898C251.249 95.1049 250.927 89.975 234.709 81.9533C234.505 81.8545 234.263 81.9367 234.164 82.1373C234.064 82.3386 234.147 82.5825 234.348 82.682C250.071 90.4585 250.393 95.115 247.346 104.651C243.339 117.187 241.08 131.688 239.085 144.482C238.553 147.899 238.05 151.128 237.536 154.182C235.108 168.584 235.403 190.61 235.406 190.831C235.409 191.054 235.591 191.232 235.813 191.232Z" fill="#3F4B53"/>
<path d="M239.742 193.294H239.748C239.972 193.291 240.152 193.108 240.148 192.882C240.145 192.662 239.851 170.708 242.265 156.379C242.782 153.317 243.285 150.083 243.819 146.66C245.808 133.897 248.062 119.434 252.049 106.96C255.179 97.1675 254.856 92.0376 238.638 84.0167C238.435 83.917 238.192 84 238.093 84.2007C237.994 84.402 238.077 84.6459 238.277 84.7453C254 92.521 254.323 97.1775 251.275 106.713C247.269 119.247 245.01 133.743 243.016 146.534C242.483 149.955 241.979 153.188 241.464 156.244C239.037 170.646 239.332 192.674 239.336 192.894C239.339 193.116 239.521 193.294 239.742 193.294Z" fill="#3F4B53"/>
<path fill-rule="evenodd" clip-rule="evenodd" d="M178.517 35.6494C178.517 36.1981 178.963 36.6429 179.511 36.6429C180.059 36.6429 180.505 36.1981 180.505 35.6494C180.505 35.1005 180.059 34.6558 179.511 34.6558C178.963 34.6558 178.517 35.1005 178.517 35.6494Z" fill="#3F4B53"/>
<path fill-rule="evenodd" clip-rule="evenodd" d="M166.335 36.8775C166.335 37.4263 166.78 37.871 167.329 37.871C167.878 37.871 168.322 37.4263 168.322 36.8775C168.322 36.3287 167.878 35.8839 167.329 35.8839C166.78 35.8839 166.335 36.3287 166.335 36.8775Z" fill="#3F4B53"/>
</svg>
