<?xml version="1.0" encoding="UTF-8" standalone="no"?>
<!DOCTYPE svg PUBLIC "-//W3C//DTD SVG 1.1//EN" "http://www.w3.org/Graphics/SVG/1.1/DTD/svg11.dtd">
<svg width="100%" height="100%" viewBox="0 0 24 24" version="1.1" xmlns="http://www.w3.org/2000/svg" xmlns:xlink="http://www.w3.org/1999/xlink" xml:space="preserve" xmlns:serif="http://www.serif.com/" style="fill-rule:evenodd;clip-rule:evenodd;stroke-linejoin:round;stroke-miterlimit:2;">
    <g id="Recruiters">
        <g>
            <g transform="matrix(1,0,0,1,1,2)">
                <path d="M5,15L5,13.917L4.03,13.917C3.462,13.917 3,13.416 3,12.8L3,4.2C3,3.584 3.462,3.083 4.03,3.083L19.97,3.083C20.538,3.083 21,3.584 21,4.2L21,12.8C21,13.416 20.538,13.917 19.97,13.917L12,13.917L12,15L20.012,15C21.109,15 22,14.035 22,12.847L22,4.153C22,2.965 21.109,2 20.012,2L3.988,2C2.891,2 2,2.965 2,4.153L2,12.847C2,14.035 2.891,15 3.988,15L5,15Z" style="fill:rgb(117,204,255);"/>
            </g>
            <g transform="matrix(1,0,0,1,-2,1)">
                <g transform="matrix(0.75,0,0,0.75,6.5,1.25)">
                    <circle cx="16" cy="7" r="2" style="fill:rgb(117,204,255);"/>
                </g>
                <g transform="matrix(1,0,0,1,2.5,-1)">
                    <path d="M13,12C13,10.344 14.344,9 16,9C17.649,9 18.99,10.334 19,11.981L19,12L13,12Z" style="fill:rgb(117,204,255);"/>
                </g>
            </g>
            <g transform="matrix(1,0,0,1,-3,5)">
                <path d="M7,16.5L6,16.5C6,13.464 8.464,11 11.5,11C14.536,11 17,13.464 17,16.5L16,16.5C16,14.016 13.984,12 11.5,12C9.016,12 7,14.016 7,16.5ZM11.5,4C13.432,4 15,5.568 15,7.5C15,9.432 13.432,11 11.5,11C9.568,11 8,9.432 8,7.5C8,5.568 9.568,4 11.5,4ZM11.5,5C12.88,5 14,6.12 14,7.5C14,8.88 12.88,10 11.5,10C10.12,10 9,8.88 9,7.5C9,6.12 10.12,5 11.5,5Z"/>
            </g>
            <g transform="matrix(0.75,0,0,0.75,3,2.25)">
                <circle cx="16" cy="7" r="2"/>
            </g>
            <g transform="matrix(1,0,0,1,-1,0)">
                <path d="M13,12C13,10.344 14.344,9 16,9C17.649,9 18.99,10.334 19,11.981L19,12L13,12Z"/>
            </g>
            <g transform="matrix(1,0,0,1,0,1)">
                <path d="M5,15L5,13.917L4.03,13.917C3.462,13.917 3,13.416 3,12.8L3,4.2C3,3.584 3.462,3.083 4.03,3.083L19.97,3.083C20.538,3.083 21,3.584 21,4.2L21,12.8C21,13.416 20.538,13.917 19.97,13.917L12,13.917L12,15L20.012,15C21.109,15 22,14.035 22,12.847L22,4.153C22,2.965 21.109,2 20.012,2L3.988,2C2.891,2 2,2.965 2,4.153L2,12.847C2,14.035 2.891,15 3.988,15L5,15Z"/>
            </g>
        </g>
    </g>
</svg>
