<svg width="451" height="407" viewBox="0 0 451 407" fill="none" xmlns="http://www.w3.org/2000/svg">
<path d="M427.259 200.088C427.259 310.531 337.728 400.065 227.283 400.065C116.839 400.065 27.3066 310.531 27.3066 200.088C27.3066 89.6437 116.839 0.110962 227.283 0.110962C337.728 0.110962 427.259 89.6437 427.259 200.088Z" fill="#EBF6F1"/>
<path d="M373.701 155.375C369.996 155.353 366.402 154.877 363.865 151.244C358.887 144.114 351.287 137.713 342.763 144.963C337.848 149.145 341.544 157.748 337.315 161.886C333.573 165.546 328.817 164.941 326.903 171.015C324.088 179.95 332.958 187.779 335.807 195.507C338.197 201.99 332.822 204.461 330.407 209.513C328.544 213.411 329.503 217.58 331.529 221.305C335.107 227.873 343.038 233.16 341.201 241.661C339.668 248.759 338.242 255.083 344.504 260.461C348.795 264.149 356.761 267.508 356.154 274.331C355.939 276.746 354.266 278.804 353.81 281.185C353.084 284.953 355.525 288.621 358.36 291.206C364.809 297.088 370.472 302.638 375.303 310.043C377.366 313.203 385.63 320.347 382.327 324.672C388.331 316.812 394.675 309.186 400.129 300.923C404.616 294.126 411.377 284.184 406.773 275.814C405.342 273.211 402.68 271.27 401.949 268.39C400.634 263.188 405.744 258.363 407.644 253.938C410.626 246.99 408.437 238.92 403.182 233.704C400.696 231.238 397.997 228.522 397.634 225.039C397.235 221.234 399.619 217.688 400.702 214.179C401.699 210.944 402.32 207.503 402.686 204.144C402.944 201.771 403.043 199.342 402.485 197.023C401.422 192.61 397.447 190.155 394.505 187.022C387.503 179.57 391.186 170.803 388.124 162.139C385.377 154.361 379.41 155.408 373.701 155.375Z" fill="#1D7E8E"/>
<path d="M383.618 333.593C384.336 325.381 384.673 317.152 384.673 308.926C384.673 287.215 382.315 265.521 378.315 244.198C373.056 216.172 366.154 188.029 355.68 161.424C352.219 152.632 348.329 144 343.91 135.639L342.654 136.302C347.048 144.61 350.915 153.194 354.362 161.943C364.788 188.429 371.673 216.484 376.92 244.459C380.909 265.711 383.256 287.317 383.256 308.926C383.256 317.112 382.918 325.299 382.207 333.469L383.618 333.593Z" fill="#00A09D"/>
<path d="M319.312 176.606C333.924 181.765 347.863 188.832 360.661 197.572C362.314 198.7 363.592 199.434 364.763 200.219C365.937 201.007 367.011 201.849 368.338 203.244L369.367 202.269C367.972 200.8 366.784 199.868 365.554 199.043C364.324 198.218 363.065 197.498 361.461 196.401C348.56 187.591 334.514 180.47 319.785 175.271L319.312 176.606Z" fill="#00A09D"/>
<path d="M376.094 234.095C361.932 224.942 345.873 218.742 329.233 216.004L329.001 217.404C345.448 220.109 361.328 226.237 375.326 235.283L376.094 234.095Z" fill="#00A09D"/>
<path d="M381.798 272.596C368.602 261.164 352.524 253.093 335.47 249.346L335.167 250.729C351.985 254.426 367.857 262.391 380.868 273.668L381.798 272.596Z" fill="#00A09D"/>
<path d="M368.733 201.819C369.751 186.137 373.654 170.644 380.188 156.351L378.901 155.762C372.293 170.213 368.347 185.874 367.318 201.728L368.733 201.819Z" fill="#00A09D"/>
<path d="M376.09 233.686C382.706 219.529 392.267 206.753 403.983 196.412L403.045 195.352C391.182 205.821 381.504 218.752 374.806 233.085L376.09 233.686Z" fill="#00A09D"/>
<path d="M382.801 274.37C383.705 270.042 385.293 265.858 387.484 262.017C390.035 257.549 393.394 253.555 396.844 249.638C399.327 246.814 401.856 244.031 404.421 241.284L403.387 240.317C400.81 243.072 398.273 245.867 395.781 248.699C392.32 252.634 388.89 256.696 386.254 261.314C383.989 265.282 382.348 269.608 381.412 274.081L382.801 274.37Z" fill="#00A09D"/>
<path d="M418.958 209.698C421.648 210.194 424.321 210.347 426.662 208.062C431.263 203.581 437.661 199.989 442.84 206.427C445.825 210.143 441.955 215.872 444.45 219.458C446.658 222.63 450.193 222.851 450.74 227.52C451.545 234.391 444.025 238.844 440.89 244.054C438.259 248.425 441.817 250.963 442.868 254.962C443.679 258.046 442.409 260.938 440.422 263.359C436.918 267.628 430.432 270.366 430.588 276.787C430.719 282.147 430.877 286.932 425.591 289.965C421.968 292.046 415.726 293.381 415.221 298.415C415.043 300.196 415.97 301.922 415.973 303.711C415.978 306.545 413.699 308.867 411.284 310.349C405.793 313.725 400.918 316.966 396.388 321.668C394.454 323.675 387.47 327.712 389.267 331.306C386.001 324.775 382.455 318.366 379.64 311.616C377.327 306.066 373.798 297.919 378.297 292.482C379.694 290.793 381.894 289.755 382.824 287.765C384.499 284.174 381.46 279.967 380.695 276.495C379.49 271.043 382.197 265.493 386.73 262.435C388.876 260.989 391.209 259.396 391.954 256.918C392.771 254.214 391.532 251.311 391.231 248.615C390.956 246.129 390.982 243.55 391.183 241.061C391.325 239.303 391.589 237.529 392.314 235.924C393.695 232.869 396.918 231.638 399.486 229.776C405.598 225.337 404.141 218.468 407.559 212.609C410.626 207.345 414.81 208.933 418.958 209.698Z" fill="#00A09D"/>
<path d="M388.548 337.704C390.776 315.803 396.65 294.404 404.689 273.921C412.365 254.358 421.238 234.972 432.461 217.218C436.166 211.353 440.157 205.667 444.485 200.255L443.38 199.371C439.012 204.828 434.992 210.557 431.262 216.461C419.971 234.323 411.064 253.791 403.368 273.402C395.295 293.979 389.385 315.503 387.137 337.56L388.548 337.704Z" fill="#1D7E8E"/>
<path d="M455.106 231.357C443.688 233.092 432.497 236.318 421.906 240.93C420.597 241.5 419.588 241.846 418.573 242.279C417.558 242.71 416.549 243.229 415.324 244.11L416.152 245.261C417.297 244.439 418.176 243.989 419.128 243.583C420.078 243.178 421.11 242.821 422.473 242.228C432.95 237.667 444.023 234.475 455.319 232.758L455.106 231.357Z" fill="#1D7E8E"/>
<path d="M406.608 267.543C417.289 263.211 428.818 260.969 440.347 260.969C441.101 260.969 441.855 260.977 442.609 260.997L442.646 259.58C441.88 259.56 441.112 259.552 440.347 259.552C428.634 259.552 416.929 261.828 406.075 266.23L406.608 267.543Z" fill="#1D7E8E"/>
<path d="M397.538 294.622C408.511 288.258 421.094 284.684 433.776 284.332L433.737 282.915C420.816 283.275 408.006 286.912 396.826 293.395L397.538 294.622Z" fill="#1D7E8E"/>
<path d="M417.422 244.164C417.912 240.207 418.159 236.221 418.159 232.236C418.159 224.466 417.226 216.699 415.378 209.15L414.003 209.487C415.823 216.923 416.741 224.579 416.741 232.236C416.741 236.165 416.497 240.091 416.016 243.988L417.422 244.164Z" fill="#1D7E8E"/>
<path d="M407.516 265.796C404.633 254.446 399.392 243.705 392.22 234.447L391.101 235.315C398.15 244.417 403.307 254.984 406.142 266.145L407.516 265.796Z" fill="#1D7E8E"/>
<path d="M396.99 294.669C396.93 291.276 396.335 287.891 395.235 284.682C393.954 280.946 392.02 277.513 390.053 274.179C388.636 271.779 387.181 269.397 385.693 267.039L384.494 267.796C385.977 270.143 387.422 272.51 388.834 274.899C390.793 278.216 392.669 281.567 393.894 285.141C394.946 288.211 395.515 291.448 395.572 294.694L396.99 294.669Z" fill="#1D7E8E"/>
<path d="M361.593 330.02H416.543L406.903 385.013H371.234L361.593 330.02Z" fill="#9D786A"/>
<path d="M422.953 314.585H354.546V330.02H422.953V314.585Z" fill="#94624F"/>
<path d="M362.871 337.314L361.593 330.02L362.871 337.314Z" fill="#D7E0DC"/>
<path d="M415.265 337.314H362.871L361.593 330.02H416.543L415.265 337.314Z" fill="#916F62"/>
<path d="M89.4013 351.663H13.2129V358.611H89.4013V351.663Z" fill="#94624F"/>
<path d="M84.6354 240.248H18.9385V251.516H84.6354V240.248Z" fill="#94624F"/>
<path d="M103.986 232.562H0V240.246H103.986V232.562Z" fill="#9D786A"/>
<path d="M101.095 385.212H92.7704L76.6348 251.514H84.9591L101.095 385.212Z" fill="#94624F"/>
<path d="M3.08301 385.212H11.4074L27.5433 251.514H19.2189L3.08301 385.212Z" fill="#94624F"/>
<path d="M54.7785 240.248H48.8877V385.215H54.7785V240.248Z" fill="#9D786A"/>
<path d="M57.5393 185.456L57.5872 181.516L57.3038 181.513L57.2559 185.45" fill="#151614"/>
<path d="M64.7905 185.807H49.7686V228.71H64.7905V185.807Z" fill="#D74034"/>
<path d="M64.7905 185.805H49.7686L51.0039 184.396H63.5058L64.7905 185.805Z" fill="#EF5132"/>
<path d="M76.9182 192.627L76.9661 188.687L76.6827 188.684L76.6348 192.621" fill="#151614"/>
<path d="M84.1694 192.978H69.1475V228.709H84.1694V192.978Z" fill="#D74034"/>
<path d="M84.1694 192.976H69.1475L70.3828 191.567H82.8847L84.1694 192.976Z" fill="#EF5132"/>
<path d="M87.2965 232.421H45.8547C45.0978 232.421 44.4844 231.806 44.4844 231.049V228.708H88.6665V231.049C88.6665 231.806 88.0534 232.421 87.2965 232.421Z" fill="#0B2D4E"/>
<path d="M35.6549 232.52H21.9044C17.8338 232.52 14.5342 229.22 14.5342 225.15V191.712H43.0251V225.15C43.0251 229.22 39.7253 232.52 35.6549 232.52Z" fill="#00A09D"/>
<path d="M44.9624 221.568C40.5666 221.568 37.0034 217.951 37.0034 213.492C37.0034 209.03 40.5666 205.416 44.9624 205.416C49.3582 205.416 52.9217 209.03 52.9217 213.492C52.9217 217.951 49.3582 221.568 44.9624 221.568ZM44.9624 200.94C38.1305 200.94 32.5918 206.558 32.5918 213.492C32.5918 220.423 38.1305 226.044 44.9624 226.044C51.7946 226.044 57.333 220.423 57.333 213.492C57.333 206.558 51.7946 200.94 44.9624 200.94Z" fill="#00A09D"/>
<path d="M18.7166 217.027C17.8696 217.027 17.1768 216.333 17.1768 215.485V195.625C17.1768 194.777 17.8696 194.086 18.7166 194.086C19.5641 194.086 20.2572 194.777 20.2572 195.625V215.485C20.2572 216.333 19.5641 217.027 18.7166 217.027Z" fill="#33B3B1"/>
<path d="M36.2841 191.712V225.306C36.2841 229.291 33.0534 232.52 29.0684 232.52H35.6482C39.6333 232.52 42.8637 229.291 42.8637 225.306V191.712H36.2841Z" fill="#1D7E8E"/>
<path d="M174.061 334.211H277.005C305.562 334.211 328.597 310.842 328.18 282.285L328.242 139.195C327.834 111.223 305.04 88.7612 277.065 88.7612H176.147C148.171 88.7612 125.379 111.223 124.971 139.195L122.885 282.285C122.469 310.842 145.503 334.211 174.061 334.211Z" fill="#66BBC4"/>
<path d="M174.061 334.926H277.005C305.562 334.926 328.597 311.554 328.18 282.997C328.18 282.997 328.563 201.406 328.223 182.442C281.816 246.551 170.897 247.198 124.341 183.162C123.936 208.065 122.885 282.997 122.885 282.997C122.469 311.554 145.503 334.926 174.061 334.926Z" fill="#66A5AF"/>
<path d="M150.11 248.692H302.575C303.749 248.692 304.701 249.645 304.701 250.818V286.283C304.701 287.457 303.749 288.409 302.575 288.409H150.11C148.936 288.409 147.984 287.457 147.984 286.283V250.818C147.984 249.645 148.936 248.692 150.11 248.692Z" fill="#66BBC4"/>
<path d="M153.351 248.692H299.334C302.297 248.692 304.701 251.096 304.701 254.061H147.984C147.984 251.096 150.387 248.692 153.351 248.692Z" fill="#8ED2CC"/>
<path d="M153.351 288.412H299.335C302.297 288.412 304.701 286.008 304.701 283.046H147.984C147.984 286.008 150.387 288.412 153.351 288.412Z" fill="#66A5AF"/>
<path d="M340.558 339.221H114.071V359.257H340.558V339.221Z" fill="#94624F"/>
<path d="M315.348 363.897C315.348 371.001 321.108 376.761 328.212 376.761C335.315 376.761 341.075 371.001 341.075 363.897C341.075 356.79 335.315 351.03 328.212 351.03C321.108 351.03 315.348 356.79 315.348 363.897Z" fill="#94624F"/>
<path d="M320.633 376.758C320.633 381.118 324.168 384.653 328.527 384.653C332.887 384.653 336.422 381.118 336.422 376.758C336.422 372.396 332.887 368.861 328.527 368.861C324.168 368.861 320.633 372.396 320.633 376.758Z" fill="#94624F"/>
<path d="M112.31 364.241C112.31 371.345 118.069 377.105 125.174 377.105C132.279 377.105 138.039 371.345 138.039 364.241C138.039 357.134 132.279 351.374 125.174 351.374C118.069 351.374 112.31 357.134 112.31 364.241Z" fill="#94624F"/>
<path d="M117.595 377.109C117.595 381.469 121.13 385.004 125.49 385.004C129.851 385.004 133.387 381.469 133.387 377.109C133.387 372.749 129.851 369.212 125.49 369.212C121.13 369.212 117.595 372.749 117.595 377.109Z" fill="#94624F"/>
<path d="M129.131 185.212C129.721 187.891 141.046 237.835 141.578 241.761C142.11 245.684 141.398 258.061 141.422 255.858C141.446 253.653 141.249 260.524 145.567 259.844C147.722 259.506 164.153 254.203 180.836 251.572C197.566 248.933 214.546 248.964 216.188 248.669C219.468 248.08 220.632 246.291 221.737 241.211C222.842 236.132 215.446 215.594 214.293 208.947C213.14 202.299 212.552 177.343 211.786 174.078C210.774 169.761 206.618 168.406 203.061 168.888C201.027 169.164 180.125 173.551 163.806 175.764C147.705 177.947 136.181 177.958 134.494 178.185C131.098 178.647 128.541 182.53 129.131 185.212Z" fill="#00A09D"/>
<path d="M129.571 185.174C130.161 187.853 141.486 237.798 142.018 241.724C142.55 245.647 141.838 258.023 141.862 255.821C141.887 253.615 141.689 260.486 146.007 259.806C148.163 259.469 164.594 254.165 181.276 251.534C198.006 248.895 214.987 248.927 216.628 248.632C219.908 248.042 221.073 246.253 222.177 241.174C222.679 238.866 221.427 233.37 219.803 227.434C184.728 245.346 139.502 241.072 139.019 177.934C136.854 178.031 135.444 178.079 134.934 178.147C131.538 178.609 128.981 182.495 129.571 185.174Z" fill="#1D7E8E"/>
<path d="M108.936 211.483H132.193C140.788 211.483 147.757 218.453 147.757 227.048V289.125H304.473V227.048C304.473 218.453 311.441 211.483 320.039 211.483H343.295C351.889 211.483 358.86 218.453 358.86 227.048V289.125L355.283 334.208H96.9493L93.3711 289.125V227.048C93.3711 218.453 100.34 211.483 108.936 211.483Z" fill="#66BBC4"/>
<path d="M110.932 347.809H341.712C349.221 347.809 355.31 341.72 355.31 334.211H97.335C97.335 341.72 103.422 347.809 110.932 347.809Z" fill="#66A5AF"/>
<path d="M327.993 139.194C327.585 111.221 300.173 75.163 243.902 75.163H207.386C152.401 75.163 125.082 110.908 125.082 139.194C178.587 125.213 162.79 161.035 226.359 161.035C289.929 161.035 280.149 129.31 327.993 139.194Z" fill="#8ED2CC"/>
<path d="M304.337 229.44C304.337 248.673 319.931 264.264 339.164 264.264C358.395 264.264 373.988 248.673 373.988 229.44C373.988 210.207 358.395 194.616 339.164 194.616C319.931 194.616 304.337 210.207 304.337 229.44Z" fill="#66BBC4"/>
<path d="M321.954 229.437C321.954 239.055 329.749 246.851 339.368 246.851C348.983 246.851 356.778 239.055 356.778 229.437C356.778 219.822 348.983 212.026 339.368 212.026C329.749 212.026 321.954 219.822 321.954 229.437Z" fill="#8ED2CC"/>
<path d="M78.3965 229.44C78.3965 248.673 93.9879 264.264 113.221 264.264C132.454 264.264 148.046 248.673 148.046 229.44C148.046 210.207 132.454 194.616 113.221 194.616C93.9879 194.616 78.3965 210.207 78.3965 229.44Z" fill="#66BBC4"/>
<path d="M96.0137 229.437C96.0137 239.055 103.809 246.851 113.426 246.851C123.042 246.851 130.838 239.055 130.838 229.437C130.838 219.822 123.042 212.026 113.426 212.026C103.809 212.026 96.0137 219.822 96.0137 229.437Z" fill="#8ED2CC"/>
<path d="M220.215 118.1C220.215 121.462 222.94 124.187 226.301 124.187C229.661 124.187 232.388 121.462 232.388 118.1C232.388 114.739 229.661 112.015 226.301 112.015C222.94 112.015 220.215 114.739 220.215 118.1Z" fill="#66A5AF"/>
<path d="M299.687 375.684C291.132 375.278 282.605 376.653 274.149 378.025C271.479 378.456 268.653 379.939 270.665 383.131C271.768 384.882 274.056 385.395 276.114 385.631C284.947 386.643 294.021 385.523 302.899 385.537" fill="#0B2D4E"/>
<path d="M362.616 363.817C363.914 371.749 360.192 383.212 351.532 385.531C348.04 386.464 343.836 386.135 340.231 386.112C335.842 386.087 331.457 386.05 327.069 386.018C318.449 385.956 309.831 385.894 301.214 385.834C295.533 385.792 289.492 385.647 284.753 382.518C279.117 378.799 276.311 371.922 280.058 366.003C283.276 360.917 289.294 357.802 295.034 356.566C304.652 354.494 314.642 357.241 324.203 355.517C325.745 355.239 327.279 354.843 328.798 354.293C337.43 351.163 346.005 346.852 354.815 351.96C359.044 354.412 361.825 358.993 362.616 363.817Z" fill="#061F33"/>
<path d="M291.399 346.735C289.962 345.213 289.077 344.915 288.207 347.078C287.204 349.576 286.526 352.297 286.557 355.004C282.957 355.755 279.542 357.408 276.661 359.718C274.445 358.142 271.811 357.147 269.172 356.555C266.896 356.042 266.641 356.937 267.077 358.987C267.616 361.515 268.478 363.956 269.311 366.4C269.833 367.93 270.306 369.475 270.839 370.997C271.216 372.579 271.962 374.087 272.872 375.218C275.389 378.348 280.398 380.168 284.278 380.681C288.672 381.262 292.833 380.139 295.793 376.8C298.449 373.804 300.26 369.716 300.949 365.793C301.343 363.559 301.159 361.172 300.374 359.012C299.492 356.589 297.752 354.826 296.235 352.799C294.687 350.729 293.179 348.618 291.399 346.735Z" fill="#0B2D4E"/>
<path d="M356.235 357.513C364.507 365.388 363.642 374.464 359.07 382.492C354.001 391.396 345.656 397.425 336.347 401.349C325.354 405.98 312.773 408.35 300.998 405.572C298.634 405.014 296.046 403.852 295.349 401.521C293.285 394.63 304.037 394.752 307.869 394.426C315.75 393.754 324.098 393.672 331.763 391.112C340.174 388.298 346.16 382.299 350.367 374.623" fill="#0B2D4E"/>
<path d="M362.335 370.21C362.304 366.51 361.042 362.817 358.741 359.92C352.887 352.561 341.494 352.331 333.651 356.32C324.653 360.898 323.228 373.016 326.751 381.56C326.913 381.951 323.599 381.835 323.321 381.855C320.943 382.025 316.019 381.568 315.069 384.485C314.434 386.438 315.738 389.077 317.7 389.712C318.519 389.976 319.398 389.976 320.257 389.976C326.422 389.968 332.582 389.987 338.745 389.999C343.572 390.007 347.215 389.114 350.106 384.998C351.611 382.855 352.751 380.466 354.355 378.394" fill="#0B2D4E"/>
<path d="M290.613 372.924C290.961 373.823 290.394 374.88 289.348 375.286C288.302 375.691 287.171 375.291 286.823 374.39C286.474 373.489 287.041 372.431 288.087 372.026C289.133 371.62 290.264 372.023 290.613 372.924Z" fill="#061F33"/>
<path d="M299.268 356.419C299.548 356.963 299.934 357.428 300.277 357.944C300.45 358.199 300.611 358.471 300.739 358.769C300.869 359.072 300.952 359.375 301.028 359.678C301.173 360.288 301.258 360.903 301.343 361.507C301.431 362.102 301.496 362.737 301.527 363.358C301.601 364.602 301.504 365.858 301.312 367.094C301.107 368.327 300.767 369.54 300.334 370.714C299.874 371.879 299.313 373.007 298.641 374.062C297.961 375.113 297.19 376.108 296.297 376.981C295.413 377.866 294.44 378.648 293.372 379.297C292.83 379.609 292.26 379.887 291.651 380.051C291.047 380.221 290.407 380.267 289.803 380.151C291.041 380.136 292.127 379.552 293.063 378.835C293.536 378.478 293.984 378.078 294.415 377.667C294.627 377.458 294.846 377.256 295.05 377.035C295.257 376.826 295.455 376.604 295.651 376.378C296.422 375.476 297.136 374.524 297.729 373.498C298.335 372.483 298.86 371.417 299.276 370.309C300.127 368.103 300.594 365.748 300.645 363.369C300.662 362.771 300.631 362.19 300.606 361.575C300.583 360.965 300.555 360.367 300.484 359.778C300.45 359.483 300.407 359.188 300.331 358.919C300.251 358.641 300.13 358.372 300.005 358.097C299.747 357.555 299.438 357.008 299.268 356.419Z" fill="#73B8D4"/>
<path d="M262.463 255.124C260.127 256.272 257.67 257.216 255.223 258.075C244.301 261.908 232.94 264.487 221.433 265.751C209.411 267.072 196.665 266.814 186.019 261.077C168.357 251.555 170.53 234.791 170.532 217.709C170.532 215.07 172.672 212.93 175.311 212.93H254.478C258.727 212.93 263.464 212.337 267.682 212.93C270.066 213.264 272.081 213.446 273.15 216.15C273.901 218.044 273.439 222.256 273.773 224.416C275.029 232.458 276.835 242.674 270.817 249.169C268.467 251.703 265.576 253.593 262.463 255.124Z" fill="#0B2D4E"/>
<path d="M182.551 200.661C182.204 199.875 181.853 199.073 181.483 198.246C177.629 189.625 174.805 180.543 173.092 171.257C172.474 167.909 171.847 164.246 169.289 161.999C165.749 158.891 158.853 159.29 154.468 159.877C152.42 160.151 150.278 160.859 149.041 162.514C146.99 165.258 147.195 171.452 147.115 174.758C146.625 194.852 162.511 211.467 175.447 225.028C177.938 227.638 180.642 230.278 184.092 231.335C187.543 232.389 191.924 231.292 193.433 228.015C194.542 225.609 193.862 222.785 192.985 220.285C191.478 215.988 189.208 212.048 186.624 208.314C184.878 205.791 183.731 203.325 182.551 200.661Z" fill="#F8A17A"/>
<path d="M260.742 200.661C261.091 199.875 261.439 199.073 261.811 198.246C265.666 189.625 268.489 180.543 270.201 171.257C270.819 167.909 271.446 164.246 274.005 161.999C277.543 158.891 284.44 159.29 288.825 159.877C290.872 160.151 293.015 160.859 294.251 162.514C296.303 165.258 296.099 171.452 296.178 174.758C296.669 194.852 280.783 211.467 267.846 225.028C265.354 227.638 262.653 230.278 259.2 231.335C255.75 232.389 251.368 231.292 249.86 228.015C248.751 225.609 249.432 222.785 250.307 220.285C251.816 215.988 254.086 212.048 256.669 208.314C258.415 205.791 259.563 203.325 260.742 200.661Z" fill="#F8A17A"/>
<path d="M158.819 135.891C157.587 138.997 156.404 142.122 155.239 145.252C151.252 155.963 141.77 174.135 152.464 184.008C153.676 185.128 156.591 185.065 158.094 184.767C162.395 183.917 164.561 179.909 166.668 176.499C172.992 166.263 177.578 155.049 183.674 144.671C188.075 137.182 190.302 128.249 192.414 119.903C193.812 114.381 195.609 106.475 190.952 101.901C189.058 100.04 186.301 99.0954 183.663 99.4024C182.075 99.5875 180.566 100.195 179.131 100.901C177.902 101.505 176.704 102.192 175.662 103.082C173.077 105.289 171.828 108.48 170.288 111.415C168.476 114.868 166.623 118.291 164.93 121.807C162.708 126.421 160.707 131.133 158.819 135.891Z" fill="#F8A17A"/>
<path d="M163.433 118.989C169.342 108.151 177.029 98.4005 188.875 94.4248C192.269 93.2861 196.46 93.0052 199.004 95.5233C200.599 97.1011 201.176 99.485 201.041 101.724C200.845 104.971 199.377 108.051 198.627 111.195C196.629 119.569 193.601 127.734 189.609 135.363C188.749 137.008 182.441 154.866 182.949 155.308C178.789 151.693 172.86 147.19 167.882 144.823C166.56 144.195 154.499 137.987 154.15 138.772C156.947 132.468 159.866 125.531 163.433 118.989Z" fill="#D74034"/>
<path d="M286.183 135.891C287.413 138.997 288.598 142.122 289.763 145.252C293.749 155.963 303.231 174.135 292.538 184.008C291.325 185.128 288.411 185.065 286.908 184.767C282.605 183.917 280.44 179.909 278.333 176.499C272.009 166.263 267.423 155.049 261.328 144.671C256.926 137.182 254.701 128.249 252.586 119.903C251.188 114.381 249.391 106.475 254.049 101.901C255.945 100.04 258.7 99.0954 261.339 99.4024C262.927 99.5875 264.435 100.195 265.872 100.901C267.1 101.505 268.299 102.192 269.339 103.082C271.924 105.289 273.174 108.48 274.714 111.415C276.525 114.868 278.379 118.291 280.071 121.807C282.294 126.421 284.295 131.133 286.183 135.891Z" fill="#F8A17A"/>
<path d="M281.187 118.989C275.276 108.151 267.589 98.4005 255.743 94.4248C252.349 93.2861 248.157 93.0052 245.614 95.5233C244.021 97.1011 243.443 99.485 243.576 101.724C243.775 104.971 245.243 108.051 245.991 111.195C247.99 119.569 251.017 127.734 255.008 135.363C255.87 137.008 262.177 154.866 261.67 155.308C265.828 151.693 271.759 147.19 276.736 144.823C278.057 144.195 290.119 137.987 290.468 138.772C287.673 132.468 284.753 125.531 281.187 118.989Z" fill="#D74034"/>
<path d="M264.465 202.222C264.388 201.899 264.312 201.576 264.238 201.253C261.443 189.154 261.032 176.667 261.383 164.302C261.726 152.178 264.428 140.249 264.776 128.117C265.179 114.129 262.744 94.2556 245.237 92.6392C237.997 91.9711 230.715 91.191 223.424 91.1043V91.0872C223.164 91.0867 222.904 91.0946 222.645 91.096C222.385 91.0946 222.125 91.0867 221.865 91.0872V91.1043C214.573 91.191 207.292 91.9711 200.052 92.6392C182.545 94.2556 180.109 114.129 180.513 128.117C180.863 140.249 183.563 152.178 183.906 164.302C184.256 176.667 183.847 189.154 181.053 201.253C180.977 201.576 180.901 201.899 180.823 202.222C180.274 204.495 179.387 206.8 179.803 209.102C180.701 214.077 192.678 216.489 196.715 217.561C204.242 219.556 212.014 220.446 219.764 221.019C220.47 221.07 221.163 221.121 221.849 221.169V221.277C222.112 221.26 222.38 221.24 222.645 221.223C222.909 221.24 223.177 221.26 223.44 221.277V221.169C224.126 221.121 224.819 221.07 225.525 221.019C233.275 220.446 241.047 219.556 248.573 217.561C252.613 216.489 264.589 214.077 265.485 209.102C265.902 206.8 265.015 204.495 264.465 202.222Z" fill="#EF5132"/>
<path d="M211.14 104.317C221.95 111.453 242.992 105.92 237.028 91.7672C236.305 90.0494 235.427 88.3874 234.945 86.5965C234.143 83.6234 234.222 80.5606 234.304 77.5354C234.4 74.0048 234.429 70.4648 234.624 66.9399C230.67 66.2011 227.465 65.8306 223.269 65.984C219.796 66.1107 216.327 65.7901 212.856 65.9704C212.576 65.9848 212.273 66.0101 212.076 66.1742C211.877 66.3389 211.84 66.5977 211.817 66.8364C211.352 71.6035 211.809 76.4313 211.444 81.2077C211.24 83.8791 210.875 86.9355 209.654 89.4147C207.777 93.228 204.985 96.7694 207.675 100.909C208.555 102.263 209.743 103.395 211.14 104.317Z" fill="#F8A17A"/>
<path d="M234.795 85.959C234.171 83.1957 234.333 80.3003 234.41 77.5011C234.506 73.9702 234.534 70.4302 234.727 66.9053C230.776 66.1665 227.571 65.7963 223.374 65.9494C219.901 66.0764 216.432 65.7555 212.961 65.9361C212.681 65.9505 212.379 65.9758 212.181 66.1396C211.982 66.3046 211.946 66.5634 211.922 66.8018C211.457 71.5689 211.914 76.397 211.549 81.1731C211.445 82.5409 211.252 83.9089 210.966 85.2579C211.511 85.6797 212.066 86.0845 212.637 86.4576C216.923 89.2602 222.701 90.1911 227.831 88.9048C230.441 88.2505 232.686 87.2819 234.795 85.959Z" fill="#E5785C"/>
<path d="M164.385 156.952L163.399 159.29H280.966L279.784 156.663L164.385 156.952Z" fill="#B8D1CE"/>
<path d="M272.941 233.582H171.555L164.291 158.102C164.161 156.748 165.208 155.576 166.547 155.576H277.95C279.288 155.576 280.334 156.748 280.203 158.102L272.941 233.582Z" fill="#B8D1CE"/>
<path d="M273.766 235.716H170.788L163.411 160.235C163.278 158.882 164.342 157.709 165.702 157.709H278.852C280.212 157.709 281.275 158.882 281.142 160.235L273.766 235.716Z" fill="white"/>
<path d="M273.362 235.713H170.446V240.294H273.362V235.713Z" fill="#B8D1CE"/>
<path d="M229.21 196.712C229.21 200.655 226.013 203.85 222.07 203.85C218.126 203.85 214.93 200.655 214.93 196.712C214.93 192.769 218.126 189.571 222.07 189.571C226.013 189.571 229.21 192.769 229.21 196.712Z" fill="#B8D1CE"/>
<path d="M216.497 252.243C212.762 253.584 209.015 254.879 205.264 256.073C201.429 257.297 179.425 260.835 183.789 269.314C184.646 270.978 186.723 271.522 188.564 271.862C199.15 273.818 209.928 272.936 220.621 271.652" fill="#F8A17A"/>
<path d="M200.697 273.311C196.145 274.621 191.262 275.275 186.996 276.253C185.073 276.693 183.149 277.135 181.201 277.444C178.107 277.94 174.971 278.107 171.842 278.272C169.569 278.394 167.295 278.513 165.022 278.634C163.784 278.7 162.489 278.754 161.361 278.238C160.015 277.62 159.149 276.304 158.356 275.051C156.782 272.568 154.917 270.232 153.604 267.591C152.745 265.861 151.848 264.169 152.792 262.273C153.254 261.343 153.987 260.575 154.74 259.86C155.705 258.942 156.729 258.072 157.886 257.411C161.691 255.243 165.728 256.195 169.766 257.017C174.039 257.885 178.311 258.877 182.676 259.135C187.375 259.415 192.061 258.829 196.727 258.344" fill="#D5EFF7"/>
<path d="M184.421 279.136C185.139 279.087 185.859 279.039 186.581 278.994C188.279 278.889 190.394 278.693 191.707 277.486C191.911 277.296 192.1 277.083 192.203 276.825C192.459 276.188 192.107 275.433 191.557 275.022C191.007 274.611 190.305 274.467 189.626 274.365C190.412 274.484 191.607 271.55 191.742 271.009C192.109 269.534 192.288 267.8 192.144 266.28C192.008 264.843 191.641 263.465 190.694 262.36C190.208 261.793 188.52 260.067 187.64 260.319C188.403 260.101 188.789 259.148 188.56 258.386C188.33 257.626 187.629 257.082 186.875 256.832C186.121 256.583 185.31 256.586 184.516 256.597C180.344 256.656 176.109 256.946 171.986 256.135C168.332 255.418 164.913 255.205 161.169 255.508C158.379 255.732 155.642 256.472 153.087 257.603C152.393 257.912 151.722 258.298 151.093 258.748C142.73 264.73 149 275.244 156.313 278.693C161.721 281.242 167.262 280.553 172.994 280.034C176.816 279.691 180.599 279.391 184.421 279.136Z" fill="#D74034"/>
<path d="M241.679 70.5857C238.403 74.5412 233.81 77.1469 229.264 79.5351C228.148 80.1213 227.013 80.7053 225.785 80.9919C222.02 81.8712 218.219 79.8308 215.078 77.5749C210.74 74.4587 206.81 70.7759 203.414 66.6531C199.997 62.5048 198.086 57.9707 195.858 53.0894C193.615 48.1746 193.124 43.2346 193.597 37.8634C194.083 32.3454 190.998 27.4158 192.392 21.8389C193.277 18.2963 195.435 15.0858 198.381 12.9283C199.994 11.7465 201.868 10.866 203.856 10.65C208.302 10.167 212.082 13.1885 216.476 13.3954C220.909 13.6046 225.175 11.9903 229.434 11.0205C233.156 10.1727 237.232 9.70779 240.925 10.9712C245.036 12.3778 247.014 15.5226 249.288 19.1626C251.23 22.2737 254.155 24.6069 256.491 27.3685C259.623 31.0689 260.612 35.7776 259.617 40.5966C258.778 44.6709 257.194 48.8535 255.119 52.466C253.313 55.6114 251.349 58.9232 249.225 61.9045C247.607 64.1733 245.832 65.8455 243.942 67.825C243.122 68.6836 242.442 69.6633 241.679 70.5857Z" fill="#0B2D4E"/>
<path d="M245.483 51.6607C245.412 47.1346 244.743 42.8468 243.544 39.2927C238.365 23.9581 219.136 20.3484 207.689 31.5066C194.924 43.9501 200.149 73.3462 213.827 83.5542C217.483 86.2837 222.425 87.2064 226.821 85.9804C240.122 82.2709 245.707 65.8011 245.483 51.6607Z" fill="#F8A17A"/>
<path d="M248.696 39.2466C242.874 23.9185 221.172 20.3332 208.237 31.5062C205.212 34.1195 201.99 38.2301 200.586 41.9926C199.082 46.0229 199.476 50.4796 199.892 54.7612C200.215 51.2257 201.87 48.0483 204.192 45.4112C205.336 44.1104 206.621 42.9374 207.965 41.8469C208.453 41.4511 212.12 38.1195 211.769 37.6611C213.073 39.3608 214.368 41.0509 216.378 41.9047C218.892 42.9714 221.507 43.5879 224.163 44.1654C228.86 45.1864 232.538 46.5068 235.946 50.0216C239.095 53.2707 241.377 57.3087 242.891 61.5551C243.37 62.8967 244.186 64.9627 245.941 64.36C246.358 64.2171 249.969 61.5245 250.006 61.3371C250.641 58.0916 250.924 54.7932 250.87 51.6124C250.794 47.0859 250.048 42.799 248.696 39.2466Z" fill="#E5785C"/>
<path d="M238.518 48.6032C239.686 50.5146 240.403 52.6647 241.109 54.7928C242.226 58.1564 243.107 61.7743 244.542 65.0042C249.42 62.0586 252.638 55.1119 254.86 50.0889C256.833 45.6319 257.386 42.0896 255.716 37.4155C254.636 34.3937 252.567 31.7081 250.109 29.4064C243.017 22.7601 232.381 19.3744 222.121 20.0493C218.518 20.2863 215.579 21.5562 212.195 22.5368C209.087 23.4374 206.711 24.0272 204.428 26.5844C202.397 28.8596 201.095 31.6908 200.074 34.5647C198.408 39.2498 197.465 44.0785 197.831 49.0568C198.066 52.2393 198.088 55.3892 201.24 57.1217C201.184 55.2267 201.13 53.332 201.074 51.4373C201.048 50.5308 201.022 49.6169 201.175 48.7228C201.312 47.9251 201.589 47.1589 201.864 46.3978C202.705 44.0759 203.478 42.2152 205.072 40.3018C207.156 37.7996 209.908 35.5347 210.49 32.3306C215.426 37.1269 221.25 40.1309 227.736 42.3643C231.848 43.78 236.029 44.595 238.47 48.5255C238.484 48.5513 238.501 48.5774 238.518 48.6032Z" fill="#0B2D4E"/>
<path d="M245.595 52.0666C251.469 48.7794 253.368 56.9363 252.393 61.0146C251.99 62.6989 251.341 64.3445 250.312 65.7372C248.926 67.6132 244.94 70.7418 242.605 68.7278C241.544 67.8139 241.423 66.2449 241.374 64.8462C241.253 61.097 241.615 54.2946 245.595 52.0666Z" fill="#F8A17A"/>
<path d="M203.47 52.0666C197.598 48.7794 195.7 56.9363 196.675 61.0146C197.077 62.6989 197.725 64.3445 198.754 65.7372C200.14 67.6132 204.127 70.7418 206.462 68.7278C207.521 67.8139 207.645 66.2449 207.691 64.8462C207.815 61.097 207.451 54.2946 203.47 52.0666Z" fill="#F8A17A"/>
<path d="M195.382 38.7749C195.354 37.484 194.914 36.3124 194.343 35.2165C193.771 34.12 193.065 33.0899 192.469 32.0745C190.961 29.5105 190.235 26.5758 190.235 23.5982C190.235 22.9233 190.272 22.2464 190.346 21.5714C190.802 17.382 193.349 13.4483 196.984 11.3169C198.777 10.2638 200.856 9.67107 202.951 9.67136C203.941 9.67136 204.936 9.80345 205.907 10.0807C207.286 10.4739 208.569 11.2123 209.87 11.9663C211.171 12.7184 212.49 13.4863 213.966 13.8917C214.897 14.1465 215.831 14.2576 216.76 14.2576C219.579 14.2553 222.353 13.2482 225.056 12.1322C227.757 11.013 230.397 9.78021 232.894 9.266C233.971 9.04347 235.06 8.93036 236.137 8.93036C238.496 8.93036 240.795 9.47151 242.793 10.5941C244.791 11.7177 246.489 13.4185 247.66 15.7682C248.227 16.9072 248.647 18.1618 249.114 19.4108C249.585 20.6592 250.106 21.9042 250.909 23.0114C252.252 24.8602 254.166 26.0514 255.957 27.264C256.853 27.8695 257.72 28.479 258.48 29.1653C259.24 29.8518 259.889 30.613 260.368 31.5283C260.969 32.6749 261.227 33.9247 261.227 35.2491C261.23 38.0384 260.056 41.1481 258.526 44.046C256.995 46.9456 255.124 49.6323 253.766 51.6266L254.469 52.1048C255.821 50.1157 257.715 47.4017 259.277 44.4426C260.836 41.482 262.075 38.2748 262.077 35.2491C262.077 33.8145 261.794 32.4184 261.122 31.1343C260.586 30.1084 259.861 29.2679 259.05 28.5343C257.831 27.4341 256.417 26.5656 255.084 25.6477C253.752 24.7307 252.505 23.768 251.598 22.5125C250.872 21.511 250.373 20.3397 249.911 19.1115C249.449 17.8838 249.024 16.6013 248.423 15.3895C247.178 12.8899 245.347 11.0538 243.21 9.85277C241.069 8.65058 238.623 8.07996 236.137 8.07996C235 8.07996 233.855 8.1993 232.721 8.43316C230.082 8.98082 227.411 10.2394 224.731 11.3461C222.052 12.4559 219.371 13.4092 216.76 13.4072C215.898 13.4069 215.042 13.3046 214.191 13.0713C212.858 12.7079 211.597 11.9845 210.296 11.2304C208.995 10.4784 207.655 9.69659 206.141 9.26316C205.09 8.96297 204.017 8.82095 202.951 8.82095C200.695 8.82123 198.473 9.45648 196.553 10.5836C192.678 12.8615 189.993 17.0109 189.501 21.4787C189.424 22.1843 189.385 22.8921 189.385 23.5982C189.384 26.7133 190.144 29.7991 191.736 32.5057C192.353 33.5545 193.05 34.5739 193.589 35.6097C194.129 36.6463 194.509 37.6892 194.531 38.7928L195.382 38.7749Z" fill="#0B2D4E"/>
<path d="M209.645 20.0637C214.53 20.3793 219.288 19.3225 224.06 18.3482C226.466 17.9034 228.913 17.6846 231.359 17.6066C232.581 17.5706 233.808 17.5769 235.03 17.6253C236.246 17.6798 237.487 17.7359 238.721 17.9913C241.181 18.4936 243.503 19.8228 245.025 21.9018C245.787 22.984 246.003 24.3183 246.085 25.5375C246.17 26.7687 246.136 27.974 246.388 29.118C246.598 30.2752 247.208 31.2846 247.933 32.2464C248.653 33.2088 249.47 34.1485 250.028 35.273C250.575 36.4024 250.802 37.6431 250.867 38.8632C250.932 40.0877 250.839 41.305 250.734 42.5157C250.754 41.3001 250.771 40.0815 250.652 38.8799C250.53 37.6817 250.244 36.4939 249.674 35.4547C249.11 34.4113 248.293 33.5172 247.528 32.5599C246.763 31.6174 246.045 30.5065 245.779 29.2578C245.467 28.027 245.473 26.7772 245.385 25.5877C245.294 24.4048 245.079 23.2383 244.413 22.3168C244.101 21.8558 243.687 21.44 243.239 21.0525C242.797 20.667 242.326 20.3194 241.825 20.0187C240.824 19.4171 239.707 19.0237 238.553 18.7853C237.402 18.5333 236.206 18.465 234.996 18.3992C233.791 18.3391 232.583 18.3207 231.376 18.3439C228.961 18.385 226.553 18.6183 224.161 18.9619C221.781 19.3375 219.373 19.8373 216.946 20.083C214.518 20.3183 212.06 20.3807 209.645 20.0637Z" fill="#73B8D4"/>
<path d="M211.844 273.972C216.835 273.371 231.791 271.095 236.715 270.565C261.433 267.9 285.891 263.858 308.79 253.673C314.068 251.315 319.638 247.448 322.6 242.391C330.368 229.093 317.183 215.433 303.35 218.534C280.247 223.716 261.346 233.337 239.028 241.251C235.303 242.572 228.604 245.401 224.829 246.799C221.587 247.998 210.709 251.247 207.442 252.417" fill="#0B2D4E"/>
<path d="M221.214 322.595C222.422 326.249 223.67 329.886 224.998 333.466C226.356 337.128 236.8 356.059 227.714 357.788C225.929 358.128 224.273 356.864 222.913 355.662C215.093 348.742 209.325 339.98 203.919 331.04" fill="#F8A17A"/>
<path d="M214.489 347.354C216.209 351.615 218.625 355.737 220.428 359.58C221.24 361.312 222.053 363.047 222.979 364.722C224.45 367.381 226.196 369.876 227.939 372.368C229.207 374.176 230.471 375.985 231.738 377.793C232.427 378.78 233.158 379.803 234.227 380.356C235.503 381.016 237.028 380.892 238.456 380.747C241.297 380.466 244.197 380.495 247 379.919C248.834 379.545 250.662 379.219 251.55 377.365C251.983 376.455 252.131 375.438 252.227 374.434C252.352 373.147 252.406 371.846 252.219 370.568C251.604 366.361 248.463 363.847 245.424 361.253C242.207 358.506 238.893 355.836 236.089 352.655C233.068 349.228 230.715 345.299 228.298 341.444" fill="#D5EFF7"/>
<path d="M219.797 363.015C219.404 362.436 219.009 361.858 218.612 361.28C217.678 359.919 216.564 358.187 216.703 356.461C216.725 356.194 216.775 355.919 216.911 355.687C217.245 355.112 218.032 354.93 218.675 355.103C219.318 355.279 219.846 355.729 220.331 356.186C219.77 355.656 221.298 352.991 221.632 352.563C222.539 351.404 223.757 350.23 225.003 349.431C226.183 348.677 227.456 348.133 228.867 348.198C229.59 348.229 231.918 348.487 232.249 349.312C231.96 348.597 232.459 347.733 233.176 347.455C233.896 347.174 234.73 347.387 235.373 347.812C236.014 348.24 236.496 348.861 236.963 349.473C239.41 352.699 241.72 356.107 244.801 358.774C247.531 361.138 249.739 363.621 251.744 366.666C253.237 368.931 254.309 371.462 254.969 374.093C255.151 374.807 255.256 375.55 255.29 376.301C255.715 386.265 243.934 387.756 236.929 384.227C231.75 381.619 228.966 376.973 225.936 372.284C223.916 369.157 221.885 366.087 219.797 363.015Z" fill="#D74034"/>
<path d="M207.363 339.018C204.839 334.846 197.643 322.058 195.105 317.977C182.372 297.499 170.846 276.392 164.948 252.81C163.597 247.367 163.221 240.799 165.317 235.515C170.837 221.634 189.154 223.547 195.049 235.972C204.894 256.722 208.836 276.913 216.124 298.695C217.34 302.329 219.18 309.141 220.369 312.86C221.39 316.055 225.407 326.308 226.464 329.502" fill="#0B2D4E"/>
</svg>
