<svg width="32" height="32" viewBox="0 0 32 32" fill="none" xmlns="http://www.w3.org/2000/svg">
<path d="M6.26806 0C2.82112 0 0 2.82106 0 6.26806V25.719C0 29.1659 2.82106 31.986 6.26806 31.986H25.719C29.166 31.986 31.986 29.166 31.986 25.719V6.26806C31.986 2.82112 29.166 0 25.719 0H6.26806ZM7.84458 5.27834C9.49731 5.27834 10.5153 6.36333 10.5468 7.78954C10.5468 9.18426 9.49725 10.2997 7.81261 10.2997H7.7816C6.16032 10.2997 5.11242 9.18432 5.11242 7.78954C5.11242 6.36336 6.19203 5.27834 7.84454 5.27834H7.84458ZM22.0871 11.9443C25.2657 11.9443 27.6484 14.0218 27.6484 18.4862V26.8206H22.8179V19.045C22.8179 17.0911 22.1188 15.758 20.3707 15.758C19.0362 15.758 18.2407 16.6565 17.8915 17.5245C17.7639 17.835 17.7325 18.2687 17.7325 18.7031V26.8206H12.902C12.902 26.8206 12.9654 13.649 12.902 12.2851H17.7335V14.3435C18.3754 13.3531 19.5236 11.9442 22.0871 11.9442V11.9443ZM5.39734 12.2862H10.2278V26.8206H5.39734V12.2862Z" fill="#0064AF"/>
</svg>
