<svg width="48" height="48" viewBox="0 0 48 48" fill="none" xmlns="http://www.w3.org/2000/svg">
<path d="M28.5999 33.457H14.7999V39.8602H28.5999V33.457Z" fill="#00669B"/>
<path fill-rule="evenodd" clip-rule="evenodd" d="M41.2499 7.58008C41.2499 5.99369 39.9619 4.70508 38.3749 4.70508H3.87494C2.28794 4.70508 0.999939 5.99369 0.999939 7.58008V30.5801C0.999939 32.1665 2.28794 33.4551 3.87494 33.4551H38.3749C39.9619 33.4551 41.2499 32.1665 41.2499 30.5801V7.58008Z" fill="#00669B"/>
<path fill-rule="evenodd" clip-rule="evenodd" d="M40.1 7.70502C40.1 6.68291 39.2705 5.85352 38.2481 5.85352H4.00198C2.9795 5.85352 2.15002 6.68291 2.15002 7.70502V30.452C2.15002 31.4741 2.9795 32.3035 4.00198 32.3035H38.2481C39.2705 32.3035 40.1 31.4741 40.1 30.452V7.70502Z" fill="white"/>
<path fill-rule="evenodd" clip-rule="evenodd" d="M14.7999 33.457V38.057L28.5998 33.457H14.7999Z" fill="#003964"/>
<path d="M33.1999 38.0566H10.1999V39.8598H33.1999V38.0566Z" fill="#003964"/>
<path fill-rule="evenodd" clip-rule="evenodd" d="M46.9999 18.3305C46.9999 17.3783 46.2271 16.6055 45.2749 16.6055H31.4749C30.5227 16.6055 29.7499 17.3783 29.7499 18.3305V43.1337C29.7499 44.0859 30.5227 44.8587 31.4749 44.8587H45.2749C46.2271 44.8587 46.9999 44.0859 46.9999 43.1337V18.3305Z" fill="#00669B"/>
<path fill-rule="evenodd" clip-rule="evenodd" d="M45.85 18.8008C45.85 18.2229 45.3815 17.7539 44.8035 17.7539H31.9465C31.3684 17.7539 30.9 18.2229 30.9 18.8008V42.6602C30.9 43.238 31.3684 43.7071 31.9465 43.7071H44.8035C45.3815 43.7071 45.85 43.238 45.85 42.6602V18.8008Z" fill="#FEFFE9"/>
<path fill-rule="evenodd" clip-rule="evenodd" d="M33.1999 41.9082L44.6999 18.9082H32.0499V41.9082H33.1999Z" fill="black" fill-opacity="0.18"/>
<path fill-rule="evenodd" clip-rule="evenodd" d="M2.78997 43.7089C2.38018 42.8859 2.15002 41.9584 2.15002 40.977C2.15002 37.5847 4.90445 34.8303 8.29678 34.8303C8.78579 34.8303 9.26182 34.8876 9.71805 34.9955C10.9303 32.4747 13.5092 30.7324 16.4925 30.7324C20.6388 30.7324 24.0052 34.0988 24.0052 38.2451C24.0052 38.9595 23.9054 39.6507 23.7183 40.3057C23.8132 40.2981 23.9089 40.294 24.0052 40.294C25.8902 40.294 27.42 41.8239 27.42 43.7089H2.78997Z" fill="#0093D3" stroke="white" stroke-width="0.0416898" stroke-miterlimit="1.5" stroke-linecap="round" stroke-linejoin="round"/>
<path fill-rule="evenodd" clip-rule="evenodd" d="M14.1281 25.782C14.2431 22.018 17.3341 18.998 21.1251 18.998C24.9161 18.998 28.0071 22.018 28.1221 25.782H14.1281ZM21.1251 10.998C23.3331 10.998 25.1251 12.79 25.1251 14.998C25.1251 17.206 23.3331 18.998 21.1251 18.998C18.9171 18.998 17.1251 17.206 17.1251 14.998C17.1251 12.79 18.9171 10.998 21.1251 10.998Z" fill="#0093D3"/>
<path fill-rule="evenodd" clip-rule="evenodd" d="M34.8263 35.9226C34.9024 33.4316 36.948 31.433 39.4569 31.433C41.9657 31.433 44.0113 33.4316 44.0874 35.9226H34.8263ZM39.4569 26.1387C40.9181 26.1387 42.104 27.3246 42.104 28.7858C42.104 30.2471 40.9181 31.433 39.4569 31.433C37.9956 31.433 36.8097 30.2471 36.8097 28.7858C36.8097 27.3246 37.9956 26.1387 39.4569 26.1387Z" fill="#00447A"/>
</svg>
