<svg width="48" height="48" viewBox="0 0 48 48" fill="none" xmlns="http://www.w3.org/2000/svg">
<path d="M33.5988 33.457H19.7988V39.8602H33.5988V33.457Z" fill="#00669B"/>
<path fill-rule="evenodd" clip-rule="evenodd" d="M46.25 7.58008C46.25 5.99369 44.962 4.70508 43.375 4.70508H8.875C7.288 4.70508 6 5.99369 6 7.58008V30.5801C6 32.1665 7.288 33.4551 8.875 33.4551H43.375C44.962 33.4551 46.25 32.1665 46.25 30.5801V7.58008Z" fill="#00669B"/>
<path fill-rule="evenodd" clip-rule="evenodd" d="M45.1014 7.70502C45.1014 6.68291 44.2719 5.85352 43.2494 5.85352H9.00333C7.98085 5.85352 7.15137 6.68291 7.15137 7.70502V30.452C7.15137 31.4741 7.98085 32.3035 9.00333 32.3035H43.2494C44.2719 32.3035 45.1014 31.4741 45.1014 30.452V7.70502Z" fill="white"/>
<path fill-rule="evenodd" clip-rule="evenodd" d="M19.7988 33.457V38.057L33.5988 33.457H19.7988Z" fill="#003964"/>
<path d="M38.1992 38.0566H15.1992V39.8598H38.1992V38.0566Z" fill="#003964"/>
<path fill-rule="evenodd" clip-rule="evenodd" d="M22.6875 25.782C22.8025 22.018 25.8935 18.998 29.6845 18.998C33.4755 18.998 36.5665 22.018 36.6815 25.782H22.6875ZM29.6845 10.998C31.8925 10.998 33.6845 12.79 33.6845 14.998C33.6845 17.206 31.8925 18.998 29.6845 18.998C27.4765 18.998 25.6845 17.206 25.6845 14.998C25.6845 12.79 27.4765 10.998 29.6845 10.998Z" fill="#0093D3"/>
<path d="M33.7012 1.99805H20.7012V7.99805H33.7012V1.99805Z" fill="#00447A"/>
<path d="M27.2021 6.49805C28.0306 6.49805 28.7021 5.82647 28.7021 4.99805C28.7021 4.16962 28.0306 3.49805 27.2021 3.49805C26.3737 3.49805 25.7021 4.16962 25.7021 4.99805C25.7021 5.82647 26.3737 6.49805 27.2021 6.49805Z" fill="white"/>
<path fill-rule="evenodd" clip-rule="evenodd" d="M2.79785 40.8602C2.99842 34.2956 8.38928 29.0286 15.001 29.0286C21.6127 29.0286 27.0035 34.2956 27.2041 40.8602H2.79785ZM15.001 15.0762C18.8518 15.0762 21.9772 18.2015 21.9772 22.0524C21.9772 25.9032 18.8518 29.0286 15.001 29.0286C11.1501 29.0286 8.02477 25.9032 8.02477 22.0524C8.02477 18.2015 11.1501 15.0762 15.001 15.0762Z" fill="url(#paint0_linear)" stroke="white" stroke-width="0.0417845" stroke-miterlimit="1.5" stroke-linecap="round" stroke-linejoin="round"/>
<defs>
<linearGradient id="paint0_linear" x1="15.001" y1="27.968" x2="27.2036" y2="27.968" gradientUnits="userSpaceOnUse">
<stop stop-color="#003EC8"/>
<stop offset="1" stop-color="#00447A"/>
</linearGradient>
</defs>
</svg>
