<?xml version="1.0" encoding="UTF-8" standalone="no"?>
<!DOCTYPE svg PUBLIC "-//W3C//DTD SVG 1.1//EN" "http://www.w3.org/Graphics/SVG/1.1/DTD/svg11.dtd">
<svg width="100%" height="100%" viewBox="0 0 24 24" version="1.1" xmlns="http://www.w3.org/2000/svg" xmlns:xlink="http://www.w3.org/1999/xlink" xml:space="preserve" xmlns:serif="http://www.serif.com/" style="fill-rule:evenodd;clip-rule:evenodd;stroke-linejoin:round;stroke-miterlimit:2;">
    <g id="Recruiters">
        <g transform="matrix(0.2302,0,0,0.2302,0.489982,0.256415)">
            <path d="M52,5C52,5 45.056,8.222 49,15C52.944,21.778 49.937,28.584 49,30C48.063,31.416 44.428,38.566 50,42C55.572,45.434 55,53 55,53L41,53L54,68L92,68L81,51C81,51 73.807,39.831 63,37C63,37 77.966,12.253 52,5Z" style="fill:rgb(117,204,255);"/>
        </g>
        <g transform="matrix(0.2302,0,0,0.2302,0.489982,0.256415)">
            <path d="M84,74L84,89L62,89L62,75L84,74Z" style="fill:rgb(117,204,255);"/>
        </g>
        <g transform="matrix(0.2302,0,0,0.2302,0.489982,0.256415)">
            <path d="M16.854,74.617L78.83,74.617L78.83,90.111L74.404,90.111L74.404,85.684L21.281,85.684L21.281,90.111L16.854,90.111L16.854,74.617ZM74.287,79.044L21.281,79.044L21.281,81.257L74.287,81.257L74.287,79.044ZM21.951,54.696C24.109,45.68 30.87,38.444 39.608,35.616C34.96,32.831 31.847,27.745 31.847,21.937C31.847,13.141 38.988,6 47.784,6C56.58,6 63.721,13.141 63.721,21.937C63.721,27.745 60.607,32.831 55.96,35.616C64.697,38.444 71.459,45.68 73.617,54.696L81.044,54.696L87.684,72.404L8,72.404L14.64,54.696L21.951,54.696ZM77.724,59.123L17.961,59.123L14.64,67.977L81.044,67.977L77.724,59.123ZM69.958,54.696C67.249,44.997 58.342,37.874 47.784,37.874C37.226,37.874 28.318,44.997 25.609,54.696L69.958,54.696ZM47.784,9.542C54.625,9.542 60.179,15.096 60.179,21.937C60.179,28.778 54.625,34.332 47.784,34.332C40.943,34.332 35.388,28.778 35.388,21.937C35.388,15.096 40.943,9.542 47.784,9.542Z"/>
        </g>
    </g>
</svg>
